<svg width="80" height="104" viewBox="0 0 80 104" fill="none" xmlns="http://www.w3.org/2000/svg">
<circle cx="40" cy="40" r="40" fill="#F10000"/>
<path d="M3.90199 100H2.42472L6.69744 88.3636H8.15199L12.4247 100H10.9474L7.47017 90.2045H7.37926L3.90199 100ZM4.44744 95.4545H10.402V96.7045H4.44744V95.4545ZM15.3963 94.75V100H14.0554V91.2727H15.3509V92.6364H15.4645C15.669 92.1932 15.9796 91.8371 16.3963 91.5682C16.813 91.2955 17.3509 91.1591 18.0099 91.1591C18.6009 91.1591 19.1179 91.2803 19.5611 91.5227C20.0043 91.7614 20.349 92.125 20.5952 92.6136C20.8414 93.0985 20.9645 93.7121 20.9645 94.4545V100H19.6236V94.5455C19.6236 93.8598 19.4455 93.3258 19.0895 92.9432C18.7334 92.5568 18.2448 92.3636 17.6236 92.3636C17.1955 92.3636 16.813 92.4564 16.4759 92.642C16.1425 92.8277 15.8793 93.0985 15.6861 93.4545C15.4929 93.8106 15.3963 94.2424 15.3963 94.75ZM26.9375 103.455C26.2898 103.455 25.733 103.371 25.267 103.205C24.8011 103.042 24.4129 102.826 24.1023 102.557C23.7955 102.292 23.5511 102.008 23.3693 101.705L24.4375 100.955C24.5587 101.114 24.7121 101.295 24.8977 101.5C25.0833 101.708 25.3371 101.888 25.6591 102.04C25.9848 102.195 26.411 102.273 26.9375 102.273C27.642 102.273 28.2235 102.102 28.6818 101.761C29.1402 101.42 29.3693 100.886 29.3693 100.159V98.3864H29.2557C29.1572 98.5455 29.017 98.7424 28.8352 98.9773C28.6572 99.2083 28.3996 99.4148 28.0625 99.5966C27.7292 99.7746 27.2784 99.8636 26.7102 99.8636C26.0057 99.8636 25.3731 99.697 24.8125 99.3636C24.2557 99.0303 23.8144 98.5455 23.4886 97.9091C23.1667 97.2727 23.0057 96.5 23.0057 95.5909C23.0057 94.697 23.1629 93.9186 23.4773 93.2557C23.7917 92.589 24.2292 92.0739 24.7898 91.7102C25.3504 91.3428 25.9981 91.1591 26.733 91.1591C27.3011 91.1591 27.7519 91.2538 28.0852 91.4432C28.4223 91.6288 28.6799 91.8409 28.858 92.0795C29.0398 92.3144 29.1799 92.5076 29.2784 92.6591H29.4148V91.2727H30.7102V100.25C30.7102 101 30.5398 101.61 30.1989 102.08C29.8617 102.553 29.4072 102.9 28.8352 103.119C28.267 103.343 27.6345 103.455 26.9375 103.455ZM26.892 98.6591C27.4299 98.6591 27.8845 98.536 28.2557 98.2898C28.6269 98.0436 28.9091 97.6894 29.1023 97.2273C29.2955 96.7652 29.392 96.2121 29.392 95.5682C29.392 94.9394 29.2973 94.3845 29.108 93.9034C28.9186 93.4223 28.6383 93.0455 28.267 92.7727C27.8958 92.5 27.4375 92.3636 26.892 92.3636C26.3239 92.3636 25.8504 92.5076 25.4716 92.7955C25.0966 93.0833 24.8144 93.4697 24.625 93.9545C24.4394 94.4394 24.3466 94.9773 24.3466 95.5682C24.3466 96.1742 24.4413 96.7102 24.6307 97.1761C24.8239 97.6383 25.108 98.0019 25.483 98.267C25.8617 98.5284 26.3314 98.6591 26.892 98.6591ZM34.5057 88.3636V100H33.1648V88.3636H34.5057ZM42.4616 96.4318V91.2727H43.8026V100H42.4616V98.5227H42.3707C42.1662 98.9659 41.848 99.3428 41.4162 99.6534C40.9844 99.9602 40.4389 100.114 39.7798 100.114C39.2344 100.114 38.7495 99.9943 38.3253 99.7557C37.901 99.5133 37.5677 99.1496 37.3253 98.6648C37.0829 98.1761 36.9616 97.5606 36.9616 96.8182V91.2727H38.3026V96.7273C38.3026 97.3636 38.4806 97.8712 38.8366 98.25C39.1965 98.6288 39.6548 98.8182 40.2116 98.8182C40.545 98.8182 40.884 98.733 41.2287 98.5625C41.5772 98.392 41.8688 98.1307 42.1037 97.7784C42.3423 97.4261 42.4616 96.9773 42.4616 96.4318ZM48.8267 100.205C48.2737 100.205 47.7718 100.1 47.321 99.892C46.8703 99.6799 46.5123 99.375 46.2472 98.9773C45.982 98.5758 45.8494 98.0909 45.8494 97.5227C45.8494 97.0227 45.9479 96.6174 46.1449 96.3068C46.3419 95.9924 46.6051 95.7462 46.9347 95.5682C47.2642 95.3902 47.6278 95.2576 48.0256 95.1705C48.4271 95.0795 48.8305 95.0076 49.2358 94.9545C49.7661 94.8864 50.196 94.8352 50.5256 94.8011C50.8589 94.7633 51.1013 94.7008 51.2528 94.6136C51.4081 94.5265 51.4858 94.375 51.4858 94.1591V94.1136C51.4858 93.553 51.3324 93.1174 51.0256 92.8068C50.7225 92.4962 50.2623 92.3409 49.6449 92.3409C49.0047 92.3409 48.5028 92.4811 48.1392 92.7614C47.7756 93.0417 47.5199 93.3409 47.3722 93.6591L46.0994 93.2045C46.3267 92.6742 46.6297 92.2614 47.0085 91.9659C47.3911 91.6667 47.8078 91.4583 48.2585 91.3409C48.7131 91.2197 49.16 91.1591 49.5994 91.1591C49.8797 91.1591 50.2017 91.1932 50.5653 91.2614C50.9328 91.3258 51.2869 91.4602 51.6278 91.6648C51.9725 91.8693 52.2585 92.178 52.4858 92.5909C52.7131 93.0038 52.8267 93.5568 52.8267 94.25V100H51.4858V98.8182H51.4176C51.3267 99.0076 51.1752 99.2102 50.9631 99.4261C50.7509 99.642 50.4688 99.8258 50.1165 99.9773C49.7642 100.129 49.3343 100.205 48.8267 100.205ZM49.0312 99C49.5616 99 50.0085 98.8958 50.3722 98.6875C50.7396 98.4792 51.0161 98.2102 51.2017 97.8807C51.3911 97.5511 51.4858 97.2045 51.4858 96.8409V95.6136C51.429 95.6818 51.304 95.7443 51.1108 95.8011C50.9214 95.8542 50.7017 95.9015 50.4517 95.9432C50.2055 95.9811 49.965 96.0152 49.7301 96.0455C49.4991 96.072 49.3116 96.0947 49.1676 96.1136C48.8191 96.1591 48.4934 96.233 48.1903 96.3352C47.8911 96.4337 47.6487 96.5833 47.4631 96.7841C47.2813 96.9811 47.1903 97.25 47.1903 97.5909C47.1903 98.0568 47.3627 98.4091 47.7074 98.6477C48.0559 98.8826 48.4972 99 49.0312 99ZM55.2741 100V91.2727H56.5696V92.5909H56.6605C56.8196 92.1591 57.1075 91.8087 57.5241 91.5398C57.9408 91.2708 58.4105 91.1364 58.9332 91.1364C59.0317 91.1364 59.1548 91.1383 59.3026 91.142C59.4503 91.1458 59.562 91.1515 59.6378 91.1591V92.5227C59.5923 92.5114 59.4882 92.4943 59.3253 92.4716C59.1662 92.4451 58.9976 92.4318 58.8196 92.4318C58.3954 92.4318 58.0166 92.5208 57.6832 92.6989C57.3537 92.8731 57.0923 93.1155 56.8991 93.4261C56.7098 93.733 56.6151 94.0833 56.6151 94.4773V100H55.2741ZM64.9574 88.3636H66.3665V96.6818C66.3665 97.4242 66.2301 98.0549 65.9574 98.5739C65.6847 99.0928 65.3002 99.4867 64.804 99.7557C64.3078 100.025 63.7225 100.159 63.0483 100.159C62.4119 100.159 61.8456 100.044 61.3494 99.8125C60.8532 99.5777 60.4631 99.2443 60.179 98.8125C59.8949 98.3807 59.7528 97.8674 59.7528 97.2727H61.1392C61.1392 97.6023 61.2206 97.8902 61.3835 98.1364C61.5502 98.3788 61.7775 98.5682 62.0653 98.7045C62.3532 98.8409 62.6809 98.9091 63.0483 98.9091C63.4536 98.9091 63.7983 98.8239 64.0824 98.6534C64.3665 98.483 64.5824 98.233 64.7301 97.9034C64.8816 97.5701 64.9574 97.1629 64.9574 96.6818V88.3636ZM75.554 91.2727C75.4858 90.697 75.2093 90.25 74.7244 89.9318C74.2396 89.6136 73.6449 89.4545 72.9403 89.4545C72.4252 89.4545 71.9744 89.5379 71.5881 89.7045C71.2055 89.8712 70.9063 90.1004 70.6903 90.392C70.4782 90.6837 70.3722 91.0152 70.3722 91.3864C70.3722 91.697 70.446 91.964 70.5938 92.1875C70.7453 92.4072 70.9384 92.5909 71.1733 92.7386C71.4081 92.8826 71.6544 93.0019 71.9119 93.0966C72.1695 93.1875 72.4062 93.2614 72.6222 93.3182L73.804 93.6364C74.107 93.7159 74.4441 93.8258 74.8153 93.9659C75.1903 94.1061 75.5483 94.2973 75.8892 94.5398C76.2339 94.7784 76.518 95.0852 76.7415 95.4602C76.965 95.8352 77.0767 96.2955 77.0767 96.8409C77.0767 97.4697 76.9119 98.0379 76.5824 98.5455C76.2566 99.053 75.7794 99.4564 75.1506 99.7557C74.5256 100.055 73.7661 100.205 72.8722 100.205C72.0388 100.205 71.3172 100.07 70.7074 99.8011C70.1013 99.5322 69.6241 99.1572 69.2756 98.6761C68.9309 98.1951 68.7358 97.6364 68.6903 97H70.1449C70.1828 97.4394 70.3305 97.803 70.5881 98.0909C70.8494 98.375 71.179 98.5871 71.5767 98.7273C71.9782 98.8636 72.41 98.9318 72.8722 98.9318C73.41 98.9318 73.893 98.8447 74.321 98.6705C74.7491 98.4924 75.0881 98.2462 75.3381 97.9318C75.5881 97.6136 75.7131 97.2424 75.7131 96.8182C75.7131 96.4318 75.6051 96.1174 75.3892 95.875C75.1733 95.6326 74.8892 95.4356 74.5369 95.2841C74.1847 95.1326 73.804 95 73.3949 94.8864L71.9631 94.4773C71.054 94.2159 70.3343 93.8428 69.804 93.358C69.2737 92.8731 69.0085 92.2386 69.0085 91.4545C69.0085 90.803 69.1847 90.2348 69.5369 89.75C69.893 89.2614 70.3703 88.8826 70.9688 88.6136C71.571 88.3409 72.2434 88.2045 72.9858 88.2045C73.7358 88.2045 74.4025 88.339 74.9858 88.608C75.5691 88.8731 76.0313 89.2367 76.3722 89.6989C76.7169 90.161 76.8987 90.6856 76.9176 91.2727H75.554Z" fill="#F10000"/>
<path d="M35.7563 45.5569H45.2266L40.4914 33.6996L35.7563 45.5569ZM40.4914 15.0181L14.5761 24.6371L18.5241 60.3016L40.4914 72.9801L62.4673 60.3216L66.4153 24.6371L40.4914 15.0272V15.0181ZM56.6666 59.2359H50.6234L47.3647 50.7769H33.6147L30.3559 59.2359H24.3128L40.488 21.4181L56.6666 59.2359Z" fill="white"/>
</svg>
