<svg width="80" height="107" viewBox="0 0 80 107" fill="none" xmlns="http://www.w3.org/2000/svg">
<circle cx="40" cy="40" r="40" fill="#0031AF"/>
<path d="M19 19H64L59.9071 63.9229L41.4507 69L23.0971 63.9208L19 19ZM55.6214 28.1937L27.3786 28.1875L27.835 33.65L49.5314 33.6542L48.985 39.3125H34.7564L35.2707 44.6729H48.5179L47.7336 52.0125L41.4979 53.6875L35.1636 52L34.7607 47.6042H29.1679L29.7893 55.6354L41.5 59.1833L53.0136 55.9958L55.6214 28.1937Z" fill="white"/>
<path d="M34.093 94H32.5077C32.414 93.544 32.2499 93.1435 32.0155 92.7983C31.7854 92.4531 31.5042 92.1634 31.1718 91.929C30.8437 91.6903 30.4793 91.5114 30.0787 91.392C29.6782 91.2727 29.2606 91.2131 28.8259 91.2131C28.0333 91.2131 27.3153 91.4134 26.6718 91.8139C26.0326 92.2145 25.5233 92.8047 25.1441 93.5845C24.7691 94.3643 24.5816 95.321 24.5816 96.4545C24.5816 97.5881 24.7691 98.5447 25.1441 99.3246C25.5233 100.104 26.0326 100.695 26.6718 101.095C27.3153 101.496 28.0333 101.696 28.8259 101.696C29.2606 101.696 29.6782 101.636 30.0787 101.517C30.4793 101.398 30.8437 101.221 31.1718 100.987C31.5042 100.748 31.7854 100.456 32.0155 100.111C32.2499 99.7614 32.414 99.3608 32.5077 98.9091H34.093C33.9736 99.5781 33.7563 100.177 33.441 100.705C33.1256 101.234 32.7336 101.683 32.2648 102.054C31.7961 102.42 31.2698 102.7 30.686 102.891C30.1064 103.083 29.4864 103.179 28.8259 103.179C27.7094 103.179 26.7165 102.906 25.8472 102.361C24.9779 101.815 24.2939 101.04 23.7954 100.034C23.2968 99.0284 23.0475 97.8352 23.0475 96.4545C23.0475 95.0739 23.2968 93.8807 23.7954 92.875C24.2939 91.8693 24.9779 91.0938 25.8472 90.5483C26.7165 90.0028 27.7094 89.7301 28.8259 89.7301C29.4864 89.7301 30.1064 89.826 30.686 90.0178C31.2698 90.2095 31.7961 90.4908 32.2648 90.8615C32.7336 91.228 33.1256 91.6754 33.441 92.2038C33.7563 92.728 33.9736 93.3267 34.093 94ZM43.8137 93.1818C43.7369 92.5341 43.4259 92.0312 42.8804 91.6733C42.335 91.3153 41.6659 91.1364 40.8733 91.1364C40.2938 91.1364 39.7867 91.2301 39.352 91.4176C38.9216 91.6051 38.585 91.8629 38.3421 92.1911C38.1034 92.5192 37.9841 92.892 37.9841 93.3097C37.9841 93.6591 38.0672 93.9595 38.2334 94.2109C38.4039 94.4581 38.6212 94.6648 38.8854 94.831C39.1496 94.9929 39.4266 95.1271 39.7164 95.2337C40.0061 95.3359 40.2725 95.419 40.5154 95.483L41.8449 95.8409C42.1858 95.9304 42.5651 96.054 42.9827 96.2116C43.4046 96.3693 43.8073 96.5845 44.1908 96.8572C44.5786 97.1257 44.8982 97.4709 45.1496 97.8928C45.401 98.3146 45.5267 98.8324 45.5267 99.446C45.5267 100.153 45.3414 100.793 44.9706 101.364C44.6041 101.935 44.0672 102.388 43.3598 102.725C42.6567 103.062 41.8023 103.23 40.7966 103.23C39.8591 103.23 39.0473 103.079 38.3612 102.776C37.6794 102.474 37.1425 102.052 36.7504 101.511C36.3627 100.969 36.1432 100.341 36.0921 99.625H37.7284C37.771 100.119 37.9372 100.528 38.227 100.852C38.521 101.172 38.8918 101.411 39.3392 101.568C39.7909 101.722 40.2767 101.798 40.7966 101.798C41.4017 101.798 41.945 101.7 42.4266 101.504C42.9081 101.304 43.2895 101.027 43.5708 100.673C43.852 100.315 43.9926 99.8977 43.9926 99.4205C43.9926 98.9858 43.8712 98.6321 43.6283 98.3594C43.3854 98.0866 43.0658 97.8651 42.6695 97.6946C42.2732 97.5241 41.8449 97.375 41.3847 97.2472L39.7739 96.7869C38.7512 96.4929 37.9415 96.0732 37.3449 95.5277C36.7483 94.9822 36.45 94.2685 36.45 93.3864C36.45 92.6534 36.6482 92.0142 37.0445 91.4688C37.445 90.919 37.982 90.4929 38.6553 90.1903C39.3328 89.8835 40.0892 89.7301 40.9244 89.7301C41.7682 89.7301 42.5182 89.8814 43.1744 90.1839C43.8307 90.4822 44.3506 90.8913 44.7341 91.4112C45.1219 91.9311 45.3264 92.5213 45.3477 93.1818H43.8137ZM55.2922 93.1818C55.2155 92.5341 54.9044 92.0312 54.3589 91.6733C53.8135 91.3153 53.1444 91.1364 52.3518 91.1364C51.7723 91.1364 51.2652 91.2301 50.8305 91.4176C50.4001 91.6051 50.0635 91.8629 49.8206 92.1911C49.5819 92.5192 49.4626 92.892 49.4626 93.3097C49.4626 93.6591 49.5457 93.9595 49.7119 94.2109C49.8824 94.4581 50.0997 94.6648 50.3639 94.831C50.6281 94.9929 50.9051 95.1271 51.1949 95.2337C51.4846 95.3359 51.751 95.419 51.9939 95.483L53.3234 95.8409C53.6643 95.9304 54.0436 96.054 54.4612 96.2116C54.8831 96.3693 55.2858 96.5845 55.6693 96.8572C56.0571 97.1257 56.3767 97.4709 56.6281 97.8928C56.8795 98.3146 57.0052 98.8324 57.0052 99.446C57.0052 100.153 56.8199 100.793 56.4491 101.364C56.0827 101.935 55.5457 102.388 54.8383 102.725C54.1352 103.062 53.2808 103.23 52.2751 103.23C51.3376 103.23 50.5258 103.079 49.8398 102.776C49.1579 102.474 48.621 102.052 48.229 101.511C47.8412 100.969 47.6217 100.341 47.5706 99.625H49.2069C49.2496 100.119 49.4157 100.528 49.7055 100.852C49.9996 101.172 50.3703 101.411 50.8177 101.568C51.2694 101.722 51.7552 101.798 52.2751 101.798C52.8802 101.798 53.4236 101.7 53.9051 101.504C54.3866 101.304 54.768 101.027 55.0493 100.673C55.3305 100.315 55.4711 99.8977 55.4711 99.4205C55.4711 98.9858 55.3497 98.6321 55.1068 98.3594C54.8639 98.0866 54.5443 97.8651 54.148 97.6946C53.7517 97.5241 53.3234 97.375 52.8632 97.2472L51.2524 96.7869C50.2297 96.4929 49.42 96.0732 48.8234 95.5277C48.2268 94.9822 47.9285 94.2685 47.9285 93.3864C47.9285 92.6534 48.1267 92.0142 48.523 91.4688C48.9236 90.919 49.4605 90.4929 50.1338 90.1903C50.8113 89.8835 51.5677 89.7301 52.403 89.7301C53.2467 89.7301 53.9967 89.8814 54.653 90.1839C55.3092 90.4822 55.8291 90.8913 56.2126 91.4112C56.6004 91.9311 56.805 92.5213 56.8263 93.1818H55.2922Z" fill="#0031AF"/>
</svg>
