<svg width="80" height="107" viewBox="0 0 80 107" fill="none" xmlns="http://www.w3.org/2000/svg">
<circle cx="40" cy="40" r="40" fill="#FF4242"/>
<g clip-path="url(#clip0_4_126)">
<path fill-rule="evenodd" clip-rule="evenodd" d="M17.0833 41C17.0833 28.3437 27.3437 18.0833 40 18.0833C52.6562 18.0833 62.9166 28.3437 62.9166 41C62.9166 53.6562 52.6562 63.9167 40 63.9167C27.3437 63.9167 17.0833 53.6562 17.0833 41ZM45.8333 35.5833C45.5018 35.1413 45.0083 34.8491 44.4613 34.7709C43.9143 34.6928 43.3587 34.8351 42.9166 35.1667C42.4746 35.4982 42.1824 35.9917 42.1043 36.5387C42.0261 37.0857 42.1685 37.6413 42.5 38.0833L44.6875 41L42.5 43.9167C42.1685 44.3587 42.0261 44.9143 42.1043 45.4613C42.1824 46.0083 42.4746 46.5018 42.9166 46.8333C43.3587 47.1649 43.9143 47.3072 44.4613 47.2291C45.0083 47.1509 45.5018 46.8587 45.8333 46.4167L47.2916 44.4729L48.75 46.4167C49.0815 46.8587 49.575 47.1509 50.122 47.2291C50.3929 47.2677 50.6687 47.2527 50.9337 47.1848C51.1987 47.1169 51.4478 46.9975 51.6666 46.8333C51.8855 46.6692 52.0699 46.4635 52.2093 46.2281C52.3487 45.9927 52.4404 45.7321 52.479 45.4613C52.5177 45.1905 52.5027 44.9146 52.4348 44.6496C52.3669 44.3846 52.2475 44.1355 52.0833 43.9167L49.8958 41L52.0833 38.0833C52.4148 37.6413 52.5572 37.0857 52.479 36.5387C52.4009 35.9917 52.1087 35.4982 51.6666 35.1667C51.4478 35.0025 51.1987 34.8831 50.9337 34.8152C50.6687 34.7473 50.3929 34.7322 50.122 34.7709C49.575 34.8491 49.0815 35.1413 48.75 35.5833L47.2916 37.5271L45.8333 35.5833ZM31.6666 36.8333C31.6666 36.2808 31.4472 35.7509 31.0565 35.3602C30.6658 34.9695 30.1358 34.75 29.5833 34.75C29.0308 34.75 28.5009 34.9695 28.1102 35.3602C27.7195 35.7509 27.5 36.2808 27.5 36.8333V41C27.5 42.0271 27.7916 43.5229 28.725 44.8208C29.7375 46.2292 31.4041 47.25 33.75 47.25C36.0958 47.25 37.7625 46.225 38.775 44.8208C39.7083 43.5229 40 42.0292 40 41V36.8333C40 36.2808 39.7805 35.7509 39.3898 35.3602C38.9991 34.9695 38.4692 34.75 37.9166 34.75C37.3641 34.75 36.8342 34.9695 36.4435 35.3602C36.0528 35.7509 35.8333 36.2808 35.8333 36.8333V41C35.8333 41.3604 35.7083 41.95 35.3916 42.3875C35.1541 42.7187 34.7375 43.0833 33.75 43.0833C32.7625 43.0833 32.3458 42.7187 32.1083 42.3875C31.831 41.977 31.6777 41.4953 31.6666 41V36.8333Z" fill="white"/>
</g>
<path d="M37.7308 89.9091H39.3161V98.5767C39.3161 99.4716 39.1051 100.271 38.6832 100.974C38.2656 101.673 37.6754 102.224 36.9126 102.629C36.1499 103.03 35.255 103.23 34.228 103.23C33.201 103.23 32.3061 103.03 31.5433 102.629C30.7805 102.224 30.1882 101.673 29.7663 100.974C29.3487 100.271 29.1399 99.4716 29.1399 98.5767V89.9091H30.7251V98.4489C30.7251 99.0881 30.8658 99.657 31.147 100.156C31.4283 100.65 31.8288 101.04 32.3487 101.325C32.8729 101.607 33.4993 101.747 34.228 101.747C34.9567 101.747 35.5831 101.607 36.1072 101.325C36.6314 101.04 37.032 100.65 37.3089 100.156C37.5902 99.657 37.7308 99.0881 37.7308 98.4489V89.9091ZM43.2488 89.9091L46.6238 95.3551H46.726L50.101 89.9091H51.9675L47.851 96.4545L51.9675 103H50.101L46.726 97.6562H46.6238L43.2488 103H41.3823L45.601 96.4545L41.3823 89.9091H43.2488Z" fill="#FF4242"/>
<defs>
<clipPath id="clip0_4_126">
<rect width="50" height="50" fill="white" transform="translate(16 18)"/>
</clipPath>
</defs>
</svg>
