<svg width="80" height="107" viewBox="0 0 80 107" fill="none" xmlns="http://www.w3.org/2000/svg">
<circle cx="40" cy="40" r="40" fill="#5C5151"/>
<g clip-path="url(#clip0_13_410)">
<g clip-path="url(#clip1_13_410)">
<path d="M37.929 62.5262C37.8635 64.2714 27.4119 60.7728 21.8561 56.4293C38.1587 73.9075 65.9247 62.4137 67 42.0518C63.6859 52.0457 50.3521 53.913 37.3311 45.6478C21.5449 34.6329 25.4137 17.9098 41.4984 16.3459C52.2124 15.622 63.2505 24.5918 59.5674 31.617C55.0731 39.4959 39.9194 33.1825 41.1227 25.0393C41.398 22.4214 44.1723 20.7945 43.3661 23.4347C41.4018 29.4308 53.1797 33.952 55.8397 28.2756C58.3717 22.0306 43.9844 17.3463 39.4646 21.5243C28.0879 32.454 54.8296 46.5079 62.2425 35.8096C67.5178 27.7694 55.2279 14.4508 41.2914 15.0176C18.7745 15.3377 9.53671 39.3062 23.8355 53.1305C31.9855 60.7523 38.1304 61.3651 37.929 62.526V62.5262Z" fill="white"/>
</g>
</g>
<path d="M13.1662 91.3153V89.9091H22.9844V91.3153H18.8679V103H17.2827V91.3153H13.1662ZM24.2069 103V93.1818H25.6642V94.6648H25.7665C25.9455 94.179 26.2694 93.7848 26.7381 93.4822C27.2069 93.1797 27.7353 93.0284 28.3233 93.0284C28.4341 93.0284 28.5726 93.0305 28.7388 93.0348C28.905 93.0391 29.0307 93.0455 29.1159 93.054V94.5881C29.0648 94.5753 28.9476 94.5561 28.7644 94.5305C28.5854 94.5007 28.3958 94.4858 28.1955 94.4858C27.7182 94.4858 27.2921 94.5859 26.9171 94.7862C26.5463 94.9822 26.2523 95.255 26.035 95.6044C25.8219 95.9496 25.7154 96.3437 25.7154 96.7869V103H24.2069ZM37.0916 98.9858V93.1818H38.6001V103H37.0916V101.338H36.9893C36.7592 101.837 36.4013 102.261 35.9155 102.61C35.4297 102.955 34.8161 103.128 34.0746 103.128C33.4609 103.128 32.9155 102.994 32.4382 102.725C31.9609 102.452 31.5859 102.043 31.3132 101.498C31.0405 100.948 30.9041 100.256 30.9041 99.4205V93.1818H32.4126V99.3182C32.4126 100.034 32.6129 100.605 33.0135 101.031C33.4183 101.457 33.9339 101.67 34.5604 101.67C34.9354 101.67 35.3168 101.575 35.7045 101.383C36.0966 101.191 36.4247 100.897 36.6889 100.501C36.9574 100.104 37.0916 99.5994 37.0916 98.9858ZM45.7353 93.1818V94.4602H40.4426V93.1818H45.7353ZM42.0279 103V91.8267C42.0279 91.2642 42.16 90.7955 42.4242 90.4205C42.6884 90.0455 43.0314 89.7642 43.4533 89.5767C43.8752 89.3892 44.3205 89.2955 44.7892 89.2955C45.16 89.2955 45.4625 89.3253 45.6969 89.3849C45.9313 89.4446 46.106 89.5 46.2211 89.5511L45.7864 90.8551C45.7097 90.8295 45.6032 90.7976 45.4668 90.7592C45.3347 90.7209 45.16 90.7017 44.9426 90.7017C44.4441 90.7017 44.084 90.8274 43.8624 91.0788C43.6451 91.3303 43.5364 91.6989 43.5364 92.1847V103H42.0279ZM52.2216 93.1818V94.4602H46.929V93.1818H52.2216ZM48.5142 103V91.8267C48.5142 91.2642 48.6463 90.7955 48.9105 90.4205C49.1747 90.0455 49.5178 89.7642 49.9396 89.5767C50.3615 89.3892 50.8068 89.2955 51.2756 89.2955C51.6463 89.2955 51.9489 89.3253 52.1832 89.3849C52.4176 89.4446 52.5923 89.5 52.7074 89.5511L52.2727 90.8551C52.196 90.8295 52.0895 90.7976 51.9531 90.7592C51.821 90.7209 51.6463 90.7017 51.429 90.7017C50.9304 90.7017 50.5703 90.8274 50.3487 91.0788C50.1314 91.3303 50.0227 91.6989 50.0227 92.1847V103H48.5142ZM55.8443 89.9091V103H54.3358V89.9091H55.8443ZM62.7237 103.205C61.7777 103.205 60.9616 102.996 60.2756 102.578C59.5938 102.156 59.0675 101.568 58.6967 100.814C58.3303 100.055 58.147 99.1733 58.147 98.1676C58.147 97.1619 58.3303 96.2756 58.6967 95.5085C59.0675 94.7372 59.5831 94.1364 60.2436 93.706C60.9084 93.2713 61.6839 93.054 62.5703 93.054C63.0817 93.054 63.5866 93.1392 64.0852 93.3097C64.5838 93.4801 65.0376 93.7571 65.4467 94.1406C65.8558 94.5199 66.1818 95.0227 66.4247 95.6491C66.6676 96.2756 66.7891 97.0469 66.7891 97.9631V98.6023H59.2209V97.2983H65.255C65.255 96.7443 65.1442 96.25 64.9226 95.8153C64.7053 95.3807 64.3942 95.0376 63.9893 94.7862C63.5888 94.5348 63.1158 94.4091 62.5703 94.4091C61.9695 94.4091 61.4496 94.5582 61.0107 94.8565C60.576 95.1506 60.2415 95.5341 60.0071 96.0071C59.7727 96.4801 59.6555 96.9872 59.6555 97.5284V98.3977C59.6555 99.1392 59.7834 99.7678 60.0391 100.283C60.299 100.795 60.6591 101.185 61.1193 101.453C61.5795 101.717 62.1143 101.849 62.7237 101.849C63.12 101.849 63.478 101.794 63.7976 101.683C64.1214 101.568 64.4006 101.398 64.6349 101.172C64.8693 100.942 65.0504 100.656 65.1783 100.315L66.6357 100.724C66.4822 101.219 66.2244 101.653 65.8622 102.028C65.5 102.399 65.0526 102.689 64.5199 102.898C63.9872 103.102 63.3885 103.205 62.7237 103.205Z" fill="#5C5151"/>
<defs>
<clipPath id="clip0_13_410">
<rect width="50" height="50" fill="white" transform="translate(16 15)"/>
</clipPath>
<clipPath id="clip1_13_410">
<rect width="50" height="50" fill="white" transform="translate(17 15)"/>
</clipPath>
</defs>
</svg>
