<svg width="80" height="107" viewBox="0 0 80 107" fill="none" xmlns="http://www.w3.org/2000/svg">
<circle cx="40" cy="40" r="40" fill="#C4A63C"/>
<path d="M28.5295 93.1818C28.4528 92.5341 28.1417 92.0312 27.5962 91.6733C27.0508 91.3153 26.3817 91.1364 25.5891 91.1364C25.0096 91.1364 24.5025 91.2301 24.0678 91.4176C23.6374 91.6051 23.3008 91.8629 23.0579 92.1911C22.8192 92.5192 22.6999 92.892 22.6999 93.3097C22.6999 93.6591 22.783 93.9595 22.9492 94.2109C23.1197 94.4581 23.337 94.6648 23.6012 94.831C23.8654 94.9929 24.1424 95.1271 24.4322 95.2337C24.7219 95.3359 24.9883 95.419 25.2312 95.483L26.5607 95.8409C26.9016 95.9304 27.2809 96.054 27.6985 96.2116C28.1204 96.3693 28.5231 96.5845 28.9066 96.8572C29.2944 97.1257 29.614 97.4709 29.8654 97.8928C30.1168 98.3146 30.2425 98.8324 30.2425 99.446C30.2425 100.153 30.0572 100.793 29.6864 101.364C29.32 101.935 28.783 102.388 28.0756 102.725C27.3725 103.062 26.5181 103.23 25.5124 103.23C24.5749 103.23 23.7631 103.079 23.0771 102.776C22.3952 102.474 21.8583 102.052 21.4663 101.511C21.0785 100.969 20.859 100.341 20.8079 99.625H22.4442C22.4869 100.119 22.6531 100.528 22.9428 100.852C23.2369 101.172 23.6076 101.411 24.055 101.568C24.5067 101.722 24.9925 101.798 25.5124 101.798C26.1175 101.798 26.6609 101.7 27.1424 101.504C27.6239 101.304 28.0053 101.027 28.2866 100.673C28.5678 100.315 28.7085 99.8977 28.7085 99.4205C28.7085 98.9858 28.587 98.6321 28.3441 98.3594C28.1012 98.0866 27.7816 97.8651 27.3853 97.6946C26.989 97.5241 26.5607 97.375 26.1005 97.2472L24.4897 96.7869C23.467 96.4929 22.6573 96.0732 22.0607 95.5277C21.4641 94.9822 21.1658 94.2685 21.1658 93.3864C21.1658 92.6534 21.364 92.0142 21.7603 91.4688C22.1609 90.919 22.6978 90.4929 23.3711 90.1903C24.0487 89.8835 24.805 89.7301 25.6403 89.7301C26.484 89.7301 27.234 89.8814 27.8903 90.1839C28.5465 90.4822 29.0664 90.8913 29.4499 91.4112C29.8377 91.9311 30.0423 92.5213 30.0636 93.1818H28.5295ZM35.5336 103.23C34.9114 103.23 34.3468 103.113 33.8397 102.879C33.3326 102.64 32.9299 102.297 32.6316 101.849C32.3333 101.398 32.1841 100.852 32.1841 100.213C32.1841 99.6506 32.2949 99.1946 32.5165 98.8452C32.7381 98.4915 33.0343 98.2145 33.405 98.0142C33.7757 97.8139 34.1848 97.6648 34.6323 97.5668C35.084 97.4645 35.5378 97.3835 35.9938 97.3239C36.5904 97.2472 37.074 97.1896 37.4448 97.1513C37.8198 97.1087 38.0925 97.0384 38.263 96.9403C38.4377 96.8423 38.525 96.6719 38.525 96.429V96.3778C38.525 95.7472 38.3525 95.2571 38.0073 94.9077C37.6664 94.5582 37.1486 94.3835 36.454 94.3835C35.7338 94.3835 35.1692 94.5412 34.7601 94.8565C34.351 95.1719 34.0634 95.5085 33.8972 95.8665L32.4654 95.3551C32.7211 94.7585 33.062 94.294 33.4881 93.9616C33.9185 93.625 34.3873 93.3906 34.8944 93.2585C35.4057 93.1222 35.9086 93.054 36.4029 93.054C36.7182 93.054 37.0804 93.0923 37.4895 93.169C37.9029 93.2415 38.3013 93.3928 38.6848 93.6229C39.0726 93.853 39.3944 94.2003 39.65 94.6648C39.9057 95.1293 40.0336 95.7514 40.0336 96.5312V103H38.525V101.67H38.4483C38.3461 101.884 38.1756 102.112 37.937 102.354C37.6983 102.597 37.3809 102.804 36.9846 102.974C36.5882 103.145 36.1046 103.23 35.5336 103.23ZM35.7637 101.875C36.3603 101.875 36.8631 101.758 37.2722 101.523C37.6855 101.289 37.9966 100.987 38.2054 100.616C38.4185 100.245 38.525 99.8551 38.525 99.446V98.0653C38.4611 98.142 38.3205 98.2124 38.1032 98.2763C37.8901 98.3359 37.6429 98.3892 37.3617 98.4361C37.0847 98.4787 36.8141 98.517 36.5499 98.5511C36.29 98.581 36.079 98.6065 35.9171 98.6278C35.525 98.679 35.1586 98.7621 34.8176 98.8771C34.481 98.9879 34.2083 99.1562 33.9995 99.3821C33.7949 99.6037 33.6926 99.9062 33.6926 100.29C33.6926 100.814 33.8865 101.21 34.2743 101.479C34.6664 101.743 35.1628 101.875 35.7637 101.875ZM49.7415 95.3807L48.3864 95.7642C48.3011 95.5384 48.1754 95.3189 48.0092 95.1058C47.8473 94.8885 47.6257 94.7095 47.3445 94.5689C47.0632 94.4283 46.7031 94.358 46.2642 94.358C45.6634 94.358 45.1626 94.4964 44.7621 94.7734C44.3658 95.0462 44.1676 95.3935 44.1676 95.8153C44.1676 96.1903 44.304 96.4865 44.5767 96.7038C44.8494 96.9212 45.2756 97.1023 45.8551 97.2472L47.3125 97.6051C48.1903 97.8182 48.8445 98.1442 49.2749 98.5831C49.7053 99.0178 49.9205 99.5781 49.9205 100.264C49.9205 100.827 49.7585 101.33 49.4347 101.773C49.1151 102.216 48.6676 102.565 48.0923 102.821C47.517 103.077 46.848 103.205 46.0852 103.205C45.0838 103.205 44.255 102.987 43.5987 102.553C42.9425 102.118 42.527 101.483 42.3523 100.648L43.7841 100.29C43.9205 100.818 44.1783 101.214 44.5575 101.479C44.9411 101.743 45.4418 101.875 46.0597 101.875C46.7628 101.875 47.321 101.726 47.7344 101.428C48.152 101.125 48.3608 100.763 48.3608 100.341C48.3608 100 48.2415 99.7145 48.0028 99.4844C47.7642 99.25 47.3977 99.0753 46.9034 98.9602L45.267 98.5767C44.3679 98.3636 43.7074 98.0334 43.2855 97.5859C42.8679 97.1342 42.6591 96.5696 42.6591 95.892C42.6591 95.3381 42.8146 94.848 43.1257 94.4219C43.4411 93.9957 43.8693 93.6612 44.4105 93.4183C44.956 93.1754 45.5739 93.054 46.2642 93.054C47.2358 93.054 47.9986 93.267 48.5526 93.6932C49.1108 94.1193 49.5071 94.6818 49.7415 95.3807ZM59.1458 95.3807L57.7907 95.7642C57.7054 95.5384 57.5797 95.3189 57.4135 95.1058C57.2516 94.8885 57.03 94.7095 56.7488 94.5689C56.4675 94.4283 56.1074 94.358 55.6685 94.358C55.0676 94.358 54.5669 94.4964 54.1664 94.7734C53.7701 95.0462 53.5719 95.3935 53.5719 95.8153C53.5719 96.1903 53.7083 96.4865 53.981 96.7038C54.2537 96.9212 54.6799 97.1023 55.2594 97.2472L56.7168 97.6051C57.5946 97.8182 58.2488 98.1442 58.6792 98.5831C59.1096 99.0178 59.3248 99.5781 59.3248 100.264C59.3248 100.827 59.1628 101.33 58.839 101.773C58.5194 102.216 58.0719 102.565 57.4966 102.821C56.9213 103.077 56.2523 103.205 55.4895 103.205C54.4881 103.205 53.6593 102.987 53.003 102.553C52.3468 102.118 51.9313 101.483 51.7566 100.648L53.1884 100.29C53.3248 100.818 53.5826 101.214 53.9618 101.479C54.3453 101.743 54.8461 101.875 55.464 101.875C56.1671 101.875 56.7253 101.726 57.1387 101.428C57.5563 101.125 57.7651 100.763 57.7651 100.341C57.7651 100 57.6458 99.7145 57.4071 99.4844C57.1685 99.25 56.802 99.0753 56.3077 98.9602L54.6713 98.5767C53.7722 98.3636 53.1117 98.0334 52.6898 97.5859C52.2722 97.1342 52.0634 96.5696 52.0634 95.892C52.0634 95.3381 52.2189 94.848 52.53 94.4219C52.8453 93.9957 53.2736 93.6612 53.8148 93.4183C54.3603 93.1754 54.9782 93.054 55.6685 93.054C56.6401 93.054 57.4029 93.267 57.9569 93.6932C58.5151 94.1193 58.9114 94.6818 59.1458 95.3807Z" fill="#C4A63C"/>
<path d="M62.3461 43.2696L62.5731 43.2666C64.0071 43.2666 65.3638 43.5656 66.5675 44.0991L66.5142 44.0775C67.585 44.5413 68.4994 45.2515 69.164 46.1357L69.1795 46.1573C69.7579 46.9183 70.044 47.8276 69.9945 48.7474V48.7382C69.9702 49.1632 69.8515 49.5795 69.6454 49.9629C69.4393 50.3462 69.15 50.6888 68.7943 50.9706L68.7908 50.9737C68.4069 51.3117 67.9466 51.5719 67.441 51.7368L67.4152 51.7446C67.1286 51.7959 66.971 51.7574 66.9424 51.6289C66.9137 51.5005 67.0427 51.3591 67.3292 51.205C68.1065 50.7825 68.6688 50.1011 68.8734 49.2978L68.8785 49.2778C68.9231 48.7424 68.8042 48.2062 68.5346 47.7268L68.5432 47.7438C68.1824 47.062 67.6242 46.4796 66.9269 46.0571L66.9097 46.0478C65.8321 45.4313 64.6022 45.0612 63.3279 44.9702L63.3004 44.9686C61.4755 44.7359 59.6145 44.9297 57.8977 45.5314L57.9699 45.5082C58.2192 46.0309 58.3757 46.6368 58.3981 47.272V47.2797C58.3856 47.8985 58.1984 48.5045 57.8542 49.041C57.5099 49.5775 57.0196 50.027 56.4292 50.3477L56.4103 50.357C55.8772 50.6962 55.2685 50.9937 54.6203 51.225L54.5601 51.2435C54.0899 51.4466 53.5697 51.5389 53.0486 51.5118H53.0572C51.9693 51.3072 51.7114 50.4593 52.2834 48.9679C52.5328 48.3188 52.8818 47.7561 53.3237 47.2612L53.3134 47.272C53.8792 46.609 54.4999 46.0278 55.186 45.5129L55.2049 45.499L55.0364 45.2739C54.7025 44.7565 54.4227 44.2125 54.2007 43.6489L54.1766 43.578C54.0047 43.0641 53.8614 42.5764 53.7468 42.1149L53.6608 41.5753L52.801 43.0384C52.0559 44.2718 51.3394 45.3505 50.6516 46.2745L50.3937 46.6599C50.6826 47.2889 50.8958 48.0182 50.9921 48.7798L50.9955 48.8183C51.0431 49.4128 50.9191 50.0083 50.6354 50.5473C50.3517 51.0863 49.9178 51.5507 49.3757 51.8956L49.3637 51.9034C48.8424 52.1887 48.3026 52.4461 47.7473 52.6742L47.6442 52.7128C46.9949 52.9618 46.3015 53.1053 45.5962 53.1367H45.5807C45.1014 53.1666 44.6216 53.0848 44.1879 52.8993L44.2051 52.9055C44.0348 52.7756 43.9172 52.5988 43.8709 52.4027C43.8245 52.2066 43.852 52.0023 43.9489 51.8216L43.9455 51.8278C44.6333 50.9629 45.3108 50.2105 46.0313 49.4921L46.0089 49.5152L47.9004 47.3583L47.5582 46.6645C47.2612 46.1696 47.0104 45.6534 46.8085 45.1213L46.7844 45.0473C46.6125 44.5333 46.4692 44.0456 46.3545 43.5842L46.2686 43.0445L45.4088 44.8946C44.7221 46.3326 44.0916 47.5654 43.5173 48.5933C42.661 50.135 41.9445 51.317 41.3679 52.1392L41.196 52.3705C40.5093 53.3459 39.8502 53.8336 39.2185 53.8336C38.5869 53.8336 38.1587 53.4739 37.934 52.7544C37.7589 52.1781 37.671 51.5833 37.6727 50.986L37.6744 50.8195V50.8272L37.8463 49.748V49.8251C37.3878 50.8005 36.9293 51.6993 36.4707 52.5216C36.1915 53.0167 35.8678 53.4905 35.5026 53.9384L35.525 53.9092C35.1708 54.2422 34.6721 54.4488 34.1201 54.4488H34.1064C34.0703 54.4518 34.029 54.4518 33.9877 54.4518C33.5702 54.4522 33.1674 54.3132 32.858 54.0618L32.8597 54.0633C32.2497 53.5021 31.8104 52.8099 31.5838 52.0529L31.5752 52.0205C31.2374 51.1607 31.0896 50.25 31.1402 49.3395V49.3549C31.2761 48.1276 31.5495 47.0037 31.9501 45.9322L31.914 46.0417L28.8206 47.6605V47.7376C29.3848 48.8007 29.6217 49.9797 29.5067 51.1525L29.5084 51.1279C29.4251 52.6524 28.8826 54.1283 27.9385 55.3985L27.9608 55.3676C27.0168 56.7218 25.6262 57.7789 23.9818 58.3925L23.9251 58.411C22.9366 58.8023 21.8675 59.003 20.787 59C20.0682 59 19.3701 58.9136 18.7098 58.7502L18.7648 58.761C18.2313 58.6021 17.7783 58.278 17.4872 57.8467L17.4821 57.8375C17.0655 57.2921 16.8256 56.6538 16.7891 55.9936V55.9843C16.6803 55.0486 16.8643 54.1042 17.3204 53.257L17.3049 53.2878C18.2678 51.8047 19.639 50.5678 21.2874 49.6956L21.3389 49.6709C22.5689 48.9127 23.8604 48.2381 25.2027 47.6528L25.385 47.5803L25.8149 47.3491C25.299 46.9893 24.3533 46.3726 22.9776 45.499C21.2428 44.4629 19.5915 43.3187 18.0357 42.0748L18.0787 42.1087C16.6044 40.9762 15.5584 39.4615 15.085 37.7733L15.0713 37.7148C14.8734 36.6212 15.0902 35.4997 15.6869 34.5295L15.6731 34.5557C16.5939 32.7605 17.9359 31.1644 19.6074 29.8766L19.628 29.8612C21.417 28.3472 23.4181 27.0484 25.581 25.9976L25.7306 25.9313C27.8304 24.8576 30.034 23.9562 32.3146 23.2379L32.607 23.1577C34.9772 22.3959 37.4761 22.0063 39.994 22.006H39.9975C42.1949 21.9439 44.3761 22.3641 46.3511 23.2302L46.272 23.1978C47.8196 23.8299 48.9785 25.0201 49.4428 26.4755L49.4531 26.5125C49.8564 27.9792 49.7138 29.5238 49.0473 30.9111L49.0662 30.8664C48.367 32.406 47.3142 33.7965 45.9762 34.9473L45.9711 34.952C44.6352 36.1396 43.0455 37.073 41.2974 37.6963L41.2028 37.7256C39.2236 38.4747 37.1081 38.8922 34.961 38.9574L34.9283 38.9589C33.5753 39.0895 32.2068 38.9795 30.9012 38.6352L30.9751 38.6521C30.1804 38.4287 29.4461 38.0596 28.8189 37.5683L28.8257 37.5729C28.4009 37.2637 28.053 36.8783 27.8043 36.4413L27.794 36.4212C27.6221 36.0101 27.6077 35.766 27.751 35.6889C27.8943 35.6118 27.9946 35.599 28.052 35.6504L28.4818 36.0358C28.9616 36.4351 29.5342 36.7496 30.167 36.9501L30.2014 36.9593C31.0714 37.2307 32.0756 37.3879 33.1194 37.3879C33.4547 37.3879 33.7848 37.3725 34.1098 37.3401L34.0703 37.3432C36.7333 37.0702 39.2873 36.2394 41.5261 34.9181L41.4625 34.9535C43.2609 34.0011 44.7587 32.6533 45.8146 31.0375L45.8456 30.9851C46.3631 30.3036 46.6726 29.4619 46.6726 28.5553C46.6726 27.9987 46.5557 27.4653 46.3425 26.975L46.3545 27.0043C46.0358 26.5484 45.6127 26.1584 45.1132 25.8602C44.6137 25.562 44.0492 25.3623 43.4571 25.2745L43.4331 25.2714C41.5433 24.8717 39.5804 24.8365 37.6744 25.1681L37.7604 25.1558C35.0138 25.5888 32.3555 26.3897 29.8746 27.5316L30.0311 27.4653C22.9834 30.6516 19.3443 33.9144 19.1139 37.2538V37.3293C19.1139 38.6753 19.7037 39.8979 20.6649 40.8013L20.6632 40.7998C21.7469 41.8822 22.9641 42.8509 24.2914 43.6874L24.3584 43.7275C25.5162 44.5001 26.6072 45.3499 27.6221 46.2699L27.6238 46.2729L27.7957 46.4271L33.2982 43.7306C33.9091 42.9332 34.6702 42.2372 35.5473 41.6739L35.5749 41.657C36.2627 41.139 37.1362 40.8013 38.094 40.7335L38.1094 40.7319C38.1438 40.7289 38.1834 40.7289 38.2246 40.7289C38.866 40.7289 39.4163 41.0757 39.6536 41.5722L39.657 41.5814C39.909 42.0945 39.9977 42.6602 39.9132 43.2157L39.9149 43.2003L39.7481 43.9603L40.0061 43.8062C40.1586 43.7023 40.3394 43.637 40.5297 43.6172C40.7199 43.5974 40.9126 43.6238 41.0876 43.6936L41.0808 43.6905C41.273 43.7346 41.4382 43.8447 41.5408 43.9969C41.6434 44.1492 41.6752 44.3315 41.6293 44.5046L41.631 44.4999L41.3731 45.3479C40.8572 47.197 40.5139 48.5326 40.3431 49.3549C40.2326 49.7081 40.1896 50.0756 40.2158 50.4418V50.4325C40.2445 50.7409 40.2875 50.8951 40.3448 50.8951C40.4021 50.8951 40.5162 50.7409 40.687 50.4325L40.9449 49.8929C41.0022 49.8929 41.0022 49.9186 40.9449 49.97L41.8907 48.197C44.126 43.7794 45.3291 41.3127 45.4999 40.7967L46.0158 39.3336C46.0731 39.2308 46.3024 39.1285 46.7036 39.0268C47.1837 38.9134 47.6792 38.8615 48.1755 38.8726H48.1703C48.9728 38.8726 49.374 39.0525 49.374 39.4122L49.288 39.7976C49.0709 40.3454 48.8934 40.9052 48.7567 41.4735L48.7378 41.5706C48.6513 42.0928 48.667 42.6244 48.7842 43.1417L48.7791 43.1124L48.865 43.4192C49.0404 44.0621 49.3069 44.6264 49.656 45.1413L49.6388 45.1151C50.3255 44.0883 50.9846 43.0353 51.6163 41.9561C52.1149 41.2114 52.5792 40.348 52.9523 39.4446L52.9919 39.3367C53.1208 38.7554 53.2687 38.2652 53.4493 37.7872L53.4218 37.8736C53.4791 37.7194 53.7238 37.6038 54.156 37.5267C54.5652 37.4527 55.0347 37.411 55.5144 37.411H55.5763H55.5729C56.3753 37.411 56.8035 37.5909 56.8574 37.9506L56.6854 38.2575C56.4808 38.7755 56.302 39.3983 56.1816 40.0382L56.1713 40.1075C56.1174 40.634 56.1487 41.1647 56.2641 41.6832L56.2573 41.6477V41.9545C56.455 42.6267 56.749 43.2172 57.1342 43.7522L57.117 43.7275L57.3749 44.2671C58.9051 43.6028 60.5841 43.2601 62.2842 43.265H62.3512H62.3478L62.3461 43.2696ZM25.4813 54.4518C26.7228 53.3042 27.4162 51.7677 27.414 50.1689C27.4145 49.5431 27.3089 48.9209 27.1011 48.3234L27.1148 48.3666L25.7392 49.1375C24.3361 49.8544 23.1221 50.6546 22.0233 51.5642L22.0371 51.5534C21.1926 52.2478 20.585 53.1427 20.2849 54.1342L20.2746 54.1728C20.0166 55.1235 20.1456 55.7402 20.6614 56.0229C20.9761 56.1524 21.3458 56.2279 21.7327 56.2279C22.1557 56.2279 22.5564 56.1385 22.9089 55.9782L22.8934 55.9843C23.8784 55.6672 24.7621 55.139 25.4675 54.4457L25.4727 54.4411L25.4813 54.4518ZM36.9969 47.3537C37.2835 46.6856 37.5987 45.889 37.9426 44.964C38.4012 43.7306 38.5588 43.0117 38.4155 42.8071C38.2722 42.6026 38 42.5769 37.5987 42.73C37.1354 42.9294 36.7264 43.2173 36.4002 43.5734L36.3951 43.5795C36.0247 44.0015 35.6902 44.4478 35.3943 44.9147L35.3634 44.9671C34.9996 45.5054 34.7152 46.0838 34.5173 46.6877L34.5019 46.7401C34.1013 47.7324 33.9265 48.7866 33.9877 49.8405V49.822C34.0451 50.8488 34.2285 51.4013 34.538 51.4794C34.8475 51.5575 35.2057 51.1849 35.6127 50.3616C36.0065 49.7249 36.3572 48.9849 36.6186 48.2094L36.6427 48.1261C36.8135 47.7623 36.9304 47.5048 36.9935 47.3537H36.9969ZM46.5334 51.4393C47.1258 51.2043 47.6374 50.8315 48.015 50.3595C48.3927 49.8876 48.6226 49.3336 48.681 48.7551L48.6828 48.7428V48.6657L47.737 49.7449L46.0192 51.4408C46.006 51.4499 45.9953 51.4616 45.9878 51.4749C45.9804 51.4883 45.9764 51.503 45.9762 51.5179C45.9762 51.5488 45.9934 51.5765 46.0175 51.595C46.0725 51.6454 46.2445 51.594 46.5334 51.4408V51.4393ZM53.9256 49.9746C54.5679 49.8129 55.1337 49.4675 55.5371 48.9912C55.9406 48.5148 56.1596 47.9334 56.161 47.3352V47.2751V47.2781C56.1438 46.9698 56.0819 46.68 55.9804 46.4055L55.9873 46.4287C55.3184 46.9621 54.7699 47.6004 54.3727 48.3204L54.3537 48.3558C53.8367 49.2798 53.6923 49.8184 53.9204 49.9716L53.9256 49.9746Z" fill="white"/>
</svg>
