<svg width="80" height="107" viewBox="0 0 80 107" fill="none" xmlns="http://www.w3.org/2000/svg">
<circle cx="40" cy="40" r="40" fill="#F10000"/>
<path d="M10.9993 103V89.9091H12.5845V101.594H18.6697V103H10.9993ZM23.8089 103.23C23.1868 103.23 22.6222 103.113 22.1151 102.879C21.608 102.64 21.2053 102.297 20.907 101.849C20.6087 101.398 20.4595 100.852 20.4595 100.213C20.4595 99.6506 20.5703 99.1946 20.7919 98.8452C21.0135 98.4915 21.3097 98.2145 21.6804 98.0142C22.0511 97.8139 22.4602 97.6648 22.9077 97.5668C23.3594 97.4645 23.8132 97.3835 24.2692 97.3239C24.8658 97.2472 25.3494 97.1896 25.7202 97.1513C26.0952 97.1087 26.3679 97.0384 26.5384 96.9403C26.7131 96.8423 26.8004 96.6719 26.8004 96.429V96.3778C26.8004 95.7472 26.6278 95.2571 26.2827 94.9077C25.9418 94.5582 25.424 94.3835 24.7294 94.3835C24.0092 94.3835 23.4446 94.5412 23.0355 94.8565C22.6264 95.1719 22.3388 95.5085 22.1726 95.8665L20.7408 95.3551C20.9964 94.7585 21.3374 94.294 21.7635 93.9616C22.1939 93.625 22.6626 93.3906 23.1697 93.2585C23.6811 93.1222 24.1839 93.054 24.6783 93.054C24.9936 93.054 25.3558 93.0923 25.7649 93.169C26.1783 93.2415 26.5767 93.3928 26.9602 93.6229C27.348 93.853 27.6697 94.2003 27.9254 94.6648C28.1811 95.1293 28.3089 95.7514 28.3089 96.5312V103H26.8004V101.67H26.7237C26.6214 101.884 26.451 102.112 26.2124 102.354C25.9737 102.597 25.6563 102.804 25.2599 102.974C24.8636 103.145 24.38 103.23 23.8089 103.23ZM24.0391 101.875C24.6357 101.875 25.1385 101.758 25.5476 101.523C25.9609 101.289 26.272 100.987 26.4808 100.616C26.6939 100.245 26.8004 99.8551 26.8004 99.446V98.0653C26.7365 98.142 26.5959 98.2124 26.3786 98.2763C26.1655 98.3359 25.9183 98.3892 25.6371 98.4361C25.3601 98.4787 25.0895 98.517 24.8253 98.5511C24.5653 98.581 24.3544 98.6065 24.1925 98.6278C23.8004 98.679 23.4339 98.7621 23.093 98.8771C22.7564 98.9879 22.4837 99.1562 22.2749 99.3821C22.0703 99.6037 21.968 99.9062 21.968 100.29C21.968 100.814 22.1619 101.21 22.5497 101.479C22.9418 101.743 23.4382 101.875 24.0391 101.875ZM31.0623 103V93.1818H32.5197V94.6648H32.622C32.801 94.179 33.1248 93.7848 33.5936 93.4822C34.0623 93.1797 34.5907 93.0284 35.1788 93.0284C35.2896 93.0284 35.4281 93.0305 35.5943 93.0348C35.7605 93.0391 35.8862 93.0455 35.9714 93.054V94.5881C35.9203 94.5753 35.8031 94.5561 35.6199 94.5305C35.4409 94.5007 35.2512 94.4858 35.051 94.4858C34.5737 94.4858 34.1476 94.5859 33.7725 94.7862C33.4018 94.9822 33.1078 95.255 32.8904 95.6044C32.6774 95.9496 32.5708 96.3437 32.5708 96.7869V103H31.0623ZM40.6488 103.23C40.0266 103.23 39.462 103.113 38.9549 102.879C38.4478 102.64 38.0451 102.297 37.7468 101.849C37.4485 101.398 37.2994 100.852 37.2994 100.213C37.2994 99.6506 37.4102 99.1946 37.6317 98.8452C37.8533 98.4915 38.1495 98.2145 38.5202 98.0142C38.891 97.8139 39.3001 97.6648 39.7475 97.5668C40.1992 97.4645 40.6531 97.3835 41.109 97.3239C41.7056 97.2472 42.1893 97.1896 42.56 97.1513C42.935 97.1087 43.2077 97.0384 43.3782 96.9403C43.5529 96.8423 43.6403 96.6719 43.6403 96.429V96.3778C43.6403 95.7472 43.4677 95.2571 43.1225 94.9077C42.7816 94.5582 42.2638 94.3835 41.5692 94.3835C40.8491 94.3835 40.2844 94.5412 39.8754 94.8565C39.4663 95.1719 39.1786 95.5085 39.0124 95.8665L37.5806 95.3551C37.8363 94.7585 38.1772 94.294 38.6033 93.9616C39.0337 93.625 39.5025 93.3906 40.0096 93.2585C40.521 93.1222 41.0238 93.054 41.5181 93.054C41.8335 93.054 42.1957 93.0923 42.6048 93.169C43.0181 93.2415 43.4165 93.3928 43.8001 93.6229C44.1879 93.853 44.5096 94.2003 44.7653 94.6648C45.021 95.1293 45.1488 95.7514 45.1488 96.5312V103H43.6403V101.67H43.5636C43.4613 101.884 43.2908 102.112 43.0522 102.354C42.8136 102.597 42.4961 102.804 42.0998 102.974C41.7035 103.145 41.2198 103.23 40.6488 103.23ZM40.8789 101.875C41.4755 101.875 41.9783 101.758 42.3874 101.523C42.8008 101.289 43.1119 100.987 43.3207 100.616C43.5337 100.245 43.6403 99.8551 43.6403 99.446V98.0653C43.5763 98.142 43.4357 98.2124 43.2184 98.2763C43.0053 98.3359 42.7582 98.3892 42.4769 98.4361C42.1999 98.4787 41.9293 98.517 41.6651 98.5511C41.4052 98.581 41.1942 98.6065 41.0323 98.6278C40.6403 98.679 40.2738 98.7621 39.9329 98.8771C39.5962 98.9879 39.3235 99.1562 39.1147 99.3821C38.9102 99.6037 38.8079 99.9062 38.8079 100.29C38.8079 100.814 39.0018 101.21 39.3896 101.479C39.7816 101.743 40.2781 101.875 40.8789 101.875ZM55.579 93.1818L51.9483 103H50.4142L46.7836 93.1818H48.4199L51.1301 101.006H51.2324L53.9426 93.1818H55.579ZM61.3351 103.205C60.389 103.205 59.573 102.996 58.8869 102.578C58.2051 102.156 57.6788 101.568 57.3081 100.814C56.9416 100.055 56.7583 99.1733 56.7583 98.1676C56.7583 97.1619 56.9416 96.2756 57.3081 95.5085C57.6788 94.7372 58.1944 94.1364 58.8549 93.706C59.5197 93.2713 60.2953 93.054 61.1816 93.054C61.693 93.054 62.198 93.1392 62.6966 93.3097C63.1951 93.4801 63.649 93.7571 64.0581 94.1406C64.4672 94.5199 64.7931 95.0227 65.036 95.6491C65.2789 96.2756 65.4004 97.0469 65.4004 97.9631V98.6023H57.8322V97.2983H63.8663C63.8663 96.7443 63.7555 96.25 63.5339 95.8153C63.3166 95.3807 63.0055 95.0376 62.6007 94.7862C62.2001 94.5348 61.7271 94.4091 61.1816 94.4091C60.5808 94.4091 60.0609 94.5582 59.622 94.8565C59.1873 95.1506 58.8528 95.5341 58.6184 96.0071C58.3841 96.4801 58.2669 96.9872 58.2669 97.5284V98.3977C58.2669 99.1392 58.3947 99.7678 58.6504 100.283C58.9103 100.795 59.2704 101.185 59.7306 101.453C60.1909 101.717 60.7257 101.849 61.3351 101.849C61.7314 101.849 62.0893 101.794 62.4089 101.683C62.7328 101.568 63.0119 101.398 63.2463 101.172C63.4806 100.942 63.6618 100.656 63.7896 100.315L65.247 100.724C65.0936 101.219 64.8358 101.653 64.4735 102.028C64.1113 102.399 63.6639 102.689 63.1312 102.898C62.5985 103.102 61.9998 103.205 61.3351 103.205ZM69.2037 89.9091V103H67.6951V89.9091H69.2037Z" fill="#F10000"/>
<path d="M35.7563 45.5569H45.2266L40.4914 33.6996L35.7563 45.5569ZM40.4914 15.0181L14.5761 24.6371L18.5241 60.3016L40.4914 72.9801L62.4673 60.3216L66.4153 24.6371L40.4914 15.0272V15.0181ZM56.6666 59.2359H50.6234L47.3647 50.7769H33.6147L30.3559 59.2359H24.3128L40.488 21.4181L56.6666 59.2359Z" fill="white"/>
</svg>
