<svg width="80" height="107" viewBox="0 0 80 107" fill="none" xmlns="http://www.w3.org/2000/svg">
<circle cx="40" cy="40" r="40" fill="#C1C507"/>
<g clip-path="url(#clip0_4_160)">
<path d="M39.6413 16.3194C40.0531 16.1102 40.5214 16 40.9982 16C41.475 16 41.9433 16.1102 42.3551 16.3194L64.6611 27.6472C65.0682 27.8533 65.4061 28.1488 65.6411 28.5041C65.876 28.8594 65.9998 29.2622 66 29.6722V52.3278C65.9998 52.7378 65.876 53.1406 65.6411 53.4959C65.4061 53.8512 65.0682 54.1467 64.6611 54.3527L42.3551 65.6806C41.9433 65.8898 41.475 66 40.9982 66C40.5214 66 40.0531 65.8898 39.6413 65.6806L34.0666 62.8494C33.4497 62.5361 33.001 62.0223 32.8193 61.421C32.6375 60.8198 32.7376 60.1803 33.0974 59.6432C33.4573 59.1062 34.0475 58.7156 34.7382 58.5573C35.4289 58.3991 36.1635 58.4862 36.7804 58.7995L40.9982 60.9432L60.6156 50.981V31.019L40.9982 21.0568L21.3844 31.019V50.981L25.3941 53.0184C26.6289 53.3622 28.1581 53.4465 29.2314 53.034C29.7932 52.8198 30.2542 52.445 30.538 51.9716C30.9113 51.3841 31.2559 50.406 31.2559 48.8123V32.4065C31.2559 31.7849 31.5396 31.1888 32.0445 30.7493C32.5494 30.3097 33.2341 30.0628 33.9482 30.0628C34.6622 30.0628 35.347 30.3097 35.8519 30.7493C36.3567 31.1888 36.6404 31.7849 36.6404 32.4065V48.8123C36.6404 50.9685 36.1773 52.7872 35.2404 54.2496C34.3874 55.6141 33.0393 56.6943 31.4067 57.3214C28.5135 58.4339 25.3151 57.9776 23.3587 57.3652C23.2043 57.3167 23.0553 57.256 22.9136 57.1839L17.3353 54.3527C16.9289 54.1463 16.5917 53.8506 16.3574 53.4953C16.1231 53.14 15.9999 52.7375 16 52.3278V29.6722C15.9999 29.2625 16.1231 28.8599 16.3574 28.5046C16.5917 28.1494 16.9289 27.8537 17.3353 27.6472L39.6413 16.3194ZM42.0105 32.5096C43.4356 31.0346 45.6611 30.0628 48.68 30.0628C51.4799 30.0628 53.6158 30.9003 55.0624 32.2284C55.3139 32.4505 55.512 32.7142 55.645 33.0038C55.778 33.2935 55.8432 33.6033 55.8368 33.9152C55.8305 34.2271 55.7526 34.5347 55.6079 34.8201C55.4632 35.1055 55.2545 35.3628 54.9941 35.5771C54.7337 35.7913 54.4267 35.9581 54.0912 36.0678C53.7558 36.1774 53.3985 36.2276 53.0405 36.2155C52.6824 36.2034 52.3308 36.1292 52.0061 35.9972C51.6814 35.8653 51.3902 35.6782 51.1497 35.447C50.8302 35.1627 50.1733 34.7502 48.6764 34.7502C47.0898 34.7502 46.4365 35.2127 46.1314 35.5251C45.8168 35.8589 45.6343 36.272 45.6109 36.7032C45.6109 36.9626 45.7401 37.4751 46.1314 37.8813C46.4365 38.1938 47.0898 38.6563 48.68 38.6563C48.9375 38.6557 49.1938 38.6873 49.441 38.7501C51.6666 39.0313 53.3609 39.9 54.5239 41.1031C55.8593 42.4875 56.3044 44.1249 56.3044 45.2968C56.3044 46.4686 55.8593 48.106 54.5239 49.4904C53.0989 50.9653 50.8733 51.9372 47.8544 51.9372C45.0545 51.9372 42.9187 51.0997 41.4756 49.7716C41.0029 49.3173 40.7534 48.7198 40.7808 48.1072C40.8081 47.4946 41.1101 46.9158 41.6219 46.4948C42.1337 46.0737 42.8147 45.844 43.5187 45.8549C44.2228 45.8658 44.894 46.1164 45.3883 46.553C45.7006 46.8405 46.3611 47.2498 47.8544 47.2498C49.441 47.2498 50.0979 46.7873 50.403 46.4748C50.7163 46.1407 50.8976 45.7276 50.92 45.2968C50.8966 44.8655 50.714 44.4524 50.3995 44.1187C50.0979 43.8062 49.441 43.3437 47.8544 43.3437C47.5957 43.3446 47.3382 43.313 47.0898 43.2499C44.8642 42.9687 43.1699 42.1 42.0105 40.8969C40.8798 39.719 40.2498 38.2381 40.2264 36.7032C40.2264 35.5314 40.6716 33.8939 42.0105 32.5096Z" fill="white"/>
</g>
<path d="M19.6749 89.9091V103H18.1408L11.0073 92.7216H10.8794V103H9.29421V89.9091H10.8283L17.9874 100.213H18.1152V89.9091H19.6749ZM26.631 103.205C25.7447 103.205 24.967 102.994 24.2979 102.572C23.6332 102.15 23.1133 101.56 22.7383 100.801C22.3675 100.043 22.1822 99.1562 22.1822 98.142C22.1822 97.1193 22.3675 96.2266 22.7383 95.4638C23.1133 94.701 23.6332 94.1087 24.2979 93.6868C24.967 93.2649 25.7447 93.054 26.631 93.054C27.5174 93.054 28.293 93.2649 28.9577 93.6868C29.6268 94.1087 30.1467 94.701 30.5174 95.4638C30.8924 96.2266 31.0799 97.1193 31.0799 98.142C31.0799 99.1562 30.8924 100.043 30.5174 100.801C30.1467 101.56 29.6268 102.15 28.9577 102.572C28.293 102.994 27.5174 103.205 26.631 103.205ZM26.631 101.849C27.3043 101.849 27.8583 101.677 28.293 101.332C28.7276 100.987 29.0494 100.533 29.2582 99.9702C29.467 99.4077 29.5714 98.7983 29.5714 98.142C29.5714 97.4858 29.467 96.8743 29.2582 96.3075C29.0494 95.7408 28.7276 95.2827 28.293 94.9332C27.8583 94.5838 27.3043 94.4091 26.631 94.4091C25.9577 94.4091 25.4038 94.5838 24.9691 94.9332C24.5344 95.2827 24.2127 95.7408 24.0039 96.3075C23.7951 96.8743 23.6907 97.4858 23.6907 98.142C23.6907 98.7983 23.7951 99.4077 24.0039 99.9702C24.2127 100.533 24.5344 100.987 24.9691 101.332C25.4038 101.677 25.9577 101.849 26.631 101.849ZM37.09 103.205C36.2718 103.205 35.5495 102.998 34.9231 102.585C34.2967 102.167 33.8066 101.579 33.4529 100.82C33.0993 100.058 32.9224 99.1562 32.9224 98.1165C32.9224 97.0852 33.0993 96.1903 33.4529 95.4318C33.8066 94.6733 34.2988 94.0874 34.9295 93.674C35.5602 93.2607 36.2889 93.054 37.1156 93.054C37.7548 93.054 38.2598 93.1605 38.6305 93.3736C39.0055 93.5824 39.291 93.821 39.487 94.0895C39.6873 94.3537 39.8429 94.571 39.9537 94.7415H40.0815V89.9091H41.59V103H40.1326V101.491H39.9537C39.8429 101.67 39.6852 101.896 39.4806 102.169C39.2761 102.437 38.9842 102.678 38.6049 102.891C38.2257 103.1 37.7207 103.205 37.09 103.205ZM37.2946 101.849C37.8997 101.849 38.411 101.692 38.8287 101.376C39.2463 101.057 39.5637 100.616 39.7811 100.053C39.9984 99.4865 40.1071 98.8324 40.1071 98.0909C40.1071 97.358 40.0005 96.7166 39.7875 96.1669C39.5744 95.6129 39.2591 95.1825 38.8414 94.8757C38.4238 94.5646 37.9082 94.4091 37.2946 94.4091C36.6554 94.4091 36.1227 94.5732 35.6966 94.9013C35.2747 95.2251 34.9572 95.6662 34.7441 96.2244C34.5353 96.7784 34.4309 97.4006 34.4309 98.0909C34.4309 98.7898 34.5375 99.4247 34.7505 99.9957C34.9679 100.562 35.2875 101.014 35.7093 101.351C36.1355 101.683 36.6639 101.849 37.2946 101.849ZM48.6788 103.205C47.7328 103.205 46.9167 102.996 46.2306 102.578C45.5488 102.156 45.0225 101.568 44.6518 100.814C44.2853 100.055 44.1021 99.1733 44.1021 98.1676C44.1021 97.1619 44.2853 96.2756 44.6518 95.5085C45.0225 94.7372 45.5382 94.1364 46.1987 93.706C46.8635 93.2713 47.639 93.054 48.5254 93.054C49.0368 93.054 49.5417 93.1392 50.0403 93.3097C50.5389 93.4801 50.9927 93.7571 51.4018 94.1406C51.8109 94.5199 52.1369 95.0227 52.3798 95.6491C52.6227 96.2756 52.7441 97.0469 52.7441 97.9631V98.6023H45.176V97.2983H51.2101C51.2101 96.7443 51.0993 96.25 50.8777 95.8153C50.6603 95.3807 50.3493 95.0376 49.9444 94.7862C49.5439 94.5348 49.0708 94.4091 48.5254 94.4091C47.9245 94.4091 47.4047 94.5582 46.9657 94.8565C46.5311 95.1506 46.1966 95.5341 45.9622 96.0071C45.7278 96.4801 45.6106 96.9872 45.6106 97.5284V98.3977C45.6106 99.1392 45.7385 99.7678 45.9941 100.283C46.2541 100.795 46.6142 101.185 47.0744 101.453C47.5346 101.717 48.0694 101.849 48.6788 101.849C49.0751 101.849 49.4331 101.794 49.7527 101.683C50.0765 101.568 50.3556 101.398 50.59 101.172C50.8244 100.942 51.0055 100.656 51.1333 100.315L52.5907 100.724C52.4373 101.219 52.1795 101.653 51.8173 102.028C51.4551 102.399 51.0076 102.689 50.475 102.898C49.9423 103.102 49.3436 103.205 48.6788 103.205ZM56.1383 103.102C55.823 103.102 55.5524 102.989 55.3265 102.763C55.1007 102.538 54.9877 102.267 54.9877 101.952C54.9877 101.636 55.1007 101.366 55.3265 101.14C55.5524 100.914 55.823 100.801 56.1383 100.801C56.4537 100.801 56.7243 100.914 56.9501 101.14C57.176 101.366 57.2889 101.636 57.2889 101.952C57.2889 102.161 57.2356 102.352 57.1291 102.527C57.0268 102.702 56.8883 102.842 56.7136 102.949C56.5431 103.051 56.3514 103.102 56.1383 103.102ZM59.9959 93.1818H61.5044V103.716C61.5044 104.321 61.4 104.845 61.1912 105.288C60.9867 105.732 60.6756 106.075 60.258 106.317C59.8446 106.56 59.3226 106.682 58.6919 106.682C58.6408 106.682 58.5897 106.682 58.5385 106.682C58.4874 106.682 58.4363 106.682 58.3851 106.682V105.276C58.4363 105.276 58.4831 105.276 58.5257 105.276C58.5684 105.276 58.6152 105.276 58.6664 105.276C59.1266 105.276 59.4632 105.139 59.6763 104.866C59.8894 104.598 59.9959 104.214 59.9959 103.716V93.1818ZM60.7374 91.5455C60.4434 91.5455 60.1898 91.4453 59.9767 91.245C59.7679 91.0447 59.6635 90.804 59.6635 90.5227C59.6635 90.2415 59.7679 90.0007 59.9767 89.8004C60.1898 89.6001 60.4434 89.5 60.7374 89.5C61.0314 89.5 61.2828 89.6001 61.4917 89.8004C61.7047 90.0007 61.8113 90.2415 61.8113 90.5227C61.8113 90.804 61.7047 91.0447 61.4917 91.245C61.2828 91.4453 61.0314 91.5455 60.7374 91.5455ZM71.2219 95.3807L69.8668 95.7642C69.7816 95.5384 69.6559 95.3189 69.4897 95.1058C69.3278 94.8885 69.1062 94.7095 68.8249 94.5689C68.5437 94.4283 68.1836 94.358 67.7447 94.358C67.1438 94.358 66.6431 94.4964 66.2425 94.7734C65.8462 95.0462 65.6481 95.3935 65.6481 95.8153C65.6481 96.1903 65.7844 96.4865 66.0572 96.7038C66.3299 96.9212 66.756 97.1023 67.3356 97.2472L68.793 97.6051C69.6708 97.8182 70.3249 98.1442 70.7553 98.5831C71.1857 99.0178 71.4009 99.5781 71.4009 100.264C71.4009 100.827 71.239 101.33 70.9151 101.773C70.5955 102.216 70.1481 102.565 69.5728 102.821C68.9975 103.077 68.3285 103.205 67.5657 103.205C66.5643 103.205 65.7354 102.987 65.0792 102.553C64.4229 102.118 64.0075 101.483 63.8327 100.648L65.2646 100.29C65.4009 100.818 65.6587 101.214 66.038 101.479C66.4215 101.743 66.9222 101.875 67.5401 101.875C68.2433 101.875 68.8015 101.726 69.2148 101.428C69.6325 101.125 69.8413 100.763 69.8413 100.341C69.8413 100 69.7219 99.7145 69.4833 99.4844C69.2447 99.25 68.8782 99.0753 68.3839 98.9602L66.7475 98.5767C65.8484 98.3636 65.1879 98.0334 64.766 97.5859C64.3484 97.1342 64.1396 96.5696 64.1396 95.892C64.1396 95.3381 64.2951 94.848 64.6062 94.4219C64.9215 93.9957 65.3498 93.6612 65.891 93.4183C66.4364 93.1754 67.0543 93.054 67.7447 93.054C68.7163 93.054 69.479 93.267 70.033 93.6932C70.5913 94.1193 70.9876 94.6818 71.2219 95.3807Z" fill="#C1C507"/>
<defs>
<clipPath id="clip0_4_160">
<rect width="50" height="50" fill="white" transform="translate(16 16)"/>
</clipPath>
</defs>
</svg>
