<svg width="80" height="107" viewBox="0 0 80 107" fill="none" xmlns="http://www.w3.org/2000/svg">
<circle cx="40" cy="40" r="40" fill="#FFC42B"/>
<path d="M11.5354 103V89.9091H15.9587C16.9857 89.9091 17.8252 90.0945 18.4772 90.4652C19.1334 90.8317 19.6192 91.3281 19.9346 91.9545C20.2499 92.581 20.4076 93.2798 20.4076 94.0511C20.4076 94.8224 20.2499 95.5234 19.9346 96.1541C19.6235 96.7848 19.142 97.2876 18.49 97.6626C17.838 98.0334 17.0028 98.2188 15.9843 98.2188H12.8138V96.8125H15.9332C16.6363 96.8125 17.2009 96.6911 17.627 96.4482C18.0532 96.2053 18.3621 95.8771 18.5539 95.4638C18.7499 95.0462 18.8479 94.5753 18.8479 94.0511C18.8479 93.527 18.7499 93.0582 18.5539 92.6449C18.3621 92.2315 18.051 91.9077 17.6207 91.6733C17.1903 91.4347 16.6192 91.3153 15.9076 91.3153H13.1207V103H11.5354ZM23.7282 106.682C23.4726 106.682 23.2446 106.661 23.0443 106.618C22.844 106.58 22.7055 106.541 22.6288 106.503L23.0123 105.173C23.3788 105.267 23.7027 105.301 23.9839 105.276C24.2652 105.25 24.5145 105.124 24.7318 104.898C24.9534 104.677 25.1558 104.317 25.339 103.818L25.6203 103.051L21.9896 93.1818H23.626L26.3362 101.006H26.4385L29.1487 93.1818H30.7851L26.6175 104.432C26.43 104.939 26.1977 105.359 25.9207 105.691C25.6437 106.028 25.322 106.277 24.9555 106.439C24.5933 106.601 24.1842 106.682 23.7282 106.682ZM37.0461 93.1818V94.4602H31.958V93.1818H37.0461ZM33.441 90.8295H34.9495V100.188C34.9495 100.614 35.0113 100.933 35.1349 101.146C35.2627 101.355 35.4246 101.496 35.6207 101.568C35.8209 101.636 36.0319 101.67 36.2535 101.67C36.4197 101.67 36.556 101.662 36.6626 101.645C36.7691 101.624 36.8543 101.607 36.9182 101.594L37.2251 102.949C37.1228 102.987 36.98 103.026 36.7968 103.064C36.6135 103.107 36.3813 103.128 36.1001 103.128C35.6739 103.128 35.2563 103.036 34.8472 102.853C34.4424 102.67 34.1057 102.391 33.8373 102.016C33.5731 101.641 33.441 101.168 33.441 100.597V90.8295ZM41.0347 97.0938V103H39.5262V89.9091H41.0347V94.7159H41.1626C41.3927 94.2088 41.7378 93.8061 42.1981 93.5078C42.6626 93.2053 43.2805 93.054 44.0518 93.054C44.7208 93.054 45.3067 93.1882 45.8096 93.4567C46.3124 93.7209 46.7023 94.1278 46.9793 94.6776C47.2606 95.223 47.4012 95.9176 47.4012 96.7614V103H45.8927V96.8636C45.8927 96.0838 45.6903 95.4808 45.2854 95.0547C44.8849 94.6243 44.3287 94.4091 43.6171 94.4091C43.1228 94.4091 42.6796 94.5135 42.2876 94.7223C41.8998 94.9311 41.593 95.2358 41.3671 95.6364C41.1455 96.0369 41.0347 96.5227 41.0347 97.0938ZM54.1496 103.205C53.2632 103.205 52.4855 102.994 51.8165 102.572C51.1517 102.15 50.6318 101.56 50.2568 100.801C49.8861 100.043 49.7007 99.1562 49.7007 98.142C49.7007 97.1193 49.8861 96.2266 50.2568 95.4638C50.6318 94.701 51.1517 94.1087 51.8165 93.6868C52.4855 93.2649 53.2632 93.054 54.1496 93.054C55.036 93.054 55.8115 93.2649 56.4763 93.6868C57.1453 94.1087 57.6652 94.701 58.036 95.4638C58.411 96.2266 58.5985 97.1193 58.5985 98.142C58.5985 99.1562 58.411 100.043 58.036 100.801C57.6652 101.56 57.1453 102.15 56.4763 102.572C55.8115 102.994 55.036 103.205 54.1496 103.205ZM54.1496 101.849C54.8229 101.849 55.3769 101.677 55.8115 101.332C56.2462 100.987 56.5679 100.533 56.7767 99.9702C56.9855 99.4077 57.0899 98.7983 57.0899 98.142C57.0899 97.4858 56.9855 96.8743 56.7767 96.3075C56.5679 95.7408 56.2462 95.2827 55.8115 94.9332C55.3769 94.5838 54.8229 94.4091 54.1496 94.4091C53.4763 94.4091 52.9223 94.5838 52.4877 94.9332C52.053 95.2827 51.7313 95.7408 51.5225 96.3075C51.3137 96.8743 51.2093 97.4858 51.2093 98.142C51.2093 98.7983 51.3137 99.4077 51.5225 99.9702C51.7313 100.533 52.053 100.987 52.4877 101.332C52.9223 101.677 53.4763 101.849 54.1496 101.849ZM62.4097 97.0938V103H60.9012V93.1818H62.3586V94.7159H62.4864C62.7165 94.2173 63.066 93.8168 63.5347 93.5142C64.0035 93.2074 64.6086 93.054 65.3501 93.054C66.0148 93.054 66.5965 93.1903 67.0951 93.4631C67.5937 93.7315 67.9814 94.1406 68.2584 94.6903C68.5354 95.2358 68.6739 95.9261 68.6739 96.7614V103H67.1654V96.8636C67.1654 96.0923 66.9651 95.4915 66.5645 95.0611C66.164 94.6264 65.6143 94.4091 64.9154 94.4091C64.4339 94.4091 64.0035 94.5135 63.6242 94.7223C63.2492 94.9311 62.953 95.2358 62.7357 95.6364C62.5184 96.0369 62.4097 96.5227 62.4097 97.0938Z" fill="#FFC42B"/>
<g clip-path="url(#clip0_4_169)">
<path d="M40.4312 16C38.4519 16.0012 36.4765 16.1741 34.5271 16.5167L34.7312 16.4875C29.6833 17.3792 28.7687 19.2458 28.7687 22.6875V27.2333H40.6979V28.7479H24.2937L24.1562 28.7458C22.432 28.7462 20.7612 29.3447 19.4289 30.4392C18.0965 31.5337 17.1851 33.0565 16.85 34.7479L16.8417 34.7958C16.3083 36.6125 16.0021 38.7 16.0021 40.8583C16.0021 43.0167 16.3083 45.1042 16.8812 47.0771L16.8417 46.9187C17.6896 50.45 19.7146 52.9646 23.175 52.9646H27.2771V47.5146C27.3214 45.557 28.1212 43.6925 29.509 42.3113C30.8969 40.9301 32.7652 40.1392 34.7229 40.1042H46.6437C48.2298 40.0921 49.7469 39.4535 50.8642 38.3276C51.9814 37.2018 52.6084 35.6799 52.6083 34.0937V34.0396V22.6833C52.5055 21.1176 51.8544 19.6382 50.7694 18.5048C49.6844 17.3713 48.2347 16.6564 46.675 16.4854L46.6458 16.4833C44.6636 16.1541 42.6573 15.991 40.6479 15.9958H40.425H40.4354L40.4312 16ZM33.9812 19.6562H34.0167C34.4659 19.6562 34.9051 19.7894 35.2788 20.0389C35.6524 20.2883 35.9437 20.643 36.116 21.0579C36.2882 21.4729 36.3335 21.9296 36.2463 22.3703C36.1592 22.811 35.9433 23.216 35.626 23.5342C35.3088 23.8523 34.9044 24.0692 34.4639 24.1576C34.0234 24.246 33.5666 24.2019 33.1512 24.0309C32.7357 23.8598 32.3803 23.5694 32.1298 23.1965C31.8793 22.8235 31.745 22.3847 31.7437 21.9354V21.9187C31.7437 20.6771 32.7437 19.6687 33.9812 19.6562Z" fill="white"/>
<path d="M54.0979 28.7479V34.0438C54.076 36.0219 53.2887 37.9146 51.9011 39.3247C50.5136 40.7348 48.6338 41.5525 46.6562 41.6063H34.7312C33.1432 41.6389 31.6307 42.2909 30.5168 43.4232C29.4028 44.5554 28.7755 46.0783 28.7687 47.6667V59.0271C28.7687 62.2583 31.5792 64.1604 34.7312 65.0896C36.5125 65.6667 38.5625 66 40.6896 66C42.8167 66 44.8667 65.6667 46.7875 65.05L46.6458 65.0896C49.6458 64.2208 52.6083 62.4688 52.6083 59.0271V54.4771H40.6937V52.9625H58.5729C62.0396 52.9625 63.3312 50.5438 64.5375 46.9167C65.1208 45.1042 65.4562 43.0188 65.4562 40.8542C65.4562 38.6896 65.1208 36.6042 64.4979 34.6479L64.5375 34.7938C63.6812 31.3438 62.0375 28.7479 58.5729 28.7479H54.0979ZM47.3979 57.5125H47.4333C47.8829 57.5125 48.3223 57.6458 48.6961 57.8956C49.0699 58.1453 49.3612 58.5003 49.5332 58.9156C49.7053 59.3309 49.7503 59.7879 49.6626 60.2288C49.5749 60.6698 49.3584 61.0747 49.0405 61.3926C48.7226 61.7105 48.3176 61.927 47.8767 62.0147C47.4358 62.1024 46.9788 62.0574 46.5635 61.8853C46.1482 61.7133 45.7932 61.422 45.5435 61.0482C45.2937 60.6744 45.1604 60.235 45.1604 59.7854V59.7625C45.1604 58.5229 46.1604 57.5188 47.3979 57.5125Z" fill="white"/>
</g>
<defs>
<clipPath id="clip0_4_169">
<rect width="50" height="50" fill="white" transform="translate(16 16)"/>
</clipPath>
</defs>
</svg>
