<svg width="80" height="107" viewBox="0 0 80 107" fill="none" xmlns="http://www.w3.org/2000/svg">
<circle cx="40" cy="40" r="40" fill="#363636"/>
<path d="M6.50808 103V89.9091H10.9314C11.9541 89.9091 12.7936 90.0838 13.4498 90.4332C14.1061 90.7784 14.5919 91.2536 14.9072 91.8587C15.2226 92.4638 15.3802 93.152 15.3802 93.9233C15.3802 94.6946 15.2226 95.3786 14.9072 95.9751C14.5919 96.5717 14.1082 97.0405 13.4562 97.3814C12.8042 97.718 11.9711 97.8864 10.9569 97.8864H7.3774V96.4545H10.9058C11.6047 96.4545 12.1672 96.3523 12.5933 96.1477C13.0237 95.9432 13.3348 95.6534 13.5265 95.2784C13.7226 94.8991 13.8206 94.4474 13.8206 93.9233C13.8206 93.3991 13.7226 92.9411 13.5265 92.549C13.3305 92.157 13.0173 91.8544 12.5869 91.6413C12.1565 91.424 11.5876 91.3153 10.8802 91.3153H8.09331V103H6.50808ZM12.67 97.1193L15.8916 103H14.0507L10.8802 97.1193H12.67ZM21.8282 103.205C20.8822 103.205 20.0661 102.996 19.3801 102.578C18.6982 102.156 18.172 101.568 17.8012 100.814C17.4347 100.055 17.2515 99.1733 17.2515 98.1676C17.2515 97.1619 17.4347 96.2756 17.8012 95.5085C18.172 94.7372 18.6876 94.1364 19.3481 93.706C20.0129 93.2713 20.7884 93.054 21.6748 93.054C22.1862 93.054 22.6911 93.1392 23.1897 93.3097C23.6883 93.4801 24.1421 93.7571 24.5512 94.1406C24.9603 94.5199 25.2863 95.0227 25.5292 95.6491C25.7721 96.2756 25.8936 97.0469 25.8936 97.9631V98.6023H18.3254V97.2983H24.3595C24.3595 96.7443 24.2487 96.25 24.0271 95.8153C23.8097 95.3807 23.4987 95.0376 23.0938 94.7862C22.6933 94.5348 22.2203 94.4091 21.6748 94.4091C21.074 94.4091 20.5541 94.5582 20.1151 94.8565C19.6805 95.1506 19.346 95.5341 19.1116 96.0071C18.8772 96.4801 18.76 96.9872 18.76 97.5284V98.3977C18.76 99.1392 18.8879 99.7678 19.1436 100.283C19.4035 100.795 19.7636 101.185 20.2238 101.453C20.684 101.717 21.2188 101.849 21.8282 101.849C22.2245 101.849 22.5825 101.794 22.9021 101.683C23.2259 101.568 23.5051 101.398 23.7394 101.172C23.9738 100.942 24.1549 100.656 24.2828 100.315L25.7401 100.724C25.5867 101.219 25.3289 101.653 24.9667 102.028C24.6045 102.399 24.157 102.689 23.6244 102.898C23.0917 103.102 22.493 103.205 21.8282 103.205ZM28.1883 103V93.1818H29.6457V94.7159H29.7735C29.9781 94.1918 30.3083 93.7848 30.7643 93.495C31.2203 93.201 31.7678 93.054 32.407 93.054C33.0548 93.054 33.5938 93.201 34.0242 93.495C34.4589 93.7848 34.7977 94.1918 35.0406 94.7159H35.1428C35.3943 94.2088 35.7714 93.8061 36.2742 93.5078C36.7771 93.2053 37.3801 93.054 38.0832 93.054C38.961 93.054 39.6791 93.3288 40.2373 93.8786C40.7955 94.424 41.0747 95.2741 41.0747 96.429V103H39.5661V96.429C39.5661 95.7045 39.368 95.1868 38.9717 94.8757C38.5754 94.5646 38.1088 94.4091 37.5718 94.4091C36.8815 94.4091 36.3467 94.6179 35.9674 95.0355C35.5882 95.4489 35.3985 95.973 35.3985 96.608V103H33.8644V96.2756C33.8644 95.7173 33.6833 95.2678 33.3211 94.9268C32.9589 94.5817 32.4923 94.4091 31.9213 94.4091C31.5292 94.4091 31.1627 94.5135 30.8218 94.7223C30.4852 94.9311 30.2124 95.2209 30.0036 95.5916C29.7991 95.9581 29.6968 96.3821 29.6968 96.8636V103H28.1883ZM43.8328 103V93.1818H45.3414V103H43.8328ZM44.5999 91.5455C44.3058 91.5455 44.0523 91.4453 43.8392 91.245C43.6304 91.0447 43.526 90.804 43.526 90.5227C43.526 90.2415 43.6304 90.0007 43.8392 89.8004C44.0523 89.6001 44.3058 89.5 44.5999 89.5C44.8939 89.5 45.1453 89.6001 45.3541 89.8004C45.5672 90.0007 45.6737 90.2415 45.6737 90.5227C45.6737 90.804 45.5672 91.0447 45.3541 91.245C45.1453 91.4453 44.8939 91.5455 44.5999 91.5455ZM49.2293 93.1818L51.5816 97.196L53.9339 93.1818H55.6725L52.502 98.0909L55.6725 103H53.9339L51.5816 99.1903L49.2293 103H47.4907L50.61 98.0909L47.4907 93.1818H49.2293ZM58.9244 103.102C58.6091 103.102 58.3385 102.989 58.1127 102.763C57.8868 102.538 57.7739 102.267 57.7739 101.952C57.7739 101.636 57.8868 101.366 58.1127 101.14C58.3385 100.914 58.6091 100.801 58.9244 100.801C59.2398 100.801 59.5104 100.914 59.7362 101.14C59.9621 101.366 60.075 101.636 60.075 101.952C60.075 102.161 60.0218 102.352 59.9152 102.527C59.8129 102.702 59.6744 102.842 59.4997 102.949C59.3293 103.051 59.1375 103.102 58.9244 103.102ZM62.782 93.1818H64.2906V103.716C64.2906 104.321 64.1862 104.845 63.9774 105.288C63.7728 105.732 63.4617 106.075 63.0441 106.317C62.6308 106.56 62.1088 106.682 61.4781 106.682C61.4269 106.682 61.3758 106.682 61.3247 106.682C61.2735 106.682 61.2224 106.682 61.1713 106.682V105.276C61.2224 105.276 61.2693 105.276 61.3119 105.276C61.3545 105.276 61.4014 105.276 61.4525 105.276C61.9127 105.276 62.2494 105.139 62.4624 104.866C62.6755 104.598 62.782 104.214 62.782 103.716V93.1818ZM63.5235 91.5455C63.2295 91.5455 62.9759 91.4453 62.7629 91.245C62.5541 91.0447 62.4497 90.804 62.4497 90.5227C62.4497 90.2415 62.5541 90.0007 62.7629 89.8004C62.9759 89.6001 63.2295 89.5 63.5235 89.5C63.8176 89.5 64.069 89.6001 64.2778 89.8004C64.4909 90.0007 64.5974 90.2415 64.5974 90.5227C64.5974 90.804 64.4909 91.0447 64.2778 91.245C64.069 91.4453 63.8176 91.5455 63.5235 91.5455ZM74.0081 95.3807L72.653 95.7642C72.5677 95.5384 72.442 95.3189 72.2758 95.1058C72.1139 94.8885 71.8923 94.7095 71.6111 94.5689C71.3298 94.4283 70.9697 94.358 70.5308 94.358C69.93 94.358 69.4292 94.4964 69.0287 94.7734C68.6324 95.0462 68.4342 95.3935 68.4342 95.8153C68.4342 96.1903 68.5706 96.4865 68.8433 96.7038C69.116 96.9212 69.5422 97.1023 70.1217 97.2472L71.5791 97.6051C72.4569 97.8182 73.1111 98.1442 73.5415 98.5831C73.9719 99.0178 74.1871 99.5781 74.1871 100.264C74.1871 100.827 74.0251 101.33 73.7013 101.773C73.3817 102.216 72.9342 102.565 72.3589 102.821C71.7836 103.077 71.1146 103.205 70.3518 103.205C69.3504 103.205 68.5216 102.987 67.8653 102.553C67.2091 102.118 66.7936 101.483 66.6189 100.648L68.0507 100.29C68.1871 100.818 68.4449 101.214 68.8241 101.479C69.2077 101.743 69.7084 101.875 70.3263 101.875C71.0294 101.875 71.5876 101.726 72.001 101.428C72.4186 101.125 72.6274 100.763 72.6274 100.341C72.6274 100 72.5081 99.7145 72.2694 99.4844C72.0308 99.25 71.6643 99.0753 71.17 98.9602L69.5336 98.5767C68.6345 98.3636 67.974 98.0334 67.5521 97.5859C67.1345 97.1342 66.9257 96.5696 66.9257 95.892C66.9257 95.3381 67.0812 94.848 67.3923 94.4219C67.7077 93.9957 68.1359 93.6612 68.6771 93.4183C69.2226 93.1754 69.8405 93.054 70.5308 93.054C71.5024 93.054 72.2652 93.267 72.8192 93.6932C73.3774 94.1193 73.7737 94.6818 74.0081 95.3807Z" fill="#363636"/>
<g clip-path="url(#clip0_4_110)">
<g clip-path="url(#clip1_4_110)">
<path d="M58.59 37.5094V48.3585H54.809V37.5094H58.59ZM63.4657 37.488L65.1928 40.0666L66.9665 37.488H70.8642L67.0833 42.6451L71.1909 48.3372H67.0132L64.9361 45.3938L62.8589 48.3372H58.9612L63.0456 42.8153L59.2882 37.4881H63.4659L63.4657 37.488ZM49.8614 37.1453C52.7034 37.1453 53.5554 39.1719 53.5721 41.4075L53.5724 41.4753V48.2864H49.7913V42.4771L49.7906 42.3898L49.7894 42.3041L49.7873 42.2201L49.7846 42.1379C49.7841 42.1244 49.7836 42.1109 49.783 42.0974L49.7791 42.0177C49.7777 41.9917 49.7761 41.9657 49.7744 41.9398L49.769 41.8635C49.7681 41.851 49.767 41.8385 49.766 41.8261L49.7592 41.7524L49.7516 41.6805C49.6443 40.7448 49.2944 40.2591 48.391 40.2591C47.3197 40.2591 46.8555 41.0324 46.7403 42.2653L46.7328 42.353C46.7188 42.53 46.7117 42.7162 46.7107 42.9105L46.7106 48.2864H42.9296V42.5213L42.9293 42.4332C42.9293 42.4186 42.929 42.4041 42.9289 42.3897L42.9275 42.3041L42.9254 42.2201L42.9225 42.1379L42.9187 42.0574C42.9181 42.0442 42.9174 42.0309 42.9166 42.0177L42.9116 41.9398L42.9057 41.8635L42.899 41.789C42.8008 40.7824 42.4438 40.2591 41.5059 40.2591C40.2813 40.2591 39.8345 41.3081 39.8257 42.9103L39.8256 48.2864H36.0446V37.4372H39.8256V39.067C40.3857 37.8751 41.506 37.1453 43.0697 37.1453C44.9135 37.1453 45.8703 38.0211 46.3139 39.286C46.874 38.0697 48.1109 37.1453 49.8613 37.1453H49.8614ZM29.8903 36.8026C33.3333 36.8026 35.1746 39.2344 35.2112 42.1391L35.2117 42.2273V43.3219H27.9065C27.9999 44.6598 28.9336 45.2922 30.0771 45.2922C31.0908 45.2922 31.7406 44.9369 32.0939 44.109L32.1076 44.0761L35.1417 44.3679C34.605 46.8492 32.6911 48.2357 29.937 48.2357C26.5995 48.2357 24.219 46.1436 24.219 42.6895C24.219 39.2595 26.6463 36.8026 29.8904 36.8026H29.8903ZM18.2651 32.8621C22.0784 32.8621 23.9735 34.7397 23.9735 37.7388C23.9735 39.9822 22.6399 41.4452 20.8385 41.6891C22.3592 42.0061 23.2482 42.9083 23.4119 44.6883L23.4357 45.0156L23.4565 45.3216L23.4743 45.6079L23.4867 45.8237L23.5001 46.0783L23.5071 46.2237L23.5168 46.4546L23.5248 46.6728L23.5288 46.798L23.534 46.9989L23.5387 47.2285L23.5404 47.3395L23.5433 47.661L23.5442 47.9966L23.5443 48.1972H19.6117C19.6117 48.1126 19.6124 48.0311 19.6133 47.9511L19.6156 47.7928L19.6224 47.4092L19.6242 47.2807L19.6254 47.1478L19.6255 47.0791L19.6254 46.9503L19.6242 46.8151L19.6226 46.7089L19.6194 46.5604L19.6147 46.4028L19.6084 46.2354L19.6004 46.0569L19.5957 45.9633L19.5876 45.817L19.5784 45.6633L19.5641 45.4461L19.5517 45.2734C19.4429 43.6407 18.8081 43.189 17.6471 43.1338L17.5714 43.1307L17.4943 43.1288C17.4681 43.1283 17.442 43.128 17.4158 43.1278L11.1909 43.1277V39.9333H17.5631C19.2476 39.9333 20.0897 39.3992 20.0897 37.9849C20.0897 36.7414 19.2476 35.9877 17.5631 35.9877H11.1909V32.8621H18.2651ZM15.3491 45.8159C15.8649 45.8159 16.0809 46.1123 16.1577 46.396L16.166 46.4287L16.1697 46.4449L16.1762 46.4772L16.1817 46.5091L16.184 46.5249L16.1879 46.556L16.1908 46.5866L16.192 46.6015L16.1935 46.631L16.194 46.6453L16.1943 46.6731V48.1972H11.1909V45.8159H15.3491ZM29.8436 39.6244C28.897 39.6244 28.3622 40.098 28.1062 40.7913L28.087 40.845L28.069 40.8995C28.0514 40.9546 28.0356 41.0108 28.0211 41.068L28.0073 41.1258C27.9985 41.1646 27.9903 41.2037 27.9827 41.2434L27.9719 41.3031C27.9701 41.3131 27.9685 41.3232 27.9669 41.3333L27.9575 41.3939L27.9532 41.4246H31.6174C31.5706 40.4515 30.9638 39.6243 29.8436 39.6243V39.6244ZM58.6132 33.0334V36.4876H54.7858V33.0334H58.6134H58.6132Z" fill="white"/>
</g>
</g>
<defs>
<clipPath id="clip0_4_110">
<rect width="72" height="75" fill="white" transform="translate(2.5 7)"/>
</clipPath>
<clipPath id="clip1_4_110">
<rect width="65.4545" height="15.5172" fill="white" transform="translate(9.04546 32.8621)"/>
</clipPath>
</defs>
</svg>
