<svg width="80" height="107" viewBox="0 0 80 107" fill="none" xmlns="http://www.w3.org/2000/svg">
<circle cx="40" cy="40" r="40" fill="#4072F2"/>
<path d="M40 45.6388C42.5888 45.6388 44.6875 43.5401 44.6875 40.9512C44.6875 38.3624 42.5888 36.2637 40 36.2637C37.4112 36.2637 35.3125 38.3624 35.3125 40.9512C35.3125 43.5401 37.4112 45.6388 40 45.6388Z" fill="white"/>
<path d="M40 51.6987C34.3659 51.835 28.7459 51.0756 23.35 49.4487C20.8574 48.6586 18.5326 47.4139 16.4931 45.7775C15.7149 45.2185 15.0668 44.4977 14.5933 43.6646C14.1198 42.8316 13.8321 41.9059 13.75 40.9512C13.75 37.8519 17.155 34.8144 22.8587 32.8269C28.3989 31.0658 34.1874 30.2123 40 30.2994C45.7351 30.2192 51.446 31.0573 56.9162 32.7819C59.3168 33.5472 61.5627 34.7317 63.55 36.2806C64.315 36.8136 64.9533 37.5082 65.4199 38.3154C65.8865 39.1225 66.1699 40.0224 66.25 40.9512C66.25 44.1725 62.4438 47.4369 56.3125 49.4656C51.0211 51.0394 45.5197 51.7926 40 51.6987ZM40 32.5419C34.439 32.4675 28.9015 33.2789 23.5956 34.9456C18.3456 36.7775 15.9925 39.2825 15.9925 40.9456C15.9925 42.6856 18.5219 45.4212 24.0756 47.3206C29.2376 48.8691 34.6124 49.5899 40 49.4562C45.2808 49.5507 50.5449 48.8362 55.6094 47.3375C61.375 45.4269 64 42.6875 64 40.9512C63.9054 40.3554 63.6883 39.7857 63.3623 39.278C63.0364 38.7704 62.6087 38.3358 62.1063 38.0019C60.3283 36.6278 58.3219 35.5779 56.1794 34.9006C50.9463 33.2577 45.4843 32.4614 40 32.5419Z" fill="white"/>
<path d="M29.35 64.3306C28.4753 64.3507 27.6109 64.1385 26.845 63.7156C24.16 62.1669 23.23 57.7006 24.3569 51.7663C25.5993 46.0871 27.7521 40.6462 30.7319 35.6544C33.527 30.6464 37.1053 26.118 41.3312 22.2406C43.1934 20.5432 45.3416 19.1891 47.6763 18.2413C48.5207 17.8455 49.4418 17.6404 50.3744 17.6404C51.3069 17.6404 52.2281 17.8455 53.0725 18.2413C55.8644 19.85 56.7888 24.7775 55.4856 31.1019C54.2048 36.4729 52.1079 41.6158 49.2681 46.3513C46.5714 51.3 43.1057 55.7891 39.0006 59.6506C37.0708 61.4146 34.8313 62.8062 32.395 63.755C31.4197 64.117 30.3902 64.3116 29.35 64.3306ZM32.6744 36.7681C29.8321 41.5481 27.7687 46.7501 26.5619 52.1788C25.525 57.6444 26.5206 60.9313 27.9681 61.7675C29.4681 62.6356 33.1094 61.8125 37.5306 57.95C41.4494 54.2505 44.7573 49.9535 47.3313 45.2188C50.0518 40.6916 52.0632 35.7746 53.2956 30.6388C54.5219 24.6856 53.4625 21.0406 51.9588 20.1744C51.3951 19.9584 50.7929 19.8618 50.19 19.8905C49.5871 19.9192 48.9968 20.0727 48.4563 20.3413C46.3782 21.1988 44.4676 22.4162 42.8125 23.9375C38.775 27.6515 35.3569 31.9868 32.6875 36.7794L32.6744 36.7681Z" fill="white"/>
<path d="M50.6444 64.355C48.1037 64.355 44.8769 62.8175 41.5169 59.9281C37.2169 56.0155 33.5781 51.4332 30.7412 46.3587C27.7989 41.4357 25.6631 36.0735 24.415 30.4756C23.8737 28.0128 23.7734 25.4735 24.1187 22.9756C24.1986 22.049 24.4807 21.1512 24.9453 20.3455C25.4099 19.5398 26.0455 18.8458 26.8075 18.3125C29.5956 16.6981 34.3262 18.3575 39.1544 22.6437C43.168 26.4353 46.5763 30.8201 49.2606 35.645C52.2012 40.4531 54.3593 45.6979 55.6544 51.1831C56.219 53.7363 56.3061 56.372 55.9112 58.9569C55.8173 59.9101 55.5183 60.8318 55.0348 61.6587C54.5513 62.4856 53.8947 63.1981 53.11 63.7475C52.3565 64.1651 51.5056 64.3748 50.6444 64.355ZM32.6819 45.23C35.4033 50.0796 38.8793 54.465 42.9794 58.2219C47.1962 61.85 50.5412 62.63 51.9794 61.7844C53.4794 60.9125 54.5856 57.3537 53.4456 51.5956C52.1966 46.3586 50.1267 41.3523 47.3125 36.7625C44.7509 32.1446 41.4976 27.946 37.6656 24.3125C33.1206 20.2775 29.4344 19.3756 27.9325 20.2456C27.4644 20.626 27.0802 21.0994 26.8043 21.6357C26.5284 22.1721 26.3667 22.7598 26.3294 23.3619C26.0313 25.5895 26.1284 27.8523 26.6162 30.0462C27.8168 35.3996 29.8651 40.5268 32.6837 45.2337L32.6819 45.23Z" fill="white"/>
<path d="M7.95827 103V89.9091H12.3816C13.4043 89.9091 14.2438 90.0838 14.9 90.4332C15.5563 90.7784 16.0421 91.2536 16.3574 91.8587C16.6728 92.4638 16.8304 93.152 16.8304 93.9233C16.8304 94.6946 16.6728 95.3786 16.3574 95.9751C16.0421 96.5717 15.5584 97.0405 14.9064 97.3814C14.2544 97.718 13.4213 97.8864 12.4071 97.8864H8.82759V96.4545H12.356C13.0549 96.4545 13.6174 96.3523 14.0435 96.1477C14.4739 95.9432 14.785 95.6534 14.9767 95.2784C15.1728 94.8991 15.2708 94.4474 15.2708 93.9233C15.2708 93.3991 15.1728 92.9411 14.9767 92.549C14.7807 92.157 14.4675 91.8544 14.0371 91.6413C13.6067 91.424 13.0378 91.3153 12.3304 91.3153H9.5435V103H7.95827ZM14.1202 97.1193L17.3418 103H15.5009L12.3304 97.1193H14.1202ZM23.2784 103.205C22.3324 103.205 21.5163 102.996 20.8303 102.578C20.1484 102.156 19.6222 101.568 19.2514 100.814C18.8849 100.055 18.7017 99.1733 18.7017 98.1676C18.7017 97.1619 18.8849 96.2756 19.2514 95.5085C19.6222 94.7372 20.1378 94.1364 20.7983 93.706C21.4631 93.2713 22.2386 93.054 23.125 93.054C23.6364 93.054 24.1413 93.1392 24.6399 93.3097C25.1385 93.4801 25.5923 93.7571 26.0014 94.1406C26.4105 94.5199 26.7365 95.0227 26.9794 95.6491C27.2223 96.2756 27.3438 97.0469 27.3438 97.9631V98.6023H19.7756V97.2983H25.8097C25.8097 96.7443 25.6989 96.25 25.4773 95.8153C25.2599 95.3807 24.9489 95.0376 24.544 94.7862C24.1435 94.5348 23.6705 94.4091 23.125 94.4091C22.5241 94.4091 22.0043 94.5582 21.5653 94.8565C21.1307 95.1506 20.7962 95.5341 20.5618 96.0071C20.3274 96.4801 20.2102 96.9872 20.2102 97.5284V98.3977C20.2102 99.1392 20.3381 99.7678 20.5938 100.283C20.8537 100.795 21.2138 101.185 21.674 101.453C22.1342 101.717 22.669 101.849 23.2784 101.849C23.6747 101.849 24.0327 101.794 24.3523 101.683C24.6761 101.568 24.9553 101.398 25.1896 101.172C25.424 100.942 25.6051 100.656 25.733 100.315L27.1903 100.724C27.0369 101.219 26.7791 101.653 26.4169 102.028C26.0547 102.399 25.6072 102.689 25.0746 102.898C24.5419 103.102 23.9432 103.205 23.2784 103.205ZM32.5277 103.23C31.9055 103.23 31.3409 103.113 30.8338 102.879C30.3267 102.64 29.924 102.297 29.6257 101.849C29.3274 101.398 29.1783 100.852 29.1783 100.213C29.1783 99.6506 29.2891 99.1946 29.5107 98.8452C29.7322 98.4915 30.0284 98.2145 30.3991 98.0142C30.7699 97.8139 31.179 97.6648 31.6264 97.5668C32.0781 97.4645 32.532 97.3835 32.9879 97.3239C33.5845 97.2472 34.0682 97.1896 34.4389 97.1513C34.8139 97.1087 35.0866 97.0384 35.2571 96.9403C35.4318 96.8423 35.5192 96.6719 35.5192 96.429V96.3778C35.5192 95.7472 35.3466 95.2571 35.0014 94.9077C34.6605 94.5582 34.1428 94.3835 33.4482 94.3835C32.728 94.3835 32.1634 94.5412 31.7543 94.8565C31.3452 95.1719 31.0575 95.5085 30.8913 95.8665L29.4595 95.3551C29.7152 94.7585 30.0561 94.294 30.4822 93.9616C30.9126 93.625 31.3814 93.3906 31.8885 93.2585C32.3999 93.1222 32.9027 93.054 33.397 93.054C33.7124 93.054 34.0746 93.0923 34.4837 93.169C34.897 93.2415 35.2955 93.3928 35.679 93.6229C36.0668 93.853 36.3885 94.2003 36.6442 94.6648C36.8999 95.1293 37.0277 95.7514 37.0277 96.5312V103H35.5192V101.67H35.4425C35.3402 101.884 35.1697 102.112 34.9311 102.354C34.6925 102.597 34.375 102.804 33.9787 102.974C33.5824 103.145 33.0987 103.23 32.5277 103.23ZM32.7578 101.875C33.3544 101.875 33.8572 101.758 34.2663 101.523C34.6797 101.289 34.9908 100.987 35.1996 100.616C35.4126 100.245 35.5192 99.8551 35.5192 99.446V98.0653C35.4553 98.142 35.3146 98.2124 35.0973 98.2763C34.8842 98.3359 34.6371 98.3892 34.3558 98.4361C34.0788 98.4787 33.8082 98.517 33.544 98.5511C33.2841 98.581 33.0732 98.6065 32.9112 98.6278C32.5192 98.679 32.1527 98.7621 31.8118 98.8771C31.4751 98.9879 31.2024 99.1562 30.9936 99.3821C30.7891 99.6037 30.6868 99.9062 30.6868 100.29C30.6868 100.814 30.8807 101.21 31.2685 101.479C31.6605 101.743 32.157 101.875 32.7578 101.875ZM43.7697 103.205C42.8493 103.205 42.0566 102.987 41.3919 102.553C40.7271 102.118 40.2157 101.519 39.8578 100.756C39.4998 99.9936 39.3208 99.1222 39.3208 98.142C39.3208 97.1449 39.5041 96.2649 39.8706 95.5021C40.2413 94.7351 40.7569 94.1364 41.4174 93.706C42.0822 93.2713 42.8578 93.054 43.7441 93.054C44.4345 93.054 45.0566 93.1818 45.6106 93.4375C46.1646 93.6932 46.6184 94.0511 46.9721 94.5114C47.3258 94.9716 47.5453 95.5085 47.6305 96.1222H46.122C46.0069 95.6747 45.7512 95.2784 45.3549 94.9332C44.9629 94.5838 44.4345 94.4091 43.7697 94.4091C43.1816 94.4091 42.666 94.5625 42.2228 94.8693C41.7839 95.1719 41.4409 95.6001 41.1937 96.1541C40.9508 96.7038 40.8294 97.3494 40.8294 98.0909C40.8294 98.8494 40.9487 99.5099 41.1873 100.072C41.4302 100.635 41.7711 101.072 42.21 101.383C42.6532 101.694 43.1731 101.849 43.7697 101.849C44.1618 101.849 44.5176 101.781 44.8372 101.645C45.1568 101.509 45.4274 101.312 45.649 101.057C45.8706 100.801 46.0282 100.494 46.122 100.136H47.6305C47.5453 100.716 47.3343 101.238 46.9977 101.702C46.6653 102.163 46.2243 102.529 45.6745 102.802C45.1291 103.07 44.4941 103.205 43.7697 103.205ZM54.1056 93.1818V94.4602H49.0176V93.1818H54.1056ZM50.5005 90.8295H52.0091V100.188C52.0091 100.614 52.0708 100.933 52.1944 101.146C52.3223 101.355 52.4842 101.496 52.6802 101.568C52.8805 101.636 53.0914 101.67 53.313 101.67C53.4792 101.67 53.6156 101.662 53.7221 101.645C53.8287 101.624 53.9139 101.607 53.9778 101.594L54.2846 102.949C54.1824 102.987 54.0396 103.026 53.8564 103.064C53.6731 103.107 53.4409 103.128 53.1596 103.128C52.7335 103.128 52.3159 103.036 51.9068 102.853C51.502 102.67 51.1653 102.391 50.8968 102.016C50.6326 101.641 50.5005 101.168 50.5005 100.597V90.8295ZM57.4743 103.102C57.1589 103.102 56.8883 102.989 56.6625 102.763C56.4366 102.538 56.3237 102.267 56.3237 101.952C56.3237 101.636 56.4366 101.366 56.6625 101.14C56.8883 100.914 57.1589 100.801 57.4743 100.801C57.7896 100.801 58.0602 100.914 58.286 101.14C58.5119 101.366 58.6248 101.636 58.6248 101.952C58.6248 102.161 58.5716 102.352 58.465 102.527C58.3627 102.702 58.2243 102.842 58.0495 102.949C57.8791 103.051 57.6873 103.102 57.4743 103.102ZM61.3319 93.1818H62.8404V103.716C62.8404 104.321 62.736 104.845 62.5272 105.288C62.3226 105.732 62.0115 106.075 61.5939 106.317C61.1806 106.56 60.6586 106.682 60.0279 106.682C59.9767 106.682 59.9256 106.682 59.8745 106.682C59.8233 106.682 59.7722 106.682 59.7211 106.682V105.276C59.7722 105.276 59.8191 105.276 59.8617 105.276C59.9043 105.276 59.9512 105.276 60.0023 105.276C60.4625 105.276 60.7992 105.139 61.0123 104.866C61.2253 104.598 61.3319 104.214 61.3319 103.716V93.1818ZM62.0733 91.5455C61.7793 91.5455 61.5257 91.4453 61.3127 91.245C61.1039 91.0447 60.9995 90.804 60.9995 90.5227C60.9995 90.2415 61.1039 90.0007 61.3127 89.8004C61.5257 89.6001 61.7793 89.5 62.0733 89.5C62.3674 89.5 62.6188 89.6001 62.8276 89.8004C63.0407 90.0007 63.1472 90.2415 63.1472 90.5227C63.1472 90.804 63.0407 91.0447 62.8276 91.245C62.6188 91.4453 62.3674 91.5455 62.0733 91.5455ZM72.5579 95.3807L71.2028 95.7642C71.1175 95.5384 70.9918 95.3189 70.8256 95.1058C70.6637 94.8885 70.4421 94.7095 70.1609 94.5689C69.8796 94.4283 69.5195 94.358 69.0806 94.358C68.4798 94.358 67.979 94.4964 67.5785 94.7734C67.1822 95.0462 66.984 95.3935 66.984 95.8153C66.984 96.1903 67.1204 96.4865 67.3931 96.7038C67.6658 96.9212 68.092 97.1023 68.6715 97.2472L70.1289 97.6051C71.0067 97.8182 71.6609 98.1442 72.0913 98.5831C72.5217 99.0178 72.7369 99.5781 72.7369 100.264C72.7369 100.827 72.5749 101.33 72.2511 101.773C71.9315 102.216 71.484 102.565 70.9087 102.821C70.3335 103.077 69.6644 103.205 68.9016 103.205C67.9002 103.205 67.0714 102.987 66.4151 102.553C65.7589 102.118 65.3434 101.483 65.1687 100.648L66.6005 100.29C66.7369 100.818 66.9947 101.214 67.3739 101.479C67.7575 101.743 68.2582 101.875 68.8761 101.875C69.5792 101.875 70.1374 101.726 70.5508 101.428C70.9684 101.125 71.1772 100.763 71.1772 100.341C71.1772 100 71.0579 99.7145 70.8192 99.4844C70.5806 99.25 70.2141 99.0753 69.7198 98.9602L68.0835 98.5767C67.1843 98.3636 66.5238 98.0334 66.1019 97.5859C65.6843 97.1342 65.4755 96.5696 65.4755 95.892C65.4755 95.3381 65.631 94.848 65.9421 94.4219C66.2575 93.9957 66.6857 93.6612 67.2269 93.4183C67.7724 93.1754 68.3903 93.054 69.0806 93.054C70.0522 93.054 70.815 93.267 71.369 93.6932C71.9272 94.1193 72.3235 94.6818 72.5579 95.3807Z" fill="#4072F2"/>
</svg>
