<svg width="80" height="107" viewBox="0 0 80 107" fill="none" xmlns="http://www.w3.org/2000/svg">
<circle cx="40" cy="40" r="40" fill="#D69A9A"/>
<path d="M10.2043 103L6.62473 89.9091H8.23553L10.9713 100.571H11.0992L13.8861 89.9091H15.6759L18.4628 100.571H18.5906L21.3264 89.9091H22.9372L19.3577 103H17.7213L14.8321 92.5682H14.7298L11.8406 103H10.2043ZM27.9102 103.205C26.9642 103.205 26.1482 102.996 25.4621 102.578C24.7803 102.156 24.254 101.568 23.8833 100.814C23.5168 100.055 23.3335 99.1733 23.3335 98.1676C23.3335 97.1619 23.5168 96.2756 23.8833 95.5085C24.254 94.7372 24.7696 94.1364 25.4301 93.706C26.0949 93.2713 26.8705 93.054 27.7568 93.054C28.2682 93.054 28.7732 93.1392 29.2718 93.3097C29.7703 93.4801 30.2242 93.7571 30.6333 94.1406C31.0423 94.5199 31.3683 95.0227 31.6112 95.6491C31.8541 96.2756 31.9756 97.0469 31.9756 97.9631V98.6023H24.4074V97.2983H30.4415C30.4415 96.7443 30.3307 96.25 30.1091 95.8153C29.8918 95.3807 29.5807 95.0376 29.1759 94.7862C28.7753 94.5348 28.3023 94.4091 27.7568 94.4091C27.156 94.4091 26.6361 94.5582 26.1972 94.8565C25.7625 95.1506 25.428 95.5341 25.1936 96.0071C24.9593 96.4801 24.8421 96.9872 24.8421 97.5284V98.3977C24.8421 99.1392 24.9699 99.7678 25.2256 100.283C25.4855 100.795 25.8456 101.185 26.3058 101.453C26.7661 101.717 27.3009 101.849 27.9102 101.849C28.3066 101.849 28.6645 101.794 28.9841 101.683C29.308 101.568 29.5871 101.398 29.8215 101.172C30.0558 100.942 30.2369 100.656 30.3648 100.315L31.8222 100.724C31.6688 101.219 31.411 101.653 31.0487 102.028C30.6865 102.399 30.2391 102.689 29.7064 102.898C29.1737 103.102 28.575 103.205 27.9102 103.205ZM34.4749 103V89.9091H35.9834V94.7415H36.1112C36.222 94.571 36.3754 94.3537 36.5715 94.0895C36.7718 93.821 37.0573 93.5824 37.428 93.3736C37.803 93.1605 38.3101 93.054 38.9493 93.054C39.776 93.054 40.5047 93.2607 41.1354 93.674C41.7661 94.0874 42.2583 94.6733 42.612 95.4318C42.9656 96.1903 43.1425 97.0852 43.1425 98.1165C43.1425 99.1562 42.9656 100.058 42.612 100.82C42.2583 101.579 41.7682 102.167 41.1418 102.585C40.5154 102.998 39.7931 103.205 38.9749 103.205C38.3442 103.205 37.8392 103.1 37.46 102.891C37.0807 102.678 36.7888 102.437 36.5843 102.169C36.3797 101.896 36.222 101.67 36.1112 101.491H35.9323V103H34.4749ZM35.9578 98.0909C35.9578 98.8324 36.0665 99.4865 36.2838 100.053C36.5012 100.616 36.8186 101.057 37.2362 101.376C37.6539 101.692 38.1652 101.849 38.7703 101.849C39.401 101.849 39.9273 101.683 40.3492 101.351C40.7753 101.014 41.0949 100.562 41.308 99.9957C41.5253 99.4247 41.634 98.7898 41.634 98.0909C41.634 97.4006 41.5274 96.7784 41.3144 96.2244C41.1056 95.6662 40.7881 95.2251 40.3619 94.9013C39.9401 94.5732 39.4095 94.4091 38.7703 94.4091C38.1567 94.4091 37.6411 94.5646 37.2235 94.8757C36.8058 95.1825 36.4905 95.6129 36.2774 96.1669C36.0644 96.7166 35.9578 97.358 35.9578 98.0909ZM49.8477 103.179C49.004 103.179 48.2519 103.034 47.5914 102.744C46.9351 102.455 46.4131 102.052 46.0253 101.536C45.6418 101.016 45.433 100.413 45.3989 99.7273H47.0097C47.0438 100.149 47.1887 100.513 47.4443 100.82C47.7 101.123 48.0345 101.357 48.4479 101.523C48.8612 101.69 49.3193 101.773 49.8222 101.773C50.3847 101.773 50.8833 101.675 51.3179 101.479C51.7526 101.283 52.0935 101.01 52.3406 100.661C52.5878 100.311 52.7114 99.9062 52.7114 99.446C52.7114 98.9645 52.5921 98.5405 52.3534 98.174C52.1148 97.8033 51.7654 97.5135 51.3051 97.3047C50.8449 97.0959 50.2824 96.9915 49.6176 96.9915H48.5693V95.5852H49.6176C50.1375 95.5852 50.5935 95.4915 50.9855 95.304C51.3818 95.1165 51.6908 94.8523 51.9124 94.5114C52.1382 94.1705 52.2512 93.7699 52.2512 93.3097C52.2512 92.8665 52.1531 92.4808 51.9571 92.1527C51.7611 91.8246 51.4841 91.5689 51.1262 91.3857C50.7725 91.2024 50.3548 91.1108 49.8733 91.1108C49.4216 91.1108 48.9955 91.1939 48.5949 91.3601C48.1986 91.522 47.8747 91.7585 47.6233 92.0696C47.3719 92.3764 47.2355 92.7472 47.2142 93.1818H45.6801C45.7057 92.4957 45.9124 91.8949 46.3002 91.3793C46.6879 90.8594 47.195 90.4545 47.8215 90.1648C48.4521 89.875 49.1446 89.7301 49.8989 89.7301C50.7085 89.7301 51.4031 89.8942 51.9827 90.2223C52.5622 90.5462 53.0075 90.9744 53.3186 91.5071C53.6297 92.0398 53.7852 92.6151 53.7852 93.233C53.7852 93.9702 53.5914 94.5987 53.2036 95.1186C52.82 95.6385 52.298 95.9986 51.6375 96.1989V96.3011C52.4642 96.4375 53.1098 96.7891 53.5743 97.3558C54.0388 97.9183 54.271 98.6151 54.271 99.446C54.271 100.158 54.0771 100.797 53.6894 101.364C53.3058 101.926 52.7817 102.369 52.1169 102.693C51.4521 103.017 50.6958 103.179 49.8477 103.179ZM57.6061 103.102C57.2907 103.102 57.0202 102.989 56.7943 102.763C56.5684 102.538 56.4555 102.267 56.4555 101.952C56.4555 101.636 56.5684 101.366 56.7943 101.14C57.0202 100.914 57.2907 100.801 57.6061 100.801C57.9214 100.801 58.192 100.914 58.4179 101.14C58.6437 101.366 58.7567 101.636 58.7567 101.952C58.7567 102.161 58.7034 102.352 58.5969 102.527C58.4946 102.702 58.3561 102.842 58.1814 102.949C58.0109 103.051 57.8192 103.102 57.6061 103.102ZM61.4637 93.1818H62.9722V103.716C62.9722 104.321 62.8678 104.845 62.659 105.288C62.4545 105.732 62.1434 106.075 61.7258 106.317C61.3124 106.56 60.7904 106.682 60.1597 106.682C60.1086 106.682 60.0574 106.682 60.0063 106.682C59.9552 106.682 59.904 106.682 59.8529 106.682V105.276C59.904 105.276 59.9509 105.276 59.9935 105.276C60.0361 105.276 60.083 105.276 60.1341 105.276C60.5944 105.276 60.931 105.139 61.1441 104.866C61.3572 104.598 61.4637 104.214 61.4637 103.716V93.1818ZM62.2052 91.5455C61.9111 91.5455 61.6576 91.4453 61.4445 91.245C61.2357 91.0447 61.1313 90.804 61.1313 90.5227C61.1313 90.2415 61.2357 90.0007 61.4445 89.8004C61.6576 89.6001 61.9111 89.5 62.2052 89.5C62.4992 89.5 62.7506 89.6001 62.9594 89.8004C63.1725 90.0007 63.279 90.2415 63.279 90.5227C63.279 90.804 63.1725 91.0447 62.9594 91.245C62.7506 91.4453 62.4992 91.5455 62.2052 91.5455ZM72.6897 95.3807L71.3346 95.7642C71.2494 95.5384 71.1237 95.3189 70.9575 95.1058C70.7955 94.8885 70.574 94.7095 70.2927 94.5689C70.0115 94.4283 69.6514 94.358 69.2124 94.358C68.6116 94.358 68.1109 94.4964 67.7103 94.7734C67.314 95.0462 67.1159 95.3935 67.1159 95.8153C67.1159 96.1903 67.2522 96.4865 67.5249 96.7038C67.7977 96.9212 68.2238 97.1023 68.8034 97.2472L70.2607 97.6051C71.1386 97.8182 71.7927 98.1442 72.2231 98.5831C72.6535 99.0178 72.8687 99.5781 72.8687 100.264C72.8687 100.827 72.7068 101.33 72.3829 101.773C72.0633 102.216 71.6159 102.565 71.0406 102.821C70.4653 103.077 69.7963 103.205 69.0335 103.205C68.032 103.205 67.2032 102.987 66.547 102.553C65.8907 102.118 65.4752 101.483 65.3005 100.648L66.7323 100.29C66.8687 100.818 67.1265 101.214 67.5058 101.479C67.8893 101.743 68.39 101.875 69.0079 101.875C69.711 101.875 70.2693 101.726 70.6826 101.428C71.1002 101.125 71.309 100.763 71.309 100.341C71.309 100 71.1897 99.7145 70.9511 99.4844C70.7124 99.25 70.346 99.0753 69.8517 98.9602L68.2153 98.5767C67.3161 98.3636 66.6556 98.0334 66.2338 97.5859C65.8161 97.1342 65.6073 96.5696 65.6073 95.892C65.6073 95.3381 65.7629 94.848 66.074 94.4219C66.3893 93.9957 66.8176 93.6612 67.3588 93.4183C67.9042 93.1754 68.5221 93.054 69.2124 93.054C70.184 93.054 70.9468 93.267 71.5008 93.6932C72.059 94.1193 72.4553 94.6818 72.6897 95.3807Z" fill="#D69A9A"/>
<path d="M16.8521 21.6146C16.8521 21.6146 15 22.6875 15 24.8229V35.5C15 35.5 15 41.9146 20.5542 45.1208C22.2562 46.1042 23.4375 46.1792 24.2562 45.8167C25.0771 47.125 26.2562 48.4125 27.9604 49.3958C33.5146 52.6042 33.5187 46.1896 33.5187 46.1896V35.5146C33.5187 33.375 35.3688 32.3083 35.3688 32.3083L42.7792 28.0292C42.7792 28.0292 44.6333 26.9583 46.4812 28.0292C48.3354 29.0979 46.4812 30.1687 46.4812 30.1687L39.0833 34.4458L42.7812 36.5812L50.1958 32.3C50.3042 32.2375 52.0958 31.2687 53.8896 32.3042C55.7437 33.375 53.8896 34.4417 53.8896 34.4417L46.4833 38.7208C46.4833 38.7208 44.6333 39.7917 44.6333 41.9292V52.6042C44.6333 52.6042 44.6333 54.7458 42.7812 53.675C40.9271 52.6063 40.9271 50.4688 40.9271 50.4688L37.2229 48.3292C37.2229 48.3292 37.225 54.7458 42.7812 57.9521C48.3375 61.1583 48.3354 54.7438 48.3354 54.7438V44.0646C48.3354 41.9271 50.1875 40.8625 50.1875 40.8625L59.4479 35.5104C59.4479 35.5104 63.1479 33.375 57.5958 30.1687C55.8896 29.1812 54.3625 28.7021 53.0604 28.5083C52.7187 27.7646 51.8833 26.8917 50.1917 25.925C44.6354 22.7521 39.0833 25.8917 39.0833 25.8917L31.675 30.1687C31.675 30.1687 29.8208 31.2396 29.8208 33.375V44.0521C29.8208 44.0521 29.8208 46.1917 27.9667 45.1229C26.1146 44.0521 26.1125 41.9146 26.1125 41.9146V31.2417C26.1125 31.1083 26.1187 30.9771 26.1333 30.85C26.3354 28.9708 27.9646 28.0312 27.9646 28.0312L24.2604 25.8917L24.2521 25.8958C24.1437 25.9583 22.4104 27.0292 22.4104 29.0979V39.775C22.4104 39.775 22.4062 41.9146 20.5542 40.8458C18.7 39.775 18.7021 37.6375 18.7021 37.6375V26.9646C18.7021 24.8271 20.5542 23.7562 20.5542 23.7562L16.8521 21.6167V21.6146ZM37.2271 39.8125V44.0896L40.9312 46.225V41.9479L37.2292 39.8125H37.2271ZM54.8146 44.3604C53.4271 44.3708 52.0396 45.1708 52.0396 48.3375C52.0396 54.6688 57.5937 57.9604 57.5937 57.9604L59.4458 59.0292C59.4458 59.0292 61.3 60.1 61.3 62.2375C61.3 64.375 59.4458 63.3063 59.4458 63.3063L52.0396 59.0292V63.3063L59.4458 67.5833C59.4458 67.5833 65 70.7896 65 64.375C65 57.9646 61.2979 55.8229 61.2979 55.8229L57.5937 53.6875C57.5937 53.6875 55.7437 52.6167 55.7437 50.4792C55.7437 48.3375 57.5937 49.4063 57.5937 49.4063L65 53.6833V49.4063L57.5937 45.1354C57.5937 45.1354 56.2042 44.3521 54.8146 44.3604Z" fill="white"/>
</svg>
