<svg width="80" height="107" viewBox="0 0 80 107" fill="none" xmlns="http://www.w3.org/2000/svg">
<circle cx="40" cy="40" r="40" fill="#4A6400"/>
<g clip-path="url(#clip0_13_420)">
<path d="M39.9133 15.3833C40.2216 15.1361 40.6049 15.0013 41 15.0013C41.3951 15.0013 41.7785 15.1361 42.0867 15.3833L46.0133 18.55L50.9567 17.36C51.3393 17.2656 51.7428 17.3054 52.0996 17.4729C52.4564 17.6404 52.7448 17.9253 52.9167 18.28L55.05 22.7967L60.03 23.82C60.83 23.9867 61.4 24.68 61.3867 25.48L61.2967 30.4533L65.3333 33.4867C65.6466 33.7181 65.8672 34.0535 65.9558 34.4328C66.0443 34.812 65.995 35.2104 65.8167 35.5567L63.5333 40L65.82 44.4433C65.9988 44.7889 66.0484 45.187 65.9598 45.5659C65.8712 45.9447 65.6502 46.2796 65.3367 46.51L62.9167 48.3333H54.6567C54.4352 48.336 54.2153 48.295 54.0097 48.2126C53.804 48.1303 53.6166 48.0083 53.4581 47.8535C53.2996 47.6987 53.1732 47.5143 53.086 47.3106C52.9988 47.107 52.9526 46.8882 52.95 46.6667C52.9481 45.4824 52.6907 44.3125 52.1954 43.2367C51.7001 42.161 50.9785 41.2048 50.08 40.4333C51.8167 39.2233 52.9467 37.24 52.9467 35C52.9467 31.3167 49.8933 28.3333 46.1233 28.3333H20.6633L20.6133 25.48C20.61 25.0884 20.7439 24.708 20.9917 24.4048C21.2395 24.1016 21.5856 23.8947 21.97 23.82L26.9533 22.7967L29.0833 18.28C29.2552 17.9253 29.5436 17.6404 29.9004 17.4729C30.2572 17.3054 30.6607 17.2656 31.0433 17.36L35.9867 18.55L39.9133 15.3833Z" fill="white"/>
<path d="M19.0867 31.6667L16.6667 33.4867C16.3534 33.7181 16.1328 34.0535 16.0442 34.4328C15.9557 34.812 16.005 35.2105 16.1833 35.5567L18.4667 40L16.1833 44.4434C16.0059 44.7892 15.9571 45.1869 16.0456 45.5654C16.1341 45.9439 16.3542 46.2787 16.6667 46.51L19.0867 48.3334H29.0533V31.6667H19.0867Z" fill="white"/>
<path d="M20.6667 51.6667L20.6133 54.52C20.61 54.9116 20.7439 55.292 20.9917 55.5952C21.2395 55.8984 21.5856 56.1053 21.97 56.18L26.9533 57.2034L29.0833 61.72C29.4267 62.4467 30.25 62.8334 31.0433 62.64L35.9867 61.45L39.9133 64.6167C40.2213 64.8645 40.6047 64.9996 41 64.9996C41.3953 64.9996 41.7787 64.8645 42.0867 64.6167L46.0133 61.45L50.9567 62.64C51.3393 62.7345 51.7428 62.6946 52.0996 62.5271C52.4564 62.3597 52.7448 62.0747 52.9167 61.72L55.05 57.2034L60.03 56.18C60.4141 56.1047 60.7599 55.8976 61.0075 55.5946C61.2552 55.2915 61.3893 54.9114 61.3867 54.52L61.3333 51.6667H54.65C51.8233 51.6667 49.53 49.4267 49.53 46.6667C49.53 43.9067 47.24 41.6667 44.4133 41.6667H32.4667V48.3334H39.2933V51.6667H20.6667ZM46.12 38.3334H32.4667V31.6667H46.12C48.0033 31.6667 49.5333 33.16 49.5333 35C49.5333 36.84 48 38.3334 46.12 38.3334Z" fill="white"/>
</g>
<path d="M22.6272 103V89.9091H27.0505C28.0732 89.9091 28.9127 90.0838 29.569 90.4332C30.2252 90.7784 30.711 91.2536 31.0264 91.8587C31.3417 92.4638 31.4994 93.152 31.4994 93.9233C31.4994 94.6946 31.3417 95.3786 31.0264 95.9751C30.711 96.5717 30.2274 97.0405 29.5754 97.3814C28.9234 97.718 28.0903 97.8864 27.0761 97.8864H23.4965V96.4545H27.0249C27.7238 96.4545 28.2863 96.3523 28.7124 96.1477C29.1428 95.9432 29.4539 95.6534 29.6457 95.2784C29.8417 94.8991 29.9397 94.4474 29.9397 93.9233C29.9397 93.3991 29.8417 92.9411 29.6457 92.549C29.4497 92.157 29.1365 91.8544 28.7061 91.6413C28.2757 91.424 27.7068 91.3153 26.9994 91.3153H24.2124V103H22.6272ZM28.7892 97.1193L32.0107 103H30.1698L26.9994 97.1193H28.7892ZM40.1238 98.9858V93.1818H41.6324V103H40.1238V101.338H40.0216C39.7915 101.837 39.4335 102.261 38.9477 102.61C38.4619 102.955 37.8483 103.128 37.1068 103.128C36.4932 103.128 35.9477 102.994 35.4704 102.725C34.9932 102.452 34.6182 102.043 34.3454 101.498C34.0727 100.948 33.9363 100.256 33.9363 99.4205V93.1818H35.4449V99.3182C35.4449 100.034 35.6452 100.605 36.0457 101.031C36.4506 101.457 36.9662 101.67 37.5926 101.67C37.9676 101.67 38.349 101.575 38.7368 101.383C39.1288 101.191 39.4569 100.897 39.7211 100.501C39.9896 100.104 40.1238 99.5994 40.1238 98.9858ZM51.3499 95.3807L49.9948 95.7642C49.9095 95.5384 49.7838 95.3189 49.6176 95.1058C49.4557 94.8885 49.2341 94.7095 48.9529 94.5689C48.6716 94.4283 48.3115 94.358 47.8726 94.358C47.2718 94.358 46.771 94.4964 46.3705 94.7734C45.9742 95.0462 45.776 95.3935 45.776 95.8153C45.776 96.1903 45.9124 96.4865 46.1851 96.7038C46.4578 96.9212 46.884 97.1023 47.4635 97.2472L48.9209 97.6051C49.7987 97.8182 50.4529 98.1442 50.8833 98.5831C51.3137 99.0178 51.5289 99.5781 51.5289 100.264C51.5289 100.827 51.3669 101.33 51.0431 101.773C50.7235 102.216 50.276 102.565 49.7007 102.821C49.1254 103.077 48.4564 103.205 47.6936 103.205C46.6922 103.205 45.8634 102.987 45.2071 102.553C44.5509 102.118 44.1354 101.483 43.9607 100.648L45.3925 100.29C45.5289 100.818 45.7867 101.214 46.1659 101.479C46.5494 101.743 47.0502 101.875 47.6681 101.875C48.3712 101.875 48.9294 101.726 49.3428 101.428C49.7604 101.125 49.9692 100.763 49.9692 100.341C49.9692 100 49.8499 99.7145 49.6112 99.4844C49.3726 99.25 49.0061 99.0753 48.5118 98.9602L46.8754 98.5767C45.9763 98.3636 45.3158 98.0334 44.8939 97.5859C44.4763 97.1342 44.2675 96.5696 44.2675 95.892C44.2675 95.3381 44.423 94.848 44.7341 94.4219C45.0494 93.9957 45.4777 93.6612 46.0189 93.4183C46.5644 93.1754 47.1823 93.054 47.8726 93.054C48.8442 93.054 49.607 93.267 50.161 93.6932C50.7192 94.1193 51.1155 94.6818 51.3499 95.3807ZM58.0695 93.1818V94.4602H52.9814V93.1818H58.0695ZM54.4644 90.8295H55.9729V100.188C55.9729 100.614 56.0347 100.933 56.1583 101.146C56.2861 101.355 56.4481 101.496 56.6441 101.568C56.8444 101.636 57.0553 101.67 57.2769 101.67C57.4431 101.67 57.5795 101.662 57.686 101.645C57.7925 101.624 57.8778 101.607 57.9417 101.594L58.2485 102.949C58.1462 102.987 58.0035 103.026 57.8202 103.064C57.637 103.107 57.4047 103.128 57.1235 103.128C56.6974 103.128 56.2797 103.036 55.8707 102.853C55.4658 102.67 55.1292 102.391 54.8607 102.016C54.5965 101.641 54.4644 101.168 54.4644 100.597V90.8295Z" fill="#4A6400"/>
<defs>
<clipPath id="clip0_13_420">
<rect width="50" height="50" fill="white" transform="translate(16 15)"/>
</clipPath>
</defs>
</svg>
