<svg width="80" height="107" viewBox="0 0 80 107" fill="none" xmlns="http://www.w3.org/2000/svg">
<circle cx="40" cy="40" r="40" fill="#FF0000"/>
<path d="M10.9993 103V89.9091H12.5845V101.594H18.6697V103H10.9993ZM23.8089 103.23C23.1868 103.23 22.6222 103.113 22.1151 102.879C21.608 102.64 21.2053 102.297 20.907 101.849C20.6087 101.398 20.4595 100.852 20.4595 100.213C20.4595 99.6506 20.5703 99.1946 20.7919 98.8452C21.0135 98.4915 21.3097 98.2145 21.6804 98.0142C22.0511 97.8139 22.4602 97.6648 22.9077 97.5668C23.3594 97.4645 23.8132 97.3835 24.2692 97.3239C24.8658 97.2472 25.3494 97.1896 25.7202 97.1513C26.0952 97.1087 26.3679 97.0384 26.5384 96.9403C26.7131 96.8423 26.8004 96.6719 26.8004 96.429V96.3778C26.8004 95.7472 26.6278 95.2571 26.2827 94.9077C25.9418 94.5582 25.424 94.3835 24.7294 94.3835C24.0092 94.3835 23.4446 94.5412 23.0355 94.8565C22.6264 95.1719 22.3388 95.5085 22.1726 95.8665L20.7408 95.3551C20.9964 94.7585 21.3374 94.294 21.7635 93.9616C22.1939 93.625 22.6626 93.3906 23.1697 93.2585C23.6811 93.1222 24.1839 93.054 24.6783 93.054C24.9936 93.054 25.3558 93.0923 25.7649 93.169C26.1783 93.2415 26.5767 93.3928 26.9602 93.6229C27.348 93.853 27.6697 94.2003 27.9254 94.6648C28.1811 95.1293 28.3089 95.7514 28.3089 96.5312V103H26.8004V101.67H26.7237C26.6214 101.884 26.451 102.112 26.2124 102.354C25.9737 102.597 25.6563 102.804 25.2599 102.974C24.8636 103.145 24.38 103.23 23.8089 103.23ZM24.0391 101.875C24.6357 101.875 25.1385 101.758 25.5476 101.523C25.9609 101.289 26.272 100.987 26.4808 100.616C26.6939 100.245 26.8004 99.8551 26.8004 99.446V98.0653C26.7365 98.142 26.5959 98.2124 26.3786 98.2763C26.1655 98.3359 25.9183 98.3892 25.6371 98.4361C25.3601 98.4787 25.0895 98.517 24.8253 98.5511C24.5653 98.581 24.3544 98.6065 24.1925 98.6278C23.8004 98.679 23.4339 98.7621 23.093 98.8771C22.7564 98.9879 22.4837 99.1562 22.2749 99.3821C22.0703 99.6037 21.968 99.9062 21.968 100.29C21.968 100.814 22.1619 101.21 22.5497 101.479C22.9418 101.743 23.4382 101.875 24.0391 101.875ZM31.0623 103V93.1818H32.5197V94.6648H32.622C32.801 94.179 33.1248 93.7848 33.5936 93.4822C34.0623 93.1797 34.5907 93.0284 35.1788 93.0284C35.2896 93.0284 35.4281 93.0305 35.5943 93.0348C35.7605 93.0391 35.8862 93.0455 35.9714 93.054V94.5881C35.9203 94.5753 35.8031 94.5561 35.6199 94.5305C35.4409 94.5007 35.2512 94.4858 35.051 94.4858C34.5737 94.4858 34.1476 94.5859 33.7725 94.7862C33.4018 94.9822 33.1078 95.255 32.8904 95.6044C32.6774 95.9496 32.5708 96.3437 32.5708 96.7869V103H31.0623ZM40.6488 103.23C40.0266 103.23 39.462 103.113 38.9549 102.879C38.4478 102.64 38.0451 102.297 37.7468 101.849C37.4485 101.398 37.2994 100.852 37.2994 100.213C37.2994 99.6506 37.4102 99.1946 37.6317 98.8452C37.8533 98.4915 38.1495 98.2145 38.5202 98.0142C38.891 97.8139 39.3001 97.6648 39.7475 97.5668C40.1992 97.4645 40.6531 97.3835 41.109 97.3239C41.7056 97.2472 42.1893 97.1896 42.56 97.1513C42.935 97.1087 43.2077 97.0384 43.3782 96.9403C43.5529 96.8423 43.6403 96.6719 43.6403 96.429V96.3778C43.6403 95.7472 43.4677 95.2571 43.1225 94.9077C42.7816 94.5582 42.2638 94.3835 41.5692 94.3835C40.8491 94.3835 40.2844 94.5412 39.8754 94.8565C39.4663 95.1719 39.1786 95.5085 39.0124 95.8665L37.5806 95.3551C37.8363 94.7585 38.1772 94.294 38.6033 93.9616C39.0337 93.625 39.5025 93.3906 40.0096 93.2585C40.521 93.1222 41.0238 93.054 41.5181 93.054C41.8335 93.054 42.1957 93.0923 42.6048 93.169C43.0181 93.2415 43.4165 93.3928 43.8001 93.6229C44.1879 93.853 44.5096 94.2003 44.7653 94.6648C45.021 95.1293 45.1488 95.7514 45.1488 96.5312V103H43.6403V101.67H43.5636C43.4613 101.884 43.2908 102.112 43.0522 102.354C42.8136 102.597 42.4961 102.804 42.0998 102.974C41.7035 103.145 41.2198 103.23 40.6488 103.23ZM40.8789 101.875C41.4755 101.875 41.9783 101.758 42.3874 101.523C42.8008 101.289 43.1119 100.987 43.3207 100.616C43.5337 100.245 43.6403 99.8551 43.6403 99.446V98.0653C43.5763 98.142 43.4357 98.2124 43.2184 98.2763C43.0053 98.3359 42.7582 98.3892 42.4769 98.4361C42.1999 98.4787 41.9293 98.517 41.6651 98.5511C41.4052 98.581 41.1942 98.6065 41.0323 98.6278C40.6403 98.679 40.2738 98.7621 39.9329 98.8771C39.5962 98.9879 39.3235 99.1562 39.1147 99.3821C38.9102 99.6037 38.8079 99.9062 38.8079 100.29C38.8079 100.814 39.0018 101.21 39.3896 101.479C39.7816 101.743 40.2781 101.875 40.8789 101.875ZM55.579 93.1818L51.9483 103H50.4142L46.7836 93.1818H48.4199L51.1301 101.006H51.2324L53.9426 93.1818H55.579ZM61.3351 103.205C60.389 103.205 59.573 102.996 58.8869 102.578C58.2051 102.156 57.6788 101.568 57.3081 100.814C56.9416 100.055 56.7583 99.1733 56.7583 98.1676C56.7583 97.1619 56.9416 96.2756 57.3081 95.5085C57.6788 94.7372 58.1944 94.1364 58.8549 93.706C59.5197 93.2713 60.2953 93.054 61.1816 93.054C61.693 93.054 62.198 93.1392 62.6966 93.3097C63.1951 93.4801 63.649 93.7571 64.0581 94.1406C64.4672 94.5199 64.7931 95.0227 65.036 95.6491C65.2789 96.2756 65.4004 97.0469 65.4004 97.9631V98.6023H57.8322V97.2983H63.8663C63.8663 96.7443 63.7555 96.25 63.5339 95.8153C63.3166 95.3807 63.0055 95.0376 62.6007 94.7862C62.2001 94.5348 61.7271 94.4091 61.1816 94.4091C60.5808 94.4091 60.0609 94.5582 59.622 94.8565C59.1873 95.1506 58.8528 95.5341 58.6184 96.0071C58.3841 96.4801 58.2669 96.9872 58.2669 97.5284V98.3977C58.2669 99.1392 58.3947 99.7678 58.6504 100.283C58.9103 100.795 59.2704 101.185 59.7306 101.453C60.1909 101.717 60.7257 101.849 61.3351 101.849C61.7314 101.849 62.0893 101.794 62.4089 101.683C62.7328 101.568 63.0119 101.398 63.2463 101.172C63.4806 100.942 63.6618 100.656 63.7896 100.315L65.247 100.724C65.0936 101.219 64.8358 101.653 64.4735 102.028C64.1113 102.399 63.6639 102.689 63.1312 102.898C62.5985 103.102 61.9998 103.205 61.3351 103.205ZM69.2037 89.9091V103H67.6951V89.9091H69.2037Z" fill="#FF0000"/>
<g clip-path="url(#clip0_4_183)">
<g clip-path="url(#clip1_4_183)">
<path d="M54.5781 13H26.4219C19.5615 13 14 18.8763 14 26.125V55.875C14 63.1237 19.5615 69 26.4219 69H54.5781C61.4385 69 67 63.1237 67 55.875V26.125C67 18.8763 61.4385 13 54.5781 13Z" fill="white"/>
<path fill-rule="evenodd" clip-rule="evenodd" d="M58.6869 30.1312C58.7001 30.1843 58.7072 30.2392 58.7072 30.2946V38.8694C58.7072 38.9794 58.68 39.0875 58.6287 39.1826C58.5775 39.2776 58.5034 39.3566 58.414 39.4116L51.6967 43.5552V51.7682C51.6969 51.8776 51.6702 51.9852 51.619 52.0804C51.5679 52.1755 51.4941 52.2549 51.405 52.3107L37.3831 60.959C37.3511 60.9784 37.3161 60.9909 37.2811 61.0042C37.2678 61.0091 37.2556 61.0176 37.2417 61.0215C37.1437 61.0491 37.0406 61.0491 36.9426 61.0215C36.9266 61.0167 36.9119 61.0073 36.8966 61.0012C36.8645 60.9887 36.831 60.9778 36.8003 60.959L22.7814 52.3107C22.6922 52.2555 22.6182 52.1765 22.567 52.0816C22.5154 51.9862 22.4883 51.8781 22.4883 51.7682V26.0438C22.4883 25.9874 22.4955 25.9327 22.5088 25.8798C22.5129 25.8616 22.5233 25.8452 22.5291 25.8273C22.54 25.7945 22.5502 25.761 22.5663 25.7304C22.5773 25.71 22.5932 25.6936 22.6065 25.675C22.6231 25.6499 22.6386 25.6241 22.6583 25.6022C22.6748 25.5842 22.697 25.5709 22.7158 25.5554C22.7369 25.5366 22.756 25.5162 22.78 25.5013H22.7808L29.7903 21.1773C29.8788 21.1227 29.9795 21.0939 30.0821 21.0939C30.1846 21.0939 30.2853 21.1227 30.3739 21.1773L37.3838 25.5013H37.3852C37.4084 25.5171 37.4283 25.5366 37.4494 25.5545C37.4682 25.5702 37.4894 25.5842 37.5061 25.6015C37.5266 25.6241 37.5413 25.6499 37.5587 25.675C37.5711 25.6936 37.5879 25.71 37.598 25.7304C37.6148 25.7616 37.6243 25.7945 37.6361 25.8273C37.6419 25.8452 37.6521 25.8616 37.6564 25.8804C37.6699 25.9338 37.6767 25.9887 37.6769 26.0438V42.111L43.5181 38.5076V30.2935C43.5181 30.2388 43.5253 30.1835 43.5386 30.1312C43.5438 30.1124 43.5531 30.096 43.5591 30.078C43.5707 30.0452 43.5808 30.0115 43.597 29.9811C43.608 29.9608 43.6239 29.9444 43.6363 29.9256C43.6539 29.9006 43.6684 29.8748 43.6889 29.8529C43.7057 29.835 43.7268 29.8216 43.7458 29.8059C43.7676 29.7873 43.7866 29.767 43.81 29.7521H43.8108L50.8213 25.4278C50.9098 25.3731 51.0105 25.3443 51.113 25.3443C51.2156 25.3443 51.3163 25.3731 51.4047 25.4278L58.4146 29.7521C58.4395 29.7678 58.4583 29.7871 58.4802 29.8052C58.4985 29.8208 58.5196 29.835 58.5364 29.8521C58.5568 29.8748 58.5713 29.9006 58.5889 29.9256C58.602 29.9444 58.6181 29.9606 58.6283 29.9811C58.645 30.0117 58.6546 30.0452 58.6662 30.078C58.6728 30.096 58.6825 30.1124 58.6869 30.1312ZM57.5387 38.5076V31.377L55.0856 32.8898L51.6967 34.9804V42.111L57.5393 38.5076H57.5387ZM50.5288 51.4064V44.2712L47.1954 46.311L37.6763 52.1317V59.3341L50.5288 51.4064ZM23.6568 27.1262V51.4064L36.5078 59.3334V52.1324L29.7942 48.0615L29.7921 48.0599L29.789 48.0584C29.7665 48.0444 29.7476 48.0241 29.7263 48.0068C29.7081 47.9912 29.687 47.9788 29.671 47.9615L29.6696 47.9593C29.6505 47.9396 29.6373 47.9156 29.6213 47.8935C29.6068 47.8725 29.5892 47.8545 29.5777 47.8326L29.5768 47.8302C29.5636 47.8068 29.5555 47.7786 29.5462 47.7521C29.5367 47.7287 29.5242 47.7069 29.5184 47.6817V47.6808C29.5112 47.6513 29.5097 47.62 29.5066 47.5894C29.5037 47.566 29.4979 47.5426 29.4979 47.5192V30.7299L26.1099 28.6384L23.6568 27.1269V27.1262ZM30.083 22.4417L24.2427 26.0441L30.0816 29.646L35.9213 26.0432L30.0816 22.4419L30.083 22.4417ZM33.1204 44.9213L36.5086 42.8316V27.1262L34.0553 28.6393L30.6666 30.7297V46.4353L33.1204 44.9213ZM51.1132 26.6924L45.2733 30.2946L51.1132 33.8965L56.9521 30.2937L51.1132 26.6924ZM50.5288 34.9804L47.1399 32.8898L44.687 31.377V38.5076L48.0751 40.5973L50.5288 42.111V34.9804ZM37.0914 51.0494L45.6569 45.8099L49.9388 43.1919L44.1034 39.5921L37.3846 43.7366L31.261 47.5137L37.0914 51.0494Z" fill="#FF0000"/>
</g>
</g>
<defs>
<clipPath id="clip0_4_183">
<rect width="55" height="58" fill="white" transform="translate(13 14)"/>
</clipPath>
<clipPath id="clip1_4_183">
<rect width="53" height="56" fill="white" transform="translate(14 13)"/>
</clipPath>
</defs>
</svg>
