<svg width="80" height="107" viewBox="0 0 80 107" fill="none" xmlns="http://www.w3.org/2000/svg">
<circle cx="40" cy="40" r="40" fill="#669AFF"/>
<path d="M5.96316 103V89.9091H10.3865C11.4092 89.9091 12.2487 90.0838 12.9049 90.4332C13.5612 90.7784 14.047 91.2536 14.3623 91.8587C14.6776 92.4638 14.8353 93.152 14.8353 93.9233C14.8353 94.6946 14.6776 95.3786 14.3623 95.9751C14.047 96.5717 13.5633 97.0405 12.9113 97.3814C12.2593 97.718 11.4262 97.8864 10.412 97.8864H6.83248V96.4545H10.3609C11.0597 96.4545 11.6222 96.3523 12.0484 96.1477C12.4788 95.9432 12.7899 95.6534 12.9816 95.2784C13.1776 94.8991 13.2757 94.4474 13.2757 93.9233C13.2757 93.3991 13.1776 92.9411 12.9816 92.549C12.7856 92.157 12.4724 91.8544 12.042 91.6413C11.6116 91.424 11.0427 91.3153 10.3353 91.3153H7.54838V103H5.96316ZM12.1251 97.1193L15.3467 103H13.5058L10.3353 97.1193H12.1251ZM21.2833 103.205C20.3373 103.205 19.5212 102.996 18.8351 102.578C18.1533 102.156 17.627 101.568 17.2563 100.814C16.8898 100.055 16.7066 99.1733 16.7066 98.1676C16.7066 97.1619 16.8898 96.2756 17.2563 95.5085C17.627 94.7372 18.1427 94.1364 18.8032 93.706C19.468 93.2713 20.2435 93.054 21.1299 93.054C21.6412 93.054 22.1462 93.1392 22.6448 93.3097C23.1434 93.4801 23.5972 93.7571 24.0063 94.1406C24.4154 94.5199 24.7414 95.0227 24.9843 95.6491C25.2272 96.2756 25.3486 97.0469 25.3486 97.9631V98.6023H17.7805V97.2983H23.8145C23.8145 96.7443 23.7037 96.25 23.4822 95.8153C23.2648 95.3807 22.9537 95.0376 22.5489 94.7862C22.1483 94.5348 21.6753 94.4091 21.1299 94.4091C20.529 94.4091 20.0091 94.5582 19.5702 94.8565C19.1356 95.1506 18.801 95.5341 18.5667 96.0071C18.3323 96.4801 18.2151 96.9872 18.2151 97.5284V98.3977C18.2151 99.1392 18.343 99.7678 18.5986 100.283C18.8586 100.795 19.2187 101.185 19.6789 101.453C20.1391 101.717 20.6739 101.849 21.2833 101.849C21.6796 101.849 22.0376 101.794 22.3572 101.683C22.681 101.568 22.9601 101.398 23.1945 101.172C23.4289 100.942 23.61 100.656 23.7378 100.315L25.1952 100.724C25.0418 101.219 24.784 101.653 24.4218 102.028C24.0596 102.399 23.6121 102.689 23.0795 102.898C22.5468 103.102 21.9481 103.205 21.2833 103.205ZM34.5979 95.3807L33.2428 95.7642C33.1576 95.5384 33.0319 95.3189 32.8657 95.1058C32.7037 94.8885 32.4822 94.7095 32.2009 94.5689C31.9197 94.4283 31.5596 94.358 31.1207 94.358C30.5198 94.358 30.0191 94.4964 29.6185 94.7734C29.2222 95.0462 29.0241 95.3935 29.0241 95.8153C29.0241 96.1903 29.1604 96.4865 29.4332 96.7038C29.7059 96.9212 30.132 97.1023 30.7116 97.2472L32.1689 97.6051C33.0468 97.8182 33.7009 98.1442 34.1313 98.5831C34.5617 99.0178 34.7769 99.5781 34.7769 100.264C34.7769 100.827 34.615 101.33 34.2911 101.773C33.9715 102.216 33.5241 102.565 32.9488 102.821C32.3735 103.077 31.7045 103.205 30.9417 103.205C29.9403 103.205 29.1114 102.987 28.4552 102.553C27.7989 102.118 27.3834 101.483 27.2087 100.648L28.6405 100.29C28.7769 100.818 29.0347 101.214 29.414 101.479C29.7975 101.743 30.2982 101.875 30.9161 101.875C31.6192 101.875 32.1775 101.726 32.5908 101.428C33.0084 101.125 33.2172 100.763 33.2172 100.341C33.2172 100 33.0979 99.7145 32.8593 99.4844C32.6206 99.25 32.2542 99.0753 31.7599 98.9602L30.1235 98.5767C29.2243 98.3636 28.5638 98.0334 28.142 97.5859C27.7243 97.1342 27.5155 96.5696 27.5155 95.892C27.5155 95.3381 27.6711 94.848 27.9822 94.4219C28.2975 93.9957 28.7258 93.6612 29.267 93.4183C29.8124 93.1754 30.4303 93.054 31.1207 93.054C32.0922 93.054 32.855 93.267 33.409 93.6932C33.9672 94.1193 34.3635 94.6818 34.5979 95.3807ZM41.3176 93.1818V94.4602H36.2295V93.1818H41.3176ZM37.7124 90.8295H39.221V100.188C39.221 100.614 39.2828 100.933 39.4063 101.146C39.5342 101.355 39.6961 101.496 39.8921 101.568C40.0924 101.636 40.3034 101.67 40.5249 101.67C40.6911 101.67 40.8275 101.662 40.934 101.645C41.0406 101.624 41.1258 101.607 41.1897 101.594L41.4965 102.949C41.3943 102.987 41.2515 103.026 41.0683 103.064C40.885 103.107 40.6528 103.128 40.3715 103.128C39.9454 103.128 39.5278 103.036 39.1187 102.853C38.7139 102.67 38.3772 102.391 38.1088 102.016C37.8445 101.641 37.7124 101.168 37.7124 100.597V90.8295ZM49.3907 103H47.7288L52.5356 89.9091H54.172L58.9788 103H57.3168L53.4049 91.9801H53.3026L49.3907 103ZM50.0044 97.8864H56.7032V99.2926H50.0044V97.8864ZM61.0178 103V89.9091H65.4411C66.4681 89.9091 67.3076 90.0945 67.9596 90.4652C68.6159 90.8317 69.1017 91.3281 69.417 91.9545C69.7323 92.581 69.89 93.2798 69.89 94.0511C69.89 94.8224 69.7323 95.5234 69.417 96.1541C69.1059 96.7848 68.6244 97.2876 67.9724 97.6626C67.3204 98.0334 66.4852 98.2188 65.4667 98.2188H62.2963V96.8125H65.4156C66.1187 96.8125 66.6833 96.6911 67.1095 96.4482C67.5356 96.2053 67.8445 95.8771 68.0363 95.4638C68.2323 95.0462 68.3303 94.5753 68.3303 94.0511C68.3303 93.527 68.2323 93.0582 68.0363 92.6449C67.8445 92.2315 67.5335 91.9077 67.1031 91.6733C66.6727 91.4347 66.1017 91.3153 65.39 91.3153H62.6031V103H61.0178ZM74.0289 89.9091V103H72.4436V89.9091H74.0289Z" fill="#669AFF"/>
<path d="M54 48.5C50.75 48.5 48 50.5 47 53.5H36.5C36.5 51.75 36 50.25 35.25 49L53 30.75C53.75 30.75 54.5 31 55.25 31C58.75 31 61.5 28.25 61.5 24.75C61.5 21.25 58.75 18.5 55.25 18.5C51.75 18.5 49 21.25 49 24.75C49 25.5 49.25 26.5 49.5 27.25L32 45.25C30.5 44 28.5 43.5 26.5 43.5V33C29.5 32 31.5 29.25 31.5 26C31.5 21.75 28.25 18.5 24 18.5C19.75 18.5 16.5 21.75 16.5 26C16.5 29.25 18.5 32 21.5 33V44.75C18.5 46.5 16.5 49.75 16.5 53.25C16.5 58.75 21 63.25 26.5 63.25C30.25 63.25 33.5 61.25 35 58.25H46.75C47.75 61 50.5 63.25 53.75 63.25C57.75 63.25 61.25 60 61.25 55.75C61.5 51.75 58 48.5 54 48.5Z" fill="white"/>
</svg>
