<svg width="80" height="107" viewBox="0 0 80 107" fill="none" xmlns="http://www.w3.org/2000/svg">
<circle cx="40" cy="40" r="40" fill="#A0A400"/>
<path d="M19.125 19H62.875L58.8958 63.9229L40.9521 69L23.1104 63.9208L19.125 19ZM33.7729 39.3125L33.2896 33.65L54.2458 33.6562L54.725 28.1937L27.275 28.1875L28.7292 44.875H47.7417L47.0625 52.0125L41 53.6875L34.8438 52L34.4521 47.6042H29.0167L29.7042 56.2937L41 59.3146L52.2062 56.3083L53.7562 39.3146H33.7729V39.3125Z" fill="white"/>
<path d="M16.0794 103V89.9091H17.6646V95.7386H24.6447V89.9091H26.2299V103H24.6447V97.1449H17.6646V103H16.0794ZM28.6877 91.3153V89.9091H38.5059V91.3153H34.3894V103H32.8042V91.3153H28.6877ZM40.9524 89.9091H42.8445L47.2933 100.776H47.4467L51.8956 89.9091H53.7876V103H52.3047V93.054H52.1768L48.0859 103H46.6541L42.5632 93.054H42.4354V103H40.9524V89.9091ZM56.9661 103V89.9091H58.5513V101.594H64.6365V103H56.9661Z" fill="#A0A400"/>
</svg>
