<svg width="80" height="129" viewBox="0 0 80 129" fill="none" xmlns="http://www.w3.org/2000/svg">
<circle cx="40" cy="40" r="40" fill="#86D0AC"/>
<g clip-path="url(#clip0_4_121)">
<path d="M34.5158 15.7546L30.8125 22.1687L32.358 24.8448L24.6715 38.1581L20.0263 40.8402L15.0032 49.5402L15.0042 49.5404L15 49.5427L18.9129 56.32H20.2717L21.3664 58.2416H21.3807L21.3813 58.2412L60.7582 58.2454L64.9988 51.0163L65 51.0144L45.3047 16.9016H43.0495L42.3876 15.7547H34.5158V15.7546ZM39.1511 27.5313L51.2519 48.4386L37.0679 48.4264L38.5735 51.0221H25.5549L39.1511 27.5312V27.5313Z" fill="white"/>
</g>
<path d="M25.049 103L21.4695 89.9091H23.0803L25.8161 100.571H25.9439L28.7308 89.9091H30.5206L33.3075 100.571H33.4354L36.1712 89.9091H37.782L34.2024 103H32.5661L29.6768 92.5682H29.5746L26.6854 103H25.049ZM42.755 103.205C41.8089 103.205 40.9929 102.996 40.3068 102.578C39.625 102.156 39.0987 101.568 38.728 100.814C38.3615 100.055 38.1783 99.1733 38.1783 98.1676C38.1783 97.1619 38.3615 96.2756 38.728 95.5085C39.0987 94.7372 39.6143 94.1364 40.2749 93.706C40.9396 93.2713 41.7152 93.054 42.6016 93.054C43.1129 93.054 43.6179 93.1392 44.1165 93.3097C44.6151 93.4801 45.0689 93.7571 45.478 94.1406C45.8871 94.5199 46.2131 95.0227 46.456 95.6491C46.6989 96.2756 46.8203 97.0469 46.8203 97.9631V98.6023H39.2521V97.2983H45.2862C45.2862 96.7443 45.1754 96.25 44.9538 95.8153C44.7365 95.3807 44.4254 95.0376 44.0206 94.7862C43.62 94.5348 43.147 94.4091 42.6016 94.4091C42.0007 94.4091 41.4808 94.5582 41.0419 94.8565C40.6072 95.1506 40.2727 95.5341 40.0384 96.0071C39.804 96.4801 39.6868 96.9872 39.6868 97.5284V98.3977C39.6868 99.1392 39.8146 99.7678 40.0703 100.283C40.3303 100.795 40.6903 101.185 41.1506 101.453C41.6108 101.717 42.1456 101.849 42.755 101.849C43.1513 101.849 43.5092 101.794 43.8288 101.683C44.1527 101.568 44.4318 101.398 44.6662 101.172C44.9006 100.942 45.0817 100.656 45.2095 100.315L46.6669 100.724C46.5135 101.219 46.2557 101.653 45.8935 102.028C45.5313 102.399 45.0838 102.689 44.5511 102.898C44.0185 103.102 43.4197 103.205 42.755 103.205ZM49.3196 103V89.9091H50.8281V94.7415H50.956C51.0668 94.571 51.2202 94.3537 51.4162 94.0895C51.6165 93.821 51.902 93.5824 52.2727 93.3736C52.6477 93.1605 53.1548 93.054 53.794 93.054C54.6207 93.054 55.3494 93.2607 55.9801 93.674C56.6108 94.0874 57.103 94.6733 57.4567 95.4318C57.8104 96.1903 57.9872 97.0852 57.9872 98.1165C57.9872 99.1562 57.8104 100.058 57.4567 100.82C57.103 101.579 56.6129 102.167 55.9865 102.585C55.3601 102.998 54.6378 103.205 53.8196 103.205C53.1889 103.205 52.6839 103.1 52.3047 102.891C51.9254 102.678 51.6335 102.437 51.429 102.169C51.2244 101.896 51.0668 101.67 50.956 101.491H50.777V103H49.3196ZM50.8026 98.0909C50.8026 98.8324 50.9112 99.4865 51.1286 100.053C51.3459 100.616 51.6634 101.057 52.081 101.376C52.4986 101.692 53.0099 101.849 53.6151 101.849C54.2457 101.849 54.772 101.683 55.1939 101.351C55.62 101.014 55.9396 100.562 56.1527 99.9957C56.37 99.4247 56.4787 98.7898 56.4787 98.0909C56.4787 97.4006 56.3722 96.7784 56.1591 96.2244C55.9503 95.6662 55.6328 95.2251 55.2067 94.9013C54.7848 94.5732 54.2543 94.4091 53.6151 94.4091C53.0014 94.4091 52.4858 94.5646 52.0682 94.8757C51.6506 95.1825 51.3352 95.6129 51.1222 96.1669C50.9091 96.7166 50.8026 97.358 50.8026 98.0909ZM16.673 125.205C15.8548 125.205 15.1325 124.998 14.5061 124.585C13.8797 124.167 13.3896 123.579 13.036 122.82C12.6823 122.058 12.5054 121.156 12.5054 120.116C12.5054 119.085 12.6823 118.19 13.036 117.432C13.3896 116.673 13.8818 116.087 14.5125 115.674C15.1432 115.261 15.8719 115.054 16.6986 115.054C17.3378 115.054 17.8428 115.161 18.2135 115.374C18.5885 115.582 18.874 115.821 19.07 116.089C19.2703 116.354 19.4259 116.571 19.5367 116.741H19.6645V111.909H21.173V125H19.7156V123.491H19.5367C19.4259 123.67 19.2682 123.896 19.0637 124.169C18.8591 124.437 18.5672 124.678 18.1879 124.891C17.8087 125.1 17.3037 125.205 16.673 125.205ZM16.8776 123.849C17.4827 123.849 17.9941 123.692 18.4117 123.376C18.8293 123.057 19.1468 122.616 19.3641 122.053C19.5814 121.487 19.6901 120.832 19.6901 120.091C19.6901 119.358 19.5835 118.717 19.3705 118.167C19.1574 117.613 18.8421 117.183 18.4244 116.876C18.0068 116.565 17.4912 116.409 16.8776 116.409C16.2384 116.409 15.7057 116.573 15.2796 116.901C14.8577 117.225 14.5402 117.666 14.3271 118.224C14.1183 118.778 14.0139 119.401 14.0139 120.091C14.0139 120.79 14.1205 121.425 14.3335 121.996C14.5509 122.562 14.8705 123.014 15.2923 123.351C15.7185 123.683 16.2469 123.849 16.8776 123.849ZM28.2618 125.205C27.3158 125.205 26.4997 124.996 25.8137 124.578C25.1318 124.156 24.6056 123.568 24.2348 122.814C23.8683 122.055 23.6851 121.173 23.6851 120.168C23.6851 119.162 23.8683 118.276 24.2348 117.509C24.6056 116.737 25.1212 116.136 25.7817 115.706C26.4465 115.271 27.222 115.054 28.1084 115.054C28.6198 115.054 29.1247 115.139 29.6233 115.31C30.1219 115.48 30.5757 115.757 30.9848 116.141C31.3939 116.52 31.7199 117.023 31.9628 117.649C32.2057 118.276 32.3271 119.047 32.3271 119.963V120.602H24.759V119.298H30.7931C30.7931 118.744 30.6823 118.25 30.4607 117.815C30.2433 117.381 29.9323 117.038 29.5274 116.786C29.1269 116.535 28.6539 116.409 28.1084 116.409C27.5075 116.409 26.9877 116.558 26.5487 116.857C26.1141 117.151 25.7796 117.534 25.5452 118.007C25.3108 118.48 25.1936 118.987 25.1936 119.528V120.398C25.1936 121.139 25.3215 121.768 25.5771 122.283C25.8371 122.795 26.1972 123.185 26.6574 123.453C27.1176 123.717 27.6524 123.849 28.2618 123.849C28.6581 123.849 29.0161 123.794 29.3357 123.683C29.6595 123.568 29.9387 123.398 30.173 123.172C30.4074 122.942 30.5885 122.656 30.7164 122.315L32.1737 122.724C32.0203 123.219 31.7625 123.653 31.4003 124.028C31.0381 124.399 30.5906 124.689 30.058 124.898C29.5253 125.102 28.9266 125.205 28.2618 125.205ZM41.5764 117.381L40.2213 117.764C40.1361 117.538 40.0104 117.319 39.8442 117.106C39.6823 116.888 39.4607 116.71 39.1794 116.569C38.8982 116.428 38.5381 116.358 38.0992 116.358C37.4983 116.358 36.9976 116.496 36.597 116.773C36.2007 117.046 36.0026 117.393 36.0026 117.815C36.0026 118.19 36.1389 118.487 36.4117 118.704C36.6844 118.921 37.1105 119.102 37.6901 119.247L39.1475 119.605C40.0253 119.818 40.6794 120.144 41.1098 120.583C41.5402 121.018 41.7554 121.578 41.7554 122.264C41.7554 122.827 41.5935 123.33 41.2696 123.773C40.95 124.216 40.5026 124.565 39.9273 124.821C39.352 125.077 38.683 125.205 37.9202 125.205C36.9188 125.205 36.0899 124.987 35.4337 124.553C34.7774 124.118 34.3619 123.483 34.1872 122.648L35.6191 122.29C35.7554 122.818 36.0132 123.214 36.3925 123.479C36.776 123.743 37.2767 123.875 37.8946 123.875C38.5977 123.875 39.156 123.726 39.5693 123.428C39.9869 123.125 40.1958 122.763 40.1958 122.341C40.1958 122 40.0764 121.714 39.8378 121.484C39.5992 121.25 39.2327 121.075 38.7384 120.96L37.102 120.577C36.2029 120.364 35.5423 120.033 35.1205 119.586C34.7029 119.134 34.4941 118.57 34.4941 117.892C34.4941 117.338 34.6496 116.848 34.9607 116.422C35.276 115.996 35.7043 115.661 36.2455 115.418C36.7909 115.175 37.4088 115.054 38.0992 115.054C39.0708 115.054 39.8335 115.267 40.3875 115.693C40.9458 116.119 41.3421 116.682 41.5764 117.381ZM44.0262 125V115.182H45.5347V125H44.0262ZM44.7932 113.545C44.4992 113.545 44.2456 113.445 44.0326 113.245C43.8238 113.045 43.7194 112.804 43.7194 112.523C43.7194 112.241 43.8238 112.001 44.0326 111.8C44.2456 111.6 44.4992 111.5 44.7932 111.5C45.0873 111.5 45.3387 111.6 45.5475 111.8C45.7606 112.001 45.8671 112.241 45.8671 112.523C45.8671 112.804 45.7606 113.045 45.5475 113.245C45.3387 113.445 45.0873 113.545 44.7932 113.545ZM52.2607 128.886C51.532 128.886 50.9056 128.793 50.3815 128.605C49.8573 128.422 49.4205 128.179 49.0711 127.876C48.7259 127.578 48.4511 127.259 48.2465 126.918L49.4482 126.074C49.5846 126.253 49.7572 126.457 49.966 126.688C50.1748 126.922 50.4603 127.124 50.8225 127.295C51.189 127.469 51.6684 127.557 52.2607 127.557C53.0534 127.557 53.7075 127.365 54.2231 126.982C54.7387 126.598 54.9965 125.997 54.9965 125.179V123.185H54.8687C54.7579 123.364 54.6002 123.585 54.3957 123.849C54.1954 124.109 53.9056 124.342 53.5264 124.546C53.1514 124.746 52.6443 124.847 52.0051 124.847C51.2124 124.847 50.5008 124.659 49.8701 124.284C49.2437 123.909 48.7472 123.364 48.3808 122.648C48.0186 121.932 47.8374 121.062 47.8374 120.04C47.8374 119.034 48.0143 118.158 48.368 117.413C48.7217 116.663 49.2139 116.083 49.8445 115.674C50.4752 115.261 51.2039 115.054 52.0306 115.054C52.6698 115.054 53.1769 115.161 53.5519 115.374C53.9312 115.582 54.221 115.821 54.4213 116.089C54.6258 116.354 54.7835 116.571 54.8943 116.741H55.0477V115.182H56.5051V125.281C56.5051 126.125 56.3133 126.811 55.9298 127.339C55.5505 127.872 55.0392 128.262 54.3957 128.509C53.7565 128.761 53.0448 128.886 52.2607 128.886ZM52.2096 123.491C52.8147 123.491 53.3261 123.353 53.7437 123.076C54.1613 122.799 54.4788 122.401 54.6961 121.881C54.9134 121.361 55.0221 120.739 55.0221 120.014C55.0221 119.307 54.9156 118.683 54.7025 118.141C54.4894 117.6 54.1741 117.176 53.7565 116.869C53.3389 116.562 52.8232 116.409 52.2096 116.409C51.5704 116.409 51.0377 116.571 50.6116 116.895C50.1897 117.219 49.8722 117.653 49.6592 118.199C49.4504 118.744 49.346 119.349 49.346 120.014C49.346 120.696 49.4525 121.299 49.6656 121.823C49.8829 122.343 50.2025 122.752 50.6244 123.05C51.0505 123.344 51.5789 123.491 52.2096 123.491ZM60.7749 119.094V125H59.2664V115.182H60.7238V116.716H60.8517C61.0818 116.217 61.4312 115.817 61.8999 115.514C62.3687 115.207 62.9738 115.054 63.7153 115.054C64.3801 115.054 64.9617 115.19 65.4603 115.463C65.9589 115.732 66.3467 116.141 66.6237 116.69C66.9007 117.236 67.0392 117.926 67.0392 118.761V125H65.5306V118.864C65.5306 118.092 65.3303 117.491 64.9298 117.061C64.5292 116.626 63.9795 116.409 63.2806 116.409C62.7991 116.409 62.3687 116.513 61.9894 116.722C61.6144 116.931 61.3183 117.236 61.1009 117.636C60.8836 118.037 60.7749 118.523 60.7749 119.094Z" fill="#86D0AC"/>
<defs>
<clipPath id="clip0_4_121">
<rect width="50" height="50" fill="white" transform="translate(16 13)"/>
</clipPath>
</defs>
</svg>
