<svg width="80" height="107" viewBox="0 0 80 107" fill="none" xmlns="http://www.w3.org/2000/svg">
<circle cx="40" cy="40" r="40" fill="#C4A63C"/>
<path d="M12.3049 94H10.7196C10.6259 93.544 10.4618 93.1435 10.2275 92.7983C9.99734 92.4531 9.71609 92.1634 9.3837 91.929C9.05558 91.6903 8.69123 91.5114 8.29066 91.392C7.89009 91.2727 7.47248 91.2131 7.03782 91.2131C6.24521 91.2131 5.52717 91.4134 4.8837 91.8139C4.2445 92.2145 3.73526 92.8047 3.356 93.5845C2.981 94.3643 2.7935 95.321 2.7935 96.4545C2.7935 97.5881 2.981 98.5447 3.356 99.3246C3.73526 100.104 4.2445 100.695 4.8837 101.095C5.52717 101.496 6.24521 101.696 7.03782 101.696C7.47248 101.696 7.89009 101.636 8.29066 101.517C8.69123 101.398 9.05558 101.221 9.3837 100.987C9.71609 100.748 9.99734 100.456 10.2275 100.111C10.4618 99.7614 10.6259 99.3608 10.7196 98.9091H12.3049C12.1855 99.5781 11.9682 100.177 11.6529 100.705C11.3375 101.234 10.9455 101.683 10.4767 102.054C10.008 102.42 9.48171 102.7 8.89791 102.891C8.31836 103.083 7.69833 103.179 7.03782 103.179C5.92134 103.179 4.92844 102.906 4.05913 102.361C3.18981 101.815 2.50586 101.04 2.00728 100.034C1.5087 99.0284 1.25941 97.8352 1.25941 96.4545C1.25941 95.0739 1.5087 93.8807 2.00728 92.875C2.50586 91.8693 3.18981 91.0938 4.05913 90.5483C4.92844 90.0028 5.92134 89.7301 7.03782 89.7301C7.69833 89.7301 8.31836 89.826 8.89791 90.0178C9.48171 90.2095 10.008 90.4908 10.4767 90.8615C10.9455 91.228 11.3375 91.6754 11.6529 92.2038C11.9682 92.728 12.1855 93.3267 12.3049 94ZM18.6506 103.205C17.7642 103.205 16.9865 102.994 16.3175 102.572C15.6527 102.15 15.1328 101.56 14.7578 100.801C14.3871 100.043 14.2017 99.1562 14.2017 98.142C14.2017 97.1193 14.3871 96.2266 14.7578 95.4638C15.1328 94.701 15.6527 94.1087 16.3175 93.6868C16.9865 93.2649 17.7642 93.054 18.6506 93.054C19.5369 93.054 20.3125 93.2649 20.9773 93.6868C21.6463 94.1087 22.1662 94.701 22.5369 95.4638C22.9119 96.2266 23.0994 97.1193 23.0994 98.142C23.0994 99.1562 22.9119 100.043 22.5369 100.801C22.1662 101.56 21.6463 102.15 20.9773 102.572C20.3125 102.994 19.5369 103.205 18.6506 103.205ZM18.6506 101.849C19.3239 101.849 19.8778 101.677 20.3125 101.332C20.7472 100.987 21.0689 100.533 21.2777 99.9702C21.4865 99.4077 21.5909 98.7983 21.5909 98.142C21.5909 97.4858 21.4865 96.8743 21.2777 96.3075C21.0689 95.7408 20.7472 95.2827 20.3125 94.9332C19.8778 94.5838 19.3239 94.4091 18.6506 94.4091C17.9773 94.4091 17.4233 94.5838 16.9886 94.9332C16.554 95.2827 16.2322 95.7408 16.0234 96.3075C15.8146 96.8743 15.7102 97.4858 15.7102 98.142C15.7102 98.7983 15.8146 99.4077 16.0234 99.9702C16.2322 100.533 16.554 100.987 16.9886 101.332C17.4233 101.677 17.9773 101.849 18.6506 101.849ZM31.5897 98.9858V93.1818H33.0982V103H31.5897V101.338H31.4874C31.2573 101.837 30.8993 102.261 30.4135 102.61C29.9277 102.955 29.3141 103.128 28.5726 103.128C27.959 103.128 27.4135 102.994 26.9363 102.725C26.459 102.452 26.084 102.043 25.8113 101.498C25.5385 100.948 25.4022 100.256 25.4022 99.4205V93.1818H26.9107V99.3182C26.9107 100.034 27.111 100.605 27.5115 101.031C27.9164 101.457 28.432 101.67 29.0584 101.67C29.4334 101.67 29.8148 101.575 30.2026 101.383C30.5946 101.191 30.9228 100.897 31.187 100.501C31.4554 100.104 31.5897 99.5994 31.5897 98.9858ZM39.8498 103.205C38.9293 103.205 38.1367 102.987 37.4719 102.553C36.8072 102.118 36.2958 101.519 35.9379 100.756C35.5799 99.9936 35.4009 99.1222 35.4009 98.142C35.4009 97.1449 35.5842 96.2649 35.9506 95.5021C36.3214 94.7351 36.837 94.1364 37.4975 93.706C38.1623 93.2713 38.9379 93.054 39.8242 93.054C40.5146 93.054 41.1367 93.1818 41.6907 93.4375C42.2447 93.6932 42.6985 94.0511 43.0522 94.5114C43.4059 94.9716 43.6254 95.5085 43.7106 96.1222H42.2021C42.087 95.6747 41.8313 95.2784 41.435 94.9332C41.043 94.5838 40.5146 94.4091 39.8498 94.4091C39.2617 94.4091 38.7461 94.5625 38.3029 94.8693C37.864 95.1719 37.521 95.6001 37.2738 96.1541C37.0309 96.7038 36.9094 97.3494 36.9094 98.0909C36.9094 98.8494 37.0288 99.5099 37.2674 100.072C37.5103 100.635 37.8512 101.072 38.2901 101.383C38.7333 101.694 39.2532 101.849 39.8498 101.849C40.2418 101.849 40.5977 101.781 40.9173 101.645C41.2369 101.509 41.5075 101.312 41.729 101.057C41.9506 100.801 42.1083 100.494 42.2021 100.136H43.7106C43.6254 100.716 43.4144 101.238 43.0778 101.702C42.7454 102.163 42.3043 102.529 41.7546 102.802C41.2092 103.07 40.5742 103.205 39.8498 103.205ZM47.4244 97.0938V103H45.9158V89.9091H47.4244V94.7159H47.5522C47.7823 94.2088 48.1275 93.8061 48.5877 93.5078C49.0522 93.2053 49.6701 93.054 50.4414 93.054C51.1104 93.054 51.6964 93.1882 52.1992 93.4567C52.7021 93.7209 53.092 94.1278 53.369 94.6776C53.6502 95.223 53.7908 95.9176 53.7908 96.7614V103H52.2823V96.8636C52.2823 96.0838 52.0799 95.4808 51.6751 95.0547C51.2745 94.6243 50.7184 94.4091 50.0067 94.4091C49.5124 94.4091 49.0692 94.5135 48.6772 94.7223C48.2894 94.9311 47.9826 95.2358 47.7567 95.6364C47.5352 96.0369 47.4244 96.5227 47.4244 97.0938ZM60.7949 103H56.7551V89.9091H60.9739C62.2438 89.9091 63.3304 90.1712 64.2338 90.6953C65.1373 91.2152 65.8297 91.9631 66.3113 92.9389C66.7928 93.9105 67.0336 95.0739 67.0336 96.429C67.0336 97.7926 66.7907 98.9666 66.3049 99.951C65.8191 100.931 65.1117 101.685 64.1827 102.214C63.2537 102.738 62.1245 103 60.7949 103ZM58.3404 101.594H60.6926C61.775 101.594 62.6721 101.385 63.3837 100.967C64.0953 100.55 64.6259 99.9553 64.9753 99.1839C65.3248 98.4126 65.4995 97.4943 65.4995 96.429C65.4995 95.3722 65.3269 94.4624 64.9817 93.6996C64.6365 92.9325 64.1209 92.3445 63.4348 91.9354C62.7488 91.522 61.8944 91.3153 60.8716 91.3153H58.3404V101.594ZM69.6926 103V89.9091H74.2694C75.1813 89.9091 75.9334 90.0668 76.5257 90.3821C77.1181 90.6932 77.5591 91.1129 77.8489 91.6413C78.1387 92.1655 78.2836 92.7472 78.2836 93.3864C78.2836 93.9489 78.1834 94.4134 77.9831 94.7798C77.7871 95.1463 77.5272 95.4361 77.2033 95.6491C76.8837 95.8622 76.5364 96.0199 76.1614 96.1222V96.25C76.562 96.2756 76.9647 96.4162 77.3695 96.6719C77.7743 96.9276 78.1131 97.294 78.3858 97.7713C78.6586 98.2486 78.7949 98.8324 78.7949 99.5227C78.7949 100.179 78.6458 100.769 78.3475 101.293C78.0492 101.817 77.5783 102.233 76.9348 102.54C76.2914 102.847 75.454 103 74.4228 103H69.6926ZM71.2779 101.594H74.4228C75.4583 101.594 76.1934 101.393 76.628 100.993C77.0669 100.588 77.2864 100.098 77.2864 99.5227C77.2864 99.0795 77.1735 98.6705 76.9476 98.2955C76.7218 97.9162 76.4 97.6136 75.9824 97.3878C75.5648 97.1577 75.0705 97.0426 74.4995 97.0426H71.2779V101.594ZM71.2779 95.6619H74.2182C74.6955 95.6619 75.1259 95.5682 75.5094 95.3807C75.8972 95.1932 76.204 94.929 76.4299 94.5881C76.66 94.2472 76.775 93.8466 76.775 93.3864C76.775 92.8111 76.5748 92.3232 76.1742 91.9226C75.7736 91.5178 75.1387 91.3153 74.2694 91.3153H71.2779V95.6619Z" fill="#C4A63C"/>
<path d="M62.3461 43.2696L62.5731 43.2666C64.0071 43.2666 65.3638 43.5656 66.5675 44.0991L66.5142 44.0775C67.585 44.5413 68.4994 45.2515 69.164 46.1357L69.1795 46.1573C69.7579 46.9183 70.044 47.8276 69.9945 48.7474V48.7382C69.9702 49.1632 69.8515 49.5795 69.6454 49.9629C69.4393 50.3462 69.15 50.6888 68.7943 50.9706L68.7908 50.9737C68.4069 51.3117 67.9466 51.5719 67.441 51.7368L67.4152 51.7446C67.1286 51.7959 66.971 51.7574 66.9424 51.6289C66.9137 51.5005 67.0427 51.3591 67.3292 51.205C68.1065 50.7825 68.6688 50.1011 68.8734 49.2978L68.8785 49.2778C68.9231 48.7424 68.8042 48.2062 68.5346 47.7268L68.5432 47.7438C68.1824 47.062 67.6242 46.4796 66.9269 46.0571L66.9097 46.0478C65.8321 45.4313 64.6022 45.0612 63.3279 44.9702L63.3004 44.9686C61.4755 44.7358 59.6145 44.9297 57.8977 45.5314L57.9699 45.5082C58.2192 46.0309 58.3757 46.6368 58.3981 47.272V47.2797C58.3856 47.8985 58.1984 48.5045 57.8542 49.041C57.5099 49.5775 57.0196 50.027 56.4292 50.3477L56.4103 50.357C55.8772 50.6962 55.2685 50.9937 54.6203 51.225L54.5601 51.2435C54.0899 51.4466 53.5697 51.5389 53.0486 51.5118H53.0572C51.9693 51.3072 51.7114 50.4593 52.2834 48.9679C52.5328 48.3188 52.8818 47.7561 53.3237 47.2612L53.3134 47.272C53.8792 46.609 54.4999 46.0278 55.186 45.5129L55.2049 45.499L55.0364 45.2739C54.7025 44.7565 54.4227 44.2125 54.2007 43.6489L54.1766 43.578C54.0047 43.0641 53.8614 42.5764 53.7467 42.1149L53.6608 41.5753L52.801 43.0384C52.0559 44.2718 51.3394 45.3505 50.6516 46.2745L50.3937 46.6599C50.6826 47.2889 50.8958 48.0182 50.9921 48.7798L50.9955 48.8183C51.0431 49.4128 50.9191 50.0083 50.6354 50.5473C50.3517 51.0863 49.9178 51.5507 49.3757 51.8956L49.3637 51.9034C48.8424 52.1887 48.3026 52.4461 47.7473 52.6742L47.6442 52.7128C46.9949 52.9618 46.3015 53.1053 45.5962 53.1367H45.5807C45.1014 53.1666 44.6216 53.0848 44.1879 52.8993L44.2051 52.9055C44.0348 52.7756 43.9172 52.5988 43.8709 52.4027C43.8245 52.2066 43.852 52.0023 43.9489 51.8216L43.9455 51.8278C44.6333 50.9629 45.3108 50.2105 46.0313 49.4921L46.0089 49.5152L47.9004 47.3583L47.5582 46.6645C47.2612 46.1696 47.0104 45.6534 46.8085 45.1213L46.7844 45.0473C46.6125 44.5333 46.4692 44.0456 46.3545 43.5842L46.2686 43.0445L45.4088 44.8946C44.7221 46.3326 44.0916 47.5654 43.5173 48.5933C42.661 50.135 41.9445 51.317 41.3679 52.1392L41.196 52.3705C40.5093 53.3459 39.8502 53.8336 39.2185 53.8336C38.5869 53.8336 38.1587 53.4739 37.934 52.7544C37.7589 52.1781 37.671 51.5833 37.6727 50.986L37.6744 50.8195V50.8272L37.8463 49.748V49.8251C37.3878 50.8005 36.9293 51.6993 36.4707 52.5216C36.1915 53.0167 35.8678 53.4905 35.5026 53.9384L35.525 53.9092C35.1708 54.2422 34.6721 54.4488 34.1201 54.4488H34.1064C34.0703 54.4518 34.029 54.4518 33.9877 54.4518C33.5702 54.4522 33.1674 54.3132 32.858 54.0618L32.8597 54.0633C32.2497 53.5021 31.8104 52.8099 31.5838 52.0529L31.5752 52.0205C31.2374 51.1607 31.0896 50.25 31.1402 49.3395V49.3549C31.2761 48.1276 31.5495 47.0037 31.9501 45.9322L31.914 46.0417L28.8206 47.6605V47.7376C29.3848 48.8007 29.6217 49.9797 29.5067 51.1525L29.5084 51.1279C29.4251 52.6524 28.8826 54.1283 27.9385 55.3985L27.9608 55.3676C27.0168 56.7218 25.6262 57.7789 23.9818 58.3925L23.9251 58.411C22.9366 58.8023 21.8675 59.003 20.787 59C20.0682 59 19.3701 58.9136 18.7098 58.7502L18.7648 58.761C18.2313 58.6021 17.7783 58.278 17.4872 57.8467L17.4821 57.8375C17.0655 57.2921 16.8256 56.6538 16.7891 55.9936V55.9843C16.6803 55.0486 16.8643 54.1042 17.3204 53.257L17.3049 53.2878C18.2678 51.8047 19.639 50.5678 21.2874 49.6956L21.3389 49.6709C22.5689 48.9127 23.8604 48.2381 25.2027 47.6528L25.385 47.5803L25.8149 47.3491C25.299 46.9893 24.3533 46.3726 22.9776 45.499C21.2428 44.4629 19.5915 43.3187 18.0357 42.0748L18.0787 42.1087C16.6044 40.9762 15.5584 39.4615 15.085 37.7733L15.0713 37.7148C14.8734 36.6212 15.0902 35.4997 15.6869 34.5295L15.6731 34.5557C16.5939 32.7605 17.9359 31.1644 19.6074 29.8766L19.628 29.8612C21.417 28.3472 23.4181 27.0484 25.581 25.9976L25.7306 25.9313C27.8304 24.8576 30.034 23.9562 32.3146 23.2379L32.607 23.1577C34.9772 22.3959 37.4761 22.0063 39.994 22.006H39.9975C42.1949 21.9439 44.3761 22.3641 46.3511 23.2302L46.272 23.1978C47.8196 23.8299 48.9785 25.0201 49.4428 26.4755L49.4531 26.5125C49.8563 27.9792 49.7138 29.5238 49.0473 30.9111L49.0662 30.8664C48.367 32.406 47.3142 33.7965 45.9762 34.9473L45.9711 34.952C44.6352 36.1396 43.0455 37.073 41.2974 37.6963L41.2028 37.7256C39.2236 38.4747 37.1081 38.8922 34.961 38.9574L34.9283 38.9589C33.5753 39.0895 32.2068 38.9795 30.9012 38.6352L30.9751 38.6521C30.1804 38.4287 29.4461 38.0596 28.8189 37.5683L28.8257 37.5729C28.4009 37.2637 28.053 36.8783 27.8043 36.4413L27.794 36.4212C27.6221 36.0101 27.6077 35.766 27.751 35.6889C27.8943 35.6118 27.9946 35.599 28.052 35.6504L28.4818 36.0358C28.9616 36.4351 29.5342 36.7496 30.167 36.9501L30.2014 36.9593C31.0714 37.2307 32.0756 37.3879 33.1194 37.3879C33.4547 37.3879 33.7848 37.3725 34.1098 37.3401L34.0703 37.3432C36.7333 37.0702 39.2873 36.2394 41.5261 34.9181L41.4625 34.9535C43.2609 34.0011 44.7587 32.6533 45.8146 31.0375L45.8456 30.9851C46.3631 30.3036 46.6726 29.4619 46.6726 28.5553C46.6726 27.9987 46.5557 27.4653 46.3425 26.975L46.3545 27.0043C46.0358 26.5484 45.6127 26.1584 45.1132 25.8602C44.6137 25.562 44.0492 25.3623 43.4571 25.2745L43.4331 25.2714C41.5433 24.8717 39.5804 24.8365 37.6744 25.1681L37.7604 25.1558C35.0138 25.5888 32.3555 26.3897 29.8746 27.5316L30.0311 27.4653C22.9834 30.6516 19.3443 33.9144 19.1139 37.2538V37.3293C19.1139 38.6753 19.7037 39.8979 20.6649 40.8013L20.6632 40.7998C21.7469 41.8822 22.9641 42.8509 24.2914 43.6874L24.3584 43.7275C25.5162 44.5001 26.6072 45.3499 27.6221 46.2699L27.6238 46.2729L27.7957 46.4271L33.2982 43.7306C33.9091 42.9332 34.6702 42.2372 35.5473 41.6739L35.5749 41.657C36.2627 41.139 37.1362 40.8013 38.094 40.7335L38.1094 40.7319C38.1438 40.7289 38.1834 40.7289 38.2246 40.7289C38.866 40.7289 39.4163 41.0757 39.6536 41.5722L39.657 41.5814C39.909 42.0945 39.9977 42.6602 39.9132 43.2157L39.9149 43.2003L39.7481 43.9603L40.0061 43.8062C40.1586 43.7023 40.3394 43.637 40.5297 43.6172C40.7199 43.5974 40.9126 43.6238 41.0876 43.6936L41.0808 43.6905C41.273 43.7346 41.4382 43.8447 41.5408 43.9969C41.6434 44.1492 41.6752 44.3315 41.6293 44.5046L41.631 44.4999L41.3731 45.3479C40.8572 47.197 40.5139 48.5326 40.3431 49.3549C40.2326 49.7081 40.1896 50.0756 40.2158 50.4418V50.4325C40.2445 50.7409 40.2875 50.8951 40.3448 50.8951C40.4021 50.8951 40.5162 50.7409 40.687 50.4325L40.9449 49.8929C41.0022 49.8929 41.0022 49.9186 40.9449 49.97L41.8907 48.197C44.126 43.7794 45.3291 41.3127 45.4999 40.7967L46.0158 39.3336C46.0731 39.2308 46.3024 39.1285 46.7036 39.0268C47.1837 38.9134 47.6792 38.8615 48.1755 38.8726H48.1703C48.9728 38.8726 49.374 39.0525 49.374 39.4122L49.288 39.7976C49.0709 40.3454 48.8934 40.9052 48.7567 41.4735L48.7378 41.5706C48.6513 42.0928 48.667 42.6244 48.7842 43.1417L48.7791 43.1124L48.865 43.4192C49.0404 44.0621 49.3069 44.6264 49.656 45.1413L49.6388 45.1151C50.3255 44.0883 50.9846 43.0353 51.6163 41.9561C52.1149 41.2114 52.5792 40.348 52.9523 39.4446L52.9919 39.3367C53.1208 38.7554 53.2687 38.2652 53.4493 37.7872L53.4218 37.8736C53.4791 37.7194 53.7238 37.6038 54.156 37.5267C54.5652 37.4527 55.0347 37.411 55.5144 37.411H55.5763H55.5729C56.3753 37.411 56.8035 37.5909 56.8574 37.9506L56.6854 38.2575C56.4808 38.7755 56.302 39.3983 56.1816 40.0382L56.1713 40.1075C56.1174 40.634 56.1487 41.1647 56.2641 41.6832L56.2573 41.6477V41.9545C56.455 42.6267 56.749 43.2172 57.1342 43.7522L57.117 43.7275L57.3749 44.2671C58.9051 43.6028 60.5841 43.2601 62.2842 43.265H62.3512H62.3478L62.3461 43.2696ZM25.4813 54.4518C26.7228 53.3042 27.4162 51.7677 27.414 50.1689C27.4145 49.5431 27.3089 48.9209 27.1011 48.3234L27.1148 48.3666L25.7392 49.1375C24.3361 49.8544 23.1221 50.6546 22.0233 51.5642L22.0371 51.5534C21.1926 52.2478 20.585 53.1427 20.2849 54.1343L20.2746 54.1728C20.0166 55.1235 20.1456 55.7402 20.6614 56.0229C20.9761 56.1524 21.3458 56.2279 21.7327 56.2279C22.1557 56.2279 22.5564 56.1385 22.9089 55.9782L22.8934 55.9843C23.8784 55.6672 24.7621 55.139 25.4675 54.4457L25.4727 54.4411L25.4813 54.4518ZM36.9969 47.3537C37.2835 46.6856 37.5987 45.889 37.9426 44.964C38.4012 43.7306 38.5588 43.0117 38.4155 42.8071C38.2722 42.6026 38 42.5769 37.5987 42.73C37.1354 42.9294 36.7264 43.2173 36.4002 43.5734L36.3951 43.5795C36.0247 44.0015 35.6902 44.4478 35.3943 44.9147L35.3634 44.9671C34.9996 45.5054 34.7152 46.0838 34.5173 46.6877L34.5019 46.7401C34.1013 47.7324 33.9265 48.7866 33.9877 49.8405V49.822C34.0451 50.8488 34.2285 51.4013 34.538 51.4794C34.8475 51.5575 35.2057 51.1849 35.6127 50.3616C36.0065 49.7249 36.3572 48.9849 36.6186 48.2094L36.6427 48.1261C36.8135 47.7623 36.9304 47.5048 36.9935 47.3537H36.9969ZM46.5334 51.4393C47.1258 51.2043 47.6374 50.8315 48.015 50.3595C48.3927 49.8876 48.6226 49.3336 48.681 48.7551L48.6828 48.7428V48.6657L47.737 49.7449L46.0192 51.4408C46.006 51.4499 45.9953 51.4616 45.9878 51.4749C45.9804 51.4883 45.9764 51.503 45.9762 51.5179C45.9762 51.5488 45.9934 51.5765 46.0175 51.595C46.0725 51.6454 46.2445 51.594 46.5334 51.4408V51.4393ZM53.9256 49.9746C54.5679 49.8129 55.1337 49.4675 55.5371 48.9912C55.9406 48.5148 56.1596 47.9334 56.161 47.3352V47.2751V47.2781C56.1438 46.9698 56.0819 46.68 55.9804 46.4055L55.9873 46.4287C55.3184 46.9621 54.7699 47.6004 54.3727 48.3204L54.3537 48.3558C53.8367 49.2798 53.6923 49.8184 53.9204 49.9716L53.9256 49.9746Z" fill="white"/>
</svg>
