<svg width="80" height="107" viewBox="0 0 80 107" fill="none" xmlns="http://www.w3.org/2000/svg">
<circle cx="40" cy="40" r="40" fill="#E1B573"/>
<g clip-path="url(#clip0_13_376)">
<g clip-path="url(#clip1_13_376)">
<path d="M53.2812 16H26.7188C20.2467 16 15 21.2467 15 27.7188V54.2812C15 60.7533 20.2467 66 26.7188 66H53.2812C59.7533 66 65 60.7533 65 54.2812V27.7188C65 21.2467 59.7533 16 53.2812 16Z" fill="white"/>
<mask id="mask0_13_376" style="mask-type:luminance" maskUnits="userSpaceOnUse" x="22" y="23" width="36" height="36">
<path d="M22.4219 23.4219H57.5781V58.5781H22.4219V23.4219Z" fill="white"/>
</mask>
<g mask="url(#mask0_13_376)">
<path fill-rule="evenodd" clip-rule="evenodd" d="M54.8049 50.8067C52.8928 50.7535 51.4094 50.9494 50.1662 51.4725C49.8082 51.6162 49.2338 51.6162 49.1865 52.0668C49.3779 52.2559 49.401 52.5652 49.5688 52.8274C49.8553 53.3029 50.358 53.9436 50.8119 54.276L52.342 55.3693C53.2744 55.9391 54.3264 56.2721 55.2348 56.8424C55.761 57.1752 56.2867 57.6029 56.8129 57.9598C57.0809 58.1498 57.2432 58.4594 57.5781 58.5775V58.5057C57.411 58.2926 57.3627 57.9838 57.1961 57.7451L56.4779 57.0565C55.7852 56.1299 54.9238 55.3213 53.9914 54.6567C53.2262 54.1338 51.5531 53.4211 51.2422 52.5424L51.1951 52.4891C51.7203 52.436 52.342 52.251 52.8446 52.1084C53.658 51.8953 54.3987 51.9422 55.2348 51.7285L56.3832 51.3957V51.1826C55.9528 50.7551 55.642 50.1846 55.1881 49.7811C53.969 48.7356 52.6291 47.7135 51.2422 46.8582C50.5012 46.3832 49.5445 46.0736 48.7557 45.6705C48.468 45.5277 47.9904 45.4565 47.8233 45.219C47.3918 44.6971 47.1533 44.0072 46.8426 43.3891L44.8822 39.2547C44.452 38.3279 44.1883 37.4012 43.6631 36.5459C41.2 32.5063 38.5217 30.0592 34.4092 27.6588C33.525 27.1598 32.4731 26.9451 31.3545 26.6842L29.5615 26.5885C29.1783 26.4223 28.7961 25.9705 28.4613 25.7565C27.0985 24.901 23.5836 23.0479 22.5785 25.4902C21.933 27.0346 23.5354 28.5551 24.0793 29.3397C24.4865 29.8861 25.0117 30.5037 25.2994 31.1217C25.4602 31.5254 25.5139 31.9535 25.6817 32.3813C26.0637 33.4266 26.4227 34.5914 26.9248 35.566C27.1928 36.0651 27.4742 36.5885 27.809 37.0397C28.0004 37.3059 28.3354 37.4199 28.4067 37.8475C28.0717 38.3231 28.0487 39.0352 27.8572 39.6301C26.9961 42.3152 27.3311 45.6418 28.5502 47.6188C28.9334 48.2125 29.8363 49.5199 31.0615 49.0205C32.1375 48.5928 31.8975 47.2385 32.2082 46.0502C32.2805 45.7654 32.2324 45.5752 32.3754 45.3846V45.4379L33.3561 47.41C34.0973 48.5742 35.3889 49.7863 36.4643 50.5947C37.0377 51.0225 37.4922 51.7596 38.2092 52.0205V51.9486H38.1621C38.0184 51.7356 37.803 51.6397 37.6117 51.4734C37.1815 51.0459 36.7033 50.5229 36.3684 50.0479C35.3647 48.7174 34.4805 47.2438 33.691 45.7233C33.308 44.9867 32.9731 44.1787 32.6633 43.4422C32.5186 43.1568 32.5186 42.7285 32.2801 42.5869C31.9209 43.1088 31.3959 43.5615 31.1317 44.2027C30.6772 45.2242 30.6301 46.4838 30.4629 47.7908C30.3664 47.8147 30.4092 47.7908 30.3664 47.844C29.6022 47.6545 29.3385 46.8693 29.052 46.2047C28.3348 44.5176 28.2147 41.8088 28.8364 39.8602C29.0035 39.3611 29.7217 37.7928 29.435 37.3176C29.2905 36.866 28.8133 36.6051 28.5496 36.2483C28.2389 35.7967 27.9051 35.2268 27.6897 34.7277C27.1162 33.3963 26.8295 31.9236 26.2072 30.593C25.9196 29.975 25.418 29.3332 25.0112 28.7635C24.5567 28.1217 24.0557 27.6699 23.6967 26.91C23.5772 26.6438 23.41 26.2209 23.6012 25.9354C23.6485 25.7453 23.7447 25.6692 23.9352 25.6266C24.2457 25.3602 25.1313 25.6979 25.442 25.8395C26.3262 26.1963 27.0674 26.5287 27.8086 27.0272C28.1436 27.2647 28.5026 27.7164 28.9328 27.8358H29.4356C30.2008 28.0018 31.061 27.8889 31.7774 28.102C33.0449 28.5067 34.1922 29.1 35.2211 29.7422C38.3529 31.7145 40.936 34.5184 42.6807 37.8693C42.9674 38.4158 43.0869 38.9149 43.3506 39.4852C43.8533 40.65 44.475 41.8377 44.976 42.9789C45.4787 44.0957 45.9567 45.2371 46.6738 46.1637C47.0328 46.6627 48.4668 46.9236 49.1121 47.1852C49.5906 47.3983 50.3313 47.59 50.7627 47.851C51.575 48.35 52.3881 48.9203 53.1528 49.4668C53.5348 49.7512 54.7311 50.3455 54.8022 50.8195L54.8049 50.8067ZM30.4215 30.1576C30.0912 30.1547 29.762 30.1946 29.442 30.2764V30.3297H29.4891C29.6805 30.71 30.0155 30.9715 30.2543 31.3043L30.8047 32.4449L30.852 32.3918C31.1867 32.1543 31.3545 31.774 31.3545 31.2043C31.211 31.0381 31.1873 30.8713 31.0678 30.7051C30.9242 30.4676 30.6135 30.3483 30.4215 30.1588V30.1576Z" fill="#E1B573"/>
</g>
</g>
</g>
<path d="M10.9114 89.9091H12.8034L17.2523 100.776H17.4057L21.8546 89.9091H23.7466V103H22.2637V93.054H22.1358L18.0449 103H16.6131L12.5222 93.054H12.3944V103H10.9114V89.9091ZM27.6921 106.682C27.4364 106.682 27.2085 106.661 27.0082 106.618C26.8079 106.58 26.6694 106.541 26.5927 106.503L26.9762 105.173C27.3427 105.267 27.6665 105.301 27.9478 105.276C28.229 105.25 28.4783 105.124 28.6957 104.898C28.9173 104.677 29.1197 104.317 29.3029 103.818L29.5842 103.051L25.9535 93.1818H27.5898L30.3001 101.006H30.4023L33.1126 93.1818H34.7489L30.5813 104.432C30.3938 104.939 30.1616 105.359 29.8846 105.691C29.6076 106.028 29.2859 106.277 28.9194 106.439C28.5572 106.601 28.1481 106.682 27.6921 106.682ZM44.1037 93.1818C44.027 92.5341 43.7159 92.0312 43.1705 91.6733C42.625 91.3153 41.956 91.1364 41.1634 91.1364C40.5838 91.1364 40.0767 91.2301 39.642 91.4176C39.2116 91.6051 38.875 91.8629 38.6321 92.1911C38.3935 92.5192 38.2741 92.892 38.2741 93.3097C38.2741 93.6591 38.3572 93.9595 38.5234 94.2109C38.6939 94.4581 38.9112 94.6648 39.1754 94.831C39.4396 94.9929 39.7166 95.1271 40.0064 95.2337C40.2962 95.3359 40.5625 95.419 40.8054 95.483L42.1349 95.8409C42.4759 95.9304 42.8551 96.054 43.2727 96.2116C43.6946 96.3693 44.0973 96.5845 44.4808 96.8572C44.8686 97.1257 45.1882 97.4709 45.4396 97.8928C45.6911 98.3146 45.8168 98.8324 45.8168 99.446C45.8168 100.153 45.6314 100.793 45.2607 101.364C44.8942 101.935 44.3572 102.388 43.6499 102.725C42.9467 103.062 42.0923 103.23 41.0866 103.23C40.1491 103.23 39.3374 103.079 38.6513 102.776C37.9695 102.474 37.4325 102.052 37.0405 101.511C36.6527 100.969 36.4332 100.341 36.3821 99.625H38.0185C38.0611 100.119 38.2273 100.528 38.517 100.852C38.8111 101.172 39.1818 101.411 39.6293 101.568C40.081 101.722 40.5668 101.798 41.0866 101.798C41.6918 101.798 42.2351 101.7 42.7166 101.504C43.1982 101.304 43.5795 101.027 43.8608 100.673C44.142 100.315 44.2827 99.8977 44.2827 99.4205C44.2827 98.9858 44.1612 98.6321 43.9183 98.3594C43.6754 98.0866 43.3558 97.8651 42.9595 97.6946C42.5632 97.5241 42.1349 97.375 41.6747 97.2472L40.0639 96.7869C39.0412 96.4929 38.2315 96.0732 37.6349 95.5277C37.0384 94.9822 36.7401 94.2685 36.7401 93.3864C36.7401 92.6534 36.9382 92.0142 37.3345 91.4688C37.7351 90.919 38.272 90.4929 38.9453 90.1903C39.6229 89.8835 40.3793 89.7301 41.2145 89.7301C42.0582 89.7301 42.8082 89.8814 43.4645 90.1839C44.1207 90.4822 44.6406 90.8913 45.0241 91.4112C45.4119 91.9311 45.6165 92.5213 45.6378 93.1818H44.1037ZM53.1788 98.9091H54.9174L56.3748 100.827L56.7583 101.338L58.9316 104.227H57.193L55.7612 102.31L55.4032 101.824L53.1788 98.9091ZM59.4686 96.4545C59.4686 97.8352 59.2193 99.0284 58.7207 100.034C58.2221 101.04 57.5382 101.815 56.6689 102.361C55.7995 102.906 54.8066 103.179 53.6902 103.179C52.5737 103.179 51.5808 102.906 50.7115 102.361C49.8422 101.815 49.1582 101.04 48.6596 100.034C48.161 99.0284 47.9118 97.8352 47.9118 96.4545C47.9118 95.0739 48.161 93.8807 48.6596 92.875C49.1582 91.8693 49.8422 91.0938 50.7115 90.5483C51.5808 90.0028 52.5737 89.7301 53.6902 89.7301C54.8066 89.7301 55.7995 90.0028 56.6689 90.5483C57.5382 91.0938 58.2221 91.8693 58.7207 92.875C59.2193 93.8807 59.4686 95.0739 59.4686 96.4545ZM57.9345 96.4545C57.9345 95.321 57.7449 94.3643 57.3656 93.5845C56.9906 92.8047 56.4814 92.2145 55.8379 91.8139C55.1987 91.4134 54.4828 91.2131 53.6902 91.2131C52.8975 91.2131 52.1795 91.4134 51.536 91.8139C50.8968 92.2145 50.3876 92.8047 50.0083 93.5845C49.6333 94.3643 49.4458 95.321 49.4458 96.4545C49.4458 97.5881 49.6333 98.5447 50.0083 99.3246C50.3876 100.104 50.8968 100.695 51.536 101.095C52.1795 101.496 52.8975 101.696 53.6902 101.696C54.4828 101.696 55.1987 101.496 55.8379 101.095C56.4814 100.695 56.9906 100.104 57.3656 99.3246C57.7449 98.5447 57.9345 97.5881 57.9345 96.4545ZM62.1341 103V89.9091H63.7193V101.594H69.8045V103H62.1341Z" fill="#E1B573"/>
<defs>
<clipPath id="clip0_13_376">
<rect width="50" height="50" fill="white" transform="translate(15 17)"/>
</clipPath>
<clipPath id="clip1_13_376">
<rect width="50" height="50" fill="white" transform="translate(15 16)"/>
</clipPath>
</defs>
</svg>
