<svg width="80" height="107" viewBox="0 0 80 107" fill="none" xmlns="http://www.w3.org/2000/svg">
<circle cx="40" cy="40" r="40" fill="#517D70"/>
<path d="M22.6368 89.9091V103H21.1027L13.9692 92.7216H13.8414V103H12.2561V89.9091H13.7902L20.9493 100.213H21.0771V89.9091H22.6368ZM29.7208 103.205C28.7748 103.205 27.9587 102.996 27.2726 102.578C26.5908 102.156 26.0645 101.568 25.6938 100.814C25.3273 100.055 25.1441 99.1733 25.1441 98.1676C25.1441 97.1619 25.3273 96.2756 25.6938 95.5085C26.0645 94.7372 26.5802 94.1364 27.2407 93.706C27.9055 93.2713 28.681 93.054 29.5674 93.054C30.0787 93.054 30.5837 93.1392 31.0823 93.3097C31.5809 93.4801 32.0347 93.7571 32.4438 94.1406C32.8529 94.5199 33.1789 95.0227 33.4218 95.6491C33.6647 96.2756 33.7861 97.0469 33.7861 97.9631V98.6023H26.218V97.2983H32.252C32.252 96.7443 32.1412 96.25 31.9197 95.8153C31.7023 95.3807 31.3912 95.0376 30.9864 94.7862C30.5858 94.5348 30.1128 94.4091 29.5674 94.4091C28.9665 94.4091 28.4466 94.5582 28.0077 94.8565C27.5731 95.1506 27.2385 95.5341 27.0042 96.0071C26.7698 96.4801 26.6526 96.9872 26.6526 97.5284V98.3977C26.6526 99.1392 26.7805 99.7678 27.0361 100.283C27.2961 100.795 27.6562 101.185 28.1164 101.453C28.5766 101.717 29.1114 101.849 29.7208 101.849C30.1171 101.849 30.4751 101.794 30.7947 101.683C31.1185 101.568 31.3976 101.398 31.632 101.172C31.8664 100.942 32.0475 100.656 32.1753 100.315L33.6327 100.724C33.4793 101.219 33.2215 101.653 32.8593 102.028C32.4971 102.399 32.0496 102.689 31.517 102.898C30.9843 103.102 30.3856 103.205 29.7208 103.205ZM36.9422 93.1818L39.2945 97.196L41.6468 93.1818H43.3854L40.2149 98.0909L43.3854 103H41.6468L39.2945 99.1903L36.9422 103H35.2036L38.3229 98.0909L35.2036 93.1818H36.9422ZM49.8078 93.1818V94.4602H44.7197V93.1818H49.8078ZM46.2027 90.8295H47.7112V100.188C47.7112 100.614 47.773 100.933 47.8966 101.146C48.0244 101.355 48.1863 101.496 48.3824 101.568C48.5827 101.636 48.7936 101.67 49.0152 101.67C49.1814 101.67 49.3177 101.662 49.4243 101.645C49.5308 101.624 49.616 101.607 49.68 101.594L49.9868 102.949C49.8845 102.987 49.7417 103.026 49.5585 103.064C49.3753 103.107 49.143 103.128 48.8618 103.128C48.4356 103.128 48.018 103.036 47.6089 102.853C47.2041 102.67 46.8675 102.391 46.599 102.016C46.3348 101.641 46.2027 101.168 46.2027 100.597V90.8295ZM53.1764 103.102C52.8611 103.102 52.5905 102.989 52.3646 102.763C52.1388 102.538 52.0258 102.267 52.0258 101.952C52.0258 101.636 52.1388 101.366 52.3646 101.14C52.5905 100.914 52.8611 100.801 53.1764 100.801C53.4917 100.801 53.7623 100.914 53.9882 101.14C54.214 101.366 54.327 101.636 54.327 101.952C54.327 102.161 54.2737 102.352 54.1672 102.527C54.0649 102.702 53.9264 102.842 53.7517 102.949C53.5812 103.051 53.3895 103.102 53.1764 103.102ZM57.034 93.1818H58.5425V103.716C58.5425 104.321 58.4381 104.845 58.2293 105.288C58.0248 105.732 57.7137 106.075 57.2961 106.317C56.8827 106.56 56.3607 106.682 55.73 106.682C55.6789 106.682 55.6278 106.682 55.5766 106.682C55.5255 106.682 55.4743 106.682 55.4232 106.682V105.276C55.4743 105.276 55.5212 105.276 55.5638 105.276C55.6064 105.276 55.6533 105.276 55.7045 105.276C56.1647 105.276 56.5013 105.139 56.7144 104.866C56.9275 104.598 57.034 104.214 57.034 103.716V93.1818ZM57.7755 91.5455C57.4814 91.5455 57.2279 91.4453 57.0148 91.245C56.806 91.0447 56.7016 90.804 56.7016 90.5227C56.7016 90.2415 56.806 90.0007 57.0148 89.8004C57.2279 89.6001 57.4814 89.5 57.7755 89.5C58.0695 89.5 58.3209 89.6001 58.5297 89.8004C58.7428 90.0007 58.8493 90.2415 58.8493 90.5227C58.8493 90.804 58.7428 91.0447 58.5297 91.245C58.3209 91.4453 58.0695 91.5455 57.7755 91.5455ZM68.26 95.3807L66.9049 95.7642C66.8197 95.5384 66.694 95.3189 66.5278 95.1058C66.3659 94.8885 66.1443 94.7095 65.863 94.5689C65.5818 94.4283 65.2217 94.358 64.7828 94.358C64.1819 94.358 63.6812 94.4964 63.2806 94.7734C62.8843 95.0462 62.6862 95.3935 62.6862 95.8153C62.6862 96.1903 62.8225 96.4865 63.0953 96.7038C63.368 96.9212 63.7941 97.1023 64.3737 97.2472L65.8311 97.6051C66.7089 97.8182 67.363 98.1442 67.7934 98.5831C68.2238 99.0178 68.439 99.5781 68.439 100.264C68.439 100.827 68.2771 101.33 67.9532 101.773C67.6336 102.216 67.1862 102.565 66.6109 102.821C66.0356 103.077 65.3666 103.205 64.6038 103.205C63.6024 103.205 62.7735 102.987 62.1173 102.553C61.461 102.118 61.0455 101.483 60.8708 100.648L62.3026 100.29C62.439 100.818 62.6968 101.214 63.0761 101.479C63.4596 101.743 63.9603 101.875 64.5782 101.875C65.2813 101.875 65.8396 101.726 66.2529 101.428C66.6705 101.125 66.8794 100.763 66.8794 100.341C66.8794 100 66.76 99.7145 66.5214 99.4844C66.2828 99.25 65.9163 99.0753 65.422 98.9602L63.7856 98.5767C62.8865 98.3636 62.2259 98.0334 61.8041 97.5859C61.3865 97.1342 61.1776 96.5696 61.1776 95.892C61.1776 95.3381 61.3332 94.848 61.6443 94.4219C61.9596 93.9957 62.3879 93.6612 62.9291 93.4183C63.4745 93.1754 64.0924 93.054 64.7828 93.054C65.7544 93.054 66.5171 93.267 67.0711 93.6932C67.6294 94.1193 68.0257 94.6818 68.26 95.3807Z" fill="#517D70"/>
<g clip-path="url(#clip0_4_101)">
<path d="M39.93 10.0001C39.49 10.0001 39.155 10.0026 39.035 10.0176C38.7319 10.0479 38.4286 10.0754 38.125 10.1001C29.6075 10.8651 21.625 15.4626 16.57 22.5301C13.7744 26.4089 11.9571 30.9055 11.2725 35.6376C11.0325 37.2851 11.0025 37.7726 11.0025 40.0051C11.0025 42.2376 11.0325 42.7276 11.2725 44.3751C12.9025 55.6401 20.9225 65.105 31.795 68.6125C33.7425 69.2375 35.795 69.6675 38.13 69.925C39.0375 70.025 42.9675 70.025 43.8775 69.925C47.905 69.48 51.32 68.4825 54.685 66.765C55.2025 66.5 55.3025 66.4301 55.2325 66.3701C55.1825 66.3376 52.9825 63.3875 50.345 59.82L45.5475 53.3401L39.5375 44.4451C37.538 41.4689 35.5196 38.5055 33.4825 35.5551C33.46 35.5501 33.4375 39.5026 33.425 44.3301C33.4075 52.7801 33.4 53.1175 33.295 53.3175C33.1931 53.5519 33.0103 53.7418 32.78 53.8526C32.5925 53.9451 32.43 53.9625 31.5425 53.9625H30.525L30.255 53.7926C30.0881 53.6879 29.9525 53.5403 29.8625 53.3651L29.7375 53.1L29.7525 41.3425L29.77 29.58L29.95 29.35C30.0729 29.2063 30.2202 29.0853 30.385 28.9926C30.625 28.8751 30.72 28.8651 31.735 28.8651C32.93 28.8651 33.13 28.9101 33.44 29.2501C35.8729 32.8707 38.2854 36.5049 40.6775 40.1526C44.6209 46.1291 48.5668 52.1041 52.515 58.0776L57.265 65.2751L57.505 65.1176C59.7919 63.598 61.8653 61.7794 63.67 59.7101C67.4494 55.3839 69.9008 50.0594 70.73 44.3751C70.97 42.7251 71 42.2401 71 40.0051C71 37.7726 70.97 37.2851 70.73 35.6376C69.1 24.3726 61.0825 14.9076 50.21 11.4001C48.1772 10.7538 46.0839 10.3157 43.9625 10.0926C42.6201 10.029 41.2764 9.99817 39.9325 10.0001H39.93ZM50.1025 28.0426C50.97 28.0426 51.1225 28.0551 51.3175 28.1601C51.4572 28.2305 51.5814 28.3281 51.6831 28.4469C51.7849 28.5658 51.862 28.7037 51.91 28.8526C51.955 29.0026 51.9675 32.2651 51.955 39.6126L51.94 50.1575L50.08 47.3076L48.215 44.4576V36.7926C48.215 31.8376 48.24 29.0501 48.2725 28.9176C48.3144 28.7612 48.3876 28.615 48.4878 28.4877C48.5879 28.3605 48.7128 28.255 48.855 28.1776C49.095 28.0526 49.18 28.0426 50.105 28.0426H50.1025Z" fill="white"/>
</g>
<defs>
<clipPath id="clip0_4_101">
<rect width="60" height="60" fill="white" transform="translate(11 10)"/>
</clipPath>
</defs>
</svg>
