<svg width="80" height="107" viewBox="0 0 80 107" fill="none" xmlns="http://www.w3.org/2000/svg">
<circle cx="40" cy="40" r="40" fill="#2B6AA5"/>
<path d="M23.4973 103V89.9091H27.9206C28.9476 89.9091 29.7871 90.0945 30.4391 90.4652C31.0953 90.8317 31.5811 91.3281 31.8965 91.9545C32.2118 92.581 32.3695 93.2798 32.3695 94.0511C32.3695 94.8224 32.2118 95.5234 31.8965 96.1541C31.5854 96.7848 31.1039 97.2876 30.4519 97.6626C29.7999 98.0334 28.9647 98.2188 27.9462 98.2188H24.7757V96.8125H27.8951C28.5982 96.8125 29.1628 96.6911 29.589 96.4482C30.0151 96.2053 30.324 95.8771 30.5158 95.4638C30.7118 95.0462 30.8098 94.5753 30.8098 94.0511C30.8098 93.527 30.7118 93.0582 30.5158 92.6449C30.324 92.2315 30.013 91.9077 29.5826 91.6733C29.1522 91.4347 28.5811 91.3153 27.8695 91.3153H25.0826V103H23.4973ZM34.9231 103V89.9091H36.5083V95.7386H43.4885V89.9091H45.0737V103H43.4885V97.1449H36.5083V103H34.9231ZM48.2473 103V89.9091H52.6706C53.6976 89.9091 54.5371 90.0945 55.1891 90.4652C55.8453 90.8317 56.3311 91.3281 56.6465 91.9545C56.9618 92.581 57.1195 93.2798 57.1195 94.0511C57.1195 94.8224 56.9618 95.5234 56.6465 96.1541C56.3354 96.7848 55.8539 97.2876 55.2019 97.6626C54.5499 98.0334 53.7147 98.2188 52.6962 98.2188H49.5257V96.8125H52.6451C53.3482 96.8125 53.9128 96.6911 54.339 96.4482C54.7651 96.2053 55.074 95.8771 55.2658 95.4638C55.4618 95.0462 55.5598 94.5753 55.5598 94.0511C55.5598 93.527 55.4618 93.0582 55.2658 92.6449C55.074 92.2315 54.763 91.9077 54.3326 91.6733C53.9022 91.4347 53.3311 91.3153 52.6195 91.3153H49.8326V103H48.2473Z" fill="#2B6AA5"/>
<g clip-path="url(#clip0_4_178)">
<path d="M54.2812 16H27.7188C21.2467 16 16 21.2467 16 27.7188V54.2812C16 60.7533 21.2467 66 27.7188 66H54.2812C60.7533 66 66 60.7533 66 54.2812V27.7188C66 21.2467 60.7533 16 54.2812 16Z" fill="white"/>
<path d="M25.6012 35.5793H31.1496C32.7781 35.593 33.9582 36.0625 34.6898 36.9871C35.4215 37.9117 35.6629 39.1746 35.4145 40.7758C35.318 41.5074 35.1039 42.225 34.7727 42.9289C34.4551 43.6328 34.0137 44.2676 33.4477 44.8336C32.7574 45.5512 32.0191 46.0066 31.2324 46.2C30.4457 46.3934 29.6313 46.4898 28.7895 46.4898H26.3051L25.5184 50.4234H22.6406L25.6012 35.5793ZM28.0234 37.9395L26.7813 44.1504C26.8641 44.1641 26.9469 44.1711 27.0297 44.1711H27.3195C28.6445 44.1848 29.7488 44.0539 30.632 43.7777C31.5152 43.4879 32.109 42.4805 32.4125 40.7551C32.6609 39.3059 32.4125 38.4707 31.6672 38.25C30.9355 38.0293 30.018 37.9258 28.9137 37.9395C28.748 37.9531 28.5895 37.9602 28.4375 37.9602H28.0027L28.0234 37.9395ZM38.6926 31.625H41.5496L40.7422 35.5793H43.3094C44.7172 35.607 45.766 35.8969 46.4563 36.4488C47.1602 37.0008 47.3672 38.05 47.0773 39.5957L45.6902 46.4898H42.7918L44.1168 39.9063C44.2547 39.216 44.2133 38.7262 43.9926 38.4363C43.7719 38.1465 43.2957 38.0016 42.5641 38.0016L40.266 37.9809L38.5684 46.4898H35.7113L38.6926 31.625ZM50.1453 35.5793H55.6937C57.3223 35.593 58.5023 36.0625 59.234 36.9871C59.9656 37.9117 60.207 39.1746 59.9586 40.7758C59.8621 41.5074 59.648 42.225 59.3168 42.9289C58.9992 43.6328 58.5578 44.2676 57.9918 44.8336C57.3016 45.5512 56.5633 46.0066 55.7766 46.2C54.9898 46.3934 54.1754 46.4898 53.3336 46.4898H50.8492L50.0625 50.4234H47.1848L50.1453 35.5793ZM52.5676 37.9395L51.3254 44.1504C51.4082 44.1641 51.491 44.1711 51.5738 44.1711H51.8637C53.1887 44.1848 54.293 44.0539 55.1762 43.7777C56.0594 43.4879 56.6531 42.4805 56.9566 40.7551C57.2051 39.3059 56.9566 38.4707 56.2113 38.25C55.4797 38.0293 54.5621 37.9258 53.4578 37.9395C53.2922 37.9531 53.1336 37.9602 52.9816 37.9602H52.5469L52.5676 37.9395Z" fill="#2B6AA5"/>
</g>
<defs>
<clipPath id="clip0_4_178">
<rect width="50" height="50" fill="white" transform="translate(16 16)"/>
</clipPath>
</defs>
</svg>
