<svg width="80" height="107" viewBox="0 0 80 107" fill="none" xmlns="http://www.w3.org/2000/svg">
<circle cx="40" cy="40" r="40" fill="#00B4E0"/>
<g clip-path="url(#clip0_13_415)">
<rect width="50" height="50" transform="translate(16 17)" fill="#00B4E0"/>
<g clip-path="url(#clip1_13_415)">
<path d="M54.2812 16H27.7188C21.2467 16 16 21.2467 16 27.7188V54.2812C16 60.7533 21.2467 66 27.7188 66H54.2812C60.7533 66 66 60.7533 66 54.2812V27.7188C66 21.2467 60.7533 16 54.2812 16Z" fill="white"/>
<path d="M23.9102 38.116C23.832 38.116 23.8125 38.077 23.8516 38.0184L24.2617 37.491C24.3008 37.4324 24.3984 37.3934 24.4766 37.3934H31.4492C31.5273 37.3934 31.5469 37.452 31.5078 37.5106L31.1758 38.0184C31.1367 38.077 31.0391 38.1355 30.9805 38.1355L23.9102 38.116ZM20.9609 39.9129C20.8828 39.9129 20.8633 39.8738 20.9023 39.8152L21.3125 39.2879C21.3516 39.2293 21.4492 39.1902 21.5273 39.1902H30.4336C30.5117 39.1902 30.5508 39.2488 30.5313 39.3074L30.375 39.7762C30.3555 39.8543 30.2773 39.8934 30.1992 39.8934L20.9609 39.9129ZM25.6875 41.7098C25.6094 41.7098 25.5898 41.6512 25.6289 41.5926L25.9023 41.1043C25.9414 41.0457 26.0195 40.9871 26.0977 40.9871H30.0039C30.082 40.9871 30.1211 41.0457 30.1211 41.1238L30.082 41.5926C30.082 41.6707 30.0039 41.7293 29.9453 41.7293L25.6875 41.7098ZM45.9609 37.7645C44.7305 38.077 43.8906 38.3113 42.6797 38.6238C42.3867 38.702 42.3672 38.7215 42.1133 38.4285C41.8203 38.0965 41.6055 37.8816 41.1953 37.6863C39.9648 37.0809 38.7734 37.2566 37.6602 37.9793C36.332 38.8387 35.6484 40.1082 35.668 41.6902C35.6875 43.2527 36.7617 44.5418 38.3047 44.7566C39.6328 44.9324 40.7461 44.4637 41.625 43.4676C41.8008 43.2527 41.957 43.0184 42.1523 42.7449H38.3828C37.9727 42.7449 37.875 42.491 38.0117 42.159C38.2656 41.5535 38.7344 40.5379 39.0078 40.0301C39.0664 39.9129 39.2031 39.7176 39.4961 39.7176H46.6055C46.5664 40.2449 46.5664 40.7723 46.4883 41.2996C46.2734 42.7059 45.7461 43.9949 44.8867 45.1277C43.4805 46.9832 41.6445 48.1356 39.3203 48.4481C37.4063 48.702 35.6289 48.3309 34.0664 47.159C32.6211 46.0652 31.8008 44.6199 31.5859 42.823C31.332 40.6941 31.957 38.7801 33.2461 37.1004C34.6328 35.284 36.4688 34.1316 38.7148 33.7215C40.5508 33.3895 42.3086 33.6043 43.8906 34.6785C44.9258 35.3621 45.668 36.2996 46.1562 37.4324C46.2734 37.6082 46.1953 37.7059 45.9609 37.7645Z" fill="#00B4E0"/>
<path d="M52.4258 48.5652C50.6484 48.5262 49.0273 48.0184 47.6601 46.8465C46.5078 45.8504 45.7851 44.5809 45.5508 43.0769C45.1992 40.8699 45.8047 38.9168 47.1328 37.1785C48.5586 35.3035 50.2773 34.3269 52.6015 33.9168C54.5937 33.5652 56.4687 33.7605 58.1679 34.9129C59.7109 35.9676 60.6679 37.3934 60.9218 39.2684C61.2539 41.9051 60.4922 44.0535 58.6758 45.8894C57.3867 47.198 55.8047 48.0184 53.9883 48.3894C53.4609 48.4871 52.9336 48.5066 52.4258 48.5652ZM57.0742 40.6746C57.0547 40.4207 57.0547 40.2254 57.0156 40.0301C56.664 38.0965 54.8867 37.0027 53.0312 37.4324C51.2148 37.8426 50.0429 38.9949 49.6133 40.8309C49.2617 42.3543 50.0039 43.8973 51.4101 44.5223C52.4843 44.991 53.5586 44.9324 54.5937 44.4051C56.1367 43.6043 56.9765 42.3543 57.0742 40.6746Z" fill="#00B4E0"/>
</g>
</g>
<path d="M20.5194 94C20.3788 93.5696 20.1934 93.1839 19.9633 92.843C19.7375 92.4979 19.4669 92.2038 19.1515 91.9609C18.8405 91.718 18.4868 91.5327 18.0905 91.4048C17.6942 91.277 17.2595 91.2131 16.7865 91.2131C16.0109 91.2131 15.3057 91.4134 14.6707 91.8139C14.0358 92.2145 13.5308 92.8047 13.1558 93.5845C12.7808 94.3643 12.5933 95.321 12.5933 96.4545C12.5933 97.5881 12.7829 98.5447 13.1622 99.3246C13.5415 100.104 14.055 100.695 14.7027 101.095C15.3504 101.496 16.0791 101.696 16.8888 101.696C17.6388 101.696 18.2993 101.536 18.8703 101.217C19.4456 100.893 19.893 100.437 20.2126 99.8487C20.5365 99.2564 20.6984 98.5597 20.6984 97.7585L21.1842 97.8608H17.2467V96.4545H22.2325V97.8608C22.2325 98.9389 22.0024 99.8764 21.5422 100.673C21.0862 101.47 20.4555 102.088 19.6501 102.527C18.849 102.962 17.9285 103.179 16.8888 103.179C15.7297 103.179 14.7112 102.906 13.8334 102.361C12.9598 101.815 12.278 101.04 11.7879 100.034C11.3021 99.0284 11.0592 97.8352 11.0592 96.4545C11.0592 95.419 11.1977 94.4879 11.4747 93.6612C11.7559 92.8303 12.1523 92.1229 12.6636 91.5391C13.175 90.9553 13.7801 90.5078 14.479 90.1967C15.1778 89.8857 15.947 89.7301 16.7865 89.7301C17.4768 89.7301 18.1203 89.8345 18.7169 90.0433C19.3177 90.2479 19.8525 90.5398 20.3213 90.919C20.7943 91.294 21.1885 91.7436 21.5038 92.2678C21.8192 92.7876 22.0365 93.3651 22.1558 94H20.5194ZM28.7316 103.205C27.8453 103.205 27.0676 102.994 26.3985 102.572C25.7338 102.15 25.2139 101.56 24.8389 100.801C24.4681 100.043 24.2828 99.1562 24.2828 98.142C24.2828 97.1193 24.4681 96.2266 24.8389 95.4638C25.2139 94.701 25.7338 94.1087 26.3985 93.6868C27.0676 93.2649 27.8453 93.054 28.7316 93.054C29.618 93.054 30.3936 93.2649 31.0583 93.6868C31.7274 94.1087 32.2472 94.701 32.618 95.4638C32.993 96.2266 33.1805 97.1193 33.1805 98.142C33.1805 99.1562 32.993 100.043 32.618 100.801C32.2472 101.56 31.7274 102.15 31.0583 102.572C30.3936 102.994 29.618 103.205 28.7316 103.205ZM28.7316 101.849C29.4049 101.849 29.9589 101.677 30.3936 101.332C30.8282 100.987 31.1499 100.533 31.3588 99.9702C31.5676 99.4077 31.672 98.7983 31.672 98.142C31.672 97.4858 31.5676 96.8743 31.3588 96.3075C31.1499 95.7408 30.8282 95.2827 30.3936 94.9332C29.9589 94.5838 29.4049 94.4091 28.7316 94.4091C28.0583 94.4091 27.5044 94.5838 27.0697 94.9332C26.635 95.2827 26.3133 95.7408 26.1045 96.3075C25.8957 96.8743 25.7913 97.4858 25.7913 98.142C25.7913 98.7983 25.8957 99.4077 26.1045 99.9702C26.3133 100.533 26.635 100.987 27.0697 101.332C27.5044 101.677 28.0583 101.849 28.7316 101.849ZM36.9917 89.9091V103H35.4832V89.9091H36.9917ZM42.6439 103.23C42.0218 103.23 41.4571 103.113 40.95 102.879C40.4429 102.64 40.0402 102.297 39.7419 101.849C39.4436 101.398 39.2945 100.852 39.2945 100.213C39.2945 99.6506 39.4053 99.1946 39.6269 98.8452C39.8485 98.4915 40.1446 98.2145 40.5154 98.0142C40.8861 97.8139 41.2952 97.6648 41.7426 97.5668C42.1943 97.4645 42.6482 97.3835 43.1041 97.3239C43.7007 97.2472 44.1844 97.1896 44.5551 97.1513C44.9301 97.1087 45.2029 97.0384 45.3733 96.9403C45.548 96.8423 45.6354 96.6719 45.6354 96.429V96.3778C45.6354 95.7472 45.4628 95.2571 45.1176 94.9077C44.7767 94.5582 44.259 94.3835 43.5644 94.3835C42.8442 94.3835 42.2796 94.5412 41.8705 94.8565C41.4614 95.1719 41.1737 95.5085 41.0075 95.8665L39.5757 95.3551C39.8314 94.7585 40.1723 94.294 40.5985 93.9616C41.0289 93.625 41.4976 93.3906 42.0047 93.2585C42.5161 93.1222 43.0189 93.054 43.5132 93.054C43.8286 93.054 44.1908 93.0923 44.5999 93.169C45.0132 93.2415 45.4117 93.3928 45.7952 93.6229C46.183 93.853 46.5047 94.2003 46.7604 94.6648C47.0161 95.1293 47.1439 95.7514 47.1439 96.5312V103H45.6354V101.67H45.5587C45.4564 101.884 45.286 102.112 45.0473 102.354C44.8087 102.597 44.4912 102.804 44.0949 102.974C43.6986 103.145 43.2149 103.23 42.6439 103.23ZM42.874 101.875C43.4706 101.875 43.9735 101.758 44.3825 101.523C44.7959 101.289 45.107 100.987 45.3158 100.616C45.5289 100.245 45.6354 99.8551 45.6354 99.446V98.0653C45.5715 98.142 45.4308 98.2124 45.2135 98.2763C45.0004 98.3359 44.7533 98.3892 44.472 98.4361C44.195 98.4787 43.9244 98.517 43.6602 98.5511C43.4003 98.581 43.1894 98.6065 43.0274 98.6278C42.6354 98.679 42.2689 98.7621 41.928 98.8771C41.5914 98.9879 41.3186 99.1562 41.1098 99.3821C40.9053 99.6037 40.803 99.9062 40.803 100.29C40.803 100.814 40.9969 101.21 41.3847 101.479C41.7767 101.743 42.2732 101.875 42.874 101.875ZM51.4058 97.0938V103H49.8973V93.1818H51.3547V94.7159H51.4825C51.7126 94.2173 52.0621 93.8168 52.5308 93.5142C52.9996 93.2074 53.6047 93.054 54.3461 93.054C55.0109 93.054 55.5926 93.1903 56.0912 93.4631C56.5898 93.7315 56.9775 94.1406 57.2545 94.6903C57.5315 95.2358 57.67 95.9261 57.67 96.7614V103H56.1615V96.8636C56.1615 96.0923 55.9612 95.4915 55.5606 95.0611C55.1601 94.6264 54.6104 94.4091 53.9115 94.4091C53.43 94.4091 52.9996 94.5135 52.6203 94.7223C52.2453 94.9311 51.9491 95.2358 51.7318 95.6364C51.5145 96.0369 51.4058 96.5227 51.4058 97.0938ZM64.3896 106.886C63.661 106.886 63.0345 106.793 62.5104 106.605C61.9862 106.422 61.5494 106.179 61.2 105.876C60.8548 105.578 60.58 105.259 60.3754 104.918L61.5771 104.074C61.7135 104.253 61.8861 104.457 62.0949 104.688C62.3037 104.922 62.5892 105.124 62.9514 105.295C63.3179 105.469 63.7973 105.557 64.3896 105.557C65.1823 105.557 65.8364 105.365 66.352 104.982C66.8676 104.598 67.1254 103.997 67.1254 103.179V101.185H66.9976C66.8868 101.364 66.7291 101.585 66.5246 101.849C66.3243 102.109 66.0345 102.342 65.6553 102.546C65.2803 102.746 64.7732 102.847 64.134 102.847C63.3414 102.847 62.6297 102.659 61.999 102.284C61.3726 101.909 60.8762 101.364 60.5097 100.648C60.1475 99.9318 59.9664 99.0625 59.9664 98.0398C59.9664 97.0341 60.1432 96.1584 60.4969 95.4126C60.8506 94.6626 61.3428 94.0831 61.9735 93.674C62.6041 93.2607 63.3328 93.054 64.1595 93.054C64.7987 93.054 65.3058 93.1605 65.6808 93.3736C66.0601 93.5824 66.3499 93.821 66.5502 94.0895C66.7547 94.3537 66.9124 94.571 67.0232 94.7415H67.1766V93.1818H68.634V103.281C68.634 104.125 68.4422 104.811 68.0587 105.339C67.6794 105.872 67.1681 106.262 66.5246 106.509C65.8854 106.761 65.1737 106.886 64.3896 106.886ZM64.3385 101.491C64.9436 101.491 65.455 101.353 65.8726 101.076C66.2902 100.799 66.6077 100.401 66.825 99.8807C67.0423 99.3608 67.151 98.7386 67.151 98.0142C67.151 97.3068 67.0445 96.6825 66.8314 96.1413C66.6183 95.6001 66.303 95.1761 65.8854 94.8693C65.4678 94.5625 64.9521 94.4091 64.3385 94.4091C63.6993 94.4091 63.1666 94.571 62.7405 94.8949C62.3186 95.2187 62.0012 95.6534 61.7881 96.1989C61.5793 96.7443 61.4749 97.3494 61.4749 98.0142C61.4749 98.696 61.5814 99.299 61.7945 99.8232C62.0118 100.343 62.3314 100.752 62.7533 101.05C63.1794 101.344 63.7078 101.491 64.3385 101.491Z" fill="#00B4E0"/>
<defs>
<clipPath id="clip0_13_415">
<rect width="50" height="50" fill="white" transform="translate(16 17)"/>
</clipPath>
<clipPath id="clip1_13_415">
<rect width="50" height="50" fill="white" transform="translate(16 16)"/>
</clipPath>
</defs>
</svg>
