<svg width="80" height="106" viewBox="0 0 80 106" fill="none" xmlns="http://www.w3.org/2000/svg">
<circle cx="40" cy="40" r="40" fill="#3D3D3D"/>
<path d="M2.96493 102V89.6364H10.4266V90.9645H4.46209V95.142H10.0402V96.4702H4.46209V100.672H10.5232V102H2.96493ZM16.9646 92.7273V93.9347H12.1592V92.7273H16.9646ZM13.5597 90.5057H14.9845V99.3438C14.9845 99.7462 15.0428 100.048 15.1595 100.249C15.2803 100.446 15.4332 100.579 15.6183 100.648C15.8075 100.712 16.0067 100.744 16.216 100.744C16.373 100.744 16.5017 100.736 16.6024 100.72C16.703 100.7 16.7835 100.684 16.8438 100.672L17.1336 101.952C17.037 101.988 16.9022 102.024 16.7291 102.06C16.5561 102.101 16.3367 102.121 16.0711 102.121C15.6686 102.121 15.2742 102.034 14.8879 101.861C14.5055 101.688 14.1876 101.424 13.934 101.07C13.6845 100.716 13.5597 100.269 13.5597 99.7301V90.5057ZM20.7316 96.4219V102H19.3069V89.6364H20.7316V94.1761H20.8524C21.0697 93.6972 21.3957 93.3169 21.8303 93.0352C22.269 92.7494 22.8526 92.6065 23.5811 92.6065C24.2129 92.6065 24.7663 92.7333 25.2412 92.9869C25.7161 93.2364 26.0844 93.6207 26.346 94.1399C26.6116 94.6551 26.7444 95.3111 26.7444 96.108V102H25.3197V96.2045C25.3197 95.468 25.1285 94.8986 24.7462 94.4961C24.3679 94.0896 23.8427 93.8864 23.1705 93.8864C22.7037 93.8864 22.2851 93.985 21.9149 94.1822C21.5486 94.3794 21.2588 94.6671 21.0455 95.0455C20.8363 95.4238 20.7316 95.8826 20.7316 96.4219ZM33.2386 102.193C32.3452 102.193 31.5745 101.996 30.9265 101.602C30.2826 101.203 29.7855 100.648 29.4354 99.9354C29.0893 99.219 28.9162 98.3859 28.9162 97.4361C28.9162 96.4863 29.0893 95.6491 29.4354 94.9247C29.7855 94.1963 30.2725 93.6288 30.8963 93.2223C31.5241 92.8118 32.2566 92.6065 33.0938 92.6065C33.5767 92.6065 34.0536 92.687 34.5245 92.848C34.9954 93.009 35.424 93.2706 35.8104 93.6328C36.1967 93.991 36.5046 94.4659 36.734 95.0575C36.9634 95.6491 37.0781 96.3776 37.0781 97.2429V97.8466H29.9304V96.6151H35.6293C35.6293 96.0919 35.5246 95.625 35.3153 95.2145C35.1101 94.804 34.8163 94.48 34.4339 94.2425C34.0556 94.0051 33.6089 93.8864 33.0938 93.8864C32.5263 93.8864 32.0353 94.0272 31.6207 94.3089C31.2102 94.5866 30.8943 94.9489 30.6729 95.3956C30.4516 95.8423 30.3409 96.3213 30.3409 96.8324V97.6534C30.3409 98.3537 30.4616 98.9473 30.7031 99.4343C30.9486 99.9173 31.2887 100.286 31.7234 100.539C32.158 100.789 32.6631 100.913 33.2386 100.913C33.6129 100.913 33.951 100.861 34.2528 100.756C34.5587 100.648 34.8223 100.487 35.0437 100.273C35.265 100.056 35.4361 99.7865 35.5568 99.4645L36.9332 99.8509C36.7884 100.318 36.5449 100.728 36.2028 101.082C35.8607 101.433 35.4381 101.706 34.935 101.903C34.4319 102.097 33.8665 102.193 33.2386 102.193ZM39.2454 102V92.7273H40.6218V94.1278H40.7184C40.8874 93.669 41.1933 93.2968 41.636 93.011C42.0787 92.7253 42.5778 92.5824 43.1332 92.5824C43.2378 92.5824 43.3686 92.5844 43.5256 92.5884C43.6825 92.5924 43.8013 92.5985 43.8817 92.6065V94.0554C43.8335 94.0433 43.7228 94.0252 43.5497 94.0011C43.3807 93.9729 43.2016 93.9588 43.0124 93.9588C42.5617 93.9588 42.1592 94.0534 41.805 94.2425C41.4549 94.4277 41.1772 94.6853 40.9719 95.0153C40.7707 95.3413 40.6701 95.7135 40.6701 96.1321V102H39.2454ZM49.1761 102.193C48.2827 102.193 47.512 101.996 46.864 101.602C46.2201 101.203 45.723 100.648 45.3729 99.9354C45.0268 99.219 44.8537 98.3859 44.8537 97.4361C44.8537 96.4863 45.0268 95.6491 45.3729 94.9247C45.723 94.1963 46.21 93.6288 46.8338 93.2223C47.4616 92.8118 48.1941 92.6065 49.0312 92.6065C49.5142 92.6065 49.9911 92.687 50.462 92.848C50.9329 93.009 51.3615 93.2706 51.7479 93.6328C52.1342 93.991 52.4421 94.4659 52.6715 95.0575C52.9009 95.6491 53.0156 96.3776 53.0156 97.2429V97.8466H45.8679V96.6151H51.5668C51.5668 96.0919 51.4621 95.625 51.2528 95.2145C51.0476 94.804 50.7538 94.48 50.3714 94.2425C49.9931 94.0051 49.5464 93.8864 49.0312 93.8864C48.4638 93.8864 47.9728 94.0272 47.5582 94.3089C47.1477 94.5866 46.8318 94.9489 46.6104 95.3956C46.3891 95.8423 46.2784 96.3213 46.2784 96.8324V97.6534C46.2784 98.3537 46.3991 98.9473 46.6406 99.4343C46.8861 99.9173 47.2262 100.286 47.6609 100.539C48.0955 100.789 48.6006 100.913 49.1761 100.913C49.5504 100.913 49.8885 100.861 50.1903 100.756C50.4962 100.648 50.7598 100.487 50.9812 100.273C51.2025 100.056 51.3736 99.7865 51.4943 99.4645L52.8707 99.8509C52.7259 100.318 52.4824 100.728 52.1403 101.082C51.7982 101.433 51.3756 101.706 50.8725 101.903C50.3694 102.097 49.804 102.193 49.1761 102.193ZM61.0266 98.2088V92.7273H62.4513V102H61.0266V100.43H60.93C60.7127 100.901 60.3746 101.302 59.9158 101.632C59.457 101.958 58.8775 102.121 58.1772 102.121C57.5977 102.121 57.0825 101.994 56.6317 101.74C56.181 101.483 55.8268 101.096 55.5692 100.581C55.3117 100.062 55.1829 99.4081 55.1829 98.6193V92.7273H56.6076V98.5227C56.6076 99.1989 56.7968 99.7382 57.1751 100.141C57.5574 100.543 58.0444 100.744 58.636 100.744C58.9902 100.744 59.3504 100.654 59.7166 100.473C60.0869 100.292 60.3968 100.014 60.6463 99.6396C60.8999 99.2653 61.0266 98.7884 61.0266 98.2088ZM65.0608 102V92.7273H66.4372V94.1761H66.558C66.7512 93.6811 67.0631 93.2968 67.4937 93.0231C67.9243 92.7454 68.4415 92.6065 69.0452 92.6065C69.6569 92.6065 70.166 92.7454 70.5725 93.0231C70.983 93.2968 71.303 93.6811 71.5324 94.1761H71.629C71.8664 93.6972 72.2226 93.3169 72.6975 93.0352C73.1724 92.7494 73.7419 92.6065 74.406 92.6065C75.2351 92.6065 75.9132 92.8661 76.4404 93.3853C76.9677 93.9004 77.2313 94.7034 77.2313 95.794V102H75.8066V95.794C75.8066 95.1098 75.6194 94.6209 75.2451 94.3271C74.8708 94.0333 74.4301 93.8864 73.923 93.8864C73.271 93.8864 72.766 94.0836 72.4078 94.478C72.0496 94.8684 71.8705 95.3634 71.8705 95.9631V102H70.4216V95.6491C70.4216 95.1219 70.2506 94.6973 69.9085 94.3754C69.5664 94.0494 69.1257 93.8864 68.5864 93.8864C68.2161 93.8864 67.87 93.985 67.548 94.1822C67.2301 94.3794 66.9725 94.6531 66.7753 95.0032C66.5821 95.3493 66.4855 95.7498 66.4855 96.2045V102H65.0608Z" fill="#3D3D3D"/>
<g clip-path="url(#clip0_13_394)">
<path d="M56.0647 42.0156L40.4 51.9844L24.725 42.0156L40.4 14L56.0647 42.0156ZM40.4 55.1855L24.725 45.2168L40.4 69L56.075 45.2168L40.4 55.1855Z" fill="white"/>
</g>
<defs>
<clipPath id="clip0_13_394">
<rect width="55" height="58" fill="white" transform="translate(13 15)"/>
</clipPath>
</defs>
</svg>
