<svg width="80" height="107" viewBox="0 0 80 107" fill="none" xmlns="http://www.w3.org/2000/svg">
<circle cx="40" cy="40" r="40" fill="#0031AF"/>
<path d="M19 19H64L59.9071 63.9229L41.4507 69L23.0971 63.9208L19 19ZM55.6214 28.1937L27.3786 28.1875L27.835 33.65L49.5314 33.6542L48.985 39.3125H34.7564L35.2707 44.6729H48.5179L47.7336 52.0125L41.4979 53.6875L35.1636 52L34.7607 47.6042H29.1679L29.7893 55.6354L41.5 59.1833L53.0136 55.9958L55.6214 28.1937Z" fill="white"/>
<path d="M5.1282 103V89.9091H12.9776V91.3153H6.71342V95.7386H12.3896V97.1449H6.71342V103H5.1282ZM15.4881 103V93.1818H16.9966V103H15.4881ZM16.2551 91.5455C15.9611 91.5455 15.7076 91.4453 15.4945 91.245C15.2857 91.0447 15.1813 90.804 15.1813 90.5227C15.1813 90.2415 15.2857 90.0007 15.4945 89.8004C15.7076 89.6001 15.9611 89.5 16.2551 89.5C16.5492 89.5 16.8006 89.6001 17.0094 89.8004C17.2225 90.0007 17.329 90.2415 17.329 90.5227C17.329 90.804 17.2225 91.0447 17.0094 91.245C16.8006 91.4453 16.5492 91.5455 16.2551 91.5455ZM19.7596 103V93.1818H21.217V94.6648H21.3192C21.4982 94.179 21.8221 93.7848 22.2908 93.4822C22.7596 93.1797 23.288 93.0284 23.8761 93.0284C23.9869 93.0284 24.1254 93.0305 24.2915 93.0348C24.4577 93.0391 24.5835 93.0455 24.6687 93.054V94.5881C24.6175 94.5753 24.5004 94.5561 24.3171 94.5305C24.1381 94.5007 23.9485 94.4858 23.7482 94.4858C23.271 94.4858 22.8448 94.5859 22.4698 94.7862C22.0991 94.9822 21.805 95.255 21.5877 95.6044C21.3746 95.9496 21.2681 96.3437 21.2681 96.7869V103H19.7596ZM30.2745 103.205C29.3285 103.205 28.5124 102.996 27.8263 102.578C27.1445 102.156 26.6183 101.568 26.2475 100.814C25.881 100.055 25.6978 99.1733 25.6978 98.1676C25.6978 97.1619 25.881 96.2756 26.2475 95.5085C26.6183 94.7372 27.1339 94.1364 27.7944 93.706C28.4592 93.2713 29.2347 93.054 30.1211 93.054C30.6325 93.054 31.1374 93.1392 31.636 93.3097C32.1346 93.4801 32.5884 93.7571 32.9975 94.1406C33.4066 94.5199 33.7326 95.0227 33.9755 95.6491C34.2184 96.2756 34.3398 97.0469 34.3398 97.9631V98.6023H26.7717V97.2983H32.8058C32.8058 96.7443 32.695 96.25 32.4734 95.8153C32.256 95.3807 31.945 95.0376 31.5401 94.7862C31.1396 94.5348 30.6665 94.4091 30.1211 94.4091C29.5202 94.4091 29.0004 94.5582 28.5614 94.8565C28.1268 95.1506 27.7923 95.5341 27.5579 96.0071C27.3235 96.4801 27.2063 96.9872 27.2063 97.5284V98.3977C27.2063 99.1392 27.3342 99.7678 27.5898 100.283C27.8498 100.795 28.2099 101.185 28.6701 101.453C29.1303 101.717 29.6651 101.849 30.2745 101.849C30.6708 101.849 31.0288 101.794 31.3484 101.683C31.6722 101.568 31.9513 101.398 32.1857 101.172C32.4201 100.942 32.6012 100.656 32.729 100.315L34.1864 100.724C34.033 101.219 33.7752 101.653 33.413 102.028C33.0508 102.399 32.6033 102.689 32.0707 102.898C31.538 103.102 30.9393 103.205 30.2745 103.205ZM36.8391 103V89.9091H38.3477V94.7415H38.4755C38.5863 94.571 38.7397 94.3537 38.9357 94.0895C39.136 93.821 39.4215 93.5824 39.7923 93.3736C40.1673 93.1605 40.6744 93.054 41.3136 93.054C42.1403 93.054 42.869 93.2607 43.4996 93.674C44.1303 94.0874 44.6225 94.6733 44.9762 95.4318C45.3299 96.1903 45.5067 97.0852 45.5067 98.1165C45.5067 99.1562 45.3299 100.058 44.9762 100.82C44.6225 101.579 44.1325 102.167 43.506 102.585C42.8796 102.998 42.1573 103.205 41.3391 103.205C40.7085 103.205 40.2035 103.1 39.8242 102.891C39.445 102.678 39.1531 102.437 38.9485 102.169C38.744 101.896 38.5863 101.67 38.4755 101.491H38.2965V103H36.8391ZM38.3221 98.0909C38.3221 98.8324 38.4308 99.4865 38.6481 100.053C38.8654 100.616 39.1829 101.057 39.6005 101.376C40.0181 101.692 40.5295 101.849 41.1346 101.849C41.7653 101.849 42.2915 101.683 42.7134 101.351C43.1396 101.014 43.4592 100.562 43.6722 99.9957C43.8896 99.4247 43.9982 98.7898 43.9982 98.0909C43.9982 97.4006 43.8917 96.7784 43.6786 96.2244C43.4698 95.6662 43.1523 95.2251 42.7262 94.9013C42.3043 94.5732 41.7738 94.4091 41.1346 94.4091C40.521 94.4091 40.0053 94.5646 39.5877 94.8757C39.1701 95.1825 38.8548 95.6129 38.6417 96.1669C38.4286 96.7166 38.3221 97.358 38.3221 98.0909ZM50.7035 103.23C50.0813 103.23 49.5167 103.113 49.0096 102.879C48.5025 102.64 48.0998 102.297 47.8015 101.849C47.5032 101.398 47.354 100.852 47.354 100.213C47.354 99.6506 47.4648 99.1946 47.6864 98.8452C47.908 98.4915 48.2042 98.2145 48.5749 98.0142C48.9457 97.8139 49.3548 97.6648 49.8022 97.5668C50.2539 97.4645 50.7077 97.3835 51.1637 97.3239C51.7603 97.2472 52.244 97.1896 52.6147 97.1513C52.9897 97.1087 53.2624 97.0384 53.4329 96.9403C53.6076 96.8423 53.695 96.6719 53.695 96.429V96.3778C53.695 95.7472 53.5224 95.2571 53.1772 94.9077C52.8363 94.5582 52.3185 94.3835 51.6239 94.3835C50.9038 94.3835 50.3391 94.5412 49.93 94.8565C49.521 95.1719 49.2333 95.5085 49.0671 95.8665L47.6353 95.3551C47.891 94.7585 48.2319 94.294 48.658 93.9616C49.0884 93.625 49.5572 93.3906 50.0643 93.2585C50.5756 93.1222 51.0785 93.054 51.5728 93.054C51.8881 93.054 52.2504 93.0923 52.6594 93.169C53.0728 93.2415 53.4712 93.3928 53.8548 93.6229C54.2425 93.853 54.5643 94.2003 54.82 94.6648C55.0756 95.1293 55.2035 95.7514 55.2035 96.5312V103H53.695V101.67H53.6183C53.516 101.884 53.3455 102.112 53.1069 102.354C52.8683 102.597 52.5508 102.804 52.1545 102.974C51.7582 103.145 51.2745 103.23 50.7035 103.23ZM50.9336 101.875C51.5302 101.875 52.033 101.758 52.4421 101.523C52.8555 101.289 53.1665 100.987 53.3754 100.616C53.5884 100.245 53.695 99.8551 53.695 99.446V98.0653C53.631 98.142 53.4904 98.2124 53.2731 98.2763C53.06 98.3359 52.8129 98.3892 52.5316 98.4361C52.2546 98.4787 51.984 98.517 51.7198 98.5511C51.4599 98.581 51.2489 98.6065 51.087 98.6278C50.695 98.679 50.3285 98.7621 49.9876 98.8771C49.6509 98.9879 49.3782 99.1562 49.1694 99.3821C48.9648 99.6037 48.8626 99.9062 48.8626 100.29C48.8626 100.814 49.0565 101.21 49.4442 101.479C49.8363 101.743 50.3327 101.875 50.9336 101.875ZM64.9114 95.3807L63.5563 95.7642C63.4711 95.5384 63.3453 95.3189 63.1792 95.1058C63.0172 94.8885 62.7956 94.7095 62.5144 94.5689C62.2331 94.4283 61.873 94.358 61.4341 94.358C60.8333 94.358 60.3326 94.4964 59.932 94.7734C59.5357 95.0462 59.3375 95.3935 59.3375 95.8153C59.3375 96.1903 59.4739 96.4865 59.7466 96.7038C60.0194 96.9212 60.4455 97.1023 61.025 97.2472L62.4824 97.6051C63.3603 97.8182 64.0144 98.1442 64.4448 98.5831C64.8752 99.0178 65.0904 99.5781 65.0904 100.264C65.0904 100.827 64.9284 101.33 64.6046 101.773C64.285 102.216 63.8375 102.565 63.2623 102.821C62.687 103.077 62.0179 103.205 61.2551 103.205C60.2537 103.205 59.4249 102.987 58.7686 102.553C58.1124 102.118 57.6969 101.483 57.5222 100.648L58.954 100.29C59.0904 100.818 59.3482 101.214 59.7275 101.479C60.111 101.743 60.6117 101.875 61.2296 101.875C61.9327 101.875 62.4909 101.726 62.9043 101.428C63.3219 101.125 63.5307 100.763 63.5307 100.341C63.5307 100 63.4114 99.7145 63.1728 99.4844C62.9341 99.25 62.5676 99.0753 62.0733 98.9602L60.437 98.5767C59.5378 98.3636 58.8773 98.0334 58.4554 97.5859C58.0378 97.1342 57.829 96.5696 57.829 95.892C57.829 95.3381 57.9846 94.848 58.2956 94.4219C58.611 93.9957 59.0392 93.6612 59.5804 93.4183C60.1259 93.1754 60.7438 93.054 61.4341 93.054C62.4057 93.054 63.1685 93.267 63.7225 93.6932C64.2807 94.1193 64.677 94.6818 64.9114 95.3807ZM71.4776 103.205C70.5316 103.205 69.7156 102.996 69.0295 102.578C68.3477 102.156 67.8214 101.568 67.4506 100.814C67.0842 100.055 66.9009 99.1733 66.9009 98.1676C66.9009 97.1619 67.0842 96.2756 67.4506 95.5085C67.8214 94.7372 68.337 94.1364 68.9975 93.706C69.6623 93.2713 70.4379 93.054 71.3242 93.054C71.8356 93.054 72.3406 93.1392 72.8391 93.3097C73.3377 93.4801 73.7915 93.7571 74.2006 94.1406C74.6097 94.5199 74.9357 95.0227 75.1786 95.6491C75.4215 96.2756 75.543 97.0469 75.543 97.9631V98.6023H67.9748V97.2983H74.0089C74.0089 96.7443 73.8981 96.25 73.6765 95.8153C73.4592 95.3807 73.1481 95.0376 72.7433 94.7862C72.3427 94.5348 71.8697 94.4091 71.3242 94.4091C70.7234 94.4091 70.2035 94.5582 69.7646 94.8565C69.3299 95.1506 68.9954 95.5341 68.761 96.0071C68.5266 96.4801 68.4094 96.9872 68.4094 97.5284V98.3977C68.4094 99.1392 68.5373 99.7678 68.793 100.283C69.0529 100.795 69.413 101.185 69.8732 101.453C70.3335 101.717 70.8683 101.849 71.4776 101.849C71.8739 101.849 72.2319 101.794 72.5515 101.683C72.8754 101.568 73.1545 101.398 73.3888 101.172C73.6232 100.942 73.8043 100.656 73.9322 100.315L75.3896 100.724C75.2362 101.219 74.9783 101.653 74.6161 102.028C74.2539 102.399 73.8065 102.689 73.2738 102.898C72.7411 103.102 72.1424 103.205 71.4776 103.205Z" fill="#0031AF"/>
</svg>
