<svg width="80" height="107" viewBox="0 0 80 107" fill="none" xmlns="http://www.w3.org/2000/svg">
<circle cx="40" cy="40" r="40" fill="#E30505"/>
<g clip-path="url(#clip0_4_92)">
<g clip-path="url(#clip1_4_92)">
<path d="M53.2812 16H26.7188C20.2467 16 15 21.2467 15 27.7188V54.2812C15 60.7533 20.2467 66 26.7188 66H53.2812C59.7533 66 65 60.7533 65 54.2812V27.7188C65 21.2467 59.7533 16 53.2812 16Z" fill="url(#paint0_linear_4_92)"/>
<path d="M30.4762 29.4258C28.5258 32.2809 28.7687 35.9947 30.2547 39.0246L30.3641 39.2404L30.4379 39.3772C30.4516 39.4037 30.4672 39.4299 30.4814 39.4557C30.5072 39.5037 30.533 39.5498 30.5553 39.5971L30.6974 39.8455L30.7785 39.9822L30.9435 40.2451L31.0174 40.3559C31.0912 40.474 31.1746 40.5914 31.2566 40.7072L31.2633 40.7164C31.2762 40.735 31.2906 40.7533 31.3004 40.7719C31.3711 40.8715 31.4478 40.9697 31.5217 41.0672L31.6037 41.1734L31.8049 41.4254L31.8816 41.5191C31.9732 41.6295 32.0668 41.7385 32.1623 41.8455L32.1682 41.8514C32.1719 41.8561 32.1756 41.8588 32.1793 41.8635C32.2719 41.968 32.3668 42.0701 32.4642 42.1699L32.5558 42.2637L32.7836 42.4912L32.8766 42.5813C32.9789 42.6793 33.083 42.7756 33.1885 42.8703L33.2476 42.9219L33.5308 43.1656L33.648 43.2609L33.8844 43.4455L34.0107 43.5434L34.3719 43.8072C34.381 43.8135 34.3891 43.8201 34.3984 43.8264C34.4832 43.8855 34.5693 43.9428 34.6557 44L34.7672 44.0756L35.1703 44.3268L35.2818 44.3906L35.5846 44.5633C35.6398 44.5936 35.6965 44.6225 35.7517 44.6512L35.9682 44.7619L36.018 44.7863L36.1066 44.8299L36.4498 44.9916L36.5226 45.0285C36.6551 45.0873 36.7885 45.1438 36.9228 45.1979L37.0203 45.2371L37.3978 45.3795L37.4451 45.3965C37.5846 45.4457 37.7249 45.4925 37.866 45.5369L37.9676 45.5678C38.1152 45.6121 38.2537 45.665 38.4021 45.6934C47.8338 47.4492 50.5742 39.9246 50.5742 39.9246C48.2732 42.9777 44.1889 43.7824 40.3193 42.8865C40.1726 42.8496 40.0305 42.8064 39.8873 42.7633L39.7795 42.7264C39.6402 42.6827 39.5016 42.6368 39.3639 42.5887L39.3066 42.5676C39.1837 42.5233 39.0615 42.4771 38.94 42.4291L38.8367 42.3877C38.7037 42.3344 38.5717 42.2785 38.4408 42.2201L38.3619 42.1848L38.0281 42.026L37.9322 41.9787C37.8455 41.9351 37.7593 41.8904 37.6736 41.8447L37.5014 41.7523C37.3972 41.6953 37.294 41.6364 37.192 41.5756L37.0875 41.5164C36.9518 41.4349 36.8174 41.3512 36.6844 41.2654C36.6474 41.2414 36.6119 41.216 36.5754 41.1916L36.2885 40.9975L36.1963 40.9311L35.925 40.7316L35.8045 40.6393L35.5598 40.4443L35.4506 40.3559L35.1459 40.0975C35.1343 40.0871 35.122 40.0775 35.109 40.0689C35.0007 39.9717 34.8939 39.8727 34.7887 39.7721L34.6984 39.6836L34.468 39.4539L34.3781 39.3615C34.2821 39.2619 34.188 39.1605 34.0957 39.0574C34.0912 39.0522 34.0859 39.0475 34.0816 39.0426C33.984 38.9338 33.8885 38.8229 33.7951 38.7104L33.7201 38.6195L33.5135 38.36L33.4377 38.2641L33.1996 37.941C31.0512 34.9563 30.2832 30.8398 31.9961 27.459L30.4762 29.4258ZM36.5307 27.0203C35.1205 29.0877 35.1969 31.8543 36.2971 34.0406C36.481 34.4077 36.6895 34.762 36.9209 35.1012C37.1322 35.4096 37.3666 35.777 37.6471 36.0242C37.7486 36.135 37.8549 36.2457 37.9635 36.3588C37.9908 36.3871 38.0189 36.4141 38.0469 36.4426C38.1523 36.5471 38.2601 36.6492 38.3703 36.7486C38.3748 36.7523 38.3789 36.7566 38.3836 36.7604C38.5077 36.8707 38.6347 36.9778 38.7642 37.0816L38.85 37.1494C38.9789 37.251 39.1107 37.3488 39.2449 37.4434C39.2484 37.4463 39.2521 37.4492 39.256 37.452C39.315 37.4936 39.376 37.533 39.4361 37.5729C39.465 37.5922 39.4922 37.6125 39.5211 37.6305C39.6174 37.6936 39.715 37.7545 39.8139 37.8133L39.8553 37.8377L40.1137 37.9854C40.1439 38.0027 40.1748 38.0178 40.2058 38.034L40.3904 38.1293C40.3998 38.1342 40.409 38.1377 40.4178 38.1422C40.5422 38.2049 40.6674 38.2641 40.7955 38.3213C40.8228 38.3334 40.8508 38.3445 40.8789 38.3563C40.9815 38.4008 41.0849 38.4436 41.189 38.4844L41.3219 38.534C41.4162 38.5689 41.5109 38.6025 41.6062 38.6348L41.7346 38.6764C41.8701 38.7195 42.0041 38.7734 42.1455 38.7975C49.4275 40.0262 51.1092 34.3156 51.1092 34.3156C49.5937 36.5381 46.6592 37.5992 43.5269 36.7715C43.3884 36.7346 43.251 36.6939 43.1146 36.6496C43.0728 36.6367 43.032 36.6231 42.9906 36.6127C42.8939 36.5808 42.7978 36.5471 42.7023 36.5115L42.5719 36.4621C42.4674 36.4252 42.364 36.3791 42.2619 36.3348C42.2338 36.3225 42.2057 36.3115 42.1781 36.2986C42.0496 36.2424 41.9228 36.1824 41.7978 36.1188C41.7336 36.0867 41.6705 36.0531 41.6072 36.0197L41.4973 35.9623C41.4161 35.9176 41.3357 35.8715 41.2562 35.8238L41.1986 35.7869C41.1003 35.7281 41.0031 35.6676 40.907 35.6053C40.8773 35.5859 40.8486 35.5684 40.8191 35.5455L40.6301 35.4182C40.4965 35.3236 40.3653 35.2259 40.2365 35.125L40.1478 35.0541C38.7771 33.9518 37.6902 32.4455 37.1738 30.7373C36.6322 28.9652 36.7492 26.9772 37.6906 25.3635L36.5307 27.0203ZM41.6217 25.2232C40.7902 26.4695 40.7088 28.0172 41.2894 29.3936C41.8978 30.8543 43.1445 32.0006 44.5994 32.5438C44.6594 32.5666 44.7195 32.5867 44.784 32.6076L44.8639 32.6334C44.9494 32.6607 45.0348 32.6924 45.123 32.7096C49.1441 33.5006 50.2346 30.608 50.5248 30.1822C49.5693 31.5834 47.9639 31.9197 45.9939 31.4328C45.8389 31.3939 45.6672 31.3367 45.5139 31.283C45.3211 31.2133 45.1322 31.1333 44.948 31.0434C44.5974 30.8714 44.265 30.6647 43.9557 30.4264C42.1891 29.0641 41.0937 26.4658 42.2441 24.3498M32.7414 51.6799L32.4691 52.6457L32.7414 51.6803V51.6799ZM40.7467 49.4686H39.4988C39.4635 49.4698 39.4295 49.4825 39.4019 49.5048C39.3744 49.527 39.3548 49.5575 39.3461 49.5918L38.4599 53.6924C38.4512 53.7266 38.4316 53.757 38.4042 53.7791C38.3767 53.8013 38.3429 53.8139 38.3076 53.8152H37.4242C36.55 53.8152 36.6512 53.2109 36.8334 52.3828L36.8391 52.3578L36.9449 51.793L36.9906 51.5604L37.3939 49.5918C37.3978 49.5768 37.398 49.5611 37.3947 49.5459C37.3913 49.5308 37.3845 49.5166 37.3747 49.5046C37.3649 49.4926 37.3524 49.483 37.3383 49.4767C37.3241 49.4704 37.3086 49.4674 37.2932 49.4682H36.0121C35.9768 49.4694 35.9429 49.4821 35.9154 49.5043C35.888 49.5266 35.8685 49.5571 35.8599 49.5914L35.2828 52.3285C34.9654 53.7772 35.0496 55.1588 36.7744 55.202L36.8242 55.2029H39.531C39.5664 55.2016 39.6003 55.1889 39.6278 55.1667C39.6553 55.1445 39.6749 55.114 39.6836 55.0797L40.8508 49.5914C40.8656 49.5236 40.8201 49.4682 40.7512 49.4682L40.7467 49.4686ZM45.7258 53.8297C45.7953 53.8297 45.8365 53.885 45.8266 53.9529L45.7055 54.5455L45.7258 53.8297Z" fill="#E30505"/>
<path d="M42.3873 53.067C42.3863 53.002 42.4602 52.8904 42.5295 52.8904L42.3736 52.8879C42.2998 53.5945 42.3873 53.067 42.3873 53.067ZM45.7258 53.8297C45.7953 53.8297 45.8365 53.885 45.8266 53.9529L45.6855 54.6418L45.7258 53.8297ZM43.4041 55.2738H43.3457H43.4115H43.4041ZM25.0566 53.0816L25.2506 52.2223L25.0291 53.2043L25.0031 53.3275L25.057 53.0811L25.0566 53.0816ZM27.3773 49.4545H26.0066C25.9712 49.4558 25.9371 49.4684 25.9093 49.4906C25.8816 49.5127 25.8618 49.5432 25.8527 49.5775L25.5928 50.7219C25.5885 50.7367 25.5878 50.7523 25.5908 50.7675C25.5938 50.7826 25.6003 50.7968 25.61 50.8089C25.6196 50.8209 25.632 50.8305 25.6461 50.8368C25.6602 50.8431 25.6756 50.8458 25.691 50.8449H27.0725C27.1078 50.8436 27.1417 50.8309 27.1692 50.8087C27.1968 50.7866 27.2164 50.7561 27.2252 50.7219L27.4764 49.5748C27.491 49.5074 27.4467 49.452 27.3768 49.452L27.3773 49.4545ZM23.0971 57.5258L24.2275 57.5348C23.8937 57.5348 23.3428 57.5285 23.0967 57.5256L23.0971 57.5258Z" fill="#E30505"/>
<path d="M26.9801 51.2394H25.5982C25.5628 51.2407 25.5287 51.2534 25.5009 51.2755C25.4732 51.2977 25.4534 51.3282 25.4443 51.3625L25.0566 53.0812L25.0027 53.3279L24.6336 55.0826C24.6154 55.1644 24.5932 55.2455 24.5672 55.3252C24.5672 55.3252 24.3088 56.0932 23.8754 56.0846L23.4453 56.0766C23.41 56.0775 23.3759 56.0896 23.348 56.1113C23.3201 56.1329 23.2999 56.1629 23.2902 56.1969L23.0041 57.4014C22.9996 57.4161 22.9987 57.4317 23.0015 57.4468C23.0043 57.462 23.0107 57.4762 23.0201 57.4884C23.0296 57.5005 23.0418 57.5103 23.0557 57.5167C23.0697 57.5232 23.085 57.5262 23.1004 57.5256L24.2313 57.5348C25.3152 57.5348 25.8863 56.934 26.2527 55.2062L27.0834 51.3668C27.0982 51.2994 27.0531 51.2439 26.9838 51.2439L26.9801 51.2394ZM46.6063 55.2037C46.5369 55.2037 46.4955 55.1484 46.5066 55.0805L47.5459 50.2125L46.6063 55.2037Z" fill="#E30505"/>
<path d="M46.5217 55.1422C46.5133 55.1082 46.5182 55.025 46.5328 54.9574L47.026 52.6465L46.5062 55.0805C46.4914 55.1484 46.5365 55.2037 46.6059 55.2037H46.7322C46.6629 55.2037 46.5299 55.176 46.5217 55.1422ZM47.9689 55.176C47.9312 55.1908 47.8434 55.2037 47.774 55.2037H47.9002C47.9354 55.2023 47.9692 55.1895 47.9965 55.1672C48.0238 55.1449 48.0431 55.1143 48.0516 55.0801L48.0768 54.9568C48.0631 55.0246 48.0029 55.1609 47.966 55.176H47.9689ZM52.3613 50.5385L52.4185 50.7748C52.4346 50.8424 52.3906 50.8973 52.3215 50.8977M48.4463 53.1242L48.4973 52.8791L48.6955 51.9506L48.4711 53.002L48.4463 53.1238V53.1242ZM47.5629 50.1324L47.5197 50.3353L47.0264 52.6465L47.5463 50.2125L47.5629 50.1328V50.1324Z" fill="#F90000"/>
<path d="M52.4189 50.7748L52.3617 50.5385L52.2769 50.1693C52.1646 49.7336 51.8353 49.4814 51.1199 49.4814L47.8267 49.4793C47.7914 49.4805 47.7575 49.4932 47.7301 49.5154C47.7026 49.5377 47.6832 49.5682 47.6748 49.6025L47.6238 49.8437L47.55 50.208L46.5369 54.9531C46.522 55.0211 46.5174 55.1008 46.5258 55.1377C46.5344 55.1746 46.6672 55.1994 46.7363 55.1994H47.7773C47.8467 55.1994 47.9342 55.1867 47.9722 55.1717C48.0103 55.1564 48.066 55.024 48.083 54.9523L48.4781 52.9978L48.9008 51.0176C48.9095 50.9834 48.929 50.953 48.9564 50.9309C48.9839 50.9088 49.0177 50.8961 49.0529 50.8947L52.3285 50.8932C52.3976 50.8932 52.4416 50.8379 52.4256 50.7703L52.4189 50.7748ZM56.6361 48.6361L56.384 48.6371H55.3355C55.2971 48.6395 55.2597 48.65 55.2257 48.668C55.1917 48.6859 55.1619 48.7109 55.1383 48.7412L52.8199 52.1377C52.7808 52.1949 52.7361 52.1865 52.7203 52.1193L52.5496 51.3709C52.5405 51.3366 52.5206 51.3062 52.4929 51.2841C52.4652 51.262 52.4311 51.2494 52.3957 51.248H50.9054C50.8359 51.248 50.7947 51.3023 50.8138 51.3691L51.4783 53.709C51.4974 53.7754 51.4986 53.885 51.482 53.9525L51.1867 55.085C51.1815 55.0994 51.1801 55.115 51.1826 55.1302C51.1851 55.1453 51.1914 55.1596 51.201 55.1717C51.2104 55.1838 51.2227 55.1934 51.2368 55.1995C51.2509 55.2057 51.2663 55.2083 51.2816 55.207H52.7582C52.7938 55.2056 52.8282 55.1931 52.8564 55.1712C52.8846 55.1494 52.9053 55.1193 52.9156 55.0852L53.2109 53.9529C53.234 53.8732 53.2703 53.7978 53.3179 53.7301L57.0857 48.734C57.1275 48.6785 57.1051 48.6336 57.0355 48.6342L56.6406 48.6369L56.6361 48.6361ZM44.7943 51.5662C44.7855 51.64 44.7162 51.6955 44.6467 51.6955H42.7564C42.6912 51.6955 42.658 51.6512 42.6679 51.5957L42.6693 51.5857L42.6779 51.5537C42.8625 51.0738 43.2261 50.7588 43.9168 50.7588C44.6947 50.7588 44.8465 51.1391 44.7937 51.5662H44.7943ZM44.2398 49.3852C41.8144 49.3852 41.2396 50.8574 40.9174 52.3434C40.5947 53.858 40.6226 55.2746 43.1324 55.2746H43.5303L43.8367 55.2734L45.4338 55.2639C45.4688 55.2623 45.5024 55.2494 45.5295 55.2271C45.5566 55.2048 45.5757 55.1743 45.584 55.1402L45.8265 53.9545C45.8406 53.8865 45.7953 53.8311 45.7258 53.8311H43.4693C42.5722 53.8311 42.3054 53.5926 42.4035 52.8916H46.0105C46.0395 52.8913 46.0678 52.8822 46.0916 52.8656C46.1154 52.8491 46.1337 52.8257 46.1441 52.7986C46.1482 52.7885 46.1512 52.778 46.1529 52.7672C46.6883 50.7478 46.5347 49.3867 44.2406 49.3867L44.2398 49.3852ZM32.7754 51.5582L32.7414 51.6789L32.4691 52.6445L32.1967 53.6096C32.1854 53.6436 32.164 53.6734 32.1354 53.695C32.1068 53.7166 32.0723 53.7291 32.0365 53.7307H30.5943C29.5008 53.7307 29.2345 52.8754 29.5008 51.6139C29.7666 50.3236 30.289 49.5213 31.3652 49.4402C32.8359 49.3295 33.1299 50.3639 32.7754 51.5578V51.5582ZM33.764 53.6568C33.764 53.6568 34.4433 52.0066 34.5984 51.0531C34.8088 49.7768 34.1703 47.9262 31.7023 47.9262C29.2482 47.9262 28.1828 49.693 27.7765 51.618C27.3703 53.5523 27.9027 55.2492 30.3422 55.2359L34.0656 55.2223C34.1013 55.2205 34.1356 55.2077 34.1638 55.1858C34.1921 55.1638 34.2129 55.1338 34.2234 55.0996L34.5371 53.9043C34.5421 53.8898 34.5435 53.8744 34.5411 53.8592C34.5387 53.8441 34.5326 53.8298 34.5234 53.8176C34.5141 53.8053 34.5019 53.7955 34.4878 53.7892C34.4737 53.7829 34.4583 53.7803 34.4429 53.7816L33.8424 53.7779C33.7834 53.7775 33.75 53.7396 33.7566 53.6895C33.7581 53.6798 33.7606 53.6704 33.764 53.6613V53.6568Z" fill="#E30505"/>
<path d="M45.9115 52.5527C45.9115 52.5747 45.9028 52.5957 45.8873 52.6112C45.8718 52.6267 45.8507 52.6355 45.8288 52.6355C45.8069 52.6355 45.7858 52.6267 45.7703 52.6112C45.7548 52.5957 45.7461 52.5747 45.7461 52.5527C45.7461 52.5308 45.7548 52.5098 45.7703 52.4942C45.7858 52.4787 45.8069 52.47 45.8288 52.47C45.8507 52.47 45.8718 52.4787 45.8873 52.4942C45.9028 52.5098 45.9115 52.5308 45.9115 52.5527Z" fill="#F90000"/>
</g>
</g>
<path d="M13.4139 93.1818H14.9224V103.716C14.9224 104.321 14.818 104.845 14.6092 105.288C14.4047 105.732 14.0936 106.075 13.676 106.317C13.2626 106.56 12.7406 106.682 12.1099 106.682C12.0588 106.682 12.0076 106.682 11.9565 106.682C11.9054 106.682 11.8542 106.682 11.8031 106.682V105.276C11.8542 105.276 11.9011 105.276 11.9437 105.276C11.9863 105.276 12.0332 105.276 12.0843 105.276C12.5446 105.276 12.8812 105.139 13.0943 104.866C13.3074 104.598 13.4139 104.214 13.4139 103.716V93.1818ZM14.1554 91.5455C13.8613 91.5455 13.6078 91.4453 13.3947 91.245C13.1859 91.0447 13.0815 90.804 13.0815 90.5227C13.0815 90.2415 13.1859 90.0007 13.3947 89.8004C13.6078 89.6001 13.8613 89.5 14.1554 89.5C14.4494 89.5 14.7008 89.6001 14.9096 89.8004C15.1227 90.0007 15.2292 90.2415 15.2292 90.5227C15.2292 90.804 15.1227 91.0447 14.9096 91.245C14.7008 91.4453 14.4494 91.5455 14.1554 91.5455ZM22.6456 98.9091H24.3842L25.8416 100.827L26.2251 101.338L28.3984 104.227H26.6598L25.228 102.31L24.87 101.824L22.6456 98.9091ZM28.9354 96.4545C28.9354 97.8352 28.6861 99.0284 28.1875 100.034C27.6889 101.04 27.005 101.815 26.1357 102.361C25.2663 102.906 24.2734 103.179 23.157 103.179C22.0405 103.179 21.0476 102.906 20.1783 102.361C19.3089 101.815 18.625 101.04 18.1264 100.034C17.6278 99.0284 17.3786 97.8352 17.3786 96.4545C17.3786 95.0739 17.6278 93.8807 18.1264 92.875C18.625 91.8693 19.3089 91.0938 20.1783 90.5483C21.0476 90.0028 22.0405 89.7301 23.157 89.7301C24.2734 89.7301 25.2663 90.0028 26.1357 90.5483C27.005 91.0938 27.6889 91.8693 28.1875 92.875C28.6861 93.8807 28.9354 95.0739 28.9354 96.4545ZM27.4013 96.4545C27.4013 95.321 27.2116 94.3643 26.8324 93.5845C26.4574 92.8047 25.9482 92.2145 25.3047 91.8139C24.6655 91.4134 23.9496 91.2131 23.157 91.2131C22.3643 91.2131 21.6463 91.4134 21.0028 91.8139C20.3636 92.2145 19.8544 92.8047 19.4751 93.5845C19.1001 94.3643 18.9126 95.321 18.9126 96.4545C18.9126 97.5881 19.1001 98.5447 19.4751 99.3246C19.8544 100.104 20.3636 100.695 21.0028 101.095C21.6463 101.496 22.3643 101.696 23.157 101.696C23.9496 101.696 24.6655 101.496 25.3047 101.095C25.9482 100.695 26.4574 100.104 26.8324 99.3246C27.2116 98.5447 27.4013 97.5881 27.4013 96.4545ZM37.5838 98.9858V93.1818H39.0923V103H37.5838V101.338H37.4815C37.2514 101.837 36.8935 102.261 36.4077 102.61C35.9219 102.955 35.3082 103.128 34.5668 103.128C33.9531 103.128 33.4077 102.994 32.9304 102.725C32.4531 102.452 32.0781 102.043 31.8054 101.498C31.5327 100.948 31.3963 100.256 31.3963 99.4205V93.1818H32.9048V99.3182C32.9048 100.034 33.1051 100.605 33.5057 101.031C33.9105 101.457 34.4261 101.67 35.0526 101.67C35.4276 101.67 35.8089 101.575 36.1967 101.383C36.5888 101.191 36.9169 100.897 37.1811 100.501C37.4496 100.104 37.5838 99.5994 37.5838 98.9858ZM45.9718 103.205C45.0257 103.205 44.2097 102.996 43.5236 102.578C42.8418 102.156 42.3155 101.568 41.9448 100.814C41.5783 100.055 41.3951 99.1733 41.3951 98.1676C41.3951 97.1619 41.5783 96.2756 41.9448 95.5085C42.3155 94.7372 42.8311 94.1364 43.4917 93.706C44.1564 93.2713 44.932 93.054 45.8184 93.054C46.3297 93.054 46.8347 93.1392 47.3333 93.3097C47.8319 93.4801 48.2857 93.7571 48.6948 94.1406C49.1039 94.5199 49.4299 95.0227 49.6728 95.6491C49.9157 96.2756 50.0371 97.0469 50.0371 97.9631V98.6023H42.4689V97.2983H48.503C48.503 96.7443 48.3922 96.25 48.1706 95.8153C47.9533 95.3807 47.6422 95.0376 47.2374 94.7862C46.8368 94.5348 46.3638 94.4091 45.8184 94.4091C45.2175 94.4091 44.6976 94.5582 44.2587 94.8565C43.824 95.1506 43.4895 95.5341 43.2551 96.0071C43.0208 96.4801 42.9036 96.9872 42.9036 97.5284V98.3977C42.9036 99.1392 43.0314 99.7678 43.2871 100.283C43.5471 100.795 43.9071 101.185 44.3674 101.453C44.8276 101.717 45.3624 101.849 45.9718 101.849C46.3681 101.849 46.726 101.794 47.0456 101.683C47.3695 101.568 47.6486 101.398 47.883 101.172C48.1174 100.942 48.2985 100.656 48.4263 100.315L49.8837 100.724C49.7303 101.219 49.4725 101.653 49.1103 102.028C48.748 102.399 48.3006 102.689 47.7679 102.898C47.2353 103.102 46.6365 103.205 45.9718 103.205ZM52.3319 103V93.1818H53.7892V94.6648H53.8915C54.0705 94.179 54.3944 93.7848 54.8631 93.4822C55.3319 93.1797 55.8603 93.0284 56.4483 93.0284C56.5591 93.0284 56.6976 93.0305 56.8638 93.0348C57.03 93.0391 57.1557 93.0455 57.2409 93.054V94.5881C57.1898 94.5753 57.0726 94.5561 56.8894 94.5305C56.7104 94.5007 56.5208 94.4858 56.3205 94.4858C55.8432 94.4858 55.4171 94.5859 55.0421 94.7862C54.6713 94.9822 54.3773 95.255 54.16 95.6044C53.9469 95.9496 53.8404 96.3437 53.8404 96.7869V103H52.3319ZM60.2995 106.682C60.0439 106.682 59.8159 106.661 59.6156 106.618C59.4153 106.58 59.2768 106.541 59.2001 106.503L59.5836 105.173C59.9501 105.267 60.274 105.301 60.5552 105.276C60.8365 105.25 61.0858 105.124 61.3031 104.898C61.5247 104.677 61.7271 104.317 61.9103 103.818L62.1916 103.051L58.5609 93.1818H60.1973L62.9075 101.006H63.0098L65.72 93.1818H67.3564L63.1887 104.432C63.0012 104.939 62.769 105.359 62.492 105.691C62.215 106.028 61.8933 106.277 61.5268 106.439C61.1646 106.601 60.7555 106.682 60.2995 106.682Z" fill="#E30505"/>
<defs>
<linearGradient id="paint0_linear_4_92" x1="15" y1="16" x2="65" y2="66" gradientUnits="userSpaceOnUse">
<stop stop-color="white"/>
<stop offset="0.0001" stop-color="white"/>
</linearGradient>
<clipPath id="clip0_4_92">
<rect width="50" height="50" fill="white" transform="translate(16 16)"/>
</clipPath>
<clipPath id="clip1_4_92">
<rect width="50" height="50" fill="white" transform="translate(15 16)"/>
</clipPath>
</defs>
</svg>
