<svg width="80" height="107" viewBox="0 0 80 107" fill="none" xmlns="http://www.w3.org/2000/svg">
<circle cx="40" cy="40" r="40" fill="#452A2A"/>
<g clip-path="url(#clip0_4_155)">
<path d="M55.0647 41.0156L39.4 50.9844L23.725 41.0156L39.4 13L55.0647 41.0156ZM39.4 54.1855L23.725 44.2168L39.4 68L55.075 44.2168L39.4 54.1855Z" fill="white"/>
</g>
<path d="M10.1731 103V89.9091H18.0737V91.3153H11.7583V95.7386H17.6646V97.1449H11.7583V101.594H18.176V103H10.1731ZM24.9963 93.1818V94.4602H19.9082V93.1818H24.9963ZM21.3912 90.8295H22.8997V100.188C22.8997 100.614 22.9615 100.933 23.085 101.146C23.2129 101.355 23.3748 101.496 23.5708 101.568C23.7711 101.636 23.9821 101.67 24.2037 101.67C24.3699 101.67 24.5062 101.662 24.6127 101.645C24.7193 101.624 24.8045 101.607 24.8684 101.594L25.1752 102.949C25.073 102.987 24.9302 103.026 24.747 103.064C24.5637 103.107 24.3315 103.128 24.0502 103.128C23.6241 103.128 23.2065 103.036 22.7974 102.853C22.3926 102.67 22.0559 102.391 21.7875 102.016C21.5233 101.641 21.3912 101.168 21.3912 100.597V90.8295ZM28.9849 97.0938V103H27.4764V89.9091H28.9849V94.7159H29.1127C29.3429 94.2088 29.688 93.8061 30.1483 93.5078C30.6127 93.2053 31.2306 93.054 32.002 93.054C32.671 93.054 33.2569 93.1882 33.7598 93.4567C34.2626 93.7209 34.6525 94.1278 34.9295 94.6776C35.2108 95.223 35.3514 95.9176 35.3514 96.7614V103H33.8429V96.8636C33.8429 96.0838 33.6404 95.4808 33.2356 95.0547C32.835 94.6243 32.2789 94.4091 31.5673 94.4091C31.073 94.4091 30.6298 94.5135 30.2377 94.7223C29.85 94.9311 29.5431 95.2358 29.3173 95.6364C29.0957 96.0369 28.9849 96.5227 28.9849 97.0938ZM42.2276 103.205C41.2816 103.205 40.4656 102.996 39.7795 102.578C39.0977 102.156 38.5714 101.568 38.2006 100.814C37.8342 100.055 37.6509 99.1733 37.6509 98.1676C37.6509 97.1619 37.8342 96.2756 38.2006 95.5085C38.5714 94.7372 39.087 94.1364 39.7475 93.706C40.4123 93.2713 41.1879 93.054 42.0742 93.054C42.5856 93.054 43.0906 93.1392 43.5891 93.3097C44.0877 93.4801 44.5415 93.7571 44.9506 94.1406C45.3597 94.5199 45.6857 95.0227 45.9286 95.6491C46.1715 96.2756 46.293 97.0469 46.293 97.9631V98.6023H38.7248V97.2983H44.7589C44.7589 96.7443 44.6481 96.25 44.4265 95.8153C44.2092 95.3807 43.8981 95.0376 43.4933 94.7862C43.0927 94.5348 42.6197 94.4091 42.0742 94.4091C41.4734 94.4091 40.9535 94.5582 40.5146 94.8565C40.0799 95.1506 39.7454 95.5341 39.511 96.0071C39.2766 96.4801 39.1594 96.9872 39.1594 97.5284V98.3977C39.1594 99.1392 39.2873 99.7678 39.543 100.283C39.8029 100.795 40.163 101.185 40.6232 101.453C41.0835 101.717 41.6183 101.849 42.2276 101.849C42.6239 101.849 42.9819 101.794 43.3015 101.683C43.6254 101.568 43.9045 101.398 44.1388 101.172C44.3732 100.942 44.5543 100.656 44.6822 100.315L46.1396 100.724C45.9862 101.219 45.7283 101.653 45.3661 102.028C45.0039 102.399 44.5565 102.689 44.0238 102.898C43.4911 103.102 42.8924 103.205 42.2276 103.205ZM48.5877 103V93.1818H50.0451V94.6648H50.1474C50.3263 94.179 50.6502 93.7848 51.119 93.4822C51.5877 93.1797 52.1161 93.0284 52.7042 93.0284C52.815 93.0284 52.9535 93.0305 53.1197 93.0348C53.2859 93.0391 53.4116 93.0455 53.4968 93.054V94.5881C53.4457 94.5753 53.3285 94.5561 53.1452 94.5305C52.9663 94.5007 52.7766 94.4858 52.5763 94.4858C52.0991 94.4858 51.6729 94.5859 51.2979 94.7862C50.9272 94.9822 50.6332 95.255 50.4158 95.6044C50.2028 95.9496 50.0962 96.3437 50.0962 96.7869V103H48.5877ZM55.2594 103.102C54.9441 103.102 54.6735 102.989 54.4476 102.763C54.2218 102.538 54.1088 102.267 54.1088 101.952C54.1088 101.636 54.2218 101.366 54.4476 101.14C54.6735 100.914 54.9441 100.801 55.2594 100.801C55.5748 100.801 55.8453 100.914 56.0712 101.14C56.2971 101.366 56.41 101.636 56.41 101.952C56.41 102.161 56.3567 102.352 56.2502 102.527C56.1479 102.702 56.0094 102.842 55.8347 102.949C55.6642 103.051 55.4725 103.102 55.2594 103.102ZM59.117 93.1818H60.6255V103.716C60.6255 104.321 60.5211 104.845 60.3123 105.288C60.1078 105.732 59.7967 106.075 59.3791 106.317C58.9657 106.56 58.4437 106.682 57.813 106.682C57.7619 106.682 57.7108 106.682 57.6596 106.682C57.6085 106.682 57.5574 106.682 57.5062 106.682V105.276C57.5574 105.276 57.6042 105.276 57.6468 105.276C57.6895 105.276 57.7363 105.276 57.7875 105.276C58.2477 105.276 58.5843 105.139 58.7974 104.866C59.0105 104.598 59.117 104.214 59.117 103.716V93.1818ZM59.8585 91.5455C59.5645 91.5455 59.3109 91.4453 59.0978 91.245C58.889 91.0447 58.7846 90.804 58.7846 90.5227C58.7846 90.2415 58.889 90.0007 59.0978 89.8004C59.3109 89.6001 59.5645 89.5 59.8585 89.5C60.1525 89.5 60.4039 89.6001 60.6127 89.8004C60.8258 90.0007 60.9324 90.2415 60.9324 90.5227C60.9324 90.804 60.8258 91.0447 60.6127 91.245C60.4039 91.4453 60.1525 91.5455 59.8585 91.5455ZM70.343 95.3807L68.9879 95.7642C68.9027 95.5384 68.777 95.3189 68.6108 95.1058C68.4489 94.8885 68.2273 94.7095 67.946 94.5689C67.6648 94.4283 67.3047 94.358 66.8658 94.358C66.2649 94.358 65.7642 94.4964 65.3636 94.7734C64.9673 95.0462 64.7692 95.3935 64.7692 95.8153C64.7692 96.1903 64.9055 96.4865 65.1783 96.7038C65.451 96.9212 65.8771 97.1023 66.4567 97.2472L67.9141 97.6051C68.7919 97.8182 69.446 98.1442 69.8764 98.5831C70.3068 99.0178 70.522 99.5781 70.522 100.264C70.522 100.827 70.3601 101.33 70.0362 101.773C69.7166 102.216 69.2692 102.565 68.6939 102.821C68.1186 103.077 67.4496 103.205 66.6868 103.205C65.6854 103.205 64.8565 102.987 64.2003 102.553C63.544 102.118 63.1286 101.483 62.9538 100.648L64.3857 100.29C64.522 100.818 64.7798 101.214 65.1591 101.479C65.5426 101.743 66.0433 101.875 66.6612 101.875C67.3643 101.875 67.9226 101.726 68.3359 101.428C68.7536 101.125 68.9624 100.763 68.9624 100.341C68.9624 100 68.843 99.7145 68.6044 99.4844C68.3658 99.25 67.9993 99.0753 67.505 98.9602L65.8686 98.5767C64.9695 98.3636 64.3089 98.0334 63.8871 97.5859C63.4695 97.1342 63.2607 96.5696 63.2607 95.892C63.2607 95.3381 63.4162 94.848 63.7273 94.4219C64.0426 93.9957 64.4709 93.6612 65.0121 93.4183C65.5575 93.1754 66.1754 93.054 66.8658 93.054C67.8374 93.054 68.6001 93.267 69.1541 93.6932C69.7124 94.1193 70.1087 94.6818 70.343 95.3807Z" fill="#452A2A"/>
<defs>
<clipPath id="clip0_4_155">
<rect width="33" height="55" fill="white" transform="translate(22.9 13)"/>
</clipPath>
</defs>
</svg>
