<svg width="80" height="104" viewBox="0 0 80 104" fill="none" xmlns="http://www.w3.org/2000/svg">
<circle cx="40" cy="40" r="40" fill="#E535AB"/>
<path d="M9.37145 92C9.24645 91.6174 9.08168 91.2746 8.87713 90.9716C8.67637 90.6648 8.43584 90.4034 8.15554 90.1875C7.87903 89.9716 7.56463 89.8068 7.21236 89.6932C6.86009 89.5795 6.47372 89.5227 6.05327 89.5227C5.36387 89.5227 4.73698 89.7008 4.17259 90.0568C3.60819 90.4129 3.15933 90.9375 2.82599 91.6307C2.49266 92.3239 2.32599 93.1742 2.32599 94.1818C2.32599 95.1894 2.49456 96.0398 2.83168 96.733C3.1688 97.4261 3.62524 97.9508 4.20099 98.3068C4.77675 98.6629 5.42448 98.8409 6.14418 98.8409C6.81084 98.8409 7.39796 98.6989 7.90554 98.4148C8.4169 98.1269 8.81463 97.7216 9.09872 97.1989C9.3866 96.6723 9.53054 96.053 9.53054 95.3409L9.96236 95.4318H6.46236V94.1818H10.8942V95.4318C10.8942 96.3902 10.6896 97.2235 10.2805 97.9318C9.87524 98.6402 9.31463 99.1894 8.59872 99.5795C7.8866 99.9659 7.06842 100.159 6.14418 100.159C5.11387 100.159 4.20857 99.9167 3.42827 99.4318C2.65175 98.947 2.04569 98.2576 1.61009 97.3636C1.17827 96.4697 0.962358 95.4091 0.962358 94.1818C0.962358 93.2614 1.08546 92.4337 1.33168 91.6989C1.58168 90.9602 1.93395 90.3314 2.38849 89.8125C2.84304 89.2936 3.38092 88.8958 4.00213 88.6193C4.62334 88.3428 5.30705 88.2045 6.05327 88.2045C6.6669 88.2045 7.23887 88.2973 7.76918 88.483C8.30327 88.6648 8.77865 88.9242 9.19531 89.2614C9.61577 89.5947 9.96615 89.9943 10.2464 90.4602C10.5268 90.9223 10.7199 91.4356 10.826 92H9.37145ZM13.1257 100V91.2727H14.4212V92.5909H14.5121C14.6712 92.1591 14.959 91.8087 15.3757 91.5398C15.7924 91.2708 16.2621 91.1364 16.7848 91.1364C16.8833 91.1364 17.0064 91.1383 17.1541 91.142C17.3018 91.1458 17.4136 91.1515 17.4893 91.1591V92.5227C17.4439 92.5114 17.3397 92.4943 17.1768 92.4716C17.0178 92.4451 16.8492 92.4318 16.6712 92.4318C16.2469 92.4318 15.8681 92.5208 15.5348 92.6989C15.2053 92.8731 14.9439 93.1155 14.7507 93.4261C14.5613 93.733 14.4666 94.0833 14.4666 94.4773V100H13.1257ZM21.647 100.205C21.094 100.205 20.5921 100.1 20.1413 99.892C19.6906 99.6799 19.3326 99.375 19.0675 98.9773C18.8023 98.5758 18.6697 98.0909 18.6697 97.5227C18.6697 97.0227 18.7682 96.6174 18.9652 96.3068C19.1622 95.9924 19.4254 95.7462 19.755 95.5682C20.0845 95.3902 20.4482 95.2576 20.8459 95.1705C21.2474 95.0795 21.6508 95.0076 22.0561 94.9545C22.5864 94.8864 23.0163 94.8352 23.3459 94.8011C23.6792 94.7633 23.9216 94.7008 24.0732 94.6136C24.2285 94.5265 24.3061 94.375 24.3061 94.1591V94.1136C24.3061 93.553 24.1527 93.1174 23.8459 92.8068C23.5429 92.4962 23.0826 92.3409 22.4652 92.3409C21.825 92.3409 21.3232 92.4811 20.9595 92.7614C20.5959 93.0417 20.3402 93.3409 20.1925 93.6591L18.9197 93.2045C19.147 92.6742 19.45 92.2614 19.8288 91.9659C20.2114 91.6667 20.6281 91.4583 21.0788 91.3409C21.5334 91.2197 21.9804 91.1591 22.4197 91.1591C22.7 91.1591 23.022 91.1932 23.3857 91.2614C23.7531 91.3258 24.1072 91.4602 24.4482 91.6648C24.7929 91.8693 25.0788 92.178 25.3061 92.5909C25.5334 93.0038 25.647 93.5568 25.647 94.25V100H24.3061V98.8182H24.2379C24.147 99.0076 23.9955 99.2102 23.7834 99.4261C23.5713 99.642 23.2891 99.8258 22.9368 99.9773C22.5845 100.129 22.1546 100.205 21.647 100.205ZM21.8516 99C22.3819 99 22.8288 98.8958 23.1925 98.6875C23.5599 98.4792 23.8364 98.2102 24.022 97.8807C24.2114 97.5511 24.3061 97.2045 24.3061 96.8409V95.6136C24.2493 95.6818 24.1243 95.7443 23.9311 95.8011C23.7417 95.8542 23.522 95.9015 23.272 95.9432C23.0258 95.9811 22.7853 96.0152 22.5504 96.0455C22.3194 96.072 22.1319 96.0947 21.9879 96.1136C21.6394 96.1591 21.3137 96.233 21.0107 96.3352C20.7114 96.4337 20.469 96.5833 20.2834 96.7841C20.1016 96.9811 20.0107 97.25 20.0107 97.5909C20.0107 98.0568 20.183 98.4091 20.5277 98.6477C20.8762 98.8826 21.3175 99 21.8516 99ZM28.0945 103.273V91.2727H29.3899V92.6591H29.549C29.6475 92.5076 29.7839 92.3144 29.9581 92.0795C30.1361 91.8409 30.3899 91.6288 30.7195 91.4432C31.0528 91.2538 31.5036 91.1591 32.0717 91.1591C32.8066 91.1591 33.4543 91.3428 34.0149 91.7102C34.5755 92.0777 35.013 92.5985 35.3274 93.2727C35.6418 93.947 35.799 94.7424 35.799 95.6591C35.799 96.5833 35.6418 97.3845 35.3274 98.0625C35.013 98.7367 34.5774 99.2595 34.0206 99.6307C33.4638 99.9981 32.8217 100.182 32.0945 100.182C31.5339 100.182 31.085 100.089 30.7479 99.9034C30.4107 99.714 30.1513 99.5 29.9695 99.2614C29.7876 99.0189 29.6475 98.8182 29.549 98.6591H29.4354V103.273H28.0945ZM29.4126 95.6364C29.4126 96.2955 29.5092 96.8769 29.7024 97.3807C29.8956 97.8807 30.1778 98.2727 30.549 98.5568C30.9202 98.8371 31.3748 98.9773 31.9126 98.9773C32.4732 98.9773 32.9411 98.8295 33.3161 98.5341C33.6948 98.2348 33.9789 97.8333 34.1683 97.3295C34.3615 96.822 34.4581 96.2576 34.4581 95.6364C34.4581 95.0227 34.3634 94.4697 34.174 93.9773C33.9884 93.4811 33.7062 93.089 33.3274 92.8011C32.9524 92.5095 32.4808 92.3636 31.9126 92.3636C31.3672 92.3636 30.9089 92.5019 30.5376 92.7784C30.1664 93.0511 29.8861 93.4337 29.6967 93.9261C29.5073 94.4148 29.4126 94.9848 29.4126 95.6364ZM39.1854 94.75V100H37.8445V88.3636H39.1854V92.6364H39.299C39.5036 92.1856 39.8104 91.8277 40.2195 91.5625C40.6323 91.2936 41.1816 91.1591 41.8672 91.1591C42.4619 91.1591 42.9827 91.2784 43.4297 91.517C43.8767 91.7519 44.2232 92.1136 44.4695 92.6023C44.7195 93.0871 44.8445 93.7045 44.8445 94.4545V100H43.5036V94.5455C43.5036 93.8523 43.3236 93.3163 42.9638 92.9375C42.6077 92.5549 42.1134 92.3636 41.4808 92.3636C41.0414 92.3636 40.6475 92.4564 40.299 92.642C39.9543 92.8277 39.6816 93.0985 39.4808 93.4545C39.2839 93.8106 39.1854 94.2424 39.1854 94.75ZM47.2976 100V91.2727H48.6385V100H47.2976ZM47.9794 89.8182C47.718 89.8182 47.4927 89.7292 47.3033 89.5511C47.1177 89.3731 47.0249 89.1591 47.0249 88.9091C47.0249 88.6591 47.1177 88.4451 47.3033 88.267C47.4927 88.089 47.718 88 47.9794 88C48.2408 88 48.4643 88.089 48.6499 88.267C48.8393 88.4451 48.9339 88.6591 48.9339 88.9091C48.9339 89.1591 48.8393 89.3731 48.6499 89.5511C48.4643 89.7292 48.2408 89.8182 47.9794 89.8182ZM54.6399 100.182C53.8217 100.182 53.1172 99.9886 52.5263 99.6023C51.9354 99.2159 51.4808 98.6837 51.1626 98.0057C50.8445 97.3277 50.6854 96.553 50.6854 95.6818C50.6854 94.7955 50.8482 94.0133 51.174 93.3352C51.5036 92.6534 51.9619 92.1212 52.549 91.7386C53.1399 91.3523 53.8293 91.1591 54.6172 91.1591C55.2308 91.1591 55.7839 91.2727 56.2763 91.5C56.7687 91.7273 57.1721 92.0455 57.4865 92.4545C57.8009 92.8636 57.996 93.3409 58.0717 93.8864H56.7308C56.6286 93.4886 56.4013 93.1364 56.049 92.8295C55.7005 92.5189 55.2308 92.3636 54.6399 92.3636C54.1172 92.3636 53.6589 92.5 53.2649 92.7727C52.8748 93.0417 52.5698 93.4223 52.3501 93.9148C52.1342 94.4034 52.0263 94.9773 52.0263 95.6364C52.0263 96.3106 52.1323 96.8977 52.3445 97.3977C52.5604 97.8977 52.8634 98.286 53.2536 98.5625C53.6475 98.839 54.1096 98.9773 54.6399 98.9773C54.9884 98.9773 55.3047 98.9167 55.5888 98.7955C55.8729 98.6742 56.1134 98.5 56.3104 98.2727C56.5073 98.0455 56.6475 97.7727 56.7308 97.4545H58.0717C57.996 97.9697 57.8085 98.4337 57.5092 98.8466C57.2138 99.2557 56.8217 99.5814 56.3331 99.8239C55.8482 100.062 55.2839 100.182 54.6399 100.182ZM64.4411 96.3636H65.9865L67.282 98.0682L67.6229 98.5227L69.5547 101.091H68.0092L66.7365 99.3864L66.4183 98.9545L64.4411 96.3636ZM70.032 94.1818C70.032 95.4091 69.8104 96.4697 69.3672 97.3636C68.924 98.2576 68.3161 98.947 67.5433 99.4318C66.7706 99.9167 65.888 100.159 64.8956 100.159C63.9032 100.159 63.0206 99.9167 62.2479 99.4318C61.4751 98.947 60.8672 98.2576 60.424 97.3636C59.9808 96.4697 59.7592 95.4091 59.7592 94.1818C59.7592 92.9545 59.9808 91.8939 60.424 91C60.8672 90.1061 61.4751 89.4167 62.2479 88.9318C63.0206 88.447 63.9032 88.2045 64.8956 88.2045C65.888 88.2045 66.7706 88.447 67.5433 88.9318C68.3161 89.4167 68.924 90.1061 69.3672 91C69.8104 91.8939 70.032 92.9545 70.032 94.1818ZM68.6683 94.1818C68.6683 93.1742 68.4998 92.3239 68.1626 91.6307C67.8293 90.9375 67.3767 90.4129 66.8047 90.0568C66.2365 89.7008 65.6001 89.5227 64.8956 89.5227C64.1911 89.5227 63.5528 89.7008 62.9808 90.0568C62.4126 90.4129 61.96 90.9375 61.6229 91.6307C61.2895 92.3239 61.1229 93.1742 61.1229 94.1818C61.1229 95.1894 61.2895 96.0398 61.6229 96.733C61.96 97.4261 62.4126 97.9508 62.9808 98.3068C63.5528 98.6629 64.1911 98.8409 64.8956 98.8409C65.6001 98.8409 66.2365 98.6629 66.8047 98.3068C67.3767 97.9508 67.8293 97.4261 68.1626 96.733C68.4998 96.0398 68.6683 95.1894 68.6683 94.1818ZM72.4013 100V88.3636H73.8104V98.75H79.2195V100H72.4013Z" fill="#E535AB"/>
<g clip-path="url(#clip0_4_144)">
<path d="M54.2812 17H27.7188C21.2467 17 16 22.2467 16 28.7188V55.2812C16 61.7533 21.2467 67 27.7188 67H54.2812C60.7533 67 66 61.7533 66 55.2812V28.7188C66 22.2467 60.7533 17 54.2812 17Z" fill="white"/>
<path d="M25.348 51.4125L26.782 52.2404L42.7572 24.5715L41.3232 23.7436L25.348 51.4125Z" fill="#E535AB"/>
<path d="M56.9699 49.2021H25.0197V50.858H56.9699V49.2021Z" fill="#E535AB"/>
<path d="M25.652 50.1322L41.633 59.3592L42.4609 57.9252L26.4799 48.6982L25.652 50.1322ZM39.5348 26.0844L55.5158 35.3113L56.3438 33.8773L40.3627 24.6504L39.5348 26.0844Z" fill="#E535AB"/>
<path d="M25.6562 33.8711L26.4844 35.3051L42.4654 26.0781L41.6375 24.6441L25.6562 33.8711Z" fill="#E535AB"/>
<path d="M39.2461 24.5717L55.2211 52.2406L56.6551 51.4127L40.6801 23.7438L39.2461 24.5719V24.5717ZM27.9424 32.773H26.2865V51.227H27.9424V32.773Z" fill="#E535AB"/>
<path d="M55.7131 32.773H54.0572V51.227H55.7131V32.773Z" fill="#E535AB"/>
<path d="M40.6279 57.4057L41.3512 58.6584L55.2504 50.6334L54.5271 49.3809L40.6279 57.4057Z" fill="#E535AB"/>
<path d="M57.9076 51.7656C56.95 53.4314 54.8152 54 53.1494 53.0424C51.4836 52.0848 50.915 49.9502 51.8727 48.2844C52.8303 46.6184 54.965 46.0498 56.6309 47.0074C58.3066 47.975 58.8752 50.0998 57.9076 51.7656ZM30.117 35.7156C29.1594 37.3814 27.0246 37.9502 25.3588 36.9926C23.693 36.035 23.1244 33.9002 24.082 32.2344C25.0396 30.5684 27.1742 30 28.8402 30.9576C30.5061 31.9252 31.0746 34.0498 30.117 35.7156ZM24.092 51.7656C23.1344 50.0998 23.7029 47.975 25.3687 47.0074C27.0348 46.0498 29.1594 46.6184 30.127 48.2844C31.0846 49.9502 30.516 52.0748 28.8502 53.0424C27.1744 54 25.0496 53.4314 24.092 51.7656ZM51.8826 35.7156C50.925 34.0498 51.4936 31.9252 53.1594 30.9576C54.8254 30 56.95 30.5686 57.9176 32.2344C58.8752 33.9004 58.3066 36.025 56.6408 36.9926C54.975 37.9502 52.8402 37.3814 51.8826 35.7156ZM40.9998 61.5312C39.0746 61.5312 37.5186 59.9752 37.5186 58.05C37.5186 56.1248 39.0746 54.5686 40.9998 54.5686C42.925 54.5686 44.4811 56.1248 44.4811 58.05C44.4811 59.9652 42.925 61.5312 40.9998 61.5312ZM40.9998 29.4314C39.0746 29.4314 37.5186 27.8752 37.5186 25.95C37.5186 24.0248 39.0746 22.4688 40.9998 22.4688C42.925 22.4688 44.4811 24.0248 44.4811 25.95C44.4811 27.8752 42.925 29.4314 40.9998 29.4314Z" fill="#E535AB"/>
</g>
<defs>
<clipPath id="clip0_4_144">
<rect width="50" height="50" fill="white" transform="translate(16 17)"/>
</clipPath>
</defs>
</svg>
