<svg width="80" height="103" viewBox="0 0 80 103" fill="none" xmlns="http://www.w3.org/2000/svg">
<circle cx="40" cy="40" r="40" fill="#615FA8"/>
<g clip-path="url(#clip0_22_45)">
<g clip-path="url(#clip1_22_45)">
<path d="M39.9979 17C39.5896 17 39.1813 17.1042 38.8146 17.3187L19.2208 28.625C18.8612 28.8324 18.5624 29.1309 18.3547 29.4904C18.147 29.8499 18.0376 30.2577 18.0375 30.6729V53.3125C18.0375 54.1583 18.4875 54.9396 19.2208 55.3625L31.2771 62.3292V47.0292H24.8917V42.9812H42.2708V47.0292H35.8854V64.9917L38.8146 66.6833C39.5458 67.1062 40.4479 67.1062 41.1813 66.6833L46.0083 63.8958C44.9575 63.1251 44.1043 62.1163 43.5188 60.9521L47.2708 58.7812C48.0229 60.0104 48.95 60.9896 50.3542 61.3854L54.8833 58.7687C54.6188 57.5854 53.4292 57.0542 51.5833 56.2479L50.4313 55.7521C47.1063 54.3354 44.9 52.5604 44.9 48.8062C44.9 45.3521 47.5354 42.7187 51.65 42.7187C54.5792 42.7187 56.6854 43.7396 58.2 46.4062L54.6104 48.7083C53.8208 47.2917 52.9646 46.7333 51.65 46.7333C50.3 46.7333 49.4417 47.5875 49.4417 48.7083C49.4417 50.0896 50.3 50.65 52.275 51.5062L53.4271 52C56.2104 53.1937 58.125 54.4062 59.0021 56.3896L60.7792 55.3625C61.5125 54.9396 61.9625 54.1583 61.9625 53.3125V30.6771C61.9625 29.8312 61.5125 29.0479 60.7792 28.6271L41.1813 17.3187C40.8217 17.1103 40.4135 17.0003 39.9979 17Z" fill="white"/>
</g>
</g>
<path d="M2.43342 89.2628V88.0909H10.6152V89.2628H7.18484V99H5.86381V89.2628H2.43342ZM12.3557 102.068C12.1427 102.068 11.9527 102.05 11.7858 102.015C11.6189 101.983 11.5035 101.951 11.4395 101.919L11.7591 100.811C12.0645 100.889 12.3344 100.918 12.5688 100.896C12.8032 100.875 13.0109 100.77 13.192 100.582C13.3767 100.397 13.5454 100.097 13.6981 99.6818L13.9324 99.0426L10.9069 90.8182H12.2705L14.529 97.3381H14.6143L16.8728 90.8182H18.2364L14.7634 100.193C14.6072 100.616 14.4136 100.966 14.1828 101.243C13.952 101.523 13.6839 101.731 13.3785 101.866C13.0766 102.001 12.7357 102.068 12.3557 102.068ZM19.8957 102.068V90.8182H21.1102V92.1179H21.2593C21.3517 91.9759 21.4795 91.7947 21.6428 91.5746C21.8097 91.3509 22.0477 91.152 22.3566 90.978C22.6691 90.8004 23.0917 90.7116 23.6244 90.7116C24.3133 90.7116 24.9205 90.8839 25.4461 91.2283C25.9717 91.5728 26.3818 92.0611 26.6766 92.6932C26.9713 93.3253 27.1187 94.071 27.1187 94.9304C27.1187 95.7969 26.9713 96.5479 26.6766 97.1836C26.3818 97.8157 25.9735 98.3058 25.4514 98.6538C24.9294 98.9982 24.3275 99.1705 23.6457 99.1705C23.1201 99.1705 22.6993 99.0835 22.3833 98.9094C22.0672 98.7319 21.824 98.5312 21.6535 98.3075C21.483 98.0803 21.3517 97.892 21.2593 97.7429H21.1528V102.068H19.8957ZM21.1315 94.9091C21.1315 95.527 21.222 96.0721 21.4031 96.5444C21.5843 97.0131 21.8488 97.3807 22.1968 97.647C22.5448 97.9098 22.971 98.0412 23.4752 98.0412C24.0008 98.0412 24.4394 97.9027 24.7909 97.6257C25.146 97.3452 25.4124 96.9687 25.5899 96.4964C25.771 96.0206 25.8616 95.4915 25.8616 94.9091C25.8616 94.3338 25.7728 93.8153 25.5953 93.3537C25.4213 92.8885 25.1567 92.521 24.8016 92.2511C24.45 91.9776 24.0079 91.8409 23.4752 91.8409C22.9639 91.8409 22.5342 91.9705 22.1862 92.2298C21.8382 92.4854 21.5754 92.8441 21.3978 93.3058C21.2203 93.7638 21.1315 94.2983 21.1315 94.9091ZM32.4667 99.1705C31.6784 99.1705 30.9983 98.9964 30.4266 98.6484C29.8584 98.2969 29.4198 97.8068 29.1109 97.1783C28.8055 96.5462 28.6528 95.8111 28.6528 94.973C28.6528 94.1349 28.8055 93.3963 29.1109 92.7571C29.4198 92.1143 29.8495 91.6136 30.3999 91.255C30.9539 90.8928 31.6002 90.7116 32.3389 90.7116C32.765 90.7116 33.1858 90.7827 33.6013 90.9247C34.0168 91.0668 34.395 91.2976 34.7359 91.6172C35.0768 91.9332 35.3485 92.3523 35.5509 92.8743C35.7533 93.3963 35.8545 94.0391 35.8545 94.8026V95.3352H29.5477V94.2486H34.5761C34.5761 93.7869 34.4838 93.375 34.2991 93.0128C34.118 92.6506 33.8588 92.3647 33.5214 92.1552C33.1876 91.9457 32.7934 91.8409 32.3389 91.8409C31.8382 91.8409 31.4049 91.9652 31.0392 92.2138C30.6769 92.4588 30.3982 92.7784 30.2029 93.1726C30.0075 93.5668 29.9099 93.9893 29.9099 94.4403V95.1648C29.9099 95.7827 30.0164 96.3065 30.2295 96.7362C30.4461 97.1623 30.7462 97.4872 31.1297 97.7109C31.5132 97.9311 31.9589 98.0412 32.4667 98.0412C32.797 98.0412 33.0953 97.995 33.3616 97.9027C33.6315 97.8068 33.8641 97.6648 34.0594 97.4766C34.2547 97.2848 34.4056 97.0469 34.5122 96.7628L35.7267 97.1037C35.5988 97.5156 35.384 97.8778 35.0821 98.1903C34.7803 98.4993 34.4074 98.7408 33.9635 98.9148C33.5196 99.0852 33.0207 99.1705 32.4667 99.1705ZM43.9031 90.8182C43.8392 90.2784 43.58 89.8594 43.1254 89.5611C42.6709 89.2628 42.1134 89.1136 41.4529 89.1136C40.9699 89.1136 40.5473 89.1918 40.1851 89.348C39.8264 89.5043 39.5459 89.7191 39.3435 89.9925C39.1446 90.266 39.0452 90.5767 39.0452 90.9247C39.0452 91.2159 39.1144 91.4663 39.2529 91.6758C39.395 91.8817 39.5761 92.054 39.7963 92.1925C40.0164 92.3274 40.2472 92.4393 40.4887 92.5281C40.7302 92.6133 40.9521 92.6825 41.1546 92.7358L42.2625 93.0341C42.5466 93.1087 42.8627 93.2116 43.2107 93.343C43.5622 93.4744 43.8978 93.6538 44.2174 93.881C44.5406 94.1048 44.8069 94.3924 45.0164 94.744C45.2259 95.0955 45.3307 95.527 45.3307 96.0384C45.3307 96.6278 45.1762 97.1605 44.8673 97.6364C44.5619 98.1122 44.1144 98.4904 43.5249 98.771C42.939 99.0515 42.227 99.1918 41.3889 99.1918C40.6077 99.1918 39.9312 99.0657 39.3595 98.8136C38.7913 98.5614 38.3438 98.2099 38.0171 97.7589C37.694 97.3079 37.5111 96.7841 37.4685 96.1875H38.8321C38.8676 96.5994 39.0061 96.9403 39.2476 97.2102C39.4926 97.4766 39.8016 97.6754 40.1744 97.8068C40.5509 97.9347 40.9557 97.9986 41.3889 97.9986C41.8932 97.9986 42.346 97.9169 42.7472 97.7536C43.1485 97.5866 43.4664 97.3558 43.7007 97.0611C43.9351 96.7628 44.0523 96.4148 44.0523 96.017C44.0523 95.6548 43.9511 95.3601 43.7487 95.1328C43.5463 94.9055 43.2799 94.7209 42.9497 94.5788C42.6194 94.4368 42.2625 94.3125 41.879 94.206L40.5367 93.8224C39.6844 93.5774 39.0097 93.2276 38.5125 92.7731C38.0154 92.3185 37.7668 91.7237 37.7668 90.9886C37.7668 90.3778 37.9319 89.8452 38.2622 89.3906C38.596 88.9325 39.0434 88.5774 39.6045 88.3253C40.1691 88.0696 40.7994 87.9418 41.4955 87.9418C42.1986 87.9418 42.8236 88.0678 43.3705 88.32C43.9173 88.5685 44.3506 88.9094 44.6702 89.3427C44.9933 89.7759 45.1638 90.2678 45.1816 90.8182H43.9031ZM50.6561 99.1705C49.889 99.1705 49.2285 98.9893 48.6745 98.6271C48.1206 98.2649 47.6944 97.766 47.3961 97.1303C47.0978 96.4947 46.9487 95.7685 46.9487 94.9517C46.9487 94.1207 47.1014 93.3874 47.4068 92.7518C47.7157 92.1126 48.1454 91.6136 48.6958 91.255C49.2498 90.8928 49.8961 90.7116 50.6348 90.7116C51.21 90.7116 51.7285 90.8182 52.1902 91.0312C52.6518 91.2443 53.03 91.5426 53.3248 91.9261C53.6195 92.3097 53.8024 92.7571 53.8734 93.2685H52.6163C52.5204 92.8956 52.3074 92.5653 51.9771 92.2777C51.6504 91.9865 51.21 91.8409 50.6561 91.8409C50.166 91.8409 49.7363 91.9687 49.367 92.2244C49.0012 92.4766 48.7154 92.8335 48.5094 93.2951C48.307 93.7532 48.2058 94.2912 48.2058 94.9091C48.2058 95.5412 48.3052 96.0916 48.5041 96.5604C48.7065 97.0291 48.9906 97.3931 49.3564 97.6523C49.7257 97.9116 50.1589 98.0412 50.6561 98.0412C50.9828 98.0412 51.2793 97.9844 51.5456 97.8707C51.812 97.7571 52.0375 97.5938 52.2221 97.3807C52.4068 97.1676 52.5382 96.9119 52.6163 96.6136H53.8734C53.8024 97.0966 53.6266 97.5316 53.3461 97.9187C53.0691 98.3022 52.7015 98.6076 52.2434 98.8349C51.7889 99.0586 51.2598 99.1705 50.6561 99.1705ZM55.7111 99V90.8182H56.9256V92.054H57.0108C57.16 91.6491 57.4299 91.3207 57.8205 91.0685C58.2111 90.8164 58.6515 90.6903 59.1415 90.6903C59.2338 90.6903 59.3493 90.6921 59.4877 90.6957C59.6262 90.6992 59.731 90.7045 59.802 90.7116V91.9901C59.7594 91.9794 59.6618 91.9634 59.5091 91.9421C59.3599 91.9173 59.2019 91.9048 59.035 91.9048C58.6373 91.9048 58.2821 91.9883 57.9696 92.1552C57.6607 92.3185 57.4157 92.5458 57.2346 92.837C57.057 93.1246 56.9682 93.4531 56.9682 93.8224V99H55.7111ZM61.2922 99V90.8182H62.5493V99H61.2922ZM61.9314 89.4545C61.6863 89.4545 61.4751 89.3711 61.2975 89.2042C61.1235 89.0373 61.0365 88.8366 61.0365 88.6023C61.0365 88.3679 61.1235 88.1673 61.2975 88.0004C61.4751 87.8335 61.6863 87.75 61.9314 87.75C62.1764 87.75 62.3859 87.8335 62.5599 88.0004C62.7375 88.1673 62.8263 88.3679 62.8263 88.6023C62.8263 88.8366 62.7375 89.0373 62.5599 89.2042C62.3859 89.3711 62.1764 89.4545 61.9314 89.4545ZM64.8517 102.068V90.8182H66.0662V92.1179H66.2154C66.3077 91.9759 66.4355 91.7947 66.5989 91.5746C66.7658 91.3509 67.0037 91.152 67.3127 90.978C67.6252 90.8004 68.0478 90.7116 68.5804 90.7116C69.2694 90.7116 69.8766 90.8839 70.4022 91.2283C70.9277 91.5728 71.3379 92.0611 71.6326 92.6932C71.9274 93.3253 72.0748 94.071 72.0748 94.9304C72.0748 95.7969 71.9274 96.5479 71.6326 97.1836C71.3379 97.8157 70.9295 98.3058 70.4075 98.6538C69.8855 98.9982 69.2836 99.1705 68.6017 99.1705C68.0762 99.1705 67.6554 99.0835 67.3393 98.9094C67.0233 98.7319 66.78 98.5312 66.6096 98.3075C66.4391 98.0803 66.3077 97.892 66.2154 97.7429H66.1088V102.068H64.8517ZM66.0875 94.9091C66.0875 95.527 66.1781 96.0721 66.3592 96.5444C66.5403 97.0131 66.8049 97.3807 67.1529 97.647C67.5009 97.9098 67.927 98.0412 68.4313 98.0412C68.9569 98.0412 69.3954 97.9027 69.747 97.6257C70.1021 97.3452 70.3684 96.9687 70.546 96.4964C70.7271 96.0206 70.8176 95.4915 70.8176 94.9091C70.8176 94.3338 70.7289 93.8153 70.5513 93.3537C70.3773 92.8885 70.1127 92.521 69.7576 92.2511C69.4061 91.9776 68.964 91.8409 68.4313 91.8409C67.9199 91.8409 67.4902 91.9705 67.1422 92.2298C66.7942 92.4854 66.5314 92.8441 66.3539 93.3058C66.1763 93.7638 66.0875 94.2983 66.0875 94.9091ZM77.5506 90.8182V91.8835H73.3105V90.8182H77.5506ZM74.5463 88.858H75.8034V96.6562C75.8034 97.0114 75.8549 97.2777 75.9579 97.4553C76.0645 97.6293 76.1994 97.7464 76.3627 97.8068C76.5297 97.8636 76.7054 97.892 76.8901 97.892C77.0286 97.892 77.1422 97.8849 77.231 97.8707C77.3198 97.853 77.3908 97.8388 77.4441 97.8281L77.6998 98.9574C77.6145 98.9893 77.4956 99.0213 77.3429 99.0533C77.1902 99.0888 76.9966 99.1065 76.7623 99.1065C76.4071 99.1065 76.0591 99.0302 75.7182 98.8775C75.3809 98.7248 75.1003 98.4922 74.8766 98.1797C74.6564 97.8672 74.5463 97.473 74.5463 96.9972V88.858Z" fill="#615FA8"/>
<defs>
<clipPath id="clip0_22_45">
<rect width="50" height="50" fill="white" transform="translate(16 18)"/>
</clipPath>
<clipPath id="clip1_22_45">
<rect width="50" height="50" fill="white" transform="translate(15 17)"/>
</clipPath>
</defs>
</svg>
