<svg width="80" height="107" viewBox="0 0 80 107" fill="none" xmlns="http://www.w3.org/2000/svg">
<circle cx="40" cy="40" r="40" fill="#007FFF"/>
<g clip-path="url(#clip0_4_87)">
<g clip-path="url(#clip1_4_87)">
<path d="M54.2812 15H27.7188C21.2467 15 16 20.2467 16 26.7188V53.2812C16 59.7533 21.2467 65 27.7188 65H54.2812C60.7533 65 66 59.7533 66 53.2812V26.7188C66 20.2467 60.7533 15 54.2812 15Z" fill="white"/>
<path fill-rule="evenodd" clip-rule="evenodd" d="M53.5061 45.7951C53.6608 45.7063 53.7894 45.5783 53.879 45.424C53.9687 45.2697 54.0162 45.0946 54.0168 44.9162L54.0352 39.0293C54.0357 38.8509 54.0831 38.6757 54.1729 38.5215C54.2624 38.3672 54.391 38.2392 54.5457 38.1504L57.7369 36.3174C57.9706 36.1833 58.2479 36.1474 58.508 36.2174C58.7682 36.2875 58.9899 36.4579 59.1246 36.6912C59.2138 36.8457 59.2607 37.021 59.2607 37.1994V47.9018C59.2608 48.0807 59.2136 48.2565 59.1239 48.4114C59.0342 48.5663 58.9052 48.6947 58.75 48.7838L46.7068 55.7012C46.553 55.7894 46.3788 55.8359 46.2014 55.8361C46.024 55.8362 45.8497 55.7901 45.6957 55.7021L36.2443 50.2965C36.0887 50.2075 35.9594 50.0789 35.8693 49.9239C35.7793 49.7688 35.7318 49.5928 35.7316 49.4135V44.017C35.7316 44.0109 35.7389 44.0068 35.7449 44.0098C35.7461 44.0106 35.7476 44.011 35.749 44.0111C35.7505 44.0111 35.7519 44.0107 35.7532 44.01C35.7544 44.0093 35.7555 44.0082 35.7561 44.0069C35.7568 44.0056 35.7571 44.0042 35.757 44.0027V43.9967C35.757 43.9926 35.7592 43.9885 35.7633 43.9865L43.5473 39.5146C43.5543 39.5105 43.5512 39.4994 43.5432 39.4994C43.541 39.4994 43.5389 39.4985 43.5374 39.497C43.5359 39.4954 43.535 39.4934 43.535 39.4912L43.5502 34.2004C43.5511 34.0215 43.5046 33.8455 43.4156 33.6902C43.3266 33.535 43.1982 33.4061 43.0434 33.3164C42.8886 33.2266 42.7129 33.1793 42.534 33.1791C42.3551 33.1789 42.1793 33.226 42.0244 33.3154L36.2393 36.649C36.0848 36.7378 35.9098 36.7846 35.7316 36.7846C35.5535 36.7846 35.3785 36.7378 35.224 36.649L29.4205 33.3072C29.2659 33.2181 29.0906 33.1713 28.9122 33.1714C28.7337 33.1715 28.5585 33.2185 28.404 33.3077C28.2495 33.397 28.1212 33.5253 28.032 33.6799C27.9427 33.8344 27.8958 34.0097 27.8957 34.1881V43.7504C27.8959 43.9286 27.8492 44.1038 27.7604 44.2583C27.6716 44.4128 27.5437 44.5413 27.3896 44.6308C27.2354 44.7204 27.0605 44.7678 26.8823 44.7684C26.704 44.7691 26.5288 44.7228 26.374 44.6344L23.1533 42.7932C22.9973 42.7041 22.8677 42.5753 22.7776 42.4198C22.6876 42.2644 22.6403 42.0878 22.6406 41.9082L22.6691 25.1947C22.6695 25.0165 22.7167 24.8416 22.8059 24.6874C22.8952 24.5332 23.0234 24.4051 23.1777 24.316C23.332 24.2269 23.507 24.1799 23.6852 24.1797C23.8634 24.1795 24.0385 24.2261 24.193 24.3148L35.225 30.6514C35.3792 30.7399 35.5539 30.7865 35.7316 30.7865C35.9094 30.7865 36.0841 30.7399 36.2383 30.6514L47.2674 24.3148C47.5011 24.1805 47.7787 24.1445 48.039 24.2147C48.2993 24.285 48.521 24.4557 48.6555 24.6895C48.7445 24.8439 48.7912 25.0193 48.7912 25.1978V41.9152C48.7913 42.0941 48.7442 42.2698 48.6547 42.4246C48.5652 42.5795 48.4364 42.708 48.2815 42.7973L42.5055 46.1236C42.3504 46.2132 42.2217 46.342 42.1323 46.4972C42.0429 46.6524 41.996 46.8283 41.9963 47.0074C41.9966 47.1865 42.0443 47.3623 42.1344 47.5171C42.2246 47.6718 42.354 47.8 42.5096 47.8887L45.6957 49.7023C45.8496 49.7901 46.0238 49.8361 46.201 49.8358C46.3782 49.8354 46.5523 49.7888 46.7059 49.7004L53.5061 45.7951ZM54.1744 30.7988C54.1747 30.9787 54.2226 31.1553 54.3133 31.3106C54.4039 31.466 54.5341 31.5945 54.6906 31.6832C54.8472 31.7719 55.0245 31.8174 55.2044 31.8152C55.3843 31.8129 55.5603 31.763 55.7147 31.6705L58.7664 29.8395C58.917 29.7491 59.0416 29.6214 59.1283 29.4687C59.2149 29.3159 59.2605 29.1434 59.2607 28.9678V25.2363C59.2604 25.1018 59.2334 24.9688 59.1813 24.8448C59.1292 24.7208 59.0531 24.6084 58.9573 24.514C58.8615 24.4196 58.748 24.345 58.6233 24.2947C58.4986 24.2444 58.3651 24.2193 58.2307 24.2209C58.0508 24.2232 57.8748 24.2731 57.7205 24.3656L54.6688 26.1967C54.5181 26.2869 54.3933 26.4147 54.3067 26.5675C54.22 26.7203 54.1745 26.8929 54.1744 27.0686V30.7998V30.7988Z" fill="#007FFF"/>
</g>
</g>
<path d="M26.2132 89.9091H28.1052L32.5541 100.776H32.7075L37.1563 89.9091H39.0484V103H37.5654V93.054H37.4376L33.3467 103H31.9149L27.824 93.054H27.6961V103H26.2132V89.9091ZM48.2098 98.9858V93.1818H49.7183V103H48.2098V101.338H48.1075C47.8774 101.837 47.5194 102.261 47.0336 102.61C46.5479 102.955 45.9342 103.128 45.1927 103.128C44.5791 103.128 44.0336 102.994 43.5564 102.725C43.0791 102.452 42.7041 102.043 42.4314 101.498C42.1586 100.948 42.0223 100.256 42.0223 99.4205V93.1818H43.5308V99.3182C43.5308 100.034 43.7311 100.605 44.1317 101.031C44.5365 101.457 45.0521 101.67 45.6785 101.67C46.0535 101.67 46.4349 101.575 46.8227 101.383C47.2148 101.191 47.5429 100.897 47.8071 100.501C48.0756 100.104 48.2098 99.5994 48.2098 98.9858ZM52.4813 103V93.1818H53.9898V103H52.4813ZM53.2483 91.5455C52.9543 91.5455 52.7007 91.4453 52.4877 91.245C52.2789 91.0447 52.1744 90.804 52.1744 90.5227C52.1744 90.2415 52.2789 90.0007 52.4877 89.8004C52.7007 89.6001 52.9543 89.5 53.2483 89.5C53.5423 89.5 53.7938 89.6001 54.0026 89.8004C54.2156 90.0007 54.3222 90.2415 54.3222 90.5227C54.3222 90.804 54.2156 91.0447 54.0026 91.245C53.7938 91.4453 53.5423 91.5455 53.2483 91.5455Z" fill="#007FFF"/>
<defs>
<clipPath id="clip0_4_87">
<rect width="50" height="50" fill="white" transform="translate(17 16)"/>
</clipPath>
<clipPath id="clip1_4_87">
<rect width="50" height="50" fill="white" transform="translate(16 15)"/>
</clipPath>
</defs>
</svg>
