<svg width="80" height="107" viewBox="0 0 80 107" fill="none" xmlns="http://www.w3.org/2000/svg">
<circle cx="40" cy="40" r="40" fill="#DE9797"/>
<path d="M15.8301 103H11.7903V89.9091H16.0091C17.2789 89.9091 18.3656 90.1712 19.269 90.6953C20.1724 91.2152 20.8649 91.9631 21.3464 92.9389C21.8279 93.9105 22.0687 95.0739 22.0687 96.429C22.0687 97.7926 21.8258 98.9666 21.34 99.951C20.8542 100.931 20.1468 101.685 19.2179 102.214C18.2889 102.738 17.1596 103 15.8301 103ZM13.3755 101.594H15.7278C16.8102 101.594 17.7072 101.385 18.4189 100.967C19.1305 100.55 19.661 99.9553 20.0105 99.1839C20.3599 98.4126 20.5346 97.4943 20.5346 96.429C20.5346 95.3722 20.362 94.4624 20.0169 93.6996C19.6717 92.9325 19.1561 92.3445 18.47 91.9354C17.7839 91.522 16.9295 91.3153 15.9068 91.3153H13.3755V101.594ZM24.5233 93.1818H26.0318V103.716C26.0318 104.321 25.9274 104.845 25.7186 105.288C25.514 105.732 25.2029 106.075 24.7853 106.317C24.372 106.56 23.85 106.682 23.2193 106.682C23.1681 106.682 23.117 106.682 23.0659 106.682C23.0147 106.682 22.9636 106.682 22.9125 106.682V105.276C22.9636 105.276 23.0105 105.276 23.0531 105.276C23.0957 105.276 23.1426 105.276 23.1937 105.276C23.6539 105.276 23.9906 105.139 24.2037 104.866C24.4167 104.598 24.5233 104.214 24.5233 103.716V93.1818ZM25.2647 91.5455C24.9707 91.5455 24.7172 91.4453 24.5041 91.245C24.2953 91.0447 24.1909 90.804 24.1909 90.5227C24.1909 90.2415 24.2953 90.0007 24.5041 89.8004C24.7172 89.6001 24.9707 89.5 25.2647 89.5C25.5588 89.5 25.8102 89.6001 26.019 89.8004C26.2321 90.0007 26.3386 90.2415 26.3386 90.5227C26.3386 90.804 26.2321 91.0447 26.019 91.245C25.8102 91.4453 25.5588 91.5455 25.2647 91.5455ZM31.6839 103.23C31.0618 103.23 30.4972 103.113 29.9901 102.879C29.483 102.64 29.0803 102.297 28.782 101.849C28.4837 101.398 28.3345 100.852 28.3345 100.213C28.3345 99.6506 28.4453 99.1946 28.6669 98.8452C28.8885 98.4915 29.1847 98.2145 29.5554 98.0142C29.9261 97.8139 30.3352 97.6648 30.7827 97.5668C31.2344 97.4645 31.6882 97.3835 32.1442 97.3239C32.7408 97.2472 33.2244 97.1896 33.5952 97.1513C33.9702 97.1087 34.2429 97.0384 34.4134 96.9403C34.5881 96.8423 34.6754 96.6719 34.6754 96.429V96.3778C34.6754 95.7472 34.5028 95.2571 34.1577 94.9077C33.8168 94.5582 33.299 94.3835 32.6044 94.3835C31.8842 94.3835 31.3196 94.5412 30.9105 94.8565C30.5014 95.1719 30.2138 95.5085 30.0476 95.8665L28.6158 95.3551C28.8714 94.7585 29.2124 94.294 29.6385 93.9616C30.0689 93.625 30.5376 93.3906 31.0447 93.2585C31.5561 93.1222 32.0589 93.054 32.5533 93.054C32.8686 93.054 33.2308 93.0923 33.6399 93.169C34.0533 93.2415 34.4517 93.3928 34.8352 93.6229C35.223 93.853 35.5447 94.2003 35.8004 94.6648C36.0561 95.1293 36.1839 95.7514 36.1839 96.5312V103H34.6754V101.67H34.5987C34.4964 101.884 34.326 102.112 34.0874 102.354C33.8487 102.597 33.5313 102.804 33.1349 102.974C32.7386 103.145 32.255 103.23 31.6839 103.23ZM31.9141 101.875C32.5107 101.875 33.0135 101.758 33.4226 101.523C33.8359 101.289 34.147 100.987 34.3558 100.616C34.5689 100.245 34.6754 99.8551 34.6754 99.446V98.0653C34.6115 98.142 34.4709 98.2124 34.2536 98.2763C34.0405 98.3359 33.7933 98.3892 33.5121 98.4361C33.2351 98.4787 32.9645 98.517 32.7003 98.5511C32.4403 98.581 32.2294 98.6065 32.0675 98.6278C31.6754 98.679 31.3089 98.7621 30.968 98.8771C30.6314 98.9879 30.3587 99.1562 30.1499 99.3821C29.9453 99.6037 29.843 99.9062 29.843 100.29C29.843 100.814 30.0369 101.21 30.4247 101.479C30.8168 101.743 31.3132 101.875 31.9141 101.875ZM40.4458 97.0938V103H38.9373V93.1818H40.3947V94.7159H40.5225C40.7527 94.2173 41.1021 93.8168 41.5708 93.5142C42.0396 93.2074 42.6447 93.054 43.3862 93.054C44.051 93.054 44.6326 93.1903 45.1312 93.4631C45.6298 93.7315 46.0176 94.1406 46.2946 94.6903C46.5716 95.2358 46.7101 95.9261 46.7101 96.7614V103H45.2015V96.8636C45.2015 96.0923 45.0012 95.4915 44.6007 95.0611C44.2001 94.6264 43.6504 94.4091 42.9515 94.4091C42.47 94.4091 42.0396 94.5135 41.6603 94.7223C41.2853 94.9311 40.9892 95.2358 40.7718 95.6364C40.5545 96.0369 40.4458 96.5227 40.4458 97.0938ZM53.4297 106.886C52.701 106.886 52.0746 106.793 51.5504 106.605C51.0263 106.422 50.5895 106.179 50.2401 105.876C49.8949 105.578 49.62 105.259 49.4155 104.918L50.6172 104.074C50.7536 104.253 50.9261 104.457 51.1349 104.688C51.3438 104.922 51.6293 105.124 51.9915 105.295C52.358 105.469 52.8374 105.557 53.4297 105.557C54.2223 105.557 54.8764 105.365 55.392 104.982C55.9077 104.598 56.1655 103.997 56.1655 103.179V101.185H56.0376C55.9268 101.364 55.7692 101.585 55.5646 101.849C55.3643 102.109 55.0746 102.342 54.6953 102.546C54.3203 102.746 53.8132 102.847 53.174 102.847C52.3814 102.847 51.6697 102.659 51.0391 102.284C50.4126 101.909 49.9162 101.364 49.5497 100.648C49.1875 99.9318 49.0064 99.0625 49.0064 98.0398C49.0064 97.0341 49.1832 96.1584 49.5369 95.4126C49.8906 94.6626 50.3828 94.0831 51.0135 93.674C51.6442 93.2607 52.3729 93.054 53.1996 93.054C53.8388 93.054 54.3459 93.1605 54.7209 93.3736C55.1001 93.5824 55.3899 93.821 55.5902 94.0895C55.7947 94.3537 55.9524 94.571 56.0632 94.7415H56.2166V93.1818H57.674V103.281C57.674 104.125 57.4822 104.811 57.0987 105.339C56.7195 105.872 56.2081 106.262 55.5646 106.509C54.9254 106.761 54.2138 106.886 53.4297 106.886ZM53.3786 101.491C53.9837 101.491 54.495 101.353 54.9126 101.076C55.3303 100.799 55.6477 100.401 55.8651 99.8807C56.0824 99.3608 56.1911 98.7386 56.1911 98.0142C56.1911 97.3068 56.0845 96.6825 55.8714 96.1413C55.6584 95.6001 55.343 95.1761 54.9254 94.8693C54.5078 94.5625 53.9922 94.4091 53.3786 94.4091C52.7393 94.4091 52.2067 94.571 51.7805 94.8949C51.3587 95.2187 51.0412 95.6534 50.8281 96.1989C50.6193 96.7443 50.5149 97.3494 50.5149 98.0142C50.5149 98.696 50.6214 99.299 50.8345 99.8232C51.0518 100.343 51.3714 100.752 51.7933 101.05C52.2195 101.344 52.7479 101.491 53.3786 101.491ZM64.424 103.205C63.5376 103.205 62.7599 102.994 62.0909 102.572C61.4261 102.15 60.9062 101.56 60.5312 100.801C60.1605 100.043 59.9751 99.1562 59.9751 98.142C59.9751 97.1193 60.1605 96.2266 60.5312 95.4638C60.9062 94.701 61.4261 94.1087 62.0909 93.6868C62.7599 93.2649 63.5376 93.054 64.424 93.054C65.3104 93.054 66.0859 93.2649 66.7507 93.6868C67.4197 94.1087 67.9396 94.701 68.3104 95.4638C68.6854 96.2266 68.8729 97.1193 68.8729 98.142C68.8729 99.1562 68.6854 100.043 68.3104 100.801C67.9396 101.56 67.4197 102.15 66.7507 102.572C66.0859 102.994 65.3104 103.205 64.424 103.205ZM64.424 101.849C65.0973 101.849 65.6513 101.677 66.0859 101.332C66.5206 100.987 66.8423 100.533 67.0511 99.9702C67.2599 99.4077 67.3643 98.7983 67.3643 98.142C67.3643 97.4858 67.2599 96.8743 67.0511 96.3075C66.8423 95.7408 66.5206 95.2827 66.0859 94.9332C65.6513 94.5838 65.0973 94.4091 64.424 94.4091C63.7507 94.4091 63.1967 94.5838 62.7621 94.9332C62.3274 95.2827 62.0057 95.7408 61.7969 96.3075C61.5881 96.8743 61.4837 97.4858 61.4837 98.142C61.4837 98.7983 61.5881 99.4077 61.7969 99.9702C62.0057 100.533 62.3274 100.987 62.7621 101.332C63.1967 101.677 63.7507 101.849 64.424 101.849Z" fill="#DE9797"/>
<g clip-path="url(#clip0_4_173)">
<path d="M58.8594 17H22.1406C19.3015 17 17 19.4484 17 22.4688V61.5312C17 64.5516 19.3015 67 22.1406 67H58.8594C61.6985 67 64 64.5516 64 61.5312V22.4688C64 19.4484 61.6985 17 58.8594 17Z" fill="white"/>
<path d="M51.2177 35.398V48.3328C51.2177 52.7898 50.9111 54.9273 49.9916 56.7752C49.1399 58.551 48.016 59.674 45.7001 60.906L40.8294 58.4422C43.1456 57.2828 44.2696 56.2684 44.9847 54.7098C45.7341 53.1158 45.9728 51.2678 45.9728 46.4127V35.398H51.2177ZM42.8735 26.7809V52.6088C40.1829 53.1521 38.2075 53.3695 36.0618 53.3695C29.6586 53.3695 26.3209 50.29 26.3209 44.3838C26.3209 38.6951 29.8631 34.9996 35.3463 34.9996C36.1979 34.9996 36.845 35.0719 37.6284 35.2893V26.7812H42.8737L42.8735 26.7809ZM35.8575 39.4922C33.2009 39.4922 31.668 41.2314 31.668 44.2748C31.668 47.2463 33.1328 48.8766 35.8235 48.8766C36.4022 48.8766 36.8792 48.8404 37.6284 48.732V39.7818C37.0154 39.5646 36.5046 39.4922 35.8575 39.4922ZM51.2177 26.8105V32.5355H45.9728V26.8107L51.2177 26.8105Z" fill="#DE9797"/>
</g>
<defs>
<clipPath id="clip0_4_173">
<rect width="47" height="50" fill="white" transform="translate(17 17)"/>
</clipPath>
</defs>
</svg>
