<svg width="80" height="104" viewBox="0 0 80 104" fill="none" xmlns="http://www.w3.org/2000/svg">
<circle cx="40" cy="40" r="40" fill="#F10000"/>
<path d="M6.11364 88.3636H7.52273V96.6818C7.52273 97.4242 7.38636 98.0549 7.11364 98.5739C6.84091 99.0928 6.45644 99.4867 5.96023 99.7557C5.46402 100.025 4.87879 100.159 4.20455 100.159C3.56818 100.159 3.00189 100.044 2.50568 99.8125C2.00947 99.5777 1.61932 99.2443 1.33523 98.8125C1.05114 98.3807 0.909091 97.8674 0.909091 97.2727H2.29545C2.29545 97.6023 2.37689 97.8902 2.53977 98.1364C2.70644 98.3788 2.93371 98.5682 3.22159 98.7045C3.50947 98.8409 3.83712 98.9091 4.20455 98.9091C4.60985 98.9091 4.95455 98.8239 5.23864 98.6534C5.52273 98.483 5.73864 98.233 5.88636 97.9034C6.03788 97.5701 6.11364 97.1629 6.11364 96.6818V88.3636ZM12.733 100.205C12.1799 100.205 11.678 100.1 11.2273 99.892C10.7765 99.6799 10.4186 99.375 10.1534 98.9773C9.88826 98.5758 9.75568 98.0909 9.75568 97.5227C9.75568 97.0227 9.85417 96.6174 10.0511 96.3068C10.2481 95.9924 10.5114 95.7462 10.8409 95.5682C11.1705 95.3902 11.5341 95.2576 11.9318 95.1705C12.3333 95.0795 12.7367 95.0076 13.142 94.9545C13.6723 94.8864 14.1023 94.8352 14.4318 94.8011C14.7652 94.7633 15.0076 94.7008 15.1591 94.6136C15.3144 94.5265 15.392 94.375 15.392 94.1591V94.1136C15.392 93.553 15.2386 93.1174 14.9318 92.8068C14.6288 92.4962 14.1686 92.3409 13.5511 92.3409C12.911 92.3409 12.4091 92.4811 12.0455 92.7614C11.6818 93.0417 11.4261 93.3409 11.2784 93.6591L10.0057 93.2045C10.233 92.6742 10.536 92.2614 10.9148 91.9659C11.2973 91.6667 11.714 91.4583 12.1648 91.3409C12.6193 91.2197 13.0663 91.1591 13.5057 91.1591C13.786 91.1591 14.108 91.1932 14.4716 91.2614C14.839 91.3258 15.1932 91.4602 15.5341 91.6648C15.8788 91.8693 16.1648 92.178 16.392 92.5909C16.6193 93.0038 16.733 93.5568 16.733 94.25V100H15.392V98.8182H15.3239C15.233 99.0076 15.0814 99.2102 14.8693 99.4261C14.6572 99.642 14.375 99.8258 14.0227 99.9773C13.6705 100.129 13.2405 100.205 12.733 100.205ZM12.9375 99C13.4678 99 13.9148 98.8958 14.2784 98.6875C14.6458 98.4792 14.9223 98.2102 15.108 97.8807C15.2973 97.5511 15.392 97.2045 15.392 96.8409V95.6136C15.3352 95.6818 15.2102 95.7443 15.017 95.8011C14.8277 95.8542 14.608 95.9015 14.358 95.9432C14.1117 95.9811 13.8712 96.0152 13.6364 96.0455C13.4053 96.072 13.2178 96.0947 13.0739 96.1136C12.7254 96.1591 12.3996 96.233 12.0966 96.3352C11.7973 96.4337 11.5549 96.5833 11.3693 96.7841C11.1875 96.9811 11.0966 97.25 11.0966 97.5909C11.0966 98.0568 11.2689 98.4091 11.6136 98.6477C11.9621 98.8826 12.4034 99 12.9375 99ZM26.0043 91.2727L22.777 100H21.4134L18.1861 91.2727H19.6406L22.0497 98.2273H22.1406L24.5497 91.2727H26.0043ZM30.0767 100.205C29.5237 100.205 29.0218 100.1 28.571 99.892C28.1203 99.6799 27.7623 99.375 27.4972 98.9773C27.232 98.5758 27.0994 98.0909 27.0994 97.5227C27.0994 97.0227 27.1979 96.6174 27.3949 96.3068C27.5919 95.9924 27.8551 95.7462 28.1847 95.5682C28.5142 95.3902 28.8778 95.2576 29.2756 95.1705C29.6771 95.0795 30.0805 95.0076 30.4858 94.9545C31.0161 94.8864 31.446 94.8352 31.7756 94.8011C32.1089 94.7633 32.3513 94.7008 32.5028 94.6136C32.6581 94.5265 32.7358 94.375 32.7358 94.1591V94.1136C32.7358 93.553 32.5824 93.1174 32.2756 92.8068C31.9725 92.4962 31.5123 92.3409 30.8949 92.3409C30.2547 92.3409 29.7528 92.4811 29.3892 92.7614C29.0256 93.0417 28.7699 93.3409 28.6222 93.6591L27.3494 93.2045C27.5767 92.6742 27.8797 92.2614 28.2585 91.9659C28.6411 91.6667 29.0578 91.4583 29.5085 91.3409C29.9631 91.2197 30.41 91.1591 30.8494 91.1591C31.1297 91.1591 31.4517 91.1932 31.8153 91.2614C32.1828 91.3258 32.5369 91.4602 32.8778 91.6648C33.2225 91.8693 33.5085 92.178 33.7358 92.5909C33.9631 93.0038 34.0767 93.5568 34.0767 94.25V100H32.7358V98.8182H32.6676C32.5767 99.0076 32.4252 99.2102 32.2131 99.4261C32.0009 99.642 31.7188 99.8258 31.3665 99.9773C31.0142 100.129 30.5843 100.205 30.0767 100.205ZM30.2812 99C30.8116 99 31.2585 98.8958 31.6222 98.6875C31.9896 98.4792 32.2661 98.2102 32.4517 97.8807C32.6411 97.5511 32.7358 97.2045 32.7358 96.8409V95.6136C32.679 95.6818 32.554 95.7443 32.3608 95.8011C32.1714 95.8542 31.9517 95.9015 31.7017 95.9432C31.4555 95.9811 31.215 96.0152 30.9801 96.0455C30.7491 96.072 30.5616 96.0947 30.4176 96.1136C30.0691 96.1591 29.7434 96.233 29.4403 96.3352C29.1411 96.4337 28.8987 96.5833 28.7131 96.7841C28.5313 96.9811 28.4403 97.25 28.4403 97.5909C28.4403 98.0568 28.6127 98.4091 28.9574 98.6477C29.3059 98.8826 29.7472 99 30.2812 99ZM43.0696 91.2727C43.0014 90.697 42.7249 90.25 42.2401 89.9318C41.7552 89.6136 41.1605 89.4545 40.456 89.4545C39.9408 89.4545 39.4901 89.5379 39.1037 89.7045C38.7211 89.8712 38.4219 90.1004 38.206 90.392C37.9938 90.6837 37.8878 91.0152 37.8878 91.3864C37.8878 91.697 37.9616 91.964 38.1094 92.1875C38.2609 92.4072 38.4541 92.5909 38.6889 92.7386C38.9238 92.8826 39.17 93.0019 39.4276 93.0966C39.6851 93.1875 39.9219 93.2614 40.1378 93.3182L41.3196 93.6364C41.6226 93.7159 41.9598 93.8258 42.331 93.9659C42.706 94.1061 43.0639 94.2973 43.4048 94.5398C43.7495 94.7784 44.0336 95.0852 44.2571 95.4602C44.4806 95.8352 44.5923 96.2955 44.5923 96.8409C44.5923 97.4697 44.4276 98.0379 44.098 98.5455C43.7723 99.053 43.295 99.4564 42.6662 99.7557C42.0412 100.055 41.2817 100.205 40.3878 100.205C39.5545 100.205 38.8329 100.07 38.223 99.8011C37.617 99.5322 37.1397 99.1572 36.7912 98.6761C36.4465 98.1951 36.2514 97.6364 36.206 97H37.6605C37.6984 97.4394 37.8461 97.803 38.1037 98.0909C38.3651 98.375 38.6946 98.5871 39.0923 98.7273C39.4938 98.8636 39.9257 98.9318 40.3878 98.9318C40.9257 98.9318 41.4086 98.8447 41.8366 98.6705C42.2647 98.4924 42.6037 98.2462 42.8537 97.9318C43.1037 97.6136 43.2287 97.2424 43.2287 96.8182C43.2287 96.4318 43.1207 96.1174 42.9048 95.875C42.6889 95.6326 42.4048 95.4356 42.0526 95.2841C41.7003 95.1326 41.3196 95 40.9105 94.8864L39.4787 94.4773C38.5696 94.2159 37.8499 93.8428 37.3196 93.358C36.7893 92.8731 36.5241 92.2386 36.5241 91.4545C36.5241 90.803 36.7003 90.2348 37.0526 89.75C37.4086 89.2614 37.8859 88.8826 38.4844 88.6136C39.0866 88.3409 39.759 88.2045 40.5014 88.2045C41.2514 88.2045 41.9181 88.339 42.5014 88.608C43.0848 88.8731 43.5469 89.2367 43.8878 89.6989C44.2325 90.161 44.4143 90.6856 44.4332 91.2727H43.0696ZM50.2727 100.182C49.4545 100.182 48.75 99.9886 48.1591 99.6023C47.5682 99.2159 47.1136 98.6837 46.7955 98.0057C46.4773 97.3277 46.3182 96.553 46.3182 95.6818C46.3182 94.7955 46.4811 94.0133 46.8068 93.3352C47.1364 92.6534 47.5947 92.1212 48.1818 91.7386C48.7727 91.3523 49.4621 91.1591 50.25 91.1591C50.8636 91.1591 51.4167 91.2727 51.9091 91.5C52.4015 91.7273 52.8049 92.0455 53.1193 92.4545C53.4337 92.8636 53.6288 93.3409 53.7045 93.8864H52.3636C52.2614 93.4886 52.0341 93.1364 51.6818 92.8295C51.3333 92.5189 50.8636 92.3636 50.2727 92.3636C49.75 92.3636 49.2917 92.5 48.8977 92.7727C48.5076 93.0417 48.2027 93.4223 47.983 93.9148C47.767 94.4034 47.6591 94.9773 47.6591 95.6364C47.6591 96.3106 47.7652 96.8977 47.9773 97.3977C48.1932 97.8977 48.4962 98.286 48.8864 98.5625C49.2803 98.839 49.7424 98.9773 50.2727 98.9773C50.6212 98.9773 50.9375 98.9167 51.2216 98.7955C51.5057 98.6742 51.7462 98.5 51.9432 98.2727C52.1402 98.0455 52.2803 97.7727 52.3636 97.4545H53.7045C53.6288 97.9697 53.4413 98.4337 53.142 98.8466C52.8466 99.2557 52.4545 99.5814 51.9659 99.8239C51.4811 100.062 50.9167 100.182 50.2727 100.182ZM55.6648 100V91.2727H56.9602V92.5909H57.0511C57.2102 92.1591 57.4981 91.8087 57.9148 91.5398C58.3314 91.2708 58.8011 91.1364 59.3239 91.1364C59.4223 91.1364 59.5455 91.1383 59.6932 91.142C59.8409 91.1458 59.9527 91.1515 60.0284 91.1591V92.5227C59.983 92.5114 59.8788 92.4943 59.7159 92.4716C59.5568 92.4451 59.3883 92.4318 59.2102 92.4318C58.786 92.4318 58.4072 92.5208 58.0739 92.6989C57.7443 92.8731 57.483 93.1155 57.2898 93.4261C57.1004 93.733 57.0057 94.0833 57.0057 94.4773V100H55.6648ZM61.6179 100V91.2727H62.9588V100H61.6179ZM62.2997 89.8182C62.0384 89.8182 61.813 89.7292 61.6236 89.5511C61.438 89.3731 61.3452 89.1591 61.3452 88.9091C61.3452 88.6591 61.438 88.4451 61.6236 88.267C61.813 88.089 62.0384 88 62.2997 88C62.5611 88 62.7846 88.089 62.9702 88.267C63.1596 88.4451 63.2543 88.6591 63.2543 88.9091C63.2543 89.1591 63.1596 89.3731 62.9702 89.5511C62.7846 89.7292 62.5611 89.8182 62.2997 89.8182ZM65.4148 103.273V91.2727H66.7102V92.6591H66.8693C66.9678 92.5076 67.1042 92.3144 67.2784 92.0795C67.4564 91.8409 67.7102 91.6288 68.0398 91.4432C68.3731 91.2538 68.8239 91.1591 69.392 91.1591C70.1269 91.1591 70.7746 91.3428 71.3352 91.7102C71.8958 92.0777 72.3333 92.5985 72.6477 93.2727C72.9621 93.947 73.1193 94.7424 73.1193 95.6591C73.1193 96.5833 72.9621 97.3845 72.6477 98.0625C72.3333 98.7367 71.8977 99.2595 71.3409 99.6307C70.7841 99.9981 70.142 100.182 69.4148 100.182C68.8542 100.182 68.4053 100.089 68.0682 99.9034C67.7311 99.714 67.4716 99.5 67.2898 99.2614C67.108 99.0189 66.9678 98.8182 66.8693 98.6591H66.7557V103.273H65.4148ZM66.733 95.6364C66.733 96.2955 66.8295 96.8769 67.0227 97.3807C67.2159 97.8807 67.4981 98.2727 67.8693 98.5568C68.2405 98.8371 68.6951 98.9773 69.233 98.9773C69.7936 98.9773 70.2614 98.8295 70.6364 98.5341C71.0152 98.2348 71.2992 97.8333 71.4886 97.3295C71.6818 96.822 71.7784 96.2576 71.7784 95.6364C71.7784 95.0227 71.6837 94.4697 71.4943 93.9773C71.3087 93.4811 71.0265 93.089 70.6477 92.8011C70.2727 92.5095 69.8011 92.3636 69.233 92.3636C68.6875 92.3636 68.2292 92.5019 67.858 92.7784C67.4867 93.0511 67.2064 93.4337 67.017 93.9261C66.8277 94.4148 66.733 94.9848 66.733 95.6364ZM78.9602 91.2727V92.4091H74.4375V91.2727H78.9602ZM75.7557 89.1818H77.0966V97.5C77.0966 97.8788 77.1515 98.1629 77.2614 98.3523C77.375 98.5379 77.5189 98.6629 77.6932 98.7273C77.8712 98.7879 78.0587 98.8182 78.2557 98.8182C78.4034 98.8182 78.5246 98.8106 78.6193 98.7955C78.714 98.7765 78.7898 98.7614 78.8466 98.75L79.1193 99.9545C79.0284 99.9886 78.9015 100.023 78.7386 100.057C78.5758 100.095 78.3693 100.114 78.1193 100.114C77.7405 100.114 77.3693 100.032 77.0057 99.8693C76.6458 99.7064 76.3466 99.4583 76.108 99.125C75.8731 98.7917 75.7557 98.3712 75.7557 97.8636V89.1818Z" fill="#F10000"/>
<g clip-path="url(#clip0_4_35)">
<mask id="mask0_4_35" style="mask-type:luminance" maskUnits="userSpaceOnUse" x="17" y="17" width="47" height="47">
<path d="M17 17H64V64H17V17Z" fill="white"/>
</mask>
<g mask="url(#mask0_4_35)">
<path fill-rule="evenodd" clip-rule="evenodd" d="M17 17H64V64H17V17ZM52.9295 56.4017C50.7499 56.4017 49.5181 55.2658 48.5723 53.7188L44.9826 55.8044C46.279 58.3659 48.9287 60.3203 53.0314 60.3203C57.2261 60.3203 60.3497 58.1426 60.3497 54.1653C60.3497 50.4777 58.2308 48.8386 54.4786 47.2269L53.3741 46.7549C51.4784 45.9324 50.6579 45.3978 50.6579 44.072C50.6579 43.0008 51.4804 42.1803 52.7729 42.1803C54.0399 42.1803 54.8565 42.7149 55.6144 44.072L59.0533 41.865C57.5982 39.3054 55.5811 38.3282 52.7729 38.3282C48.8288 38.3282 46.3045 40.8505 46.3045 44.164C46.3045 47.7576 48.4195 49.4594 51.6077 50.8165L52.7122 51.2904C54.7273 52.1717 55.9277 52.7083 55.9277 54.222C55.9277 55.4871 54.7586 56.4017 52.9295 56.4017ZM35.8137 56.3723C34.296 56.3723 33.6635 55.3344 32.9702 54.1006L29.3747 56.2783C30.4165 58.4834 32.465 60.3125 35.9998 60.3125C39.9145 60.3125 42.5954 58.2308 42.5954 53.658V38.5789H38.1794V53.5993C38.1794 55.8063 37.2629 56.3723 35.8118 56.3723H35.8137Z" fill="white"/>
</g>
</g>
<defs>
<clipPath id="clip0_4_35">
<rect width="47" height="47" fill="white" transform="translate(17 17)"/>
</clipPath>
</defs>
</svg>
