<svg width="80" height="107" viewBox="0 0 80 107" fill="none" xmlns="http://www.w3.org/2000/svg">
<circle cx="40" cy="40" r="40" fill="#0031AF"/>
<path d="M19 19H64L59.9071 63.9229L41.4507 69L23.0971 63.9208L19 19ZM55.6214 28.1937L27.3786 28.1875L27.835 33.65L49.5314 33.6542L48.985 39.3125H34.7564L35.2707 44.6729H48.5179L47.7336 52.0125L41.4979 53.6875L35.1636 52L34.7607 47.6042H29.1679L29.7893 55.6354L41.5 59.1833L53.0136 55.9958L55.6214 28.1937Z" fill="white"/>
<path d="M41.1234 89.9091H42.7086V98.5767C42.7086 99.4716 42.4977 100.271 42.0758 100.974C41.6582 101.673 41.068 102.224 40.3052 102.629C39.5424 103.03 38.6475 103.23 37.6206 103.23C36.5936 103.23 35.6987 103.03 34.9359 102.629C34.1731 102.224 33.5808 101.673 33.1589 100.974C32.7413 100.271 32.5325 99.4716 32.5325 98.5767V89.9091H34.1177V98.4489C34.1177 99.0881 34.2583 99.657 34.5396 100.156C34.8208 100.65 35.2214 101.04 35.7413 101.325C36.2654 101.607 36.8919 101.747 37.6206 101.747C38.3493 101.747 38.9757 101.607 39.4998 101.325C40.024 101.04 40.4245 100.65 40.7015 100.156C40.9828 99.657 41.1234 99.0881 41.1234 98.4489V89.9091ZM47.4595 89.9091V103H45.8743V89.9091H47.4595Z" fill="#0031AF"/>
</svg>
