<svg width="80" height="107" viewBox="0 0 80 107" fill="none" xmlns="http://www.w3.org/2000/svg">
<circle cx="40" cy="40" r="40" fill="#C1FF84"/>
<path d="M7.40456 103V89.9091H8.98979V95.7386H15.9699V89.9091H17.5551V103H15.9699V97.1449H8.98979V103H7.40456ZM23.4134 103.23C22.7913 103.23 22.2267 103.113 21.7195 102.879C21.2124 102.64 20.8097 102.297 20.5115 101.849C20.2132 101.398 20.064 100.852 20.064 100.213C20.064 99.6506 20.1748 99.1946 20.3964 98.8452C20.618 98.4915 20.9142 98.2145 21.2849 98.0142C21.6556 97.8139 22.0647 97.6648 22.5122 97.5668C22.9639 97.4645 23.4177 97.3835 23.8737 97.3239C24.4703 97.2472 24.9539 97.1896 25.3247 97.1513C25.6997 97.1087 25.9724 97.0384 26.1428 96.9403C26.3176 96.8423 26.4049 96.6719 26.4049 96.429V96.3778C26.4049 95.7472 26.2323 95.2571 25.8872 94.9077C25.5463 94.5582 25.0285 94.3835 24.3339 94.3835C23.6137 94.3835 23.0491 94.5412 22.64 94.8565C22.2309 95.1719 21.9433 95.5085 21.7771 95.8665L20.3453 95.3551C20.6009 94.7585 20.9419 94.294 21.368 93.9616C21.7984 93.625 22.2671 93.3906 22.7742 93.2585C23.2856 93.1222 23.7884 93.054 24.2828 93.054C24.5981 93.054 24.9603 93.0923 25.3694 93.169C25.7828 93.2415 26.1812 93.3928 26.5647 93.6229C26.9525 93.853 27.2742 94.2003 27.5299 94.6648C27.7856 95.1293 27.9134 95.7514 27.9134 96.5312V103H26.4049V101.67H26.3282C26.2259 101.884 26.0555 102.112 25.8169 102.354C25.5782 102.597 25.2607 102.804 24.8644 102.974C24.4681 103.145 23.9845 103.23 23.4134 103.23ZM23.6436 101.875C24.2401 101.875 24.743 101.758 25.1521 101.523C25.5654 101.289 25.8765 100.987 26.0853 100.616C26.2984 100.245 26.4049 99.8551 26.4049 99.446V98.0653C26.341 98.142 26.2004 98.2124 25.983 98.2763C25.77 98.3359 25.5228 98.3892 25.2416 98.4361C24.9646 98.4787 24.694 98.517 24.4298 98.5511C24.1698 98.581 23.9589 98.6065 23.797 98.6278C23.4049 98.679 23.0384 98.7621 22.6975 98.8771C22.3609 98.9879 22.0882 99.1562 21.8794 99.3821C21.6748 99.6037 21.5725 99.9062 21.5725 100.29C21.5725 100.814 21.7664 101.21 22.1542 101.479C22.5463 101.743 23.0427 101.875 23.6436 101.875ZM30.6668 103V93.1818H32.1242V94.6648H32.2265C32.4055 94.179 32.7293 93.7848 33.1981 93.4822C33.6668 93.1797 34.1952 93.0284 34.7833 93.0284C34.8941 93.0284 35.0326 93.0305 35.1988 93.0348C35.365 93.0391 35.4907 93.0455 35.5759 93.054V94.5881C35.5248 94.5753 35.4076 94.5561 35.2243 94.5305C35.0454 94.5007 34.8557 94.4858 34.6555 94.4858C34.1782 94.4858 33.752 94.5859 33.377 94.7862C33.0063 94.9822 32.7123 95.255 32.4949 95.6044C32.2819 95.9496 32.1753 96.3437 32.1753 96.7869V103H30.6668ZM40.7726 103.205C39.9545 103.205 39.2322 102.998 38.6057 102.585C37.9793 102.167 37.4893 101.579 37.1356 100.82C36.7819 100.058 36.605 99.1562 36.605 98.1165C36.605 97.0852 36.7819 96.1903 37.1356 95.4318C37.4893 94.6733 37.9814 94.0874 38.6121 93.674C39.2428 93.2607 39.9715 93.054 40.7982 93.054C41.4374 93.054 41.9424 93.1605 42.3131 93.3736C42.6881 93.5824 42.9736 93.821 43.1697 94.0895C43.3699 94.3537 43.5255 94.571 43.6363 94.7415H43.7641V89.9091H45.2726V103H43.8153V101.491H43.6363C43.5255 101.67 43.3678 101.896 43.1633 102.169C42.9587 102.437 42.6668 102.678 42.2876 102.891C41.9083 103.1 41.4033 103.205 40.7726 103.205ZM40.9772 101.849C41.5823 101.849 42.0937 101.692 42.5113 101.376C42.9289 101.057 43.2464 100.616 43.4637 100.053C43.681 99.4865 43.7897 98.8324 43.7897 98.0909C43.7897 97.358 43.6832 96.7166 43.4701 96.1669C43.257 95.6129 42.9417 95.1825 42.5241 94.8757C42.1064 94.5646 41.5908 94.4091 40.9772 94.4091C40.338 94.4091 39.8053 94.5732 39.3792 94.9013C38.9573 95.2251 38.6398 95.6662 38.4268 96.2244C38.218 96.7784 38.1135 97.4006 38.1135 98.0909C38.1135 98.7898 38.2201 99.4247 38.4332 99.9957C38.6505 100.562 38.9701 101.014 39.392 101.351C39.8181 101.683 40.3465 101.849 40.9772 101.849ZM49.7535 97.0938V103H48.2449V89.9091H49.7535V94.7159H49.8813C50.1114 94.2088 50.4566 93.8061 50.9168 93.5078C51.3813 93.2053 51.9992 93.054 52.7705 93.054C53.4395 93.054 54.0255 93.1882 54.5283 93.4567C55.0312 93.7209 55.4211 94.1278 55.6981 94.6776C55.9793 95.223 56.1199 95.9176 56.1199 96.7614V103H54.6114V96.8636C54.6114 96.0838 54.409 95.4808 54.0042 95.0547C53.6036 94.6243 53.0475 94.4091 52.3358 94.4091C51.8415 94.4091 51.3983 94.5135 51.0063 94.7223C50.6185 94.9311 50.3117 95.2358 50.0858 95.6364C49.8643 96.0369 49.7535 96.5227 49.7535 97.0938ZM61.7689 103.23C61.1468 103.23 60.5821 103.113 60.075 102.879C59.5679 102.64 59.1652 102.297 58.8669 101.849C58.5686 101.398 58.4195 100.852 58.4195 100.213C58.4195 99.6506 58.5303 99.1946 58.7519 98.8452C58.9735 98.4915 59.2696 98.2145 59.6404 98.0142C60.0111 97.8139 60.4202 97.6648 60.8676 97.5668C61.3193 97.4645 61.7732 97.3835 62.2291 97.3239C62.8257 97.2472 63.3094 97.1896 63.6801 97.1513C64.0551 97.1087 64.3279 97.0384 64.4983 96.9403C64.673 96.8423 64.7604 96.6719 64.7604 96.429V96.3778C64.7604 95.7472 64.5878 95.2571 64.2426 94.9077C63.9017 94.5582 63.384 94.3835 62.6894 94.3835C61.9692 94.3835 61.4046 94.5412 60.9955 94.8565C60.5864 95.1719 60.2987 95.5085 60.1325 95.8665L58.7007 95.3551C58.9564 94.7585 59.2973 94.294 59.7235 93.9616C60.1539 93.625 60.6226 93.3906 61.1297 93.2585C61.6411 93.1222 62.1439 93.054 62.6382 93.054C62.9536 93.054 63.3158 93.0923 63.7249 93.169C64.1382 93.2415 64.5367 93.3928 64.9202 93.6229C65.308 93.853 65.6297 94.2003 65.8854 94.6648C66.1411 95.1293 66.2689 95.7514 66.2689 96.5312V103H64.7604V101.67H64.6837C64.5814 101.884 64.411 102.112 64.1723 102.354C63.9337 102.597 63.6162 102.804 63.2199 102.974C62.8236 103.145 62.3399 103.23 61.7689 103.23ZM61.999 101.875C62.5956 101.875 63.0985 101.758 63.5075 101.523C63.9209 101.289 64.232 100.987 64.4408 100.616C64.6539 100.245 64.7604 99.8551 64.7604 99.446V98.0653C64.6965 98.142 64.5558 98.2124 64.3385 98.2763C64.1254 98.3359 63.8783 98.3892 63.597 98.4361C63.32 98.4787 63.0494 98.517 62.7852 98.5511C62.5253 98.581 62.3144 98.6065 62.1524 98.6278C61.7604 98.679 61.3939 98.7621 61.053 98.8771C60.7164 98.9879 60.4436 99.1562 60.2348 99.3821C60.0303 99.6037 59.928 99.9062 59.928 100.29C59.928 100.814 60.1219 101.21 60.5097 101.479C60.9017 101.743 61.3982 101.875 61.999 101.875ZM73.2922 93.1818V94.4602H68.2041V93.1818H73.2922ZM69.6871 90.8295H71.1956V100.188C71.1956 100.614 71.2574 100.933 71.3809 101.146C71.5088 101.355 71.6707 101.496 71.8667 101.568C72.067 101.636 72.278 101.67 72.4996 101.67C72.6657 101.67 72.8021 101.662 72.9086 101.645C73.0152 101.624 73.1004 101.607 73.1643 101.594L73.4711 102.949C73.3689 102.987 73.2261 103.026 73.0429 103.064C72.8596 103.107 72.6274 103.128 72.3461 103.128C71.92 103.128 71.5024 103.036 71.0933 102.853C70.6885 102.67 70.3518 102.391 70.0834 102.016C69.8192 101.641 69.6871 101.168 69.6871 100.597V90.8295Z" fill="#C1FF84"/>
<g clip-path="url(#clip0_13_404)">
<path d="M68.0001 49.346C68.0001 49.346 59.6227 48.2037 55.1961 47.876C50.9447 47.5616 45.9071 47.3801 40.5025 47.3801C35.0981 47.3801 30.0604 47.5616 25.8104 47.876C21.3824 48.2082 13.0061 49.7931 13.0061 49.7931V51.7855C13.0061 53.5565 25.3173 54.9955 40.5025 54.9955C55.6878 54.9955 67.9988 53.5565 67.9988 51.7855L68.0001 49.346ZM32.0481 22.9194C22.0076 26.2122 15.3026 34.9618 15.3019 44.7723V48.0575C18.885 47.2697 22.5382 46.7822 26.2169 46.601C26.1918 45.9662 26.179 45.3311 26.1782 44.696C26.1818 36.0757 28.4426 28.3187 32.0481 22.9194Z" fill="#F0D50C"/>
<path d="M65.7018 44.7723C65.7104 39.3893 63.6759 34.1726 59.9498 30.0234C61.5651 34.772 62.3699 39.7224 62.3356 44.6981C62.3356 45.6038 62.3105 46.4987 62.26 47.3834C63.4067 47.5459 64.5425 47.7677 65.6621 48.0476L65.7018 44.7723Z" fill="#FFF04D"/>
<path d="M65.7018 44.7723C65.7104 39.3893 63.6759 34.1726 59.9498 30.0234C61.5651 34.772 62.3699 39.7224 62.3356 44.6981C62.3356 45.6038 62.3105 46.4987 62.26 47.3834C63.4067 47.5459 64.5425 47.7677 65.6621 48.0476L65.7018 44.7723Z" fill="#FFEA00"/>
<path d="M59.9498 30.0222C53.1981 22.4895 42.0469 19.6508 32.0493 22.9194C28.4415 28.3187 26.182 36.0757 26.182 44.6971C26.182 45.3368 26.1946 45.9718 26.2202 46.602C29.9724 46.3352 34.3162 46.1703 38.968 46.1404H40.5049C47.7809 46.0601 55.0533 46.477 62.2622 47.3878C62.3114 46.5023 62.3365 45.6073 62.3382 44.7025C62.3723 39.7248 61.5666 34.7724 59.9498 30.0222Z" fill="#FFF04D"/>
<path d="M50.6391 31.5563L49.042 22.3692C48.9864 22.0381 48.8299 21.7283 48.5906 21.4757C48.3513 21.2232 48.0391 21.0383 47.6902 20.9426C43.0368 19.6857 38.0891 19.6857 33.4357 20.9426C33.0871 21.0385 32.7751 21.2234 32.5361 21.476C32.2971 21.7285 32.1407 22.0382 32.0852 22.3692L30.487 31.5563M40.5047 45.9454H38.9665C24.4957 46.0385 13.0069 47.4376 13.0069 49.15V51.6316C12.9837 51.777 13.0174 51.9252 13.1021 52.0498C13.837 51.5418 14.6818 51.1848 15.5794 51.0028C17.8655 50.4908 20.1891 50.1328 22.5318 49.9314C23.1894 49.865 23.8549 49.9284 24.4838 50.1174C25.1128 50.3063 25.6907 50.6164 26.1792 51.0271C27.9885 52.5517 30.3526 53.3972 32.8056 53.397H48.1989C50.6519 53.3971 53.016 52.5516 54.8254 51.0271C55.3138 50.6159 55.8919 50.3054 56.5211 50.1163C57.1503 49.9271 57.8161 49.8637 58.4741 49.9303C60.8163 50.1317 63.1394 50.4898 65.4251 51.0018C66.2752 51.1523 67.078 51.4756 67.7749 51.9482C67.8146 51.9846 67.8604 52.0168 67.8952 52.0498C67.9805 51.9246 68.0147 51.7755 67.9914 51.6292V49.1476C67.9998 47.3822 55.6888 45.9454 40.5047 45.9454Z" fill="#FFF04D"/>
<path d="M46.2965 38.5761L40.4976 41.8614V46.1282L46.2965 38.5761Z" fill="white"/>
<path d="M40.5037 46.1282V41.8614L34.7046 38.5761L40.5037 46.1282ZM34.7046 36.627L40.5037 39.7129V27.9944L34.7046 36.627Z" fill="#B58888"/>
<path d="M46.2965 36.627L40.4976 27.9934V39.7117L46.2965 36.6258V36.627Z" fill="white"/>
</g>
<defs>
<clipPath id="clip0_13_404">
<rect width="55" height="35" fill="white" transform="translate(13 20)"/>
</clipPath>
</defs>
</svg>
