<svg width="80" height="129" viewBox="0 0 80 129" fill="none" xmlns="http://www.w3.org/2000/svg">
<circle cx="40" cy="40" r="40" fill="#C9AE22"/>
<g clip-path="url(#clip0_4_165)">
<path d="M54.2812 16H27.7188C21.2467 16 16 21.2467 16 27.7188V54.2812C16 60.7533 21.2467 66 27.7188 66H54.2812C60.7533 66 66 60.7533 66 54.2812V27.7188C66 21.2467 60.7533 16 54.2812 16Z" fill="white"/>
<path d="M59.5312 51.7299C58.9627 51.9452 58.3349 51.9448 57.7666 51.7287C57.1983 51.5126 56.7289 51.0958 56.4471 50.557C54.677 47.9072 52.7223 45.377 50.8436 42.7924L50.0289 41.7065C47.7918 44.7037 45.5547 47.5815 43.5131 50.568C43.2472 51.0829 42.8031 51.4835 42.2637 51.6953C41.7243 51.9071 41.1263 51.9156 40.5811 51.7191L48.9756 40.4576L41.1674 30.2818C41.7294 30.0789 42.3443 30.0761 42.9082 30.2739C43.4721 30.4718 43.9505 30.8581 44.2625 31.3678C46.076 34.0178 48.0852 36.5481 50.0832 39.2305C52.0924 36.5697 54.0797 34.0285 55.9367 31.4004C56.2041 30.8939 56.6484 30.5033 57.185 30.3031C57.7217 30.1028 58.3132 30.1069 58.8471 30.3145L55.8172 34.3326C54.4598 36.1244 53.124 37.9272 51.7123 39.6756C51.5985 39.7774 51.5074 39.9021 51.4451 40.0415C51.3827 40.1809 51.3505 40.3319 51.3505 40.4847C51.3505 40.6374 51.3827 40.7884 51.4451 40.9278C51.5074 41.0672 51.5985 41.1919 51.7123 41.2938C54.3078 44.7363 56.8814 48.1897 59.5312 51.7299ZM20.4688 40.3164C20.6969 39.2305 20.8379 38.0467 21.1529 36.9391C23.0316 30.2604 30.6877 27.4801 35.9547 31.6178C39.0389 34.0397 39.81 37.4713 39.658 41.3373H22.2824C22 48.2441 26.9846 52.4143 33.3592 50.2857C34.3932 49.9158 35.3189 49.2942 36.0526 48.477C36.7864 47.6599 37.3051 46.6729 37.5619 45.6051C37.8986 44.5191 38.4416 44.3346 39.4732 44.6494C39.3034 45.9715 38.836 47.2379 38.1062 48.3533C37.3764 49.4687 36.4032 50.4041 35.2598 51.0893C33.3706 52.1224 31.2032 52.5317 29.0674 52.2587C26.9316 51.9856 24.9368 51.0442 23.3684 49.5689C21.8167 47.8243 20.8784 45.6198 20.6969 43.292C20.6969 42.9229 20.5557 42.5535 20.4797 42.2061C20.4725 41.5762 20.4689 40.9463 20.4688 40.3164ZM22.3041 39.8494H38.0182C37.9203 34.8432 34.7602 31.292 30.5467 31.2596C25.8553 31.1943 22.4996 34.6693 22.2932 39.8277L22.3041 39.8494Z" fill="#C9AE22"/>
</g>
<path d="M8.0198 103V89.9091H15.9204V91.3153H9.60503V95.7386H15.5113V97.1449H9.60503V101.594H16.0226V103H8.0198ZM19.6981 93.1818L22.0503 97.196L24.4026 93.1818H26.1412L22.9708 98.0909L26.1412 103H24.4026L22.0503 99.1903L19.6981 103H17.9594L21.0787 98.0909L17.9594 93.1818H19.6981ZM28.2938 106.682V93.1818H29.7512V94.7415H29.9301C30.0409 94.571 30.1943 94.3537 30.3904 94.0895C30.5906 93.821 30.8762 93.5824 31.2469 93.3736C31.6219 93.1605 32.129 93.054 32.7682 93.054C33.5949 93.054 34.3236 93.2607 34.9543 93.674C35.585 94.0874 36.0771 94.6733 36.4308 95.4318C36.7845 96.1903 36.9614 97.0852 36.9614 98.1165C36.9614 99.1562 36.7845 100.058 36.4308 100.82C36.0771 101.579 35.5871 102.167 34.9607 102.585C34.3343 102.998 33.6119 103.205 32.7938 103.205C32.1631 103.205 31.6581 103.1 31.2789 102.891C30.8996 102.678 30.6077 102.437 30.4031 102.169C30.1986 101.896 30.0409 101.67 29.9301 101.491H29.8023V106.682H28.2938ZM29.7767 98.0909C29.7767 98.8324 29.8854 99.4865 30.1027 100.053C30.32 100.616 30.6375 101.057 31.0551 101.376C31.4727 101.692 31.9841 101.849 32.5892 101.849C33.2199 101.849 33.7462 101.683 34.1681 101.351C34.5942 101.014 34.9138 100.562 35.1269 99.9957C35.3442 99.4247 35.4529 98.7898 35.4529 98.0909C35.4529 97.4006 35.3463 96.7784 35.1333 96.2244C34.9244 95.6662 34.607 95.2251 34.1808 94.9013C33.759 94.5732 33.2284 94.4091 32.5892 94.4091C31.9756 94.4091 31.46 94.5646 31.0423 94.8757C30.6247 95.1825 30.3094 95.6129 30.0963 96.1669C29.8833 96.7166 29.7767 97.358 29.7767 98.0909ZM39.2625 103V93.1818H40.7199V94.6648H40.8222C41.0012 94.179 41.325 93.7848 41.7938 93.4822C42.2625 93.1797 42.7909 93.0284 43.379 93.0284C43.4898 93.0284 43.6283 93.0305 43.7945 93.0348C43.9607 93.0391 44.0864 93.0455 44.1716 93.054V94.5881C44.1205 94.5753 44.0033 94.5561 43.82 94.5305C43.6411 94.5007 43.4514 94.4858 43.2512 94.4858C42.7739 94.4858 42.3477 94.5859 41.9727 94.7862C41.602 94.9822 41.308 95.255 41.0906 95.6044C40.8776 95.9496 40.771 96.3437 40.771 96.7869V103H39.2625ZM49.7774 103.205C48.8314 103.205 48.0154 102.996 47.3293 102.578C46.6475 102.156 46.1212 101.568 45.7504 100.814C45.384 100.055 45.2007 99.1733 45.2007 98.1676C45.2007 97.1619 45.384 96.2756 45.7504 95.5085C46.1212 94.7372 46.6368 94.1364 47.2973 93.706C47.9621 93.2713 48.7377 93.054 49.624 93.054C50.1354 93.054 50.6404 93.1392 51.1389 93.3097C51.6375 93.4801 52.0914 93.7571 52.5004 94.1406C52.9095 94.5199 53.2355 95.0227 53.4784 95.6491C53.7213 96.2756 53.8428 97.0469 53.8428 97.9631V98.6023H46.2746V97.2983H52.3087C52.3087 96.7443 52.1979 96.25 51.9763 95.8153C51.759 95.3807 51.4479 95.0376 51.0431 94.7862C50.6425 94.5348 50.1695 94.4091 49.624 94.4091C49.0232 94.4091 48.5033 94.5582 48.0644 94.8565C47.6297 95.1506 47.2952 95.5341 47.0608 96.0071C46.8264 96.4801 46.7093 96.9872 46.7093 97.5284V98.3977C46.7093 99.1392 46.8371 99.7678 47.0928 100.283C47.3527 100.795 47.7128 101.185 48.173 101.453C48.6333 101.717 49.1681 101.849 49.7774 101.849C50.1737 101.849 50.5317 101.794 50.8513 101.683C51.1752 101.568 51.4543 101.398 51.6887 101.172C51.923 100.942 52.1041 100.656 52.232 100.315L53.6894 100.724C53.536 101.219 53.2781 101.653 52.9159 102.028C52.5537 102.399 52.1063 102.689 51.5736 102.898C51.0409 103.102 50.4422 103.205 49.7774 103.205ZM63.0921 95.3807L61.7369 95.7642C61.6517 95.5384 61.526 95.3189 61.3598 95.1058C61.1979 94.8885 60.9763 94.7095 60.695 94.5689C60.4138 94.4283 60.0537 94.358 59.6148 94.358C59.0139 94.358 58.5132 94.4964 58.1127 94.7734C57.7164 95.0462 57.5182 95.3935 57.5182 95.8153C57.5182 96.1903 57.6546 96.4865 57.9273 96.7038C58.2 96.9212 58.6262 97.1023 59.2057 97.2472L60.6631 97.6051C61.5409 97.8182 62.195 98.1442 62.6254 98.5831C63.0558 99.0178 63.271 99.5781 63.271 100.264C63.271 100.827 63.1091 101.33 62.7852 101.773C62.4656 102.216 62.0182 102.565 61.4429 102.821C60.8676 103.077 60.1986 103.205 59.4358 103.205C58.4344 103.205 57.6056 102.987 56.9493 102.553C56.2931 102.118 55.8776 101.483 55.7029 100.648L57.1347 100.29C57.271 100.818 57.5289 101.214 57.9081 101.479C58.2916 101.743 58.7923 101.875 59.4102 101.875C60.1134 101.875 60.6716 101.726 61.085 101.428C61.5026 101.125 61.7114 100.763 61.7114 100.341C61.7114 100 61.5921 99.7145 61.3534 99.4844C61.1148 99.25 60.7483 99.0753 60.254 98.9602L58.6176 98.5767C57.7185 98.3636 57.058 98.0334 56.6361 97.5859C56.2185 97.1342 56.0097 96.5696 56.0097 95.892C56.0097 95.3381 56.1652 94.848 56.4763 94.4219C56.7916 93.9957 57.2199 93.6612 57.7611 93.4183C58.3066 93.1754 58.9244 93.054 59.6148 93.054C60.5864 93.054 61.3492 93.267 61.9031 93.6932C62.4614 94.1193 62.8577 94.6818 63.0921 95.3807ZM72.4964 95.3807L71.1412 95.7642C71.056 95.5384 70.9303 95.3189 70.7641 95.1058C70.6022 94.8885 70.3806 94.7095 70.0993 94.5689C69.8181 94.4283 69.458 94.358 69.0191 94.358C68.4182 94.358 67.9175 94.4964 67.517 94.7734C67.1206 95.0462 66.9225 95.3935 66.9225 95.8153C66.9225 96.1903 67.0589 96.4865 67.3316 96.7038C67.6043 96.9212 68.0305 97.1023 68.61 97.2472L70.0674 97.6051C70.9452 97.8182 71.5993 98.1442 72.0297 98.5831C72.4601 99.0178 72.6753 99.5781 72.6753 100.264C72.6753 100.827 72.5134 101.33 72.1895 101.773C71.8699 102.216 71.4225 102.565 70.8472 102.821C70.2719 103.077 69.6029 103.205 68.8401 103.205C67.8387 103.205 67.0099 102.987 66.3536 102.553C65.6974 102.118 65.2819 101.483 65.1072 100.648L66.539 100.29C66.6753 100.818 66.9331 101.214 67.3124 101.479C67.6959 101.743 68.1966 101.875 68.8145 101.875C69.5177 101.875 70.0759 101.726 70.4893 101.428C70.9069 101.125 71.1157 100.763 71.1157 100.341C71.1157 100 70.9964 99.7145 70.7577 99.4844C70.5191 99.25 70.1526 99.0753 69.6583 98.9602L68.0219 98.5767C67.1228 98.3636 66.4623 98.0334 66.0404 97.5859C65.6228 97.1342 65.414 96.5696 65.414 95.892C65.414 95.3381 65.5695 94.848 65.8806 94.4219C66.1959 93.9957 66.6242 93.6612 67.1654 93.4183C67.7108 93.1754 68.3287 93.054 69.0191 93.054C69.9907 93.054 70.7535 93.267 71.3074 93.6932C71.8657 94.1193 72.262 94.6818 72.4964 95.3807ZM33.1637 125.102C32.8484 125.102 32.5778 124.989 32.3519 124.763C32.1261 124.538 32.0131 124.267 32.0131 123.952C32.0131 123.636 32.1261 123.366 32.3519 123.14C32.5778 122.914 32.8484 122.801 33.1637 122.801C33.479 122.801 33.7496 122.914 33.9755 123.14C34.2013 123.366 34.3143 123.636 34.3143 123.952C34.3143 124.161 34.261 124.352 34.1545 124.527C34.0522 124.702 33.9137 124.842 33.739 124.949C33.5685 125.051 33.3768 125.102 33.1637 125.102ZM37.0213 115.182H38.5298V125.716C38.5298 126.321 38.4254 126.845 38.2166 127.288C38.0121 127.732 37.701 128.075 37.2834 128.317C36.87 128.56 36.348 128.682 35.7173 128.682C35.6662 128.682 35.6151 128.682 35.5639 128.682C35.5128 128.682 35.4616 128.682 35.4105 128.682V127.276C35.4616 127.276 35.5085 127.276 35.5511 127.276C35.5938 127.276 35.6406 127.276 35.6918 127.276C36.152 127.276 36.4886 127.139 36.7017 126.866C36.9148 126.598 37.0213 126.214 37.0213 125.716V115.182ZM37.7628 113.545C37.4688 113.545 37.2152 113.445 37.0021 113.245C36.7933 113.045 36.6889 112.804 36.6889 112.523C36.6889 112.241 36.7933 112.001 37.0021 111.8C37.2152 111.6 37.4688 111.5 37.7628 111.5C38.0568 111.5 38.3082 111.6 38.517 111.8C38.7301 112.001 38.8366 112.241 38.8366 112.523C38.8366 112.804 38.7301 113.045 38.517 113.245C38.3082 113.445 38.0568 113.545 37.7628 113.545ZM48.2473 117.381L46.8922 117.764C46.807 117.538 46.6813 117.319 46.5151 117.106C46.3532 116.888 46.1316 116.71 45.8503 116.569C45.5691 116.428 45.209 116.358 44.7701 116.358C44.1692 116.358 43.6685 116.496 43.2679 116.773C42.8716 117.046 42.6735 117.393 42.6735 117.815C42.6735 118.19 42.8098 118.487 43.0826 118.704C43.3553 118.921 43.7814 119.102 44.361 119.247L45.8184 119.605C46.6962 119.818 47.3503 120.144 47.7807 120.583C48.2111 121.018 48.4263 121.578 48.4263 122.264C48.4263 122.827 48.2644 123.33 47.9405 123.773C47.6209 124.216 47.1735 124.565 46.5982 124.821C46.0229 125.077 45.3539 125.205 44.5911 125.205C43.5897 125.205 42.7608 124.987 42.1046 124.553C41.4483 124.118 41.0328 123.483 40.8581 122.648L42.29 122.29C42.4263 122.818 42.6841 123.214 43.0634 123.479C43.4469 123.743 43.9476 123.875 44.5655 123.875C45.2686 123.875 45.8269 123.726 46.2402 123.428C46.6578 123.125 46.8667 122.763 46.8667 122.341C46.8667 122 46.7473 121.714 46.5087 121.484C46.2701 121.25 45.9036 121.075 45.4093 120.96L43.7729 120.577C42.8738 120.364 42.2132 120.033 41.7914 119.586C41.3738 119.134 41.165 118.57 41.165 117.892C41.165 117.338 41.3205 116.848 41.6316 116.422C41.9469 115.996 42.3752 115.661 42.9164 115.418C43.4618 115.175 44.0797 115.054 44.7701 115.054C45.7417 115.054 46.5044 115.267 47.0584 115.693C47.6167 116.119 48.013 116.682 48.2473 117.381Z" fill="#C9AE22"/>
<defs>
<clipPath id="clip0_4_165">
<rect width="50" height="50" fill="white" transform="translate(15 16)"/>
</clipPath>
</defs>
</svg>
