<svg width="80" height="107" viewBox="0 0 80 107" fill="none" xmlns="http://www.w3.org/2000/svg">
<circle cx="40" cy="40" r="40" fill="#BA3636"/>
<path d="M12.3049 94H10.7196C10.6259 93.544 10.4618 93.1435 10.2275 92.7983C9.99734 92.4531 9.71609 92.1634 9.3837 91.929C9.05558 91.6903 8.69123 91.5114 8.29066 91.392C7.89009 91.2727 7.47248 91.2131 7.03782 91.2131C6.24521 91.2131 5.52717 91.4134 4.8837 91.8139C4.2445 92.2145 3.73526 92.8047 3.356 93.5845C2.981 94.3643 2.7935 95.321 2.7935 96.4545C2.7935 97.5881 2.981 98.5447 3.356 99.3246C3.73526 100.104 4.2445 100.695 4.8837 101.095C5.52717 101.496 6.24521 101.696 7.03782 101.696C7.47248 101.696 7.89009 101.636 8.29066 101.517C8.69123 101.398 9.05558 101.221 9.3837 100.987C9.71609 100.748 9.99734 100.456 10.2275 100.111C10.4618 99.7614 10.6259 99.3608 10.7196 98.9091H12.3049C12.1855 99.5781 11.9682 100.177 11.6529 100.705C11.3375 101.234 10.9455 101.683 10.4767 102.054C10.008 102.42 9.48171 102.7 8.89791 102.891C8.31836 103.083 7.69833 103.179 7.03782 103.179C5.92134 103.179 4.92844 102.906 4.05913 102.361C3.18981 101.815 2.50586 101.04 2.00728 100.034C1.5087 99.0284 1.25941 97.8352 1.25941 96.4545C1.25941 95.0739 1.5087 93.8807 2.00728 92.875C2.50586 91.8693 3.18981 91.0938 4.05913 90.5483C4.92844 90.0028 5.92134 89.7301 7.03782 89.7301C7.69833 89.7301 8.31836 89.826 8.89791 90.0178C9.48171 90.2095 10.008 90.4908 10.4767 90.8615C10.9455 91.228 11.3375 91.6754 11.6529 92.2038C11.9682 92.728 12.1855 93.3267 12.3049 94ZM18.6506 103.205C17.7642 103.205 16.9865 102.994 16.3175 102.572C15.6527 102.15 15.1328 101.56 14.7578 100.801C14.3871 100.043 14.2017 99.1562 14.2017 98.142C14.2017 97.1193 14.3871 96.2266 14.7578 95.4638C15.1328 94.701 15.6527 94.1087 16.3175 93.6868C16.9865 93.2649 17.7642 93.054 18.6506 93.054C19.5369 93.054 20.3125 93.2649 20.9773 93.6868C21.6463 94.1087 22.1662 94.701 22.5369 95.4638C22.9119 96.2266 23.0994 97.1193 23.0994 98.142C23.0994 99.1562 22.9119 100.043 22.5369 100.801C22.1662 101.56 21.6463 102.15 20.9773 102.572C20.3125 102.994 19.5369 103.205 18.6506 103.205ZM18.6506 101.849C19.3239 101.849 19.8778 101.677 20.3125 101.332C20.7472 100.987 21.0689 100.533 21.2777 99.9702C21.4865 99.4077 21.5909 98.7983 21.5909 98.142C21.5909 97.4858 21.4865 96.8743 21.2777 96.3075C21.0689 95.7408 20.7472 95.2827 20.3125 94.9332C19.8778 94.5838 19.3239 94.4091 18.6506 94.4091C17.9773 94.4091 17.4233 94.5838 16.9886 94.9332C16.554 95.2827 16.2322 95.7408 16.0234 96.3075C15.8146 96.8743 15.7102 97.4858 15.7102 98.142C15.7102 98.7983 15.8146 99.4077 16.0234 99.9702C16.2322 100.533 16.554 100.987 16.9886 101.332C17.4233 101.677 17.9773 101.849 18.6506 101.849ZM31.5897 98.9858V93.1818H33.0982V103H31.5897V101.338H31.4874C31.2573 101.837 30.8993 102.261 30.4135 102.61C29.9277 102.955 29.3141 103.128 28.5726 103.128C27.959 103.128 27.4135 102.994 26.9363 102.725C26.459 102.452 26.084 102.043 25.8113 101.498C25.5385 100.948 25.4022 100.256 25.4022 99.4205V93.1818H26.9107V99.3182C26.9107 100.034 27.111 100.605 27.5115 101.031C27.9164 101.457 28.432 101.67 29.0584 101.67C29.4334 101.67 29.8148 101.575 30.2026 101.383C30.5946 101.191 30.9228 100.897 31.187 100.501C31.4554 100.104 31.5897 99.5994 31.5897 98.9858ZM39.8498 103.205C38.9293 103.205 38.1367 102.987 37.4719 102.553C36.8072 102.118 36.2958 101.519 35.9379 100.756C35.5799 99.9936 35.4009 99.1222 35.4009 98.142C35.4009 97.1449 35.5842 96.2649 35.9506 95.5021C36.3214 94.7351 36.837 94.1364 37.4975 93.706C38.1623 93.2713 38.9379 93.054 39.8242 93.054C40.5146 93.054 41.1367 93.1818 41.6907 93.4375C42.2447 93.6932 42.6985 94.0511 43.0522 94.5114C43.4059 94.9716 43.6254 95.5085 43.7106 96.1222H42.2021C42.087 95.6747 41.8313 95.2784 41.435 94.9332C41.043 94.5838 40.5146 94.4091 39.8498 94.4091C39.2617 94.4091 38.7461 94.5625 38.3029 94.8693C37.864 95.1719 37.521 95.6001 37.2738 96.1541C37.0309 96.7038 36.9094 97.3494 36.9094 98.0909C36.9094 98.8494 37.0288 99.5099 37.2674 100.072C37.5103 100.635 37.8512 101.072 38.2901 101.383C38.7333 101.694 39.2532 101.849 39.8498 101.849C40.2418 101.849 40.5977 101.781 40.9173 101.645C41.2369 101.509 41.5075 101.312 41.729 101.057C41.9506 100.801 42.1083 100.494 42.2021 100.136H43.7106C43.6254 100.716 43.4144 101.238 43.0778 101.702C42.7454 102.163 42.3043 102.529 41.7546 102.802C41.2092 103.07 40.5742 103.205 39.8498 103.205ZM47.4244 97.0938V103H45.9158V89.9091H47.4244V94.7159H47.5522C47.7823 94.2088 48.1275 93.8061 48.5877 93.5078C49.0522 93.2053 49.6701 93.054 50.4414 93.054C51.1104 93.054 51.6964 93.1882 52.1992 93.4567C52.7021 93.7209 53.092 94.1278 53.369 94.6776C53.6502 95.223 53.7908 95.9176 53.7908 96.7614V103H52.2823V96.8636C52.2823 96.0838 52.0799 95.4808 51.6751 95.0547C51.2745 94.6243 50.7184 94.4091 50.0067 94.4091C49.5124 94.4091 49.0692 94.5135 48.6772 94.7223C48.2894 94.9311 47.9826 95.2358 47.7567 95.6364C47.5352 96.0369 47.4244 96.5227 47.4244 97.0938ZM60.7949 103H56.7551V89.9091H60.9739C62.2438 89.9091 63.3304 90.1712 64.2338 90.6953C65.1373 91.2152 65.8297 91.9631 66.3113 92.9389C66.7928 93.9105 67.0336 95.0739 67.0336 96.429C67.0336 97.7926 66.7907 98.9666 66.3049 99.951C65.8191 100.931 65.1117 101.685 64.1827 102.214C63.2537 102.738 62.1245 103 60.7949 103ZM58.3404 101.594H60.6926C61.775 101.594 62.6721 101.385 63.3837 100.967C64.0953 100.55 64.6259 99.9553 64.9753 99.1839C65.3248 98.4126 65.4995 97.4943 65.4995 96.429C65.4995 95.3722 65.3269 94.4624 64.9817 93.6996C64.6365 92.9325 64.1209 92.3445 63.4348 91.9354C62.7488 91.522 61.8944 91.3153 60.8716 91.3153H58.3404V101.594ZM69.6926 103V89.9091H74.2694C75.1813 89.9091 75.9334 90.0668 76.5257 90.3821C77.1181 90.6932 77.5591 91.1129 77.8489 91.6413C78.1387 92.1655 78.2836 92.7472 78.2836 93.3864C78.2836 93.9489 78.1834 94.4134 77.9831 94.7798C77.7871 95.1463 77.5272 95.4361 77.2033 95.6491C76.8837 95.8622 76.5364 96.0199 76.1614 96.1222V96.25C76.562 96.2756 76.9647 96.4162 77.3695 96.6719C77.7743 96.9276 78.1131 97.294 78.3858 97.7713C78.6586 98.2486 78.7949 98.8324 78.7949 99.5227C78.7949 100.179 78.6458 100.769 78.3475 101.293C78.0492 101.817 77.5783 102.233 76.9348 102.54C76.2914 102.847 75.454 103 74.4228 103H69.6926ZM71.2779 101.594H74.4228C75.4583 101.594 76.1934 101.393 76.628 100.993C77.0669 100.588 77.2864 100.098 77.2864 99.5227C77.2864 99.0795 77.1735 98.6705 76.9476 98.2955C76.7218 97.9162 76.4 97.6136 75.9824 97.3878C75.5648 97.1577 75.0705 97.0426 74.4995 97.0426H71.2779V101.594ZM71.2779 95.6619H74.2182C74.6955 95.6619 75.1259 95.5682 75.5094 95.3807C75.8972 95.1932 76.204 94.929 76.4299 94.5881C76.66 94.2472 76.775 93.8466 76.775 93.3864C76.775 92.8111 76.5748 92.3232 76.1742 91.9226C75.7736 91.5178 75.1387 91.3153 74.2694 91.3153H71.2779V95.6619Z" fill="#BA3636"/>
<path d="M55.625 46.4687C55.625 48.5417 54.5333 49.5562 52.5 49.5937H27.5C25.4667 49.5562 24.375 48.5417 24.375 46.4687C24.375 44.3958 25.4667 43.3812 27.5 43.3437H52.5C54.5333 43.3812 55.625 44.3958 55.625 46.4687ZM52.5 51.1562H27.5C25.4667 51.1937 24.375 52.2083 24.375 54.2812C24.375 56.3542 25.4667 57.3687 27.5 57.4062H52.5C54.5333 57.3687 55.625 56.3542 55.625 54.2812C55.625 52.2083 54.5333 51.1937 52.5 51.1562ZM60.3125 33.9729C58.2792 34.0083 57.1875 35.0208 57.1875 37.0937V54.2812C57.1875 56.3542 58.2792 57.3687 60.3125 57.4062V57.4021C63.3625 57.2937 65 54.2479 65 48.0312V40.2187C65 36.0729 63.3625 34.0437 60.3125 33.9729ZM19.6875 33.9708C16.6375 34.0458 15 36.0771 15 40.2208V48.0333C15 54.25 16.6375 57.2958 19.6875 57.4042C21.7208 57.3687 22.8125 56.3562 22.8125 54.2833V37.0958C22.8125 35.0229 21.7208 34.0083 19.6875 33.9708ZM60.3125 32.4083C60.3125 27.2292 57.5833 24.6896 52.5 24.6V24.5958H27.5V24.6C22.4167 24.6896 19.6875 27.2292 19.6875 32.4083C22.7375 32.4625 24.375 33.9875 24.375 37.0958C24.375 40.2042 26.0125 41.7271 29.0625 41.7812L50.9375 41.7833C53.9875 41.7292 55.625 40.2042 55.625 37.0958C55.625 33.9875 57.2625 32.4625 60.3125 32.4083Z" fill="white"/>
</svg>
