<svg width="80" height="106" viewBox="0 0 80 106" fill="none" xmlns="http://www.w3.org/2000/svg">
<circle cx="40" cy="40" r="40" fill="#0377FF"/>
<path d="M2.15976 102V89.6364H6.4822C7.34347 89.6364 8.05381 89.7853 8.61324 90.0831C9.17266 90.3769 9.58921 90.7733 9.86288 91.2724C10.1366 91.7674 10.2734 92.3168 10.2734 92.9205C10.2734 93.4517 10.1788 93.8904 9.98966 94.2365C9.80453 94.5826 9.55902 94.8563 9.25315 95.0575C8.95131 95.2588 8.6233 95.4077 8.26913 95.5043V95.625C8.64745 95.6491 9.02777 95.782 9.41011 96.0234C9.79245 96.2649 10.1124 96.611 10.37 97.0618C10.6276 97.5125 10.7563 98.0639 10.7563 98.7159C10.7563 99.3357 10.6155 99.8931 10.3338 100.388C10.052 100.883 9.60732 101.276 8.9996 101.565C8.39188 101.855 7.60104 102 6.62709 102H2.15976ZM3.65692 100.672H6.62709C7.60507 100.672 8.29932 100.483 8.70983 100.104C9.12436 99.7221 9.33163 99.2592 9.33163 98.7159C9.33163 98.2973 9.22498 97.911 9.01167 97.5568C8.79837 97.1986 8.49451 96.9129 8.1001 96.6996C7.70568 96.4822 7.23883 96.3736 6.69953 96.3736H3.65692V100.672ZM3.65692 95.0696H6.4339C6.88466 95.0696 7.29115 94.9811 7.65336 94.804C8.01961 94.6269 8.30938 94.3774 8.52268 94.0554C8.74001 93.7334 8.84868 93.3551 8.84868 92.9205C8.84868 92.3771 8.65952 91.9163 8.28121 91.538C7.90289 91.1557 7.30322 90.9645 6.4822 90.9645H3.65692V95.0696ZM16.7903 102.193C15.9531 102.193 15.2186 101.994 14.5868 101.596C13.9589 101.197 13.4679 100.64 13.1138 99.9233C12.7636 99.2069 12.5886 98.3698 12.5886 97.4119C12.5886 96.446 12.7636 95.6029 13.1138 94.8825C13.4679 94.162 13.9589 93.6026 14.5868 93.2042C15.2186 92.8058 15.9531 92.6065 16.7903 92.6065C17.6274 92.6065 18.3599 92.8058 18.9877 93.2042C19.6196 93.6026 20.1106 94.162 20.4607 94.8825C20.8149 95.6029 20.992 96.446 20.992 97.4119C20.992 98.3698 20.8149 99.2069 20.4607 99.9233C20.1106 100.64 19.6196 101.197 18.9877 101.596C18.3599 101.994 17.6274 102.193 16.7903 102.193ZM16.7903 100.913C17.4262 100.913 17.9494 100.75 18.3599 100.424C18.7704 100.098 19.0742 99.6697 19.2714 99.1385C19.4686 98.6072 19.5673 98.0317 19.5673 97.4119C19.5673 96.7921 19.4686 96.2146 19.2714 95.6793C19.0742 95.1441 18.7704 94.7114 18.3599 94.3814C17.9494 94.0514 17.4262 93.8864 16.7903 93.8864C16.1544 93.8864 15.6312 94.0514 15.2207 94.3814C14.8101 94.7114 14.5063 95.1441 14.3091 95.6793C14.1119 96.2146 14.0133 96.7921 14.0133 97.4119C14.0133 98.0317 14.1119 98.6072 14.3091 99.1385C14.5063 99.6697 14.8101 100.098 15.2207 100.424C15.6312 100.75 16.1544 100.913 16.7903 100.913ZM26.9338 102.193C26.0967 102.193 25.3622 101.994 24.7303 101.596C24.1025 101.197 23.6115 100.64 23.2573 99.9233C22.9072 99.2069 22.7321 98.3698 22.7321 97.4119C22.7321 96.446 22.9072 95.6029 23.2573 94.8825C23.6115 94.162 24.1025 93.6026 24.7303 93.2042C25.3622 92.8058 26.0967 92.6065 26.9338 92.6065C27.7709 92.6065 28.5034 92.8058 29.1313 93.2042C29.7631 93.6026 30.2541 94.162 30.6043 94.8825C30.9584 95.6029 31.1355 96.446 31.1355 97.4119C31.1355 98.3698 30.9584 99.2069 30.6043 99.9233C30.2541 100.64 29.7631 101.197 29.1313 101.596C28.5034 101.994 27.7709 102.193 26.9338 102.193ZM26.9338 100.913C27.5697 100.913 28.0929 100.75 28.5034 100.424C28.9139 100.098 29.2178 99.6697 29.415 99.1385C29.6122 98.6072 29.7108 98.0317 29.7108 97.4119C29.7108 96.7921 29.6122 96.2146 29.415 95.6793C29.2178 95.1441 28.9139 94.7114 28.5034 94.3814C28.0929 94.0514 27.5697 93.8864 26.9338 93.8864C26.2979 93.8864 25.7747 94.0514 25.3642 94.3814C24.9537 94.7114 24.6498 95.1441 24.4526 95.6793C24.2554 96.2146 24.1568 96.7921 24.1568 97.4119C24.1568 98.0317 24.2554 98.6072 24.4526 99.1385C24.6498 99.6697 24.9537 100.098 25.3642 100.424C25.7747 100.75 26.2979 100.913 26.9338 100.913ZM37.343 92.7273V93.9347H32.5376V92.7273H37.343ZM33.9382 90.5057H35.3629V99.3438C35.3629 99.7462 35.4212 100.048 35.538 100.249C35.6587 100.446 35.8116 100.579 35.9968 100.648C36.1859 100.712 36.3851 100.744 36.5944 100.744C36.7514 100.744 36.8802 100.736 36.9808 100.72C37.0814 100.7 37.1619 100.684 37.2223 100.672L37.512 101.952C37.4154 101.988 37.2806 102.024 37.1076 102.06C36.9345 102.101 36.7152 102.121 36.4495 102.121C36.0471 102.121 35.6527 102.034 35.2663 101.861C34.884 101.688 34.566 101.424 34.3125 101.07C34.0629 100.716 33.9382 100.269 33.9382 99.7301V90.5057ZM45.8883 94.804L44.6084 95.1662C44.528 94.9529 44.4092 94.7456 44.2523 94.5444C44.0993 94.3391 43.89 94.1701 43.6244 94.0373C43.3588 93.9045 43.0187 93.8381 42.6042 93.8381C42.0367 93.8381 41.5638 93.9689 41.1855 94.2305C40.8112 94.488 40.6241 94.8161 40.6241 95.2145C40.6241 95.5687 40.7529 95.8484 41.0104 96.0536C41.268 96.2589 41.6705 96.4299 42.2178 96.5668L43.5942 96.9048C44.4233 97.1061 45.0411 97.4139 45.4476 97.8285C45.8541 98.239 46.0573 98.7682 46.0573 99.4162C46.0573 99.9474 45.9044 100.422 45.5985 100.841C45.2967 101.259 44.8741 101.589 44.3307 101.831C43.7874 102.072 43.1556 102.193 42.4351 102.193C41.4894 102.193 40.7066 101.988 40.0868 101.577C39.467 101.167 39.0746 100.567 38.9096 99.7784L40.2619 99.4403C40.3906 99.9394 40.6341 100.314 40.9923 100.563C41.3545 100.813 41.8274 100.938 42.411 100.938C43.0751 100.938 43.6023 100.797 43.9927 100.515C44.3871 100.229 44.5843 99.8871 44.5843 99.4886C44.5843 99.1667 44.4716 98.897 44.2462 98.6797C44.0208 98.4583 43.6747 98.2933 43.2079 98.1847L41.6624 97.8224C40.8132 97.6212 40.1894 97.3093 39.791 96.8867C39.3966 96.4601 39.1994 95.9268 39.1994 95.2869C39.1994 94.7637 39.3463 94.3009 39.64 93.8984C39.9379 93.496 40.3423 93.18 40.8535 92.9506C41.3686 92.7212 41.9522 92.6065 42.6042 92.6065C43.5218 92.6065 44.2422 92.8078 44.7654 93.2102C45.2926 93.6127 45.6669 94.1439 45.8883 94.804ZM52.2346 92.7273V93.9347H47.4292V92.7273H52.2346ZM48.8298 90.5057H50.2545V99.3438C50.2545 99.7462 50.3128 100.048 50.4296 100.249C50.5503 100.446 50.7032 100.579 50.8884 100.648C51.0775 100.712 51.2767 100.744 51.486 100.744C51.643 100.744 51.7718 100.736 51.8724 100.72C51.973 100.7 52.0535 100.684 52.1139 100.672L52.4036 101.952C52.307 101.988 52.1722 102.024 51.9992 102.06C51.8261 102.101 51.6068 102.121 51.3411 102.121C50.9387 102.121 50.5443 102.034 50.1579 101.861C49.7756 101.688 49.4576 101.424 49.2041 101.07C48.9545 100.716 48.8298 100.269 48.8298 99.7301V90.5057ZM54.3777 102V92.7273H55.7541V94.1278H55.8507C56.0198 93.669 56.3256 93.2968 56.7683 93.011C57.211 92.7253 57.7101 92.5824 58.2655 92.5824C58.3701 92.5824 58.5009 92.5844 58.6579 92.5884C58.8149 92.5924 58.9336 92.5985 59.0141 92.6065V94.0554C58.9658 94.0433 58.8551 94.0252 58.682 94.0011C58.513 93.9729 58.3339 93.9588 58.1448 93.9588C57.694 93.9588 57.2915 94.0534 56.9374 94.2425C56.5872 94.4277 56.3095 94.6853 56.1043 95.0153C55.903 95.3413 55.8024 95.7135 55.8024 96.1321V102H54.3777ZM63.4316 102.217C62.844 102.217 62.3107 102.107 61.8318 101.885C61.3529 101.66 60.9726 101.336 60.6908 100.913C60.4091 100.487 60.2682 99.9716 60.2682 99.3679C60.2682 98.8366 60.3729 98.406 60.5822 98.076C60.7914 97.742 61.0712 97.4804 61.4213 97.2912C61.7714 97.102 62.1578 96.9612 62.5804 96.8686C63.007 96.772 63.4356 96.6955 63.8663 96.6392C64.4297 96.5668 64.8865 96.5124 65.2366 96.4762C65.5908 96.436 65.8484 96.3696 66.0094 96.277C66.1744 96.1844 66.2569 96.0234 66.2569 95.794V95.7457C66.2569 95.1501 66.0939 94.6873 65.7679 94.3572C65.4459 94.0272 64.9569 93.8622 64.3009 93.8622C63.6208 93.8622 63.0875 94.0111 62.7011 94.3089C62.3148 94.6068 62.0431 94.9247 61.8861 95.2628L60.5339 94.7798C60.7753 94.2164 61.0973 93.7777 61.4998 93.4638C61.9063 93.1458 62.349 92.9245 62.8279 92.7997C63.3109 92.6709 63.7858 92.6065 64.2526 92.6065C64.5504 92.6065 64.8925 92.6428 65.2789 92.7152C65.6693 92.7836 66.0456 92.9265 66.4078 93.1438C66.774 93.3612 67.0779 93.6892 67.3194 94.1278C67.5609 94.5665 67.6816 95.1541 67.6816 95.8906V102H66.2569V100.744H66.1844C66.0878 100.946 65.9269 101.161 65.7015 101.39C65.4761 101.62 65.1763 101.815 64.802 101.976C64.4277 102.137 63.9709 102.217 63.4316 102.217ZM63.6489 100.938C64.2124 100.938 64.6873 100.827 65.0736 100.605C65.464 100.384 65.7578 100.098 65.955 99.7482C66.1563 99.3981 66.2569 99.0298 66.2569 98.6435V97.3395C66.1965 97.4119 66.0637 97.4783 65.8584 97.5387C65.6572 97.5951 65.4238 97.6454 65.1582 97.6896C64.8966 97.7299 64.641 97.7661 64.3915 97.7983C64.146 97.8265 63.9467 97.8506 63.7938 97.8707C63.4235 97.919 63.0774 97.9975 62.7555 98.1062C62.4375 98.2108 62.1799 98.3698 61.9827 98.5831C61.7896 98.7924 61.693 99.0781 61.693 99.4403C61.693 99.9354 61.8761 100.31 62.2423 100.563C62.6126 100.813 63.0815 100.938 63.6489 100.938ZM70.282 105.477V92.7273H71.6584V94.2003H71.8275C71.9321 94.0393 72.077 93.834 72.2621 93.5845C72.4513 93.331 72.7209 93.1056 73.0711 92.9084C73.4252 92.7071 73.9042 92.6065 74.5079 92.6065C75.2886 92.6065 75.9768 92.8017 76.5725 93.1921C77.1681 93.5825 77.633 94.1359 77.967 94.8523C78.3011 95.5687 78.4681 96.4138 78.4681 97.3878C78.4681 98.3698 78.3011 99.221 77.967 99.9414C77.633 100.658 77.1701 101.213 76.5785 101.608C75.9869 101.998 75.3047 102.193 74.532 102.193C73.9364 102.193 73.4594 102.095 73.1013 101.897C72.7431 101.696 72.4674 101.469 72.2742 101.215C72.081 100.958 71.9321 100.744 71.8275 100.575H71.7067V105.477H70.282ZM71.6826 97.3636C71.6826 98.0639 71.7852 98.6817 71.9905 99.217C72.1957 99.7482 72.4955 100.165 72.89 100.467C73.2844 100.764 73.7673 100.913 74.3388 100.913C74.9345 100.913 75.4315 100.756 75.8299 100.442C76.2324 100.125 76.5343 99.6979 76.7355 99.1626C76.9407 98.6233 77.0434 98.0237 77.0434 97.3636C77.0434 96.7116 76.9428 96.1241 76.7415 95.6009C76.5443 95.0736 76.2445 94.6571 75.842 94.3512C75.4436 94.0413 74.9425 93.8864 74.3388 93.8864C73.7593 93.8864 73.2723 94.0333 72.8779 94.3271C72.4835 94.6168 72.1857 95.0233 71.9844 95.5465C71.7832 96.0657 71.6826 96.6714 71.6826 97.3636Z" fill="#0377FF"/>
<g clip-path="url(#clip0_4_56)">
<path d="M54.2812 16H27.7188C21.2467 16 16 21.2467 16 27.7188V54.2812C16 60.7533 21.2467 66 27.7188 66H54.2812C60.7533 66 66 60.7533 66 54.2812V27.7188C66 21.2467 60.7533 16 54.2812 16Z" fill="url(#paint0_linear_4_56)"/>
<g filter="url(#filter0_d_4_56)">
<path d="M41.7754 54.3119C47.5715 54.3119 51.0643 51.4738 51.0643 46.793C51.0643 43.2545 48.5723 40.693 44.8717 40.2873V40.14C47.5904 39.6977 49.7238 37.1729 49.7238 34.3533C49.7238 30.3357 46.5521 27.7188 41.7187 27.7188H30.8438V54.3119H41.7754ZM35.0729 31.0912H40.6992C43.7578 31.0912 45.4947 32.4551 45.4947 34.9246C45.4947 37.56 43.4746 39.0342 39.8119 39.0342H35.0729V31.0912ZM35.0729 50.9395V42.1857H40.6613C44.6641 42.1857 46.7408 43.66 46.7408 46.535C46.7408 49.4098 44.7207 50.9395 40.9068 50.9395H35.0729Z" fill="url(#paint1_linear_4_56)"/>
<path d="M41.7754 54.3119C47.5715 54.3119 51.0643 51.4738 51.0643 46.793C51.0643 43.2545 48.5723 40.693 44.8717 40.2873V40.14C47.5904 39.6977 49.7238 37.1729 49.7238 34.3533C49.7238 30.3357 46.5521 27.7188 41.7187 27.7188H30.8438V54.3119H41.7754ZM35.0729 31.0912H40.6992C43.7578 31.0912 45.4947 32.4551 45.4947 34.9246C45.4947 37.56 43.4746 39.0342 39.8119 39.0342H35.0729V31.0912ZM35.0729 50.9395V42.1857H40.6613C44.6641 42.1857 46.7408 43.66 46.7408 46.535C46.7408 49.4098 44.7207 50.9395 40.9068 50.9395H35.0729Z" fill="#0377FF" stroke="#0377FF" stroke-width="2"/>
</g>
</g>
<defs>
<filter id="filter0_d_4_56" x="13.8438" y="14.7188" width="54.2205" height="60.5932" filterUnits="userSpaceOnUse" color-interpolation-filters="sRGB">
<feFlood flood-opacity="0" result="BackgroundImageFix"/>
<feColorMatrix in="SourceAlpha" type="matrix" values="0 0 0 0 0 0 0 0 0 0 0 0 0 0 0 0 0 0 127 0" result="hardAlpha"/>
<feOffset dy="4"/>
<feGaussianBlur stdDeviation="8"/>
<feColorMatrix type="matrix" values="0 0 0 0 0 0 0 0 0 0 0 0 0 0 0 0 0 0 0.15 0"/>
<feBlend mode="normal" in2="BackgroundImageFix" result="effect1_dropShadow_4_56"/>
<feBlend mode="normal" in="SourceGraphic" in2="effect1_dropShadow_4_56" result="shape"/>
</filter>
<linearGradient id="paint0_linear_4_56" x1="16" y1="16" x2="66" y2="66" gradientUnits="userSpaceOnUse">
<stop stop-color="white"/>
<stop offset="0.0001" stop-color="white"/>
</linearGradient>
<linearGradient id="paint1_linear_4_56" x1="32.7564" y1="29.4691" x2="45.0119" y2="50.1961" gradientUnits="userSpaceOnUse">
<stop stop-color="white"/>
<stop offset="1" stop-color="#F1E5FC"/>
</linearGradient>
<clipPath id="clip0_4_56">
<rect width="50" height="50" fill="white" transform="translate(16 16)"/>
</clipPath>
</defs>
</svg>
