<svg width="80" height="106" viewBox="0 0 80 106" fill="none" xmlns="http://www.w3.org/2000/svg">
<circle cx="40" cy="40" r="40" fill="#A0A400"/>
<path d="M19.125 19H62.875L58.8958 63.9229L40.9521 69L23.1104 63.9208L19.125 19ZM33.7729 39.3125L33.2896 33.65L54.2458 33.6562L54.725 28.1937L27.275 28.1875L28.7292 44.875H47.7417L47.0625 52.0125L41 53.6875L34.8438 52L34.4521 47.6042H29.0167L29.7042 56.2937L41 59.3146L52.2062 56.3083L53.7562 39.3146H33.7729V39.3125Z" fill="white"/>
<path d="M2.00204 89.6364H3.78897L7.99068 99.8991H8.13556L12.3373 89.6364H14.1242V102H12.7236V92.6065H12.6029L8.73926 102H7.38699L3.52335 92.6065H3.40261V102H2.00204V89.6364ZM20.6999 102.193C19.8628 102.193 19.1283 101.994 18.4964 101.596C17.8686 101.197 17.3776 100.64 17.0234 99.9233C16.6733 99.2069 16.4982 98.3698 16.4982 97.4119C16.4982 96.446 16.6733 95.6029 17.0234 94.8825C17.3776 94.162 17.8686 93.6026 18.4964 93.2042C19.1283 92.8058 19.8628 92.6065 20.6999 92.6065C21.5371 92.6065 22.2695 92.8058 22.8974 93.2042C23.5292 93.6026 24.0202 94.162 24.3704 94.8825C24.7246 95.6029 24.9016 96.446 24.9016 97.4119C24.9016 98.3698 24.7246 99.2069 24.3704 99.9233C24.0202 100.64 23.5292 101.197 22.8974 101.596C22.2695 101.994 21.5371 102.193 20.6999 102.193ZM20.6999 100.913C21.3358 100.913 21.859 100.75 22.2695 100.424C22.68 100.098 22.9839 99.6697 23.1811 99.1385C23.3783 98.6072 23.4769 98.0317 23.4769 97.4119C23.4769 96.7921 23.3783 96.2146 23.1811 95.6793C22.9839 95.1441 22.68 94.7114 22.2695 94.3814C21.859 94.0514 21.3358 93.8864 20.6999 93.8864C20.064 93.8864 19.5408 94.0514 19.1303 94.3814C18.7198 94.7114 18.416 95.1441 18.2188 95.6793C18.0215 96.2146 17.9229 96.7921 17.9229 97.4119C17.9229 98.0317 18.0215 98.6072 18.2188 99.1385C18.416 99.6697 18.7198 100.098 19.1303 100.424C19.5408 100.75 20.064 100.913 20.6999 100.913ZM28.5012 96.4219V102H27.0764V92.7273H28.4529V94.1761H28.5736C28.7909 93.7053 29.1209 93.3269 29.5637 93.0412C30.0064 92.7514 30.5779 92.6065 31.2781 92.6065C31.906 92.6065 32.4553 92.7353 32.9262 92.9929C33.3971 93.2464 33.7633 93.6328 34.0249 94.152C34.2865 94.6671 34.4173 95.3191 34.4173 96.108V102H32.9926V96.2045C32.9926 95.4761 32.8035 94.9086 32.4252 94.5021C32.0468 94.0916 31.5277 93.8864 30.8676 93.8864C30.4128 93.8864 30.0064 93.985 29.6482 94.1822C29.294 94.3794 29.0143 94.6671 28.809 95.0455C28.6038 95.4238 28.5012 95.8826 28.5012 96.4219ZM40.7637 105.67C40.0755 105.67 39.4838 105.582 38.9888 105.405C38.4938 105.232 38.0813 105.002 37.7512 104.717C37.4252 104.435 37.1657 104.133 36.9725 103.811L38.1074 103.014C38.2362 103.183 38.3992 103.376 38.5964 103.594C38.7936 103.815 39.0633 104.006 39.4054 104.167C39.7515 104.332 40.2042 104.415 40.7637 104.415C41.5123 104.415 42.13 104.234 42.617 103.871C43.104 103.509 43.3475 102.942 43.3475 102.169V100.286H43.2267C43.1221 100.455 42.9732 100.664 42.78 100.913C42.5909 101.159 42.3172 101.378 41.959 101.571C41.6048 101.761 41.1259 101.855 40.5222 101.855C39.7736 101.855 39.1015 101.678 38.5059 101.324C37.9142 100.97 37.4454 100.455 37.0993 99.7784C36.7572 99.1023 36.5861 98.2812 36.5861 97.3153C36.5861 96.3655 36.7531 95.5385 37.0872 94.8342C37.4212 94.1258 37.8861 93.5785 38.4817 93.1921C39.0774 92.8017 39.7656 92.6065 40.5463 92.6065C41.15 92.6065 41.629 92.7071 41.9831 92.9084C42.3413 93.1056 42.615 93.331 42.8042 93.5845C42.9973 93.834 43.1462 94.0393 43.2509 94.2003H43.3958V92.7273H44.7722V102.266C44.7722 103.062 44.5911 103.71 44.2289 104.21C43.8707 104.713 43.3877 105.081 42.78 105.314C42.1763 105.552 41.5042 105.67 40.7637 105.67ZM40.7154 100.575C41.2869 100.575 41.7698 100.444 42.1642 100.183C42.5587 99.9213 42.8585 99.545 43.0637 99.054C43.269 98.563 43.3716 97.9754 43.3716 97.2912C43.3716 96.6231 43.271 96.0335 43.0698 95.5224C42.8685 95.0112 42.5707 94.6108 42.1763 94.321C41.7819 94.0312 41.2949 93.8864 40.7154 93.8864C40.1117 93.8864 39.6086 94.0393 39.2061 94.3452C38.8077 94.651 38.5079 95.0616 38.3066 95.5767C38.1094 96.0919 38.0108 96.6634 38.0108 97.2912C38.0108 97.9351 38.1114 98.5046 38.3127 98.9996C38.5179 99.4906 38.8198 99.877 39.2182 100.159C39.6207 100.436 40.1197 100.575 40.7154 100.575ZM51.1472 102.193C50.3101 102.193 49.5756 101.994 48.9437 101.596C48.3159 101.197 47.8249 100.64 47.4707 99.9233C47.1206 99.2069 46.9455 98.3698 46.9455 97.4119C46.9455 96.446 47.1206 95.6029 47.4707 94.8825C47.8249 94.162 48.3159 93.6026 48.9437 93.2042C49.5756 92.8058 50.3101 92.6065 51.1472 92.6065C51.9843 92.6065 52.7168 92.8058 53.3446 93.2042C53.9765 93.6026 54.4675 94.162 54.8176 94.8825C55.1718 95.6029 55.3489 96.446 55.3489 97.4119C55.3489 98.3698 55.1718 99.2069 54.8176 99.9233C54.4675 100.64 53.9765 101.197 53.3446 101.596C52.7168 101.994 51.9843 102.193 51.1472 102.193ZM51.1472 100.913C51.7831 100.913 52.3063 100.75 52.7168 100.424C53.1273 100.098 53.4312 99.6697 53.6284 99.1385C53.8256 98.6072 53.9242 98.0317 53.9242 97.4119C53.9242 96.7921 53.8256 96.2146 53.6284 95.6793C53.4312 95.1441 53.1273 94.7114 52.7168 94.3814C52.3063 94.0514 51.7831 93.8864 51.1472 93.8864C50.5113 93.8864 49.9881 94.0514 49.5776 94.3814C49.1671 94.7114 48.8632 95.1441 48.666 95.6793C48.4688 96.2146 48.3702 96.7921 48.3702 97.4119C48.3702 98.0317 48.4688 98.6072 48.666 99.1385C48.8632 99.6697 49.1671 100.098 49.5776 100.424C49.9881 100.75 50.5113 100.913 51.1472 100.913ZM61.5322 102H57.7169V89.6364H61.7013C62.9006 89.6364 63.9269 89.8839 64.7801 90.3789C65.6333 90.8699 66.2873 91.5762 66.7421 92.4979C67.1969 93.4155 67.4243 94.5142 67.4243 95.794C67.4243 97.0819 67.1949 98.1907 66.7361 99.1204C66.2773 100.046 65.6092 100.758 64.7318 101.257C63.8544 101.752 62.7879 102 61.5322 102ZM59.214 100.672H61.4356C62.4579 100.672 63.3051 100.475 63.9772 100.08C64.6493 99.6858 65.1504 99.1244 65.4804 98.396C65.8104 97.6675 65.9754 96.8002 65.9754 95.794C65.9754 94.7959 65.8124 93.9367 65.4864 93.2163C65.1604 92.4918 64.6734 91.9364 64.0255 91.5501C63.3775 91.1597 62.5706 90.9645 61.6047 90.9645H59.214V100.672ZM69.9356 102V89.6364H74.2581C75.1193 89.6364 75.8297 89.7853 76.3891 90.0831C76.9485 90.3769 77.3651 90.7733 77.6388 91.2724C77.9124 91.7674 78.0493 92.3168 78.0493 92.9205C78.0493 93.4517 77.9547 93.8904 77.7655 94.2365C77.5804 94.5826 77.3349 94.8563 77.029 95.0575C76.7272 95.2588 76.3992 95.4077 76.045 95.5043V95.625C76.4233 95.6491 76.8037 95.782 77.186 96.0234C77.5683 96.2649 77.8883 96.611 78.1459 97.0618C78.4034 97.5125 78.5322 98.0639 78.5322 98.7159C78.5322 99.3357 78.3914 99.8931 78.1096 100.388C77.8279 100.883 77.3832 101.276 76.7755 101.565C76.1678 101.855 75.3769 102 74.403 102H69.9356ZM71.4328 100.672H74.403C75.3809 100.672 76.0752 100.483 76.4857 100.104C76.9002 99.7221 77.1075 99.2592 77.1075 98.7159C77.1075 98.2973 77.0009 97.911 76.7876 97.5568C76.5742 97.1986 76.2704 96.9129 75.876 96.6996C75.4816 96.4822 75.0147 96.3736 74.4754 96.3736H71.4328V100.672ZM71.4328 95.0696H74.2098C74.6605 95.0696 75.067 94.9811 75.4292 94.804C75.7955 94.6269 76.0853 94.3774 76.2986 94.0554C76.5159 93.7334 76.6246 93.3551 76.6246 92.9205C76.6246 92.3771 76.4354 91.9163 76.0571 91.538C75.6788 91.1557 75.0791 90.9645 74.2581 90.9645H71.4328V95.0696Z" fill="#A0A400"/>
</svg>
