<svg width="80" height="107" viewBox="0 0 80 107" fill="none" xmlns="http://www.w3.org/2000/svg">
<circle cx="40" cy="40" r="40" fill="#876767"/>
<path d="M17.3586 93.1818C17.2819 92.5341 16.9708 92.0312 16.4253 91.6733C15.8799 91.3153 15.2108 91.1364 14.4182 91.1364C13.8387 91.1364 13.3316 91.2301 12.8969 91.4176C12.4665 91.6051 12.1299 91.8629 11.887 92.1911C11.6483 92.5192 11.529 92.892 11.529 93.3097C11.529 93.6591 11.6121 93.9595 11.7783 94.2109C11.9488 94.4581 12.1661 94.6648 12.4303 94.831C12.6945 94.9929 12.9715 95.1271 13.2613 95.2337C13.551 95.3359 13.8174 95.419 14.0603 95.483L15.3898 95.8409C15.7307 95.9304 16.11 96.054 16.5276 96.2116C16.9495 96.3693 17.3522 96.5845 17.7357 96.8572C18.1235 97.1257 18.4431 97.4709 18.6945 97.8928C18.9459 98.3146 19.0716 98.8324 19.0716 99.446C19.0716 100.153 18.8863 100.793 18.5155 101.364C18.1491 101.935 17.6121 102.388 16.9047 102.725C16.2016 103.062 15.3472 103.23 14.3415 103.23C13.404 103.23 12.5922 103.079 11.9062 102.776C11.2243 102.474 10.6874 102.052 10.2954 101.511C9.90758 100.969 9.68812 100.341 9.63699 99.625H11.2733C11.316 100.119 11.4822 100.528 11.7719 100.852C12.066 101.172 12.4367 101.411 12.8841 101.568C13.3358 101.722 13.8216 101.798 14.3415 101.798C14.9466 101.798 15.49 101.7 15.9715 101.504C16.453 101.304 16.8344 101.027 17.1157 100.673C17.3969 100.315 17.5376 99.8977 17.5376 99.4205C17.5376 98.9858 17.4161 98.6321 17.1732 98.3594C16.9303 98.0866 16.6107 97.8651 16.2144 97.6946C15.8181 97.5241 15.3898 97.375 14.9296 97.2472L13.3188 96.7869C12.2961 96.4929 11.4864 96.0732 10.8898 95.5277C10.2932 94.9822 9.99494 94.2685 9.99494 93.3864C9.99494 92.6534 10.1931 92.0142 10.5894 91.4688C10.99 90.919 11.5269 90.4929 12.2002 90.1903C12.8778 89.8835 13.6341 89.7301 14.4694 89.7301C15.3131 89.7301 16.0631 89.8814 16.7194 90.1839C17.3756 90.4822 17.8955 90.8913 18.279 91.4112C18.6668 91.9311 18.8714 92.5213 18.8927 93.1818H17.3586ZM25.4621 103.205C24.5757 103.205 23.798 102.994 23.129 102.572C22.4642 102.15 21.9443 101.56 21.5693 100.801C21.1986 100.043 21.0132 99.1562 21.0132 98.142C21.0132 97.1193 21.1986 96.2266 21.5693 95.4638C21.9443 94.701 22.4642 94.1087 23.129 93.6868C23.798 93.2649 24.5757 93.054 25.4621 93.054C26.3485 93.054 27.124 93.2649 27.7888 93.6868C28.4578 94.1087 28.9777 94.701 29.3485 95.4638C29.7235 96.2266 29.911 97.1193 29.911 98.142C29.911 99.1562 29.7235 100.043 29.3485 100.801C28.9777 101.56 28.4578 102.15 27.7888 102.572C27.124 102.994 26.3485 103.205 25.4621 103.205ZM25.4621 101.849C26.1354 101.849 26.6894 101.677 27.124 101.332C27.5587 100.987 27.8804 100.533 28.0892 99.9702C28.298 99.4077 28.4024 98.7983 28.4024 98.142C28.4024 97.4858 28.298 96.8743 28.0892 96.3075C27.8804 95.7408 27.5587 95.2827 27.124 94.9332C26.6894 94.5838 26.1354 94.4091 25.4621 94.4091C24.7888 94.4091 24.2348 94.5838 23.8002 94.9332C23.3655 95.2827 23.0438 95.7408 22.835 96.3075C22.6262 96.8743 22.5218 97.4858 22.5218 98.142C22.5218 98.7983 22.6262 99.4077 22.835 99.9702C23.0438 100.533 23.3655 100.987 23.8002 101.332C24.2348 101.677 24.7888 101.849 25.4621 101.849ZM33.7222 89.9091V103H32.2137V89.9091H33.7222ZM36.4852 103V93.1818H37.9937V103H36.4852ZM37.2522 91.5455C36.9582 91.5455 36.7046 91.4453 36.4916 91.245C36.2828 91.0447 36.1784 90.804 36.1784 90.5227C36.1784 90.2415 36.2828 90.0007 36.4916 89.8004C36.7046 89.6001 36.9582 89.5 37.2522 89.5C37.5463 89.5 37.7977 89.6001 38.0065 89.8004C38.2195 90.0007 38.3261 90.2415 38.3261 90.5227C38.3261 90.804 38.2195 91.0447 38.0065 91.245C37.7977 91.4453 37.5463 91.5455 37.2522 91.5455ZM44.464 103.205C43.6459 103.205 42.9236 102.998 42.2971 102.585C41.6707 102.167 41.1807 101.579 40.827 100.82C40.4733 100.058 40.2964 99.1562 40.2964 98.1165C40.2964 97.0852 40.4733 96.1903 40.827 95.4318C41.1807 94.6733 41.6729 94.0874 42.3035 93.674C42.9342 93.2607 43.6629 93.054 44.4896 93.054C45.1288 93.054 45.6338 93.1605 46.0045 93.3736C46.3795 93.5824 46.665 93.821 46.8611 94.0895C47.0613 94.3537 47.2169 94.571 47.3277 94.7415H47.4555V89.9091H48.964V103H47.5067V101.491H47.3277C47.2169 101.67 47.0592 101.896 46.8547 102.169C46.6501 102.437 46.3582 102.678 45.979 102.891C45.5997 103.1 45.0947 103.205 44.464 103.205ZM44.6686 101.849C45.2737 101.849 45.7851 101.692 46.2027 101.376C46.6203 101.057 46.9378 100.616 47.1551 100.053C47.3724 99.4865 47.4811 98.8324 47.4811 98.0909C47.4811 97.358 47.3746 96.7166 47.1615 96.1669C46.9484 95.6129 46.6331 95.1825 46.2155 94.8757C45.7979 94.5646 45.2822 94.4091 44.6686 94.4091C44.0294 94.4091 43.4967 94.5732 43.0706 94.9013C42.6487 95.2251 42.3312 95.6662 42.1182 96.2244C41.9094 96.7784 41.805 97.4006 41.805 98.0909C41.805 98.7898 41.9115 99.4247 42.1246 99.9957C42.3419 100.562 42.6615 101.014 43.0834 101.351C43.5095 101.683 44.0379 101.849 44.6686 101.849ZM51.9363 103V93.1818H53.4449V103H51.9363ZM52.7034 91.5455C52.4094 91.5455 52.1558 91.4453 51.9427 91.245C51.7339 91.0447 51.6295 90.804 51.6295 90.5227C51.6295 90.2415 51.7339 90.0007 51.9427 89.8004C52.1558 89.6001 52.4094 89.5 52.7034 89.5C52.9974 89.5 53.2488 89.6001 53.4577 89.8004C53.6707 90.0007 53.7773 90.2415 53.7773 90.5227C53.7773 90.804 53.6707 91.0447 53.4577 91.245C53.2488 91.4453 52.9974 91.5455 52.7034 91.5455ZM60.4777 93.1818V94.4602H55.3896V93.1818H60.4777ZM56.8726 90.8295H58.3811V100.188C58.3811 100.614 58.4429 100.933 58.5665 101.146C58.6943 101.355 58.8563 101.496 59.0523 101.568C59.2526 101.636 59.4635 101.67 59.6851 101.67C59.8513 101.67 59.9877 101.662 60.0942 101.645C60.2007 101.624 60.286 101.607 60.3499 101.594L60.6567 102.949C60.5544 102.987 60.4117 103.026 60.2284 103.064C60.0452 103.107 59.8129 103.128 59.5317 103.128C59.1056 103.128 58.6879 103.036 58.2789 102.853C57.874 102.67 57.5374 102.391 57.2689 102.016C57.0047 101.641 56.8726 101.168 56.8726 100.597V90.8295ZM63.7185 106.682C63.4628 106.682 63.2348 106.661 63.0345 106.618C62.8343 106.58 62.6958 106.541 62.6191 106.503L63.0026 105.173C63.3691 105.267 63.6929 105.301 63.9742 105.276C64.2554 105.25 64.5047 105.124 64.722 104.898C64.9436 104.677 65.146 104.317 65.3293 103.818L65.6105 103.051L61.9798 93.1818H63.6162L66.3264 101.006H66.4287L69.1389 93.1818H70.7753L66.6077 104.432C66.4202 104.939 66.1879 105.359 65.911 105.691C65.634 106.028 65.3122 106.277 64.9458 106.439C64.5835 106.601 64.1744 106.682 63.7185 106.682Z" fill="#876767"/>
<g clip-path="url(#clip0_13_399)">
<path d="M30.7245 44.569L22 30.2873L30.7245 16H48.1794L57 30.2873H39.4489L30.7245 44.569ZM57 51.7126L48.2639 37.431L39.5393 51.7127H22L30.809 66H48.2638L57 51.7126Z" fill="white"/>
</g>
<defs>
<clipPath id="clip0_13_399">
<rect width="35" height="50" fill="white" transform="translate(22 16)"/>
</clipPath>
</defs>
</svg>
