<svg width="80" height="129" viewBox="0 0 80 129" fill="none" xmlns="http://www.w3.org/2000/svg">
<circle cx="40" cy="40" r="40" fill="#6F6B6B"/>
<path d="M6.11737 91.3153V89.9091H15.9355V91.3153H11.8191V103H10.2338V91.3153H6.11737ZM19.7308 103.23C19.1087 103.23 18.544 103.113 18.0369 102.879C17.5298 102.64 17.1271 102.297 16.8288 101.849C16.5305 101.398 16.3814 100.852 16.3814 100.213C16.3814 99.6506 16.4922 99.1946 16.7138 98.8452C16.9354 98.4915 17.2315 98.2145 17.6023 98.0142C17.973 97.8139 18.3821 97.6648 18.8295 97.5668C19.2813 97.4645 19.7351 97.3835 20.1911 97.3239C20.7876 97.2472 21.2713 97.1896 21.642 97.1513C22.017 97.1087 22.2898 97.0384 22.4602 96.9403C22.6349 96.8423 22.7223 96.6719 22.7223 96.429V96.3778C22.7223 95.7472 22.5497 95.2571 22.2045 94.9077C21.8636 94.5582 21.3459 94.3835 20.6513 94.3835C19.9311 94.3835 19.3665 94.5412 18.9574 94.8565C18.5483 95.1719 18.2607 95.5085 18.0945 95.8665L16.6626 95.3551C16.9183 94.7585 17.2592 94.294 17.6854 93.9616C18.1158 93.625 18.5845 93.3906 19.0916 93.2585C19.603 93.1222 20.1058 93.054 20.6001 93.054C20.9155 93.054 21.2777 93.0923 21.6868 93.169C22.1001 93.2415 22.4986 93.3928 22.8821 93.6229C23.2699 93.853 23.5916 94.2003 23.8473 94.6648C24.103 95.1293 24.2308 95.7514 24.2308 96.5312V103H22.7223V101.67H22.6456C22.5433 101.884 22.3729 102.112 22.1342 102.354C21.8956 102.597 21.5781 102.804 21.1818 102.974C20.7855 103.145 20.3018 103.23 19.7308 103.23ZM19.9609 101.875C20.5575 101.875 21.0604 101.758 21.4695 101.523C21.8828 101.289 22.1939 100.987 22.4027 100.616C22.6158 100.245 22.7223 99.8551 22.7223 99.446V98.0653C22.6584 98.142 22.5178 98.2124 22.3004 98.2763C22.0874 98.3359 21.8402 98.3892 21.5589 98.4361C21.282 98.4787 21.0114 98.517 20.7472 98.5511C20.4872 98.581 20.2763 98.6065 20.1143 98.6278C19.7223 98.679 19.3558 98.7621 19.0149 98.8771C18.6783 98.9879 18.4055 99.1562 18.1967 99.3821C17.9922 99.6037 17.8899 99.9062 17.8899 100.29C17.8899 100.814 18.0838 101.21 18.4716 101.479C18.8636 101.743 19.3601 101.875 19.9609 101.875ZM26.9842 103V93.1818H28.4927V103H26.9842ZM27.7512 91.5455C27.4572 91.5455 27.2037 91.4453 26.9906 91.245C26.7818 91.0447 26.6774 90.804 26.6774 90.5227C26.6774 90.2415 26.7818 90.0007 26.9906 89.8004C27.2037 89.6001 27.4572 89.5 27.7512 89.5C28.0453 89.5 28.2967 89.6001 28.5055 89.8004C28.7186 90.0007 28.8251 90.2415 28.8251 90.5227C28.8251 90.804 28.7186 91.0447 28.5055 91.245C28.2967 91.4453 28.0453 91.5455 27.7512 91.5455ZM32.7642 89.9091V103H31.2557V89.9091H32.7642ZM37.7516 103L34.7601 93.1818H36.3453L38.4675 100.699H38.5698L40.6664 93.1818H42.2772L44.3482 100.673H44.4505L46.5726 93.1818H48.1578L45.1664 103H43.6834L41.5357 95.4574H41.3823L39.2346 103H37.7516ZM50.1522 103V93.1818H51.6607V103H50.1522ZM50.9192 91.5455C50.6252 91.5455 50.3716 91.4453 50.1586 91.245C49.9498 91.0447 49.8453 90.804 49.8453 90.5227C49.8453 90.2415 49.9498 90.0007 50.1586 89.8004C50.3716 89.6001 50.6252 89.5 50.9192 89.5C51.2132 89.5 51.4647 89.6001 51.6735 89.8004C51.8865 90.0007 51.9931 90.2415 51.9931 90.5227C51.9931 90.804 51.8865 91.0447 51.6735 91.245C51.4647 91.4453 51.2132 91.5455 50.9192 91.5455ZM55.9322 97.0938V103H54.4237V93.1818H55.881V94.7159H56.0089C56.239 94.2173 56.5884 93.8168 57.0572 93.5142C57.5259 93.2074 58.131 93.054 58.8725 93.054C59.5373 93.054 60.119 93.1903 60.6175 93.4631C61.1161 93.7315 61.5039 94.1406 61.7809 94.6903C62.0579 95.2358 62.1964 95.9261 62.1964 96.7614V103H60.6879V96.8636C60.6879 96.0923 60.4876 95.4915 60.087 95.0611C59.6864 94.6264 59.1367 94.4091 58.4379 94.4091C57.9563 94.4091 57.5259 94.5135 57.1467 94.7223C56.7717 94.9311 56.4755 95.2358 56.2582 95.6364C56.0408 96.0369 55.9322 96.5227 55.9322 97.0938ZM68.6603 103.205C67.8422 103.205 67.1199 102.998 66.4934 102.585C65.867 102.167 65.377 101.579 65.0233 100.82C64.6696 100.058 64.4927 99.1562 64.4927 98.1165C64.4927 97.0852 64.6696 96.1903 65.0233 95.4318C65.377 94.6733 65.8691 94.0874 66.4998 93.674C67.1305 93.2607 67.8592 93.054 68.6859 93.054C69.3251 93.054 69.8301 93.1605 70.2008 93.3736C70.5758 93.5824 70.8613 93.821 71.0574 94.0895C71.2576 94.3537 71.4132 94.571 71.524 94.7415H71.6518V89.9091H73.1603V103H71.7029V101.491H71.524C71.4132 101.67 71.2555 101.896 71.051 102.169C70.8464 102.437 70.5545 102.678 70.1752 102.891C69.796 103.1 69.291 103.205 68.6603 103.205ZM68.8649 101.849C69.47 101.849 69.9814 101.692 70.399 101.376C70.8166 101.057 71.1341 100.616 71.3514 100.053C71.5687 99.4865 71.6774 98.8324 71.6774 98.0909C71.6774 97.358 71.5708 96.7166 71.3578 96.1669C71.1447 95.6129 70.8294 95.1825 70.4118 94.8757C69.9941 94.5646 69.4785 94.4091 68.8649 94.4091C68.2257 94.4091 67.693 94.5732 67.2669 94.9013C66.845 95.2251 66.5275 95.6662 66.3145 96.2244C66.1056 96.7784 66.0012 97.4006 66.0012 98.0909C66.0012 98.7898 66.1078 99.4247 66.3208 99.9957C66.5382 100.562 66.8578 101.014 67.2797 101.351C67.7058 101.683 68.2342 101.849 68.8649 101.849ZM36.1672 116H34.5819C34.4882 115.544 34.3241 115.143 34.0898 114.798C33.8596 114.453 33.5784 114.163 33.246 113.929C32.9179 113.69 32.5535 113.511 32.153 113.392C31.7524 113.273 31.3348 113.213 30.9001 113.213C30.1075 113.213 29.3895 113.413 28.746 113.814C28.1068 114.214 27.5976 114.805 27.2183 115.585C26.8433 116.364 26.6558 117.321 26.6558 118.455C26.6558 119.588 26.8433 120.545 27.2183 121.325C27.5976 122.104 28.1068 122.695 28.746 123.095C29.3895 123.496 30.1075 123.696 30.9001 123.696C31.3348 123.696 31.7524 123.636 32.153 123.517C32.5535 123.398 32.9179 123.221 33.246 122.987C33.5784 122.748 33.8596 122.456 34.0898 122.111C34.3241 121.761 34.4882 121.361 34.5819 120.909H36.1672C36.0479 121.578 35.8305 122.177 35.5152 122.705C35.1998 123.234 34.8078 123.683 34.339 124.054C33.8703 124.42 33.344 124.7 32.7602 124.891C32.1807 125.083 31.5606 125.179 30.9001 125.179C29.7836 125.179 28.7907 124.906 27.9214 124.361C27.0521 123.815 26.3682 123.04 25.8696 122.034C25.371 121.028 25.1217 119.835 25.1217 118.455C25.1217 117.074 25.371 115.881 25.8696 114.875C26.3682 113.869 27.0521 113.094 27.9214 112.548C28.7907 112.003 29.7836 111.73 30.9001 111.73C31.5606 111.73 32.1807 111.826 32.7602 112.018C33.344 112.21 33.8703 112.491 34.339 112.862C34.8078 113.228 35.1998 113.675 35.5152 114.204C35.8305 114.728 36.0479 115.327 36.1672 116ZM45.4788 117.381L44.1237 117.764C44.0384 117.538 43.9127 117.319 43.7465 117.106C43.5846 116.888 43.363 116.71 43.0818 116.569C42.8005 116.428 42.4404 116.358 42.0015 116.358C41.4007 116.358 40.8999 116.496 40.4994 116.773C40.1031 117.046 39.9049 117.393 39.9049 117.815C39.9049 118.19 40.0413 118.487 40.314 118.704C40.5867 118.921 41.0129 119.102 41.5924 119.247L43.0498 119.605C43.9276 119.818 44.5818 120.144 45.0122 120.583C45.4426 121.018 45.6578 121.578 45.6578 122.264C45.6578 122.827 45.4958 123.33 45.172 123.773C44.8524 124.216 44.4049 124.565 43.8296 124.821C43.2544 125.077 42.5853 125.205 41.8225 125.205C40.8211 125.205 39.9923 124.987 39.336 124.553C38.6798 124.118 38.2643 123.483 38.0896 122.648L39.5214 122.29C39.6578 122.818 39.9156 123.214 40.2948 123.479C40.6784 123.743 41.1791 123.875 41.797 123.875C42.5001 123.875 43.0583 123.726 43.4717 123.428C43.8893 123.125 44.0981 122.763 44.0981 122.341C44.0981 122 43.9788 121.714 43.7401 121.484C43.5015 121.25 43.135 121.075 42.6407 120.96L41.0044 120.577C40.1052 120.364 39.4447 120.033 39.0228 119.586C38.6052 119.134 38.3964 118.57 38.3964 117.892C38.3964 117.338 38.5519 116.848 38.863 116.422C39.1784 115.996 39.6066 115.661 40.1478 115.418C40.6933 115.175 41.3112 115.054 42.0015 115.054C42.9731 115.054 43.7359 115.267 44.2899 115.693C44.8481 116.119 45.2444 116.682 45.4788 117.381ZM54.8831 117.381L53.528 117.764C53.4427 117.538 53.317 117.319 53.1508 117.106C52.9889 116.888 52.7673 116.71 52.4861 116.569C52.2048 116.428 51.8447 116.358 51.4058 116.358C50.805 116.358 50.3042 116.496 49.9037 116.773C49.5074 117.046 49.3092 117.393 49.3092 117.815C49.3092 118.19 49.4456 118.487 49.7183 118.704C49.991 118.921 50.4172 119.102 50.9967 119.247L52.4541 119.605C53.3319 119.818 53.9861 120.144 54.4165 120.583C54.8469 121.018 55.0621 121.578 55.0621 122.264C55.0621 122.827 54.9001 123.33 54.5763 123.773C54.2567 124.216 53.8092 124.565 53.2339 124.821C52.6586 125.077 51.9896 125.205 51.2268 125.205C50.2254 125.205 49.3966 124.987 48.7403 124.553C48.0841 124.118 47.6686 123.483 47.4939 122.648L48.9257 122.29C49.0621 122.818 49.3199 123.214 49.6991 123.479C50.0827 123.743 50.5834 123.875 51.2013 123.875C51.9044 123.875 52.4626 123.726 52.876 123.428C53.2936 123.125 53.5024 122.763 53.5024 122.341C53.5024 122 53.3831 121.714 53.1444 121.484C52.9058 121.25 52.5393 121.075 52.045 120.96L50.4086 120.577C49.5095 120.364 48.849 120.033 48.4271 119.586C48.0095 119.134 47.8007 118.57 47.8007 117.892C47.8007 117.338 47.9562 116.848 48.2673 116.422C48.5827 115.996 49.0109 115.661 49.5521 115.418C50.0976 115.175 50.7155 115.054 51.4058 115.054C52.3774 115.054 53.1402 115.267 53.6942 115.693C54.2524 116.119 54.6487 116.682 54.8831 117.381Z" fill="#6F6B6B"/>
<g clip-path="url(#clip0_4_50)">
<path d="M54.2812 15H27.7188C21.2467 15 16 20.2467 16 26.7188V53.2812C16 59.7533 21.2467 65 27.7188 65H54.2812C60.7533 65 66 59.7533 66 53.2812V26.7188C66 20.2467 60.7533 15 54.2812 15Z" fill="white"/>
<path fill-rule="evenodd" clip-rule="evenodd" d="M32.2109 36.4844C33.3828 31.7969 36.3127 29.4531 41 29.4531C48.0312 29.4531 48.9102 34.7266 52.4258 35.6055C54.7697 36.1916 56.8203 35.3127 58.5781 32.9688C57.4064 37.6561 54.4764 40 49.7891 40C42.7578 40 41.8789 34.7266 38.3633 33.8477C36.0193 33.2617 33.9688 34.1406 32.2109 36.4844ZM23.4219 47.0312C24.5938 42.3439 27.5234 40 32.2109 40C39.2422 40 40.1211 45.2734 43.6367 46.1523C45.9807 46.7385 48.0312 45.8596 49.7891 43.5156C48.6174 48.2029 45.6873 50.5469 41 50.5469C33.9688 50.5469 33.0898 45.2734 29.5742 44.3945C27.2305 43.8084 25.1797 44.6873 23.4219 47.0312Z" fill="url(#paint0_linear_4_50)"/>
</g>
<defs>
<linearGradient id="paint0_linear_4_50" x1="32.8945" y1="29.4531" x2="47.9336" y2="51.2305" gradientUnits="userSpaceOnUse">
<stop/>
<stop offset="1" stop-color="#14C6B7"/>
</linearGradient>
<clipPath id="clip0_4_50">
<rect width="50" height="50" fill="white" transform="translate(16 15)"/>
</clipPath>
</defs>
</svg>
