<svg width="80" height="107" viewBox="0 0 80 107" fill="none" xmlns="http://www.w3.org/2000/svg">
<circle cx="40" cy="40" r="40" fill="#368E49"/>
<path d="M16.2559 89.9091L20.1423 100.929H20.2957L24.1821 89.9091H25.844L21.0372 103H19.4008L14.594 89.9091H16.2559ZM33.866 98.9858V93.1818H35.3746V103H33.866V101.338H33.7638C33.5336 101.837 33.1757 102.261 32.6899 102.61C32.2041 102.955 31.5905 103.128 30.849 103.128C30.2354 103.128 29.6899 102.994 29.2126 102.725C28.7354 102.452 28.3604 102.043 28.0876 101.498C27.8149 100.948 27.6785 100.256 27.6785 99.4205V93.1818H29.1871V99.3182C29.1871 100.034 29.3873 100.605 29.7879 101.031C30.1927 101.457 30.7084 101.67 31.3348 101.67C31.7098 101.67 32.0912 101.575 32.479 101.383C32.871 101.191 33.1991 100.897 33.4633 100.501C33.7318 100.104 33.866 99.5994 33.866 98.9858ZM42.254 103.205C41.308 103.205 40.4919 102.996 39.8058 102.578C39.124 102.156 38.5977 101.568 38.227 100.814C37.8605 100.055 37.6773 99.1733 37.6773 98.1676C37.6773 97.1619 37.8605 96.2756 38.227 95.5085C38.5977 94.7372 39.1134 94.1364 39.7739 93.706C40.4387 93.2713 41.2142 93.054 42.1006 93.054C42.6119 93.054 43.1169 93.1392 43.6155 93.3097C44.1141 93.4801 44.5679 93.7571 44.977 94.1406C45.3861 94.5199 45.7121 95.0227 45.955 95.6491C46.1979 96.2756 46.3193 97.0469 46.3193 97.9631V98.6023H38.7512V97.2983H44.7852C44.7852 96.7443 44.6744 96.25 44.4529 95.8153C44.2355 95.3807 43.9244 95.0376 43.5196 94.7862C43.1191 94.5348 42.646 94.4091 42.1006 94.4091C41.4997 94.4091 40.9798 94.5582 40.5409 94.8565C40.1063 95.1506 39.7718 95.5341 39.5374 96.0071C39.303 96.4801 39.1858 96.9872 39.1858 97.5284V98.3977C39.1858 99.1392 39.3137 99.7678 39.5693 100.283C39.8293 100.795 40.1894 101.185 40.6496 101.453C41.1098 101.717 41.6446 101.849 42.254 101.849C42.6503 101.849 43.0083 101.794 43.3279 101.683C43.6517 101.568 43.9308 101.398 44.1652 101.172C44.3996 100.942 44.5807 100.656 44.7085 100.315L46.1659 100.724C46.0125 101.219 45.7547 101.653 45.3925 102.028C45.0303 102.399 44.5828 102.689 44.0502 102.898C43.5175 103.102 42.9188 103.205 42.254 103.205ZM49.7135 103.102C49.3982 103.102 49.1276 102.989 48.9017 102.763C48.6759 102.538 48.5629 102.267 48.5629 101.952C48.5629 101.636 48.6759 101.366 48.9017 101.14C49.1276 100.914 49.3982 100.801 49.7135 100.801C50.0289 100.801 50.2994 100.914 50.5253 101.14C50.7512 101.366 50.8641 101.636 50.8641 101.952C50.8641 102.161 50.8108 102.352 50.7043 102.527C50.602 102.702 50.4635 102.842 50.2888 102.949C50.1183 103.051 49.9266 103.102 49.7135 103.102ZM53.5711 93.1818H55.0796V103.716C55.0796 104.321 54.9752 104.845 54.7664 105.288C54.5619 105.732 54.2508 106.075 53.8332 106.317C53.4198 106.56 52.8978 106.682 52.2671 106.682C52.216 106.682 52.1649 106.682 52.1137 106.682C52.0626 106.682 52.0115 106.682 51.9603 106.682V105.276C52.0115 105.276 52.0583 105.276 52.1009 105.276C52.1436 105.276 52.1904 105.276 52.2416 105.276C52.7018 105.276 53.0384 105.139 53.2515 104.866C53.4646 104.598 53.5711 104.214 53.5711 103.716V93.1818ZM54.3126 91.5455C54.0186 91.5455 53.765 91.4453 53.5519 91.245C53.3431 91.0447 53.2387 90.804 53.2387 90.5227C53.2387 90.2415 53.3431 90.0007 53.5519 89.8004C53.765 89.6001 54.0186 89.5 54.3126 89.5C54.6066 89.5 54.858 89.6001 55.0669 89.8004C55.2799 90.0007 55.3865 90.2415 55.3865 90.5227C55.3865 90.804 55.2799 91.0447 55.0669 91.245C54.858 91.4453 54.6066 91.5455 54.3126 91.5455ZM64.7971 95.3807L63.442 95.7642C63.3568 95.5384 63.2311 95.3189 63.0649 95.1058C62.903 94.8885 62.6814 94.7095 62.4001 94.5689C62.1189 94.4283 61.7588 94.358 61.3199 94.358C60.719 94.358 60.2183 94.4964 59.8177 94.7734C59.4214 95.0462 59.2233 95.3935 59.2233 95.8153C59.2233 96.1903 59.3596 96.4865 59.6324 96.7038C59.9051 96.9212 60.3312 97.1023 60.9108 97.2472L62.3682 97.6051C63.246 97.8182 63.9001 98.1442 64.3305 98.5831C64.7609 99.0178 64.9761 99.5781 64.9761 100.264C64.9761 100.827 64.8142 101.33 64.4903 101.773C64.1707 102.216 63.7233 102.565 63.148 102.821C62.5727 103.077 61.9037 103.205 61.1409 103.205C60.1395 103.205 59.3106 102.987 58.6544 102.553C57.9981 102.118 57.5827 101.483 57.4079 100.648L58.8398 100.29C58.9761 100.818 59.2339 101.214 59.6132 101.479C59.9967 101.743 60.4974 101.875 61.1153 101.875C61.8184 101.875 62.3767 101.726 62.79 101.428C63.2077 101.125 63.4165 100.763 63.4165 100.341C63.4165 100 63.2971 99.7145 63.0585 99.4844C62.8199 99.25 62.4534 99.0753 61.9591 98.9602L60.3227 98.5767C59.4236 98.3636 58.7631 98.0334 58.3412 97.5859C57.9236 97.1342 57.7148 96.5696 57.7148 95.892C57.7148 95.3381 57.8703 94.848 58.1814 94.4219C58.4967 93.9957 58.925 93.6612 59.4662 93.4183C60.0116 93.1754 60.6295 93.054 61.3199 93.054C62.2915 93.054 63.0542 93.267 63.6082 93.6932C64.1665 94.1193 64.5628 94.6818 64.7971 95.3807Z" fill="#368E49"/>
<path d="M30.7792 19L41 43.1583L51.2208 19H30.7792ZM19.125 26.2917L41 69L62.875 26.2917H51.4167L41 50.25L30.5833 26.2917H19.125Z" fill="white"/>
</svg>
