<svg width="80" height="107" viewBox="0 0 80 107" fill="none" xmlns="http://www.w3.org/2000/svg">
<circle cx="40" cy="40" r="40" fill="#5D6AD8"/>
<path d="M9.42205 93.1818C9.34535 92.5341 9.03427 92.0312 8.48881 91.6733C7.94336 91.3153 7.27433 91.1364 6.48171 91.1364C5.90217 91.1364 5.39506 91.2301 4.9604 91.4176C4.53001 91.6051 4.19336 91.8629 3.95046 92.1911C3.71183 92.5192 3.59251 92.892 3.59251 93.3097C3.59251 93.6591 3.6756 93.9595 3.8418 94.2109C4.01225 94.4581 4.22958 94.6648 4.49379 94.831C4.75799 94.9929 5.03498 95.1271 5.32475 95.2337C5.61452 95.3359 5.88086 95.419 6.12376 95.483L7.4533 95.8409C7.79421 95.9304 8.17347 96.054 8.59109 96.2116C9.01296 96.3693 9.41566 96.5845 9.79918 96.8572C10.187 97.1257 10.5066 97.4709 10.758 97.8928C11.0094 98.3146 11.1351 98.8324 11.1351 99.446C11.1351 100.153 10.9498 100.793 10.579 101.364C10.2125 101.935 9.6756 102.388 8.96822 102.725C8.26509 103.062 7.41069 103.23 6.40501 103.23C5.46751 103.23 4.65572 103.079 3.96964 102.776C3.28782 102.474 2.75089 102.052 2.35884 101.511C1.97106 100.969 1.7516 100.341 1.70046 99.625H3.33683C3.37944 100.119 3.54563 100.528 3.8354 100.852C4.12944 101.172 4.50018 101.411 4.94762 101.568C5.39933 101.722 5.88512 101.798 6.40501 101.798C7.01012 101.798 7.55344 101.7 8.03498 101.504C8.51651 101.304 8.89791 101.027 9.17916 100.673C9.46041 100.315 9.60103 99.8977 9.60103 99.4205C9.60103 98.9858 9.47958 98.6321 9.23668 98.3594C8.99379 98.0866 8.67418 97.8651 8.27788 97.6946C7.88157 97.5241 7.4533 97.375 6.99308 97.2472L5.38228 96.7869C4.35955 96.4929 3.54989 96.0732 2.9533 95.5277C2.35671 94.9822 2.05842 94.2685 2.05842 93.3864C2.05842 92.6534 2.25657 92.0142 2.65288 91.4688C3.05344 90.919 3.59038 90.4929 4.26367 90.1903C4.94123 89.8835 5.69762 89.7301 6.53285 89.7301C7.3766 89.7301 8.1266 89.8814 8.78285 90.1839C9.4391 90.4822 9.95898 90.8913 10.3425 91.4112C10.7303 91.9311 10.9348 92.5213 10.9561 93.1818H9.42205ZM17.5256 103.205C16.6392 103.205 15.8615 102.994 15.1925 102.572C14.5277 102.15 14.0078 101.56 13.6328 100.801C13.2621 100.043 13.0767 99.1562 13.0767 98.142C13.0767 97.1193 13.2621 96.2266 13.6328 95.4638C14.0078 94.701 14.5277 94.1087 15.1925 93.6868C15.8615 93.2649 16.6392 93.054 17.5256 93.054C18.4119 93.054 19.1875 93.2649 19.8523 93.6868C20.5213 94.1087 21.0412 94.701 21.4119 95.4638C21.7869 96.2266 21.9744 97.1193 21.9744 98.142C21.9744 99.1562 21.7869 100.043 21.4119 100.801C21.0412 101.56 20.5213 102.15 19.8523 102.572C19.1875 102.994 18.4119 103.205 17.5256 103.205ZM17.5256 101.849C18.1989 101.849 18.7528 101.677 19.1875 101.332C19.6222 100.987 19.9439 100.533 20.1527 99.9702C20.3615 99.4077 20.4659 98.7983 20.4659 98.142C20.4659 97.4858 20.3615 96.8743 20.1527 96.3075C19.9439 95.7408 19.6222 95.2827 19.1875 94.9332C18.7528 94.5838 18.1989 94.4091 17.5256 94.4091C16.8523 94.4091 16.2983 94.5838 15.8636 94.9332C15.429 95.2827 15.1072 95.7408 14.8984 96.3075C14.6896 96.8743 14.5852 97.4858 14.5852 98.142C14.5852 98.7983 14.6896 99.4077 14.8984 99.9702C15.1072 100.533 15.429 100.987 15.8636 101.332C16.2983 101.677 16.8523 101.849 17.5256 101.849ZM28.2658 103.205C27.3453 103.205 26.5527 102.987 25.888 102.553C25.2232 102.118 24.7118 101.519 24.3539 100.756C23.9959 99.9936 23.8169 99.1222 23.8169 98.142C23.8169 97.1449 24.0002 96.2649 24.3667 95.5021C24.7374 94.7351 25.253 94.1364 25.9135 93.706C26.5783 93.2713 27.3539 93.054 28.2402 93.054C28.9306 93.054 29.5527 93.1818 30.1067 93.4375C30.6607 93.6932 31.1145 94.0511 31.4682 94.5114C31.8219 94.9716 32.0414 95.5085 32.1266 96.1222H30.6181C30.503 95.6747 30.2473 95.2784 29.851 94.9332C29.459 94.5838 28.9306 94.4091 28.2658 94.4091C27.6777 94.4091 27.1621 94.5625 26.7189 94.8693C26.28 95.1719 25.937 95.6001 25.6898 96.1541C25.4469 96.7038 25.3255 97.3494 25.3255 98.0909C25.3255 98.8494 25.4448 99.5099 25.6834 100.072C25.9263 100.635 26.2672 101.072 26.7061 101.383C27.1493 101.694 27.6692 101.849 28.2658 101.849C28.6578 101.849 29.0137 101.781 29.3333 101.645C29.6529 101.509 29.9235 101.312 30.1451 101.057C30.3667 100.801 30.5243 100.494 30.6181 100.136H32.1266C32.0414 100.716 31.8304 101.238 31.4938 101.702C31.1614 102.163 30.7203 102.529 30.1706 102.802C29.6252 103.07 28.9902 103.205 28.2658 103.205ZM35.7381 99.4205L35.7125 97.554H36.0194L40.3148 93.1818H42.1813L37.6046 97.8097H37.4767L35.7381 99.4205ZM34.3319 103V89.9091H35.8404V103H34.3319ZM40.5705 103L36.7353 98.142L37.8091 97.0938L42.4881 103H40.5705ZM47.8351 103.205C46.889 103.205 46.073 102.996 45.3869 102.578C44.7051 102.156 44.1788 101.568 43.8081 100.814C43.4416 100.055 43.2583 99.1733 43.2583 98.1676C43.2583 97.1619 43.4416 96.2756 43.8081 95.5085C44.1788 94.7372 44.6944 94.1364 45.3549 93.706C46.0197 93.2713 46.7953 93.054 47.6816 93.054C48.193 93.054 48.698 93.1392 49.1966 93.3097C49.6951 93.4801 50.149 93.7571 50.5581 94.1406C50.9672 94.5199 51.2931 95.0227 51.536 95.6491C51.7789 96.2756 51.9004 97.0469 51.9004 97.9631V98.6023H44.3322V97.2983H50.3663C50.3663 96.7443 50.2555 96.25 50.0339 95.8153C49.8166 95.3807 49.5055 95.0376 49.1007 94.7862C48.7001 94.5348 48.2271 94.4091 47.6816 94.4091C47.0808 94.4091 46.5609 94.5582 46.122 94.8565C45.6873 95.1506 45.3528 95.5341 45.1184 96.0071C44.8841 96.4801 44.7669 96.9872 44.7669 97.5284V98.3977C44.7669 99.1392 44.8947 99.7678 45.1504 100.283C45.4103 100.795 45.7704 101.185 46.2306 101.453C46.6909 101.717 47.2257 101.849 47.8351 101.849C48.2314 101.849 48.5893 101.794 48.9089 101.683C49.2328 101.568 49.5119 101.398 49.7463 101.172C49.9806 100.942 50.1618 100.656 50.2896 100.315L51.747 100.724C51.5936 101.219 51.3358 101.653 50.9735 102.028C50.6113 102.399 50.1639 102.689 49.6312 102.898C49.0985 103.102 48.4998 103.205 47.8351 103.205ZM58.465 93.1818V94.4602H53.377V93.1818H58.465ZM54.8599 90.8295H56.3684V100.188C56.3684 100.614 56.4302 100.933 56.5538 101.146C56.6816 101.355 56.8436 101.496 57.0396 101.568C57.2399 101.636 57.4508 101.67 57.6724 101.67C57.8386 101.67 57.975 101.662 58.0815 101.645C58.188 101.624 58.2733 101.607 58.3372 101.594L58.644 102.949C58.5417 102.987 58.399 103.026 58.2157 103.064C58.0325 103.107 57.8002 103.128 57.519 103.128C57.0929 103.128 56.6752 103.036 56.2662 102.853C55.8613 102.67 55.5247 102.391 55.2562 102.016C54.992 101.641 54.8599 101.168 54.8599 100.597V90.8295ZM61.8336 103.102C61.5183 103.102 61.2477 102.989 61.0218 102.763C60.796 102.538 60.6831 102.267 60.6831 101.952C60.6831 101.636 60.796 101.366 61.0218 101.14C61.2477 100.914 61.5183 100.801 61.8336 100.801C62.149 100.801 62.4196 100.914 62.6454 101.14C62.8713 101.366 62.9842 101.636 62.9842 101.952C62.9842 102.161 62.9309 102.352 62.8244 102.527C62.7221 102.702 62.5836 102.842 62.4089 102.949C62.2385 103.051 62.0467 103.102 61.8336 103.102ZM65.6912 103V93.1818H67.1998V103H65.6912ZM66.4583 91.5455C66.1642 91.5455 65.9107 91.4453 65.6976 91.245C65.4888 91.0447 65.3844 90.804 65.3844 90.5227C65.3844 90.2415 65.4888 90.0007 65.6976 89.8004C65.9107 89.6001 66.1642 89.5 66.4583 89.5C66.7523 89.5 67.0037 89.6001 67.2125 89.8004C67.4256 90.0007 67.5321 90.2415 67.5321 90.5227C67.5321 90.804 67.4256 91.0447 67.2125 91.245C67.0037 91.4453 66.7523 91.5455 66.4583 91.5455ZM73.9513 103.205C73.065 103.205 72.2873 102.994 71.6183 102.572C70.9535 102.15 70.4336 101.56 70.0586 100.801C69.6879 100.043 69.5025 99.1562 69.5025 98.142C69.5025 97.1193 69.6879 96.2266 70.0586 95.4638C70.4336 94.701 70.9535 94.1087 71.6183 93.6868C72.2873 93.2649 73.065 93.054 73.9513 93.054C74.8377 93.054 75.6133 93.2649 76.2781 93.6868C76.9471 94.1087 77.467 94.701 77.8377 95.4638C78.2127 96.2266 78.4002 97.1193 78.4002 98.142C78.4002 99.1562 78.2127 100.043 77.8377 100.801C77.467 101.56 76.9471 102.15 76.2781 102.572C75.6133 102.994 74.8377 103.205 73.9513 103.205ZM73.9513 101.849C74.6246 101.849 75.1786 101.677 75.6133 101.332C76.0479 100.987 76.3697 100.533 76.5785 99.9702C76.7873 99.4077 76.8917 98.7983 76.8917 98.142C76.8917 97.4858 76.7873 96.8743 76.5785 96.3075C76.3697 95.7408 76.0479 95.2827 75.6133 94.9332C75.1786 94.5838 74.6246 94.4091 73.9513 94.4091C73.2781 94.4091 72.7241 94.5838 72.2894 94.9332C71.8548 95.2827 71.533 95.7408 71.3242 96.3075C71.1154 96.8743 71.011 97.4858 71.011 98.142C71.011 98.7983 71.1154 99.4077 71.3242 99.9702C71.533 100.533 71.8548 100.987 72.2894 101.332C72.7241 101.677 73.2781 101.849 73.9513 101.849Z" fill="#5D6AD8"/>
<g clip-path="url(#clip0_4_139)">
<g clip-path="url(#clip1_4_139)">
<path d="M54.848 51.9782H61.924V36.1635L53.9518 28.743L48.9482 33.4004L54.848 38.892V51.978V51.9782ZM61.9427 55.28H37.2608L31.3609 49.7886L33.8628 47.4599L38.7357 51.9956H48.7614L38.8851 42.7851L41.4055 40.439L51.2819 49.6323V40.2997L46.4278 35.7813L48.9108 33.4698L36.6447 22H12L19.0573 28.5691V28.5865H33.6947L38.8664 33.4004L31.305 40.4388L26.1333 35.6249V31.8885H19.0573V38.3534L31.305 49.7538L26.3199 54.3938L34.2921 61.8145H69L61.9427 55.28Z" fill="white"/>
</g>
</g>
<defs>
<clipPath id="clip0_4_139">
<rect width="55" height="58" fill="white" transform="translate(13 15)"/>
</clipPath>
<clipPath id="clip1_4_139">
<rect width="57" height="40" fill="white" transform="translate(12 22)"/>
</clipPath>
</defs>
</svg>
