<svg width="80" height="107" viewBox="0 0 80 107" fill="none" xmlns="http://www.w3.org/2000/svg">
<circle cx="40" cy="40" r="40" fill="#FF4242"/>
<g clip-path="url(#clip0_1_9)">
<path d="M50.6541 47.3833C52.4666 47.2271 53.8687 45.6333 53.7791 43.7292C53.6812 41.825 52.1208 40.2958 50.2187 40.2958H50.0916C49.1477 40.3295 48.2558 40.7366 47.612 41.4277C46.9681 42.1188 46.6251 43.0373 46.6583 43.9813C46.7208 44.9792 47.1291 45.7917 47.6875 46.3833C45.5041 50.6292 42.2271 53.75 37.2604 56.3729C33.9208 58.1188 30.3937 58.7771 26.9604 58.3104C24.0896 57.9042 21.8437 56.6229 20.4687 54.5625C18.4104 51.4396 18.2229 48.0708 19.9375 44.7C21.1875 42.2625 23.0604 40.4854 24.3104 39.6104C23.933 38.5641 23.6404 37.4891 23.4354 36.3958C14.1916 43.0167 15.1333 52.0667 17.9416 56.3438C20.0333 59.4646 24.3104 61.4604 28.9916 61.4604C30.2416 61.4604 31.5541 61.3688 32.8312 61.0563C40.95 59.4958 47.0979 54.6271 50.625 47.4479L50.6541 47.3833ZM61.7958 39.5792C56.9625 33.8958 49.8416 30.775 41.725 30.775H40.6625C40.1354 29.6208 38.9187 28.9021 37.5416 28.9021H37.4479C35.4833 28.9021 33.9521 30.5896 34.0166 32.5542C34.0791 34.425 35.6708 35.9875 37.575 35.9875H37.7291C38.4045 35.9614 39.0581 35.7415 39.6119 35.3539C40.1657 34.9664 40.5962 34.4277 40.8521 33.8021H42.0083C46.8187 33.8021 51.3729 35.2063 55.525 37.9521C58.7062 40.0458 60.9875 42.7917 62.2687 46.0708C63.3896 48.7542 63.3291 51.3771 62.175 53.5646C60.3937 56.9958 57.3958 58.8083 53.4333 58.8083C50.9354 58.8083 48.5021 58.0271 47.2521 57.4667C46.5021 58.0875 45.2521 59.1188 44.3479 59.7438C47.0937 60.9896 49.8729 61.7083 52.5562 61.7083C58.6437 61.7083 63.1687 58.2771 64.8875 54.9667C66.7583 51.2208 66.6041 44.9167 61.825 39.5167L61.7958 39.5792ZM29.5208 48.5042C29.5833 50.3771 31.1729 51.9375 33.0791 51.9375H33.2041C33.6733 51.9269 34.1355 51.8225 34.5637 51.6306C34.9919 51.4386 35.3773 51.1628 35.6972 50.8196C36.0172 50.4763 36.2652 50.0725 36.4267 49.6319C36.5882 49.1913 36.6598 48.7229 36.6375 48.2542C36.6375 46.3792 35.0146 44.8229 33.1104 44.8229H32.9854C32.8604 44.8229 32.6729 44.8229 32.5146 44.8833C29.925 40.5125 28.8312 35.8271 29.2396 30.775C29.4896 26.9667 30.7396 23.6563 32.9833 20.9104C34.8583 18.5688 38.3854 17.4104 40.7896 17.3521C47.5312 17.225 50.3416 25.625 50.5583 28.9646L53.6791 29.9021C52.9604 19.6604 46.5958 14.2917 40.5083 14.2917C34.7916 14.2917 29.5208 18.4438 27.3958 24.5313C24.4937 32.6458 26.3979 40.4521 29.9583 46.6958C29.6458 47.1021 29.4583 47.8188 29.5208 48.5042Z" fill="white"/>
</g>
<path d="M14.9632 103V89.9091H19.3865C20.4092 89.9091 21.2487 90.0838 21.9049 90.4332C22.5612 90.7784 23.047 91.2536 23.3623 91.8587C23.6776 92.4638 23.8353 93.152 23.8353 93.9233C23.8353 94.6946 23.6776 95.3786 23.3623 95.9751C23.047 96.5717 22.5633 97.0405 21.9113 97.3814C21.2593 97.718 20.4262 97.8864 19.412 97.8864H15.8325V96.4545H19.3609C20.0597 96.4545 20.6222 96.3523 21.0484 96.1477C21.4788 95.9432 21.7899 95.6534 21.9816 95.2784C22.1776 94.8991 22.2757 94.4474 22.2757 93.9233C22.2757 93.3991 22.1776 92.9411 21.9816 92.549C21.7856 92.157 21.4724 91.8544 21.042 91.6413C20.6116 91.424 20.0427 91.3153 19.3353 91.3153H16.5484V103H14.9632ZM21.1251 97.1193L24.3467 103H22.5058L19.3353 97.1193H21.1251ZM30.2833 103.205C29.3373 103.205 28.5212 102.996 27.8351 102.578C27.1533 102.156 26.627 101.568 26.2563 100.814C25.8898 100.055 25.7066 99.1733 25.7066 98.1676C25.7066 97.1619 25.8898 96.2756 26.2563 95.5085C26.627 94.7372 27.1427 94.1364 27.8032 93.706C28.468 93.2713 29.2435 93.054 30.1299 93.054C30.6412 93.054 31.1462 93.1392 31.6448 93.3097C32.1434 93.4801 32.5972 93.7571 33.0063 94.1406C33.4154 94.5199 33.7414 95.0227 33.9843 95.6491C34.2272 96.2756 34.3486 97.0469 34.3486 97.9631V98.6023H26.7805V97.2983H32.8145C32.8145 96.7443 32.7037 96.25 32.4822 95.8153C32.2648 95.3807 31.9537 95.0376 31.5489 94.7862C31.1483 94.5348 30.6753 94.4091 30.1299 94.4091C29.529 94.4091 29.0091 94.5582 28.5702 94.8565C28.1356 95.1506 27.801 95.5341 27.5667 96.0071C27.3323 96.4801 27.2151 96.9872 27.2151 97.5284V98.3977C27.2151 99.1392 27.343 99.7678 27.5986 100.283C27.8586 100.795 28.2187 101.185 28.6789 101.453C29.1391 101.717 29.6739 101.849 30.2833 101.849C30.6796 101.849 31.0376 101.794 31.3572 101.683C31.681 101.568 31.9601 101.398 32.1945 101.172C32.4289 100.942 32.61 100.656 32.7378 100.315L34.1952 100.724C34.0418 101.219 33.784 101.653 33.4218 102.028C33.0596 102.399 32.6121 102.689 32.0795 102.898C31.5468 103.102 30.9481 103.205 30.2833 103.205ZM40.3508 103.205C39.5326 103.205 38.8103 102.998 38.1839 102.585C37.5574 102.167 37.0674 101.579 36.7137 100.82C36.36 100.058 36.1831 99.1562 36.1831 98.1165C36.1831 97.0852 36.36 96.1903 36.7137 95.4318C37.0674 94.6733 37.5596 94.0874 38.1903 93.674C38.8209 93.2607 39.5496 93.054 40.3763 93.054C41.0155 93.054 41.5205 93.1605 41.8912 93.3736C42.2662 93.5824 42.5518 93.821 42.7478 94.0895C42.9481 94.3537 43.1036 94.571 43.2144 94.7415H43.3422V89.9091H44.8508V103H43.3934V101.491H43.2144C43.1036 101.67 42.9459 101.896 42.7414 102.169C42.5368 102.437 42.2449 102.678 41.8657 102.891C41.4864 103.1 40.9814 103.205 40.3508 103.205ZM40.5553 101.849C41.1604 101.849 41.6718 101.692 42.0894 101.376C42.507 101.057 42.8245 100.616 43.0418 100.053C43.2591 99.4865 43.3678 98.8324 43.3678 98.0909C43.3678 97.358 43.2613 96.7166 43.0482 96.1669C42.8351 95.6129 42.5198 95.1825 42.1022 94.8757C41.6846 94.5646 41.1689 94.4091 40.5553 94.4091C39.9161 94.4091 39.3834 94.5732 38.9573 94.9013C38.5354 95.2251 38.218 95.6662 38.0049 96.2244C37.7961 96.7784 37.6917 97.4006 37.6917 98.0909C37.6917 98.7898 37.7982 99.4247 38.0113 99.9957C38.2286 100.562 38.5482 101.014 38.9701 101.351C39.3962 101.683 39.9246 101.849 40.5553 101.849ZM54.0106 98.9858V93.1818H55.5191V103H54.0106V101.338H53.9083C53.6782 101.837 53.3202 102.261 52.8344 102.61C52.3486 102.955 51.735 103.128 50.9935 103.128C50.3799 103.128 49.8344 102.994 49.3572 102.725C48.8799 102.452 48.5049 102.043 48.2322 101.498C47.9594 100.948 47.8231 100.256 47.8231 99.4205V93.1818H49.3316V99.3182C49.3316 100.034 49.5319 100.605 49.9324 101.031C50.3373 101.457 50.8529 101.67 51.4793 101.67C51.8543 101.67 52.2357 101.575 52.6235 101.383C53.0155 101.191 53.3437 100.897 53.6079 100.501C53.8763 100.104 54.0106 99.5994 54.0106 98.9858ZM59.407 93.1818L61.7593 97.196L64.1116 93.1818H65.8502L62.6798 98.0909L65.8502 103H64.1116L61.7593 99.1903L59.407 103H57.6684L60.7877 98.0909L57.6684 93.1818H59.407Z" fill="#FF4242"/>
<defs>
<clipPath id="clip0_1_9">
<rect width="50" height="50" fill="white" transform="translate(16 13)"/>
</clipPath>
</defs>
</svg>
